<?xml version="1.0" encoding="utf-8"?>
<!-- Generator: Adobe Illustrator 19.2.1, SVG Export Plug-In . SVG Version: 6.00 Build 0)  -->
<svg version="1.1" xmlns="http://www.w3.org/2000/svg" xmlns:xlink="http://www.w3.org/1999/xlink" x="0px" y="0px"
	 viewBox="0 0 283.406 283.406" enable-background="new 0 0 283.406 283.406" xml:space="preserve">
<g id="logo" display="none">
</g>
<g id="Layer_1">
	<path fill="#111111" d="M210.268,130.681l-52.104,110.793c-3.006,6.298-9.59,10.163-16.461,10.163s-13.455-3.865-16.318-10.163
		L73.137,130.681c-3.721-7.872-4.723-16.891-4.723-25.622c0-40.51,32.779-73.289,73.289-73.289s73.289,32.779,73.289,73.289
		C214.992,113.79,213.99,122.809,210.268,130.681z M141.703,68.414c-20.184,0-36.645,16.461-36.645,36.645
		s16.461,36.645,36.645,36.645s36.645-16.461,36.645-36.645S161.887,68.414,141.703,68.414z"/>
</g>
</svg>
