<?xml version="1.0" encoding="utf-8"?>
<!-- Generator: Adobe Illustrator 19.2.1, SVG Export Plug-In . SVG Version: 6.00 Build 0)  -->
<svg version="1.1" xmlns="http://www.w3.org/2000/svg" xmlns:xlink="http://www.w3.org/1999/xlink" x="0px" y="0px"
	 viewBox="0 0 326.185 207.463" enable-background="new 0 0 326.185 207.463" xml:space="preserve">
<g id="logo" display="none">
</g>
<g id="Layer_1">
	<g>
		<g>
			<path fill="#000111" d="M181.461,61.229c0-14.156-0.011-28.078,0.004-41.999c0.009-8.317,3.908-14.322,11.402-17.628
				c2.696-1.189,5.96-1.468,8.972-1.497c14.81-0.144,29.622-0.118,44.432-0.049c13.089,0.061,20.429,7.596,20.423,20.745
				c-0.01,21.064-0.012,42.129,0.003,63.193c0.008,11.504-7.397,19.536-18.805,19.693c-15.905,0.219-31.817,0.184-47.723,0.001
				c-9.1-0.105-15.451-5.259-18.117-13.981c-0.119-0.389-0.3-0.759-0.561-1.41c-2.141,0.883-4.177,1.635-6.119,2.579
				c-0.551,0.268-1.177,1.092-1.183,1.667c-0.08,7.325-0.052,14.65-0.052,22.316c8.671,0,17.059,0,25.633,0c0,2.573,0,4.803,0,7.205
				c-35.66,0-71.169,0-106.941,0c0-2.21,0-4.441,0-7.07c4.689,0,9.448,0,14.641,0c0-1.558,0-2.729,0-3.9
				c-0.001-8.338,0.004-16.676-0.003-25.014c-0.01-11.262,7.496-19.047,18.814-19.276c7.348-0.149,14.729-0.443,22.045,0.059
				c10.869,0.747,21.08-1.708,31.214-5.056C180.052,61.637,180.576,61.494,181.461,61.229z M188.854,54.951
				c0.263,0.081,0.525,0.163,0.788,0.244c3.396-5.081,6.783-10.169,10.193-15.241c2.32-3.45,4.526-3.711,7.44-0.849
				c3.05,2.997,5.977,6.124,9.099,9.042c2.458,2.298,2.629,4.461,0.617,7.171c-4.115,5.543-8.217,11.108-12.024,16.864
				c-3.631,5.491-7.508,10.444-14.316,12.205c-0.719,0.186-1.592,1.968-1.463,2.876c0.756,5.298,5.122,9.004,11.24,9.067
				c15.789,0.163,31.582,0.203,47.369-0.015c7.288-0.1,11.422-4.776,11.427-12.028c0.014-21.712,0.018-43.424-0.004-65.135
				c-0.007-6.745-4.222-11.499-10.81-11.565c-16.227-0.163-32.458-0.161-48.685,0.003c-6.4,0.065-10.722,4.819-10.859,11.279
				c-0.07,3.288-0.013,6.579-0.013,9.869C188.854,37.476,188.854,46.214,188.854,54.951z M144.389,89.244
				c-1.375-0.258-2.43-0.456-3.436-0.645c0-2.388,0-4.629,0-6.833c5.007,0,9.755,0,14.501,0c0,2.453,0,4.61,0,6.883
				c-1.205,0.196-2.265,0.369-3.362,0.547c0,8.566,0,17.043,0,25.509c4.936,0,9.606,0,14.641,0c0-8.17,0.122-16.154-0.062-24.132
				c-0.07-3.024,1.136-4.645,3.788-5.744c6.982-2.892,13.92-5.889,20.855-8.893c1.083-0.469,2.375-0.962,3.024-1.845
				c5.245-7.145,10.359-14.387,15.191-21.149c-1.846-2.208-3.478-4.159-5.257-6.285c-4.008,6.001-7.621,11.629-11.5,17.067
				c-0.987,1.384-2.673,2.626-4.29,3.142c-6.674,2.13-13.408,4.104-20.198,5.831c-3.245,0.825-6.658,1.303-10.004,1.358
				c-10.42,0.17-20.845,0.004-31.267,0.083c-7.801,0.059-12.144,4.546-12.151,12.333c-0.007,8.338-0.007,16.677,0.006,25.015
				c0.002,1.058,0.105,2.116,0.162,3.177c2.504,0,4.734,0,7.273,0c0-8.624,0-17.016,0-25.479c2.552,0,4.785,0,7.378,0
				c0,8.643,0,17.044,0,25.459c5.118,0,9.87,0,14.709,0C144.389,106.07,144.389,97.754,144.389,89.244z"/>
			<path fill="#000111" d="M107.465,52.122c0,3.449,0.248,6.757-0.112,9.998c-0.164,1.478-1.225,3.441-2.442,4.039
				c-1.029,0.505-3.261-0.21-4.28-1.134c-3.897-3.534-7.401-7.503-11.311-11.021c-1.298-1.168-3.344-1.952-5.105-2.07
				c-4.37-0.292-8.773-0.038-13.161-0.113c-7.405-0.127-11.742-4.587-11.786-12.045c-0.026-4.389-0.042-8.779,0.005-13.168
				c0.073-6.88,4.265-11.549,11.146-11.672c12.286-0.219,24.581-0.213,36.867-0.008c7.005,0.116,11.183,4.818,11.238,11.921
				c0.029,3.84,0.004,7.681,0.005,11.522C118.529,46.767,115.956,50.068,107.465,52.122z M99.537,53.939
				c0.253-1.227,0.386-1.615,0.406-2.009c0.35-6.725,0.347-6.729,7.125-7.454c2.536-0.271,4.028-1.468,4.003-4.215
				c-0.04-4.496-0.075-8.994,0.016-13.488c0.058-2.87-1.346-4.475-4.052-4.497c-12.062-0.099-24.126-0.098-36.188-0.012
				c-2.675,0.019-4.191,1.515-4.138,4.419c0.079,4.275-0.006,8.554,0.026,12.83c0.028,3.772,1.115,4.91,4.888,4.956
				c5.154,0.062,10.323-0.205,15.455,0.129c1.97,0.128,4.14,1.166,5.716,2.422C95.138,48.887,97.035,51.315,99.537,53.939z"/>
			<path fill="#000111" d="M170.345,37.224c-0.035,12.214-9.994,22.058-22.253,21.994c-12.444-0.065-22.181-9.955-22.114-22.462
				c0.064-11.993,9.943-21.777,22.089-21.877C160.35,14.778,170.38,24.838,170.345,37.224z M162.978,37.309
				c0.067-8.204-6.447-14.883-14.667-15.041c-7.899-0.151-14.851,6.544-14.965,14.412c-0.122,8.442,6.44,15.136,14.83,15.128
				C156.302,51.8,162.912,45.325,162.978,37.309z"/>
			<path fill="#000111" d="M207.427,207.231c-2.719,0-4.961,0-7.804,0c0.394-4.377,0.061-8.701,1.28-12.531
				c2.509-7.884,8.212-12.758,16.7-13.006c8.848-0.259,17.742-0.176,26.57,0.426c7.439,0.508,14.282,7.903,14.924,15.306
				c0.273,3.143,0.046,6.329,0.046,9.766c-2.349,0-4.573,0-7.269,0c0-2.22,0.017-4.471-0.003-6.721
				c-0.057-6.237-3.795-10.921-10.038-11.246c-8.182-0.426-16.42-0.393-24.603,0.039c-5.903,0.312-9.598,4.856-9.791,10.798
				C207.365,202.348,207.427,204.638,207.427,207.231z"/>
			<path fill="#000111" d="M125.982,207.265c-2.595,0-4.832,0-7.452,0c0-2.457,0.049-4.73-0.009-7
				c-0.157-6.14-3.831-10.7-9.92-11.021c-8.182-0.431-16.422-0.437-24.603,0.001c-6.178,0.331-9.869,5.056-9.915,11.351
				c-0.016,2.17-0.003,4.339-0.003,6.677c-2.538,0-4.787,0-7.006,0c-1.814-11.702,1.646-19.749,10.478-23.975
				c2.012-0.963,4.396-1.581,6.616-1.601c8.749-0.077,17.533-0.273,26.244,0.381c8.26,0.619,15.041,8.313,15.544,16.559
				C126.122,201.36,125.982,204.102,125.982,207.265z"/>
			<path fill="#000111" d="M192.586,207.308c-2.586,0-4.741,0-7.328,0c0-2.402,0.035-4.663-0.007-6.921
				c-0.114-6.077-3.868-10.814-9.844-11.12c-8.292-0.425-16.637-0.409-24.93,0.008c-5.789,0.291-9.611,5.021-9.769,10.854
				c-0.062,2.288-0.01,4.579-0.01,7.335c-1.405,0-2.568,0-3.732,0c-1.079,0-2.158,0-3.169,0
				c-2.145-11.195,1.516-19.845,10.298-24.092c2.102-1.017,4.601-1.676,6.924-1.693c8.859-0.065,17.746-0.165,26.573,0.451
				c7.588,0.53,14.504,8.37,14.964,16.031C192.734,201.101,192.586,204.06,192.586,207.308z"/>
			<path fill="#000111" d="M214.704,122.074c-2.439,0-4.679,0-7.095,0c0-2.395,0-4.638,0-7.006c2.429,0,4.67,0,7.095,0
				C214.704,117.373,214.704,119.516,214.704,122.074z"/>
			<path fill="#000111" d="M200.151,25.765c0-2.462,0-4.612,0-6.959c15.931,0,31.677,0,47.697,0c0,2.247,0,4.483,0,6.959
				C232.06,25.765,216.228,25.765,200.151,25.765z"/>
			<path fill="#000111" d="M207.577,85.042c0-2.379,0-4.531,0-6.927c13.442,0,26.736,0,40.288,0c0,2.234,0,4.467,0,6.927
				C234.551,85.042,221.237,85.042,207.577,85.042z"/>
			<path fill="#000111" d="M218.653,70.172c0-2.432,0-4.574,0-6.958c9.77,0,19.416,0,29.266,0c0,2.317,0,4.54,0,6.958
				C238.181,70.172,228.61,70.172,218.653,70.172z"/>
			<path fill="#000111" d="M247.947,33.555c0,2.31,0,4.459,0,6.895c-9.66,0-19.315,0-29.215,0c0-2.222,0-4.448,0-6.895
				C228.472,33.555,238.122,33.555,247.947,33.555z"/>
			<path fill="#000111" d="M226.177,55.419c0-2.302,0-4.455,0-6.896c7.146,0,14.298,0,21.699,0c0,2.215,0,4.447,0,6.896
				C240.678,55.419,233.519,55.419,226.177,55.419z"/>
			<path fill="#000111" d="M74.181,36.89c0-2.396,0-4.564,0-6.978c9.754,0,19.422,0,29.312,0c0,2.255,0,4.492,0,6.978
				C93.868,36.89,84.202,36.89,74.181,36.89z"/>
			<g>
				<path fill="#000111" d="M96.333,174.89c-10.504,0-19.051-8.546-19.051-19.05c0-10.504,8.546-19.05,19.051-19.05
					s19.05,8.546,19.05,19.05C115.383,166.344,106.837,174.89,96.333,174.89z M96.333,144.032c-6.51,0-11.807,5.297-11.807,11.807
					s5.297,11.807,11.807,11.807c6.51,0,11.807-5.297,11.807-11.807S102.843,144.032,96.333,144.032z"/>
			</g>
			<g>
				<path fill="#000111" d="M162.922,174.89c-10.504,0-19.051-8.546-19.051-19.05c0-10.504,8.546-19.05,19.051-19.05
					c10.504,0,19.051,8.546,19.051,19.05C181.973,166.344,173.426,174.89,162.922,174.89z M162.922,144.032
					c-6.51,0-11.807,5.297-11.807,11.807s5.297,11.807,11.807,11.807s11.807-5.297,11.807-11.807S169.432,144.032,162.922,144.032z"
					/>
			</g>
			<path fill="#000111" d="M59.375,207.265c-2.595,0-4.832,0-7.452,0c0-2.457,0.049-4.73-0.009-7
				c-0.157-6.14-3.831-10.7-9.92-11.021c-8.182-0.431-16.422-0.437-24.603,0.001c-6.178,0.331-9.869,5.056-9.915,11.351
				c-0.016,2.17-0.003,4.339-0.003,6.677c-2.538,0-4.787,0-7.006,0c-1.814-11.702,1.646-19.749,10.478-23.975
				c2.012-0.963,4.396-1.581,6.616-1.601c8.749-0.077,17.533-0.273,26.244,0.381c8.26,0.619,15.041,8.313,15.544,16.559
				C59.515,201.36,59.375,204.102,59.375,207.265z"/>
			<g>
				<path fill="#000111" d="M29.726,174.89c-10.504,0-19.051-8.546-19.051-19.05c0-10.504,8.546-19.05,19.051-19.05
					s19.05,8.546,19.05,19.05C48.776,166.344,40.23,174.89,29.726,174.89z M29.726,144.032c-6.51,0-11.807,5.297-11.807,11.807
					s5.297,11.807,11.807,11.807s11.807-5.297,11.807-11.807S36.236,144.032,29.726,144.032z"/>
			</g>
			<g>
				<path fill="#000111" d="M229.511,174.89c-10.504,0-19.051-8.546-19.051-19.05c0-10.504,8.546-19.05,19.051-19.05
					c10.504,0,19.05,8.546,19.05,19.05C248.561,166.344,240.016,174.89,229.511,174.89z M229.511,144.032
					c-6.51,0-11.807,5.297-11.807,11.807s5.297,11.807,11.807,11.807c6.51,0,11.807-5.297,11.807-11.807
					S236.021,144.032,229.511,144.032z"/>
			</g>
			<path fill="#000111" d="M274.38,207.231c-2.719,0-4.961,0-7.804,0c0.394-4.377,0.061-8.701,1.28-12.531
				c2.509-7.884,8.212-12.758,16.7-13.006c8.848-0.259,17.742-0.176,26.57,0.426c7.439,0.508,14.282,7.903,14.924,15.306
				c0.273,3.143,0.046,6.329,0.046,9.766c-2.349,0-4.573,0-7.269,0c0-2.22,0.017-4.471-0.003-6.721
				c-0.057-6.237-3.795-10.921-10.038-11.246c-8.182-0.426-16.42-0.393-24.603,0.039c-5.903,0.312-9.598,4.856-9.791,10.798
				C274.317,202.348,274.38,204.638,274.38,207.231z"/>
			<g>
				<path fill="#000111" d="M296.463,174.89c-10.504,0-19.051-8.546-19.051-19.05c0-10.504,8.546-19.05,19.051-19.05
					c10.504,0,19.05,8.546,19.05,19.05C315.513,166.344,306.968,174.89,296.463,174.89z M296.463,144.032
					c-6.51,0-11.807,5.297-11.807,11.807s5.297,11.807,11.807,11.807c6.51,0,11.807-5.297,11.807-11.807
					S302.974,144.032,296.463,144.032z"/>
			</g>
		</g>
	</g>
</g>
</svg>
