<?xml version="1.0" encoding="utf-8"?>
<!-- Generator: Adobe Illustrator 19.2.1, SVG Export Plug-In . SVG Version: 6.00 Build 0)  -->
<svg version="1.1" xmlns="http://www.w3.org/2000/svg" xmlns:xlink="http://www.w3.org/1999/xlink" x="0px" y="0px"
	 viewBox="0 0 283.406 283.406" enable-background="new 0 0 283.406 283.406" xml:space="preserve">
<g id="logo" display="none">
</g>
<g id="Layer_1">
	<path fill="#111111" d="M238.038,220.002c-3.006,7.015-11.021,11.595-17.463,15.174c-8.445,4.58-17.033,7.3-26.625,7.3
		c-13.312,0-25.336-5.439-37.502-9.877c-8.732-3.149-17.178-7.014-25.051-11.881c-24.334-15.03-53.678-44.374-68.709-68.708
		c-4.867-7.873-8.73-16.318-11.881-25.051c-4.438-12.167-9.877-24.19-9.877-37.503c0-9.591,2.721-18.179,7.301-26.625
		c3.578-6.441,8.158-14.457,15.174-17.463c4.723-2.147,14.742-4.438,19.896-4.438c1.002,0,2.004,0,3.006,0.43
		c3.006,1.002,6.154,8.016,7.586,10.879c4.58,8.159,9.018,16.461,13.742,24.478c2.291,3.722,6.584,8.302,6.584,12.739
		c0,8.731-25.908,21.472-25.908,29.201c0,3.865,3.578,8.875,5.582,12.311c14.457,26.052,32.494,44.088,58.545,58.545
		c3.436,2.004,8.445,5.583,12.311,5.583c7.73,0,20.471-25.909,29.201-25.909c4.438,0,9.018,4.294,12.74,6.585
		c8.016,4.724,16.318,9.161,24.477,13.741c2.863,1.432,9.877,4.581,10.879,7.587c0.43,1.002,0.43,2.004,0.43,3.006
		C242.476,205.259,240.186,215.278,238.038,220.002z"/>
</g>
</svg>
