<?xml version="1.0" standalone="no"?>
<!DOCTYPE svg PUBLIC "-//W3C//DTD SVG 1.1//EN" "http://www.w3.org/Graphics/SVG/1.1/DTD/svg11.dtd" >
<svg xmlns="http://www.w3.org/2000/svg">
<metadata>
Created by FontPrep 20130207 at Fri Jun  3 11:04:27 2016
 By Tina Muller
Copyright (c) 2015 by Radomir Tinkov. All rights reserved.
</metadata>
<defs>
<font id="e8ef6df8d3b6269a771094c336372d26" horiz-adv-x='1024' >
  <font-face 
    font-family="Qanelas-SemiBold"
    font-weight="600"
    font-stretch="normal"
    units-per-em="2048"
    panose-1="0 0 7 0 0 0 0 0 0 0"
    ascent="1638"
    descent="-410"
    x-height="1024"
    cap-height="1434"
    bbox="-782 -522 2257 1987"
    underline-thickness="102"
    underline-position="-102"
    unicode-range="U+0020-FB02"
  />
<missing-glyph horiz-adv-x="1024" 
d="M682 -37h-340v-67h143l-143 -97v-67h340v67h-209l143 97h66v67zM614 174v-96h-204v96h204zM682 242h-340v-232h340v232zM682 596h-205v-115h70v47h67v-96h-204v164h-68v-231h340v231zM682 846h-68v-135h-272v-70h340v205zM682 969h-340v-68h135v-76h-135v-67h205v143h135
v68zM477 1167v-73h-67v73h67zM547 1237h-205v-213h340v70h-135v143zM682 1501h-338v-67h133v-76h-135v-68h340v68h-135v76h135v67zM840 1638v-2048h-650v2048h650z" />
    <glyph glyph-name="fi" unicode="fi" horiz-adv-x="1087" 
d="M958 1024v-1024h-221v811h-340v-811h-221v811h-156v213h156v20q0 416 465 416q111 0 225 -26v-203q-110 16 -230 16t-179 -45t-60 -158v-20h561z" />
    <glyph glyph-name="fl" unicode="fl" horiz-adv-x="1087" 
d="M641 1460q147 0 317 -37v-1423h-221v1262q-66 4 -96 4q-244 0 -244 -222v-20h193v-213h-193v-811h-221v811h-156v213h156v20q0 416 465 416z" />
    <glyph glyph-name="f_f" unicode="ff" horiz-adv-x="1204" 
d="M961 1024h243v-213h-243v-811h-222v811h-342v-811h-221v811h-156v213h156v20q0 211 119 321t346 95v-213q-244 23 -244 -203v-20h342v41q0 211 119 321t346 95v-213q-244 23 -243 -203v-41z" />
    <glyph glyph-name="f_f_i" unicode="ffi" horiz-adv-x="1650" 
d="M1522 1024v-1024h-222v811h-339v-811h-222v811h-342v-811h-221v811h-156v213h156v20q0 211 119 321t346 95v-213q-244 23 -244 -203v-20h342v41q0 416 465 416q111 0 226 -27v-203q-313 46 -410 -28q-59 -45 -59 -158v-41h561z" />
    <glyph glyph-name="f_f_l" unicode="ffl" horiz-adv-x="1650" 
d="M1204 1481q147 0 318 -37v-1444h-222v1282q-66 4 -96 4q-244 0 -243 -221v-41h192v-213h-192v-811h-222v811h-342v-811h-221v811h-156v213h156v20q0 211 119 321t346 95v-213q-244 23 -244 -203v-20h342v41q0 416 465 416z" />
    <glyph glyph-name=".notdef" horiz-adv-x="1024" 
d="M682 -37h-340v-67h143l-143 -97v-67h340v67h-209l143 97h66v67zM614 174v-96h-204v96h204zM682 242h-340v-232h340v232zM682 596h-205v-115h70v47h67v-96h-204v164h-68v-231h340v231zM682 846h-68v-135h-272v-70h340v205zM682 969h-340v-68h135v-76h-135v-67h205v143h135
v68zM477 1167v-73h-67v73h67zM547 1237h-205v-213h340v70h-135v143zM682 1501h-338v-67h133v-76h-135v-68h340v68h-135v76h135v67zM840 1638v-2048h-650v2048h650z" />
    <glyph glyph-name=".null" horiz-adv-x="0" 
 />
    <glyph glyph-name="nonmarkingreturn" horiz-adv-x="681" 
 />
    <glyph glyph-name="space" unicode=" " horiz-adv-x="512" 
 />
    <glyph glyph-name="exclam" unicode="!" horiz-adv-x="522" 
d="M133 0v256h256v-256h-256zM129 1434h266v-410l-47 -573h-174l-45 573v410z" />
    <glyph glyph-name="quotedbl" unicode="&#x22;" horiz-adv-x="727" 
d="M451 983l-31 451h215l-31 -451h-153zM123 983l-31 451h215l-31 -451h-153z" />
    <glyph glyph-name="numbersign" unicode="#" horiz-adv-x="1249" 
d="M723 614l35 205h-230l-34 -205h229zM1169 819h-229l-35 -205h232l-27 -174h-233l-56 -338h-182l55 338h-229l-55 -338h-183l56 338h-232l29 174h231l35 205h-233l28 174h234l57 338h182l-57 -338h229l58 338h182l-57 -338h229z" />
    <glyph glyph-name="dollar" unicode="$" horiz-adv-x="1120" 
d="M823 377q0 121 -194 201v-373q90 10 142 56t52 116zM326 1063q0 -119 170 -199v363q-78 -12 -124 -55t-46 -109zM1059 377q0 -175 -124 -281t-306 -121v-180h-133v182q-193 21 -314 139t-121 318h236q0 -190 199 -225v420q-90 33 -150 63q-172 85 -223 202
q-33 73 -33 169q0 170 117 273t289 122v180h133v-182q174 -20 289 -134t114 -306h-231q0 86 -46 139t-126 70v-412q80 -31 124 -49q43 -18 111 -58t104 -80t64 -106t27 -143z" />
    <glyph glyph-name="percent" unicode="%" horiz-adv-x="1601" 
d="M1164 156q64 0 106 43q41 43 41 105t-41 106q-42 44 -106 43q-64 0 -105 -43q-41 -44 -41 -106t41 -105t105 -43zM1164 631q142 0 238 -95q96 -94 97 -232q-1 -138 -97 -234t-238 -95q-142 -1 -238 95t-97 233q1 137 97 233t238 95zM291 1134q0 -62 41 -106
q42 -44 106 -43q64 0 105 43q41 44 41 106t-41 105t-105 43t-106 -43q-41 -43 -41 -105zM186 0l1006 1434h221l-1007 -1434h-220zM438 805q-143 0 -239 95q-97 94 -97 232t96 233t240 95q142 0 238 -94t96 -232t-95 -234q-96 -95 -239 -95z" />
    <glyph glyph-name="ampersand" unicode="&#x26;" horiz-adv-x="1427" 
d="M330 420q0 -102 76 -164t210 -63q133 0 232 55l-395 391q-123 -82 -123 -219zM612 -27q-230 0 -374 117q-145 117 -146 311q0 117 56 219t161 171q-92 119 -92 281t131 276q131 112 325 112q193 0 329 -114t137 -330h-236q0 104 -65 160q-66 55 -163 55t-159 -50
q-62 -49 -63 -139q0 -90 133 -223l407 -411q57 115 58 276h235q0 -252 -129 -442l240 -242h-297l-92 90q-166 -117 -396 -117z" />
    <glyph glyph-name="quotesingle" unicode="'" horiz-adv-x="399" 
d="M123 983l-31 451h215l-31 -451h-153z" />
    <glyph glyph-name="parenleft" unicode="(" horiz-adv-x="600" 
d="M113 717q0 471 225 921h221q-225 -452 -225 -922t225 -921h-221q-225 451 -225 922z" />
    <glyph glyph-name="parenright" unicode=")" horiz-adv-x="600" 
d="M266 717q0 471 -225 921h221q225 -452 225 -922t-225 -921h-221q225 451 225 922z" />
    <glyph glyph-name="asterisk" unicode="*" horiz-adv-x="811" 
d="M698 1247v-147l-184 12l109 -147l-127 -78l-90 170l-91 -170l-127 78l111 147l-186 -12v147l186 -12l-111 147l127 78l91 -170l90 170l127 -78l-109 -147z" />
    <glyph glyph-name="plus" unicode="+" horiz-adv-x="1126" 
d="M1014 821v-209h-346v-346h-209v346h-346v209h346v346h209v-346h346z" />
    <glyph glyph-name="comma" unicode="," horiz-adv-x="522" 
d="M133 256h256v-256q-1 -125 -67 -199t-189 -80v107q61 6 92 44t31 128h-123v256z" />
    <glyph glyph-name="hyphen" unicode="-" horiz-adv-x="1044" 
d="M143 516v213h758v-213h-758z" />
    <glyph glyph-name="period" unicode="." horiz-adv-x="522" 
d="M133 0v256h256v-256h-256z" />
    <glyph glyph-name="slash" unicode="/" horiz-adv-x="1075" 
d="M184 -205h-112l819 1843h113z" />
    <glyph glyph-name="zero" unicode="0" 
d="M646 203q159 0 243 133t84 381t-84 381t-243 133t-244 -133t-85 -381t85 -381t244 -133zM645 -27q-266 0 -415 203q-148 203 -148 541q0 339 148 541t414 202t416 -203q148 -203 148 -541t-148 -540q-148 -203 -415 -203z" />
    <glyph glyph-name="one" unicode="1" horiz-adv-x="757" 
d="M604 1434v-1434h-235v1192l-342 -186v241l342 187h235z" />
    <glyph glyph-name="two" unicode="2" horiz-adv-x="1087" 
d="M72 0v184l497 500q184 188 185 326q0 104 -60 162t-160 58q-98 0 -162 -55q-64 -56 -65 -169h-235q0 222 135 338t325 116t323 -118q134 -118 134 -334t-239 -457l-328 -324h594v-227h-944z" />
    <glyph glyph-name="three" unicode="3" horiz-adv-x="1105" 
d="M1034 434q0 -215 -145 -338t-357 -123t-356 123q-145 123 -145 338h235q0 -106 73 -168t195 -63q122 0 193 62q72 63 72 169t-72 168t-195 62h-135v155l293 393h-600v222h881v-201l-289 -383q158 -39 255 -147t97 -269z" />
    <glyph glyph-name="four" unicode="4" horiz-adv-x="1187" 
d="M1163 477v-219h-164v-258h-237v258h-715v219l494 957h256l-496 -957h461v373h237v-373h164z" />
    <glyph glyph-name="five" unicode="5" horiz-adv-x="1136" 
d="M580 893q209 0 350 -122t141 -337t-145 -338q-144 -123 -356 -123t-357 123t-145 338h235q0 -106 72 -168q71 -62 193 -63q122 0 195 62q73 63 73 169t-73 168t-194 62h-434l55 770h820v-222h-600l-25 -319h195z" />
    <glyph glyph-name="six" unicode="6" horiz-adv-x="1116" 
d="M558 197q120 1 196 73t75 193q1 121 -75 193t-196 73q-120 0 -196 -73q-76 -74 -76 -194t76 -193q76 -72 196 -72zM559 952q223 0 365 -136t141 -353q0 -217 -141 -353q-142 -136 -366 -136t-365 136t-142 353q0 164 86 289l455 682h268l-328 -482h27z" />
    <glyph glyph-name="seven" unicode="7" horiz-adv-x="1003" 
d="M31 1434h911v-205l-504 -1229h-248l494 1208h-653v226z" />
    <glyph glyph-name="eight" unicode="8" horiz-adv-x="1148" 
d="M842 420q0 106 -74 164t-194 59q-120 0 -194 -58q-74 -59 -73 -165q-1 -106 73 -164t194 -59q120 0 194 58q74 59 74 165zM574 1237q-95 0 -156 -51q-62 -52 -62 -146t62 -147t156 -53q93 0 157 53q63 53 63 147t-62 146q-63 52 -158 51zM1077 397q0 -197 -137 -311
q-136 -114 -364 -113q-228 0 -366 114t-138 310q0 111 55 201t156 145q-162 109 -162 306t131 305t322 106q191 0 324 -107q132 -109 132 -305t-164 -305q100 -55 156 -145t55 -201z" />
    <glyph glyph-name="nine" unicode="9" horiz-adv-x="1116" 
d="M559 1237q-119 -1 -195 -73t-77 -192q0 -120 77 -194q78 -74 196 -74t194 74q76 72 75 193q1 121 -75 193t-195 73zM1065 971q0 -164 -86 -289l-453 -682h-270l328 481h-25q-223 0 -365 136q-142 135 -142 353t142 354t365 136t365 -136t141 -353z" />
    <glyph glyph-name="colon" unicode=":" horiz-adv-x="522" 
d="M133 0v256h256v-256h-256zM133 768v256h256v-256h-256z" />
    <glyph glyph-name="semicolon" unicode=";" horiz-adv-x="522" 
d="M133 0v256h256v-256q-1 -125 -67 -199t-189 -80v107q61 6 92 44t31 128h-123zM133 1024h256v-256h-256v256z" />
    <glyph glyph-name="less" unicode="&#x3c;" horiz-adv-x="1075" 
d="M973 1198v-233l-619 -248l619 -248v-233l-871 378v205z" />
    <glyph glyph-name="equal" unicode="=" horiz-adv-x="1085" 
d="M102 403v209h881v-209h-881zM102 823v209h881v-209h-881z" />
    <glyph glyph-name="greater" unicode="&#x3e;" horiz-adv-x="1075" 
d="M102 1198l871 -379v-205l-871 -378v233l621 248l-621 248v233z" />
    <glyph glyph-name="question" unicode="?" horiz-adv-x="1122" 
d="M403 0v256h256v-256h-256zM774 1042q0 189 -226 189q-106 0 -174 -55t-67 -160h-235q0 215 140 330q140 114 336 114t328 -104q134 -104 134 -289q0 -86 -37 -161t-90 -128t-107 -103q-128 -119 -127 -224h-235q0 154 127 279q53 52 106 100q127 115 127 212z" />
    <glyph glyph-name="at" unicode="@" horiz-adv-x="1605" 
d="M790 352q70 0 114 44t44 116t-45 117t-113 45t-114 -45q-45 -45 -45 -117t45 -116t114 -44zM817 1253q217 0 385 -105t250 -263q82 -159 82 -353t-90 -307t-225 -112q-203 0 -256 166q-82 -99 -214 -99t-221 95q-88 95 -88 237t88 238t214 96t206 -84v63h189v-463
q0 -166 125 -165q88 0 144 89t56 267q0 271 -185 453t-463 182t-474 -195t-197 -485q0 -290 202 -480q202 -191 509 -192q195 0 342 53v-69q-152 -49 -342 -49q-336 0 -559 210t-223 525t214 531t531 216z" />
    <glyph glyph-name="A" unicode="A" horiz-adv-x="1320" 
d="M438 510h445l-221 655zM1057 0l-99 289h-596l-96 -289h-256l510 1434h283l508 -1434h-254z" />
    <glyph glyph-name="B" unicode="B" horiz-adv-x="1402" 
d="M858 221q116 0 182 72q66 71 66 179t-65 178t-181 71h-481v-500h479zM731 1212h-352v-280h477q45 49 45 119q0 69 -46 115t-124 46zM889 0h-746v1434h588q178 0 292 -106t114 -269q-1 -92 -52 -176q119 -57 188 -170t68 -252q0 -195 -129 -328t-323 -133z" />
    <glyph glyph-name="C" unicode="C" horiz-adv-x="1548" 
d="M821 -27q-324 0 -536.5 214t-212.5 529.5t213 529.5t536 214q248 0 439.5 -144.5t246.5 -373.5h-247q-45 131 -166 210t-273 79q-229 0 -371.5 -145.5t-142.5 -368.5t142.5 -368.5t371.5 -145.5q152 0 272.5 78.5t166.5 210.5h247q-53 -227 -245.5 -373t-440.5 -146z" />
    <glyph glyph-name="D" unicode="D" horiz-adv-x="1505" 
d="M748 225q203 0 330.5 139.5t127.5 353.5t-128 352t-330 138h-369v-983h369zM748 1434q295 0 490.5 -207t195.5 -509t-196 -510t-490 -208h-605v1434h605z" />
    <glyph glyph-name="E" unicode="E" horiz-adv-x="1054" 
d="M379 225h604v-225h-840v1434h830v-226h-594v-372h543v-222h-543v-389z" />
    <glyph glyph-name="F" unicode="F" horiz-adv-x="1024" 
d="M973 1208h-594v-432h573v-225h-573v-551h-236v1434h830v-226z" />
    <glyph glyph-name="G" unicode="G" horiz-adv-x="1615" 
d="M838 543v211h665v-754h-225v197q-160 -223 -476 -223.5t-523 214.5t-207 528.5t212 528.5t531 215q246 0 439.5 -141t248.5 -356h-250q-45 117 -165.5 192.5t-272.5 75.5q-225 0 -366.5 -145.5t-141.5 -371.5t142.5 -373.5t365.5 -147.5q178 0 307 90t150 260h-434z" />
    <glyph glyph-name="H" unicode="H" horiz-adv-x="1300" 
d="M922 1434h235v-1434h-235v625h-543v-625h-236v1434h236v-584h543v584z" />
    <glyph glyph-name="I" unicode="I" horiz-adv-x="522" 
d="M143 1434h236v-1434h-236v1434z" />
    <glyph glyph-name="J" unicode="J" horiz-adv-x="1095" 
d="M502 -27q-197 0 -334 115t-137 330v31h235v-31q0 -106 64 -160t172 -55q109 0 172 54t63 161v1016h236v-1016q0 -215 -137 -330t-334 -115z" />
    <glyph glyph-name="K" unicode="K" horiz-adv-x="1234" 
d="M379 0h-236v1434h236v-641l545 641h280l-581 -699l602 -735h-281l-565 682v-682z" />
    <glyph glyph-name="L" unicode="L" horiz-adv-x="983" 
d="M379 225h573v-225h-809v1434h236v-1209z" />
    <glyph glyph-name="M" unicode="M" horiz-adv-x="1658" 
d="M1516 1434v-1434h-236v1044l-358 -808h-185l-358 808v-1044h-236v1434h275l411 -926l412 926h275z" />
    <glyph glyph-name="N" unicode="N" horiz-adv-x="1310" 
d="M932 1434h235v-1434h-184l-604 973v-973h-236v1434h185l604 -973v973z" />
    <glyph glyph-name="O" unicode="O" horiz-adv-x="1630" 
d="M815 203q215 0 361.5 146.5t146.5 367.5t-146.5 367.5t-361.5 146.5t-361.5 -146.5t-146.5 -367.5t146.5 -367.5t361.5 -146.5zM815 -27q-311 0 -527 216.5t-216 527.5t216 527t527 216t527.5 -216t216.5 -527t-216.5 -527.5t-527.5 -216.5z" />
    <glyph glyph-name="P" unicode="P" horiz-adv-x="1198" 
d="M672 733q96 0 163 70t66 170q0 100 -66 170q-67 70 -163 69h-293v-479h293zM672 1434q196 0 330 -134t134 -326q0 -190 -134 -326q-136 -136 -330 -136h-293v-512h-236v1434h529z" />
    <glyph glyph-name="Q" unicode="Q" horiz-adv-x="1640" 
d="M815 203q119 0 225 51l-180 205l172 141l182 -207q109 137 109 340t-147 350q-146 147 -360 147t-361 -146q-147 -148 -147 -367t146 -367q148 -148 361 -147zM815 1460q309 0 527 -216t217 -516q0 -300 -191 -511l168 -190l-172 -142l-168 191q-176 -102 -381 -103
q-309 0 -526 216q-217 215 -217 527t217 528t526 216z" />
    <glyph glyph-name="R" unicode="R" 
d="M379 1212v-479h297q94 0 159.5 69.5t65.5 170t-65.5 170t-159.5 69.5h-297zM379 522v-522h-236v1434h533q193 0 327 -134.5t134 -326.5q0 -135 -79 -249t-204 -167l467 -557h-281l-438 522h-223z" />
    <glyph glyph-name="S" unicode="S" horiz-adv-x="1122" 
d="M569 -27q-212 0 -360 120t-148 341h236q0 -113 73.5 -172t198 -59t190.5 49t66 130t-68.5 129t-243.5 110.5t-253 117.5q-168 115 -168 310.5t134 303t327 107.5t330 -115.5t137 -328.5h-236q0 104 -63.5 159.5t-167.5 55.5t-164.5 -47t-60.5 -129t64.5 -131.5
t236.5 -112t243 -106.5q188 -117 188.5 -314.5t-139.5 -307.5t-352 -110z" />
    <glyph glyph-name="T" unicode="T" horiz-adv-x="1024" 
d="M993 1434v-226h-362v-1208h-236v1208h-364v226h962z" />
    <glyph glyph-name="U" unicode="U" horiz-adv-x="1269" 
d="M636 -27q-222 0 -367.5 122t-145.5 339v1000h235v-985q0 -119 71 -182.5t206 -63.5t205.5 63.5t70.5 182.5v985h236v-1000q0 -217 -144.5 -339t-366.5 -122z" />
    <glyph glyph-name="V" unicode="V" horiz-adv-x="1277" 
d="M498 0l-488 1434h256l373 -1155l375 1155h254l-488 -1434h-282z" />
    <glyph glyph-name="W" unicode="W" horiz-adv-x="1802" 
d="M1550 1434h242l-420 -1434h-270l-201 680l-199 -680h-270l-422 1434h242l326 -1145l217 751l-115 394h221l326 -1145z" />
    <glyph glyph-name="X" unicode="X" horiz-adv-x="1208" 
d="M1178 0h-265l-309 516l-307 -516h-266l440 737l-414 697h265l282 -473l283 473h266l-416 -697z" />
    <glyph glyph-name="Y" unicode="Y" horiz-adv-x="1214" 
d="M725 0h-236v647l-479 787h269l327 -562l330 562h268l-479 -789v-645z" />
    <glyph glyph-name="Z" unicode="Z" horiz-adv-x="1085" 
d="M1030 225v-225h-952v195l643 1013h-629v226h922v-195l-645 -1014h661z" />
    <glyph glyph-name="bracketleft" unicode="[" horiz-adv-x="573" 
d="M573 1425h-239v-1417h239v-213h-460v1843h460v-213z" />
    <glyph glyph-name="backslash" unicode="\" horiz-adv-x="1075" 
d="M891 -205l-819 1843h112l820 -1843h-113z" />
    <glyph glyph-name="bracketright" unicode="]" horiz-adv-x="573" 
d="M461 1638v-1843h-461v213h240v1417h-240v213h461z" />
    <glyph glyph-name="asciicircum" unicode="^" horiz-adv-x="1105" 
d="M643 1434l381 -656h-242l-229 404l-227 -404h-244l381 656h180z" />
    <glyph glyph-name="underscore" unicode="_" horiz-adv-x="1064" 
d="M72 -330v213h921v-213h-921z" />
    <glyph glyph-name="grave" unicode="`" horiz-adv-x="512" 
d="M471 1157h-213l-217 277h266z" />
    <glyph glyph-name="a" unicode="a" horiz-adv-x="1034" 
d="M495 145q99 0 159.5 43t60.5 112t-60.5 110t-159.5 41t-150.5 -41t-51.5 -111t51.5 -112t150.5 -42zM525 1051q177 0 292 -104.5t115 -291.5v-655h-217v96q-98 -123 -291 -123q-147 0 -249.5 85t-102.5 241t102 240t269 84t272 -105v127q0 102 -51.5 150.5t-137.5 48.5
t-139 -42t-53 -116h-217q0 166 115.5 265.5t292.5 99.5z" />
    <glyph glyph-name="b" unicode="b" 
d="M674 184q139 0 231 94t92 234q0 141 -92 234q-92 94 -231 94q-140 0 -232 -94t-92 -234t92 -234t232 -94zM696 1051q224 0 374 -156t149 -382q0 -226 -150 -383t-374 -157t-345 174v-147h-221v1434h221v-557q122 174 346 174z" />
    <glyph glyph-name="c" unicode="c" horiz-adv-x="1163" 
d="M612 -27q-231 0 -385.5 156t-154.5 384t154.5 383t385.5 155q186 0 326.5 -107.5t179.5 -277.5h-233q-33 78 -105.5 123t-167.5 45q-135 0 -227 -92.5t-92 -229.5t92 -229.5t227 -92.5q94 0 168 46.5t105 121.5h233q-39 -170 -180 -277.5t-326 -107.5z" />
    <glyph glyph-name="d" unicode="d" 
d="M618 184q140 0 232 94t92 234q0 141 -92 234q-92 94 -232 94t-231 -94q-92 -94 -92 -234t92 -234t231 -94zM942 1434h221v-1434h-221v147q-127 -174 -349 -174t-371 157q-148 157 -148 383t148 382t372 156t348 -174v557z" />
    <glyph glyph-name="e" unicode="e" horiz-adv-x="1175" 
d="M600 850q-115 0 -196.5 -67.5t-104.5 -182.5h594q-20 123 -99 186.5t-194 63.5zM597 164q101 0 166.5 34.5t94.5 90.5l225 2q-47 -147 -173 -232.5t-298 -85.5q-242 0 -391 153t-149 385t149.5 386t380.5 154t372.5 -157t141.5 -384q0 -35 -8 -92h-807
q25 -123 110 -188.5t186 -65.5z" />
    <glyph glyph-name="f" unicode="f" horiz-adv-x="641" 
d="M397 1044v-20h244v-213h-244v-811h-221v811h-156v213h156v20q0 211 119 321t346 95v-213q-244 23 -244 -203z" />
    <glyph glyph-name="g" unicode="g" horiz-adv-x="1284" 
d="M618.5 201q139.5 0 232.5 92t93 229t-93 229.5t-232.5 92.5t-232.5 -92.5t-93 -229.5t93 -229t232.5 -92zM944 1024h217v-977q-1 -159 -77 -271q-144 -212 -443 -212q-205 0 -354.5 109.5t-149.5 289.5h221q0 -76 78 -137.5t213 -61.5t215 75t80 208v125
q-125 -178 -348 -178t-373.5 154.5t-150.5 373.5t149.5 374t374 155t348.5 -179v152z" />
    <glyph glyph-name="h" unicode="h" horiz-adv-x="1081" 
d="M641 1051q147 1 243 -105t95 -287v-659h-221v647q0 93 -52 145t-142 52t-151 -62q-62 -62 -63 -194v-588h-221v1434h221v-527q94 144 291 144z" />
    <glyph glyph-name="i" unicode="i" horiz-adv-x="477" 
d="M129 0v1024h221v-1024h-221zM129 1188v246h221v-246h-221z" />
    <glyph glyph-name="j" unicode="j" horiz-adv-x="518" 
d="M168 -41v1065h221v-1065q0 -426 -420 -395v213q102 -10 151 33q48 43 48 149zM168 1434h221v-246h-221v246z" />
    <glyph glyph-name="k" unicode="k" horiz-adv-x="1044" 
d="M350 0h-221v1434h221v-863l389 453h265l-439 -502l459 -522h-264l-410 473v-473z" />
    <glyph glyph-name="l" unicode="l" horiz-adv-x="477" 
d="M129 0v1475h221v-1475h-221z" />
    <glyph glyph-name="m" unicode="m" horiz-adv-x="1572" 
d="M1149 1051q143 -1 232 -95t89 -266v-690h-221v678q0 86 -43 126q-42 40 -114 40t-127 -50t-56 -165v-629h-221v678q0 86 -43 126t-113 40t-126 -50q-55 -50 -56 -165v-629h-221v1024h221v-106q86 133 257 133t253 -148q107 148 289 148z" />
    <glyph glyph-name="n" unicode="n" horiz-adv-x="1081" 
d="M641 1051q147 0 242.5 -105.5t95.5 -286.5v-659h-221v647q0 94 -52.5 145.5t-141.5 51.5t-151.5 -61.5t-62.5 -194.5v-588h-221v1024h221v-117q94 144 291 144z" />
    <glyph glyph-name="o" unicode="o" horiz-adv-x="1224" 
d="M612.5 188q135.5 0 227.5 92.5t92 231.5t-92 231.5t-227.5 92.5t-227.5 -92.5t-92 -231.5t92 -231.5t227.5 -92.5zM613 -27q-226 0 -383.5 156t-157.5 383t157.5 383t383.5 156t383 -156t157 -383t-157 -383t-383 -156z" />
    <glyph glyph-name="p" unicode="p" 
d="M677 184q136 0 228 94t92 234q0 141 -92 234q-92 94 -228 94t-227 -85t-100 -216v-54q8 -131 100 -216t227 -85zM698 1051q222 0 372 -156t149 -382q0 -226 -150 -383q-149 -157 -371 -157t-348 174v-557h-221v1434h221v-145q126 172 348 172z" />
    <glyph glyph-name="q" unicode="q" 
d="M618 184q140 0 232 94t92 234q0 141 -92 234q-92 94 -232 94t-231 -94q-92 -94 -92 -234t92 -234t231 -94zM942 1024h221v-1434h-221v557q-127 -174 -349 -174t-371 157q-148 157 -148 383t148 382t372 156t348 -174v147z" />
    <glyph glyph-name="r" unicode="r" horiz-adv-x="675" 
d="M645 1042v-239q-123 8 -209 -58.5t-86 -218.5v-526h-221v1024h221v-154q84 172 295 172z" />
    <glyph glyph-name="s" unicode="s" horiz-adv-x="968" 
d="M319 737.5q0 -55.5 58.5 -87.5t141.5 -49t167 -44t142.5 -93.5t58.5 -174.5q0 -147 -114 -231.5t-290 -84.5t-288.5 90.5t-112.5 253.5h217q0 -145 186 -145q81 0 131 30t50 86t-58.5 87t-142.5 48t-167 44t-141.5 94.5t-58.5 175.5q0 143 112 228.5t274 85.5t272 -90.5
t110 -251.5h-217q0 72 -47 107.5t-119 35.5t-118 -29.5t-46 -85z" />
    <glyph glyph-name="t" unicode="t" horiz-adv-x="671" 
d="M635 1024v-213h-189v-811h-221v811h-188v213h188v328h221v-328h189z" />
    <glyph glyph-name="u" unicode="u" horiz-adv-x="1081" 
d="M733 1024h221v-1024h-221v117q-94 -143 -291 -144q-147 0 -242.5 105.5t-95.5 286.5v659h222v-645q0 -96 51 -147.5t141 -51.5t152.5 62.5t62.5 193.5v588z" />
    <glyph glyph-name="v" unicode="v" horiz-adv-x="1003" 
d="M621 0h-236l-375 1024h236l256 -762l256 762h235z" />
    <glyph glyph-name="w" unicode="w" horiz-adv-x="1454" 
d="M1092 0h-218l-147 440l-147 -440h-218l-342 1024h236l229 -760l150 455l-103 305h205l238 -741l223 741h236z" />
    <glyph glyph-name="x" unicode="x" horiz-adv-x="956" 
d="M932 0h-238l-217 342l-219 -342h-238l338 526l-317 498h238l198 -311l199 311h237l-317 -498z" />
    <glyph glyph-name="y" unicode="y" horiz-adv-x="1003" 
d="M758 1024h235l-491 -1434h-236l144 422l-400 1012h236l274 -705z" />
    <glyph glyph-name="z" unicode="z" horiz-adv-x="927" 
d="M870 209v-209h-798v147l479 668h-459v209h758v-147l-477 -668h497z" />
    <glyph glyph-name="braceleft" unicode="{" horiz-adv-x="720" 
d="M281 461q0 96 -43 126t-136 25v215q92 -4 136 26q43 30 43 126v315q0 395 409 365v-213q-98 12 -143 -21t-45 -131v-315q0 -197 -133 -258q133 -66 133 -260v-316q0 -98 45 -131t143 -22v-213q-410 -31 -409 366v316z" />
    <glyph glyph-name="bar" unicode="|" horiz-adv-x="507" 
d="M143 -410v1885h222v-1885h-222z" />
    <glyph glyph-name="braceright" unicode="}" horiz-adv-x="720" 
d="M219 145v316q0 195 135 260q-135 63 -135 258v315q0 98 -45 131t-143 21v213q410 31 409 -365v-315q0 -96 43 -126t135 -26v-215q-92 4 -135 -26t-43 -125v-316q1 -397 -409 -366v213q98 -10 143 22t45 131z" />
    <glyph glyph-name="asciitilde" unicode="~" horiz-adv-x="1222" 
d="M936 887l184 -88q-53 -193 -189 -245t-323 46q-156 80 -222 68t-99 -125l-185 88q54 193 192 245t322 -47q158 -81 220 -67t100 125z" />
    <glyph glyph-name="exclamdown" unicode="&#xa1;" horiz-adv-x="522" 
d="M395 -410h-266v410l45 573h174l47 -573v-410zM133 1024h256v-256h-256v256z" />
    <glyph glyph-name="cent" unicode="&#xa2;" horiz-adv-x="1163" 
d="M293 717q0 -180 147 -275l193 596h-21q-135 0 -227 -92t-92 -229zM612 395q94 0 168 46t105 122h233q-39 -169 -180 -277t-326 -108q-70 0 -139 17l-63 -195h-113l74 231q-137 66 -218 195t-81 291q0 229 154 384q155 155 386 154q45 0 88 -6l60 185h112l-67 -211
q121 -45 204 -137t109 -216h-233q-41 102 -148 144l-196 -611q30 -8 71 -8z" />
    <glyph glyph-name="sterling" unicode="&#xa3;" horiz-adv-x="1198" 
d="M471 227h696v-227h-1095v227h164v314h-134v207h134v268q0 215 131 330q131 114 308 114t309 -116t132 -328v-74h-235v74q1 104 -59 160t-147 55q-87 0 -145 -55t-59 -160v-268h416v-207h-416v-314z" />
    <glyph glyph-name="currency" unicode="&#xa4;" horiz-adv-x="1118" 
d="M559 496q94 0 157 62q62 62 62 158t-62 160q-62 62 -156 62t-158 -62q-62 -62 -62 -158t62 -160q63 -62 157 -62zM997 717q0 -154 -94 -271l144 -143l-74 -74l-144 144q-117 -88 -269 -88t-271 88l-144 -144l-73 74l143 143q-94 117 -94 271t94 270l-143 143l73 74
l146 -143q117 88 269 88t269 -88l144 143l74 -74l-144 -143q94 -116 94 -270z" />
    <glyph glyph-name="yen" unicode="&#xa5;" horiz-adv-x="1214" 
d="M1069 731v-149h-344v-103h344v-149h-344v-330h-236v330h-342v149h342v103h-342v149h291l-428 703h269l327 -562l330 562h268l-428 -703h293z" />
    <glyph glyph-name="brokenbar" unicode="&#xa6;" horiz-adv-x="507" 
d="M143 -410v758h222v-758h-222zM143 717v758h222v-758h-222z" />
    <glyph glyph-name="section" unicode="&#xa7;" horiz-adv-x="1093" 
d="M313 696q0 -70 49 -114q49 -43 142 -82q8 -4 90 -37t125 -53q61 56 61 128t-52 114t-198 104t-153 65q-64 -55 -64 -125zM1001 567q0 -160 -131 -264q76 -90 76 -207q0 -154 -110 -240t-288 -85q-177 0 -292 93t-115 271h217q0 -166 184 -166t183 127q1 47 -27 71
q-49 44 -102 70q-52 25 -107 50q-55 24 -79 35q-147 66 -233 144q-85 78 -85 222t135 246q-69 82 -69 218t109 222q110 86 274 86q165 0 275 -93t110 -269h-217q-1 84 -49 124t-120 40t-116 -31q-45 -31 -45 -92t67 -106q67 -44 131 -70t118 -51q225 -104 280 -221
q26 -56 26 -124z" />
    <glyph glyph-name="dieresis" unicode="&#xa8;" horiz-adv-x="686" 
d="M430 1163v215h215v-215h-215zM41 1163v215h215v-215h-215z" />
    <glyph glyph-name="copyright" unicode="&#xa9;" horiz-adv-x="1626" 
d="M806 319q-154 0 -272 117q-116 117 -116 281q0 163 117 281t271 118t263 -86t135 -225h-207q-16 53 -66 85t-128 32t-134 -60q-57 -60 -57 -144q0 -82 56 -144t134 -62t129 32q50 32 66 85h207q-28 -137 -136 -223t-262 -87zM143 718q0 -280 197 -478q196 -198 474 -199
q278 0 474 198q196 199 195 479q0 280 -196 478t-473 197q-277 0 -474 -198q-197 -197 -197 -477zM813 -25q-307 -1 -524 217t-217 525t217 524t524 217t524 -217t217 -524t-217 -525t-524 -217z" />
    <glyph glyph-name="ordfeminine" unicode="&#xaa;" horiz-adv-x="563" 
d="M264 1020q39 0 71 17t32 48q-1 63 -95 63t-94 -64t86 -64zM284 1460q93 0 150 -52t58 -144v-328h-125v45q-49 -59 -133 -59t-133 44q-50 44 -50 120t50 118q50 43 130 43t136 -51v64q0 82 -84 82t-84 -62h-125q0 84 58 132q59 48 152 48z" />
    <glyph glyph-name="guillemotleft" unicode="&#xab;" horiz-adv-x="1079" 
d="M946 1012l-225 -379l225 -379h-219l-225 379l225 379h219zM578 1012l-226 -379l226 -379h-220l-225 379l225 379h220z" />
    <glyph glyph-name="logicalnot" unicode="&#xac;" horiz-adv-x="1105" 
d="M102 821h902v-450h-222v241h-680v209z" />
    <glyph glyph-name="registered" unicode="&#xae;" horiz-adv-x="1626" 
d="M741 922v-191h84q121 0 121 95t-121 96h-84zM1135 842q0 -158 -125 -234l196 -270h-207l-168 229h-90v-229h-188v758h295q127 0 207 -72t80 -182zM143 718q0 -280 197 -478q196 -198 474 -199q278 0 474 198q196 199 195 479q0 280 -196 478t-473 197q-277 0 -474 -198
q-197 -197 -197 -477zM813 1458q307 0 524 -217t217 -524t-217 -524t-524 -217t-524 216q-217 218 -217 525t217 524t524 217z" />
    <glyph glyph-name="macron" unicode="&#xaf;" horiz-adv-x="655" 
d="M41 1167v183h573v-183h-573z" />
    <glyph glyph-name="degree" unicode="&#xb0;" horiz-adv-x="811" 
d="M406 1475q-62 0 -102 -41q-40 -40 -40 -102t40 -103t103 -41q62 0 101 41t39 102t-40 103t-101 41zM407 1004q-144 0 -240 95q-95 95 -95 232t95 233t239 95q144 0 238 -95q95 -94 95 -232t-94 -233t-238 -95z" />
    <glyph glyph-name="plusminus" unicode="&#xb1;" horiz-adv-x="1126" 
d="M113 133v209h901v-209h-901zM668 991h346v-209h-346v-311h-209v311h-346v209h346v309h209v-309z" />
    <glyph glyph-name="acute" unicode="&#xb4;" horiz-adv-x="512" 
d="M41 1157l164 277h266l-217 -277h-213z" />
    <glyph glyph-name="uni00B5" unicode="&#xb5;" horiz-adv-x="1173" 
d="M1047 209h75v-209h-114q-154 0 -217 115q-94 -141 -285 -142q-88 0 -156 37v-420h-221v1434h221v-645q0 -95 51 -147t141 -52t153 62q62 62 63 194v588h221v-748q1 -31 19 -49t49 -18z" />
    <glyph glyph-name="paragraph" unicode="&#xb6;" horiz-adv-x="1308" 
d="M1219 1434v-197h-125v-1647h-209v1647h-185v-1647h-208v983q-178 0 -305 127q-126 128 -126 306t126 303t305 125h727z" />
    <glyph glyph-name="periodcentered" unicode="&#xb7;" horiz-adv-x="522" 
d="M133 584v256h256v-256h-256z" />
    <glyph glyph-name="cedilla" unicode="&#xb8;" horiz-adv-x="522" 
d="M481 -256q0 -213 -440 -186v161q248 -20 248 52q0 55 -150 61v168h183v-94q70 -12 114 -54t45 -108z" />
    <glyph glyph-name="ordmasculine" unicode="&#xba;" horiz-adv-x="643" 
d="M323 1047q62 -1 102 39t40 106t-40 106t-102 39q-63 0 -103 -40q-40 -39 -40 -105t40 -106q41 -39 103 -39zM324 1460q116 0 192 -77t76 -191t-78 -192t-191 -78q-114 0 -193 78t-79 191t79 191t194 78z" />
    <glyph glyph-name="guillemotright" unicode="&#xbb;" horiz-adv-x="1079" 
d="M721 1012l225 -379l-225 -379h-219l225 379l-225 379h219zM352 1012l226 -379l-226 -379h-219l225 379l-225 379h219z" />
    <glyph glyph-name="onequarter" unicode="&#xbc;" horiz-adv-x="1673" 
d="M1638 311v-172h-90v-139h-182v139h-395v172l276 508h203l-272 -508h188v162h182v-162h90zM1067 1434h164l-819 -1434h-164zM426 614h-188v625l-207 -111v193l207 113h188v-820z" />
    <glyph glyph-name="onehalf" unicode="&#xbd;" horiz-adv-x="1660" 
d="M1606 174v-174h-600v131l321 309q76 70 76 142q0 42 -28 66t-75 24q-111 0 -110 -105h-189q0 133 84 206t214 73t211 -71t81 -193t-135 -252l-168 -156h318zM1067 1434h164l-819 -1434h-164zM426 614h-188v625l-207 -111v193l207 113h188v-820z" />
    <glyph glyph-name="threequarters" unicode="&#xbe;" horiz-adv-x="1853" 
d="M1819 311v-172h-90v-139h-183v139h-395v172l276 508h203l-272 -508h188v162h183v-162h90zM1247 1434h164l-819 -1434h-164zM659 860q0 -129 -84 -201q-84 -71 -227 -71t-227 72t-84 200h188q0 -102 122 -102t122 102q0 47 -32 74t-89 27h-106v116l151 183h-323v174h553
v-148l-158 -190q92 -24 143 -86t51 -150z" />
    <glyph glyph-name="questiondown" unicode="&#xbf;" horiz-adv-x="1112" 
d="M698 573q0 -155 -127 -277q-53 -52 -106 -100q-127 -115 -127 -225q0 -86 60 -132t166 -46t174 55t67 160h235q0 -215 -140 -330q-140 -114 -336 -114t-328 104q-133 104 -134 289q0 86 37 162t90 129t107 102q127 117 127 223h235zM709 1024v-256h-256v256h256z" />
    <glyph glyph-name="Agrave" unicode="&#xc0;" horiz-adv-x="1320" 
d="M438 510h445l-221 655zM1057 0l-99 289h-596l-96 -289h-256l510 1434h283l508 -1434h-254zM795 1567h-213l-217 276h266z" />
    <glyph glyph-name="Aacute" unicode="&#xc1;" horiz-adv-x="1320" 
d="M438 510h445l-221 655zM1057 0l-99 289h-596l-96 -289h-256l510 1434h283l508 -1434h-254zM948 1843l-217 -276h-213l164 276h266z" />
    <glyph glyph-name="Acircumflex" unicode="&#xc2;" horiz-adv-x="1320" 
d="M438 510h445l-221 655zM1057 0l-99 289h-596l-96 -289h-256l510 1434h283l508 -1434h-254zM541 1843h231l217 -287h-225l-107 152l-108 -152h-225z" />
    <glyph glyph-name="Atilde" unicode="&#xc3;" horiz-adv-x="1320" 
d="M438 510h445l-221 655zM1057 0l-99 289h-596l-96 -289h-256l510 1434h283l508 -1434h-254zM516 1571h-182q0 143 53 215q101 137 293 10q66 -53 96.5 -46t30.5 93h182q0 -143 -52 -215t-129 -69.5t-163 59.5q-68 53 -98.5 46t-30.5 -93z" />
    <glyph glyph-name="Adieresis" unicode="&#xc4;" horiz-adv-x="1320" 
d="M438 510h445l-221 655zM1057 0l-99 289h-596l-96 -289h-256l510 1434h283l508 -1434h-254zM963 1788v-215h-215v215h215zM573 1788v-215h-215v215h215z" />
    <glyph glyph-name="Aring" unicode="&#xc5;" horiz-adv-x="1320" 
d="M438 510h445l-221 655zM1057 0l-99 289h-596l-96 -289h-256l510 1434h283l508 -1434h-254zM663 1837q-42 0 -66 -23.5t-24 -61.5t24 -61.5t66 -23.5t65.5 23.5t23.5 61.5t-23.5 61.5t-65.5 23.5zM663.5 1522q-107.5 0 -176.5 65.5t-69 163.5t68.5 164.5t176.5 66.5
t176 -65.5t68 -165.5t-68 -164.5t-175.5 -64.5z" />
    <glyph glyph-name="AE" unicode="&#xc6;" horiz-adv-x="1802" 
d="M922 510v590l-353 -590h353zM1153 225h578v-225h-809v289h-484l-172 -289h-266l858 1434h862v-226h-567v-372h526v-222h-526v-389z" />
    <glyph glyph-name="Ccedilla" unicode="&#xc7;" horiz-adv-x="1548" 
d="M821 203q152 0 272.5 78.5t166.5 210.5h247q-49 -205 -210.5 -344.5t-378.5 -167.5v-74q70 -12 114.5 -54t44.5 -108q0 -213 -440 -186v161q248 -20 248 52q0 55 -150 61v145q-293 29 -478 238t-185 513t213 518t536 214q248 0 439.5 -144.5t246.5 -373.5h-247
q-45 131 -166 210t-273 79q-229 0 -371.5 -145.5t-142.5 -368.5t142.5 -368.5t371.5 -145.5z" />
    <glyph glyph-name="Egrave" unicode="&#xc8;" horiz-adv-x="1054" 
d="M379 225h604v-225h-840v1434h830v-226h-594v-372h543v-222h-543v-389zM692 1567h-213l-217 276h266z" />
    <glyph glyph-name="Eacute" unicode="&#xc9;" horiz-adv-x="1054" 
d="M379 225h604v-225h-840v1434h830v-226h-594v-372h543v-222h-543v-389zM846 1843l-217 -276h-213l164 276h266z" />
    <glyph glyph-name="Ecircumflex" unicode="&#xca;" horiz-adv-x="1054" 
d="M379 225h604v-225h-840v1434h830v-226h-594v-372h543v-222h-543v-389zM438 1843h232l217 -287h-225l-107 152l-109 -152h-225z" />
    <glyph glyph-name="Edieresis" unicode="&#xcb;" horiz-adv-x="1054" 
d="M379 225h604v-225h-840v1434h830v-226h-594v-372h543v-222h-543v-389zM862 1788v-215h-215v215h215zM473 1788v-215h-215v215h215z" />
    <glyph glyph-name="Igrave" unicode="&#xcc;" horiz-adv-x="522" 
d="M143 1434h236v-1434h-236v1434zM393 1567h-213l-217 276h266z" />
    <glyph glyph-name="Iacute" unicode="&#xcd;" horiz-adv-x="522" 
d="M143 1434h236v-1434h-236v1434zM119 1567l164 276h266l-217 -276h-213z" />
    <glyph glyph-name="Icircumflex" unicode="&#xce;" horiz-adv-x="522" 
d="M143 0v1434h236v-1434h-236zM139 1843h232l217 -287h-226l-106 152l-109 -152h-225z" />
    <glyph glyph-name="Idieresis" unicode="&#xcf;" horiz-adv-x="522" 
d="M143 1434h236v-1434h-236v1434zM348 1573v215h215v-215h-215zM-41 1573v215h215v-215h-215z" />
    <glyph glyph-name="Eth" unicode="&#xd0;" horiz-adv-x="1566" 
d="M809 225q203 0 331 139.5t128 353.5t-128 352t-331 138h-369v-395h369v-213h-369v-375h369zM809 1434q295 0 490.5 -207t195.5 -509t-195.5 -510t-490.5 -208h-604v600h-154v213h154v621h604z" />
    <glyph glyph-name="Ntilde" unicode="&#xd1;" horiz-adv-x="1310" 
d="M932 1434h235v-1434h-184l-604 973v-973h-236v1434h185l604 -973v973zM328 1571q0 143 53 215q101 137 293 10q66 -53 96.5 -46t30.5 93h182q0 -143 -52 -215t-129 -69.5t-163 59.5q-68 53 -98.5 46t-30.5 -93h-182z" />
    <glyph glyph-name="Ograve" unicode="&#xd2;" horiz-adv-x="1630" 
d="M815 203q215 0 361.5 146.5t146.5 367.5t-146.5 367.5t-361.5 146.5t-361.5 -146.5t-146.5 -367.5t146.5 -367.5t361.5 -146.5zM815 -27q-311 0 -527 216.5t-216 527.5t216 527t527 216t527.5 -216t216.5 -527t-216.5 -527.5t-527.5 -216.5zM948 1577h-213l-217 276h266z
" />
    <glyph glyph-name="Oacute" unicode="&#xd3;" horiz-adv-x="1630" 
d="M815 203q215 0 361.5 146.5t146.5 367.5t-146.5 367.5t-361.5 146.5t-361.5 -146.5t-146.5 -367.5t146.5 -367.5t361.5 -146.5zM815 -27q-311 0 -527 216.5t-216 527.5t216 527t527 216t527.5 -216t216.5 -527t-216.5 -527.5t-527.5 -216.5zM672 1577l164 276h266
l-217 -276h-213z" />
    <glyph glyph-name="Ocircumflex" unicode="&#xd4;" horiz-adv-x="1630" 
d="M815 203q215 0 361.5 146.5t146.5 367.5t-146.5 367.5t-361.5 146.5t-361.5 -146.5t-146.5 -367.5t146.5 -367.5t361.5 -146.5zM815 1460q311 0 527.5 -216t216.5 -527t-216.5 -527.5t-527.5 -216.5t-527 216.5t-216 527.5t216 527t527 216zM694 1853h232l217 -286h-225
l-107 151l-109 -151h-225z" />
    <glyph glyph-name="Otilde" unicode="&#xd5;" horiz-adv-x="1630" 
d="M815 203q215 0 361.5 146.5t146.5 367.5t-146.5 367.5t-361.5 146.5t-361.5 -146.5t-146.5 -367.5t146.5 -367.5t361.5 -146.5zM815 -27q-311 0 -527 216.5t-216 527.5t216 527t527 216t527.5 -216t216.5 -527t-216.5 -527.5t-527.5 -216.5zM487 1581q0 143 53.5 215
t130.5 70t163 -60q66 -53 96.5 -46t30.5 93h182q-1 -143 -53 -215q-101 -137 -291 -10q-68 53 -98.5 46t-30.5 -93h-183z" />
    <glyph glyph-name="Odieresis" unicode="&#xd6;" horiz-adv-x="1630" 
d="M815 203q215 0 361.5 146.5t146.5 367.5t-146.5 367.5t-361.5 146.5t-361.5 -146.5t-146.5 -367.5t146.5 -367.5t361.5 -146.5zM815 -27q-311 0 -527 216.5t-216 527.5t216 527t527 216t527.5 -216t216.5 -527t-216.5 -527.5t-527.5 -216.5zM903 1583v215h215v-215h-215z
M514 1583v215h215v-215h-215z" />
    <glyph glyph-name="multiply" unicode="&#xd7;" horiz-adv-x="1019" 
d="M918 979l-263 -262l263 -262l-148 -144l-260 260l-260 -260l-148 144l263 262l-263 262l148 143l260 -260l260 260z" />
    <glyph glyph-name="Oslash" unicode="&#xd8;" horiz-adv-x="1646" 
d="M831 203q215 0 361.5 146.5t146.5 361.5t-133 358l-655 -786q124 -80 280 -80zM324 729q0 -209 120 -352l654 782q-123 72 -267 72q-215 0 -361 -146.5t-146 -355.5zM1575 719q0 -313 -216 -529.5t-528 -216.5q-236 0 -428 133l-88 -106h-184l164 199q-207 213 -207 521
t216 524t527 216q225 0 414 -123l82 97h184l-155 -187q219 -215 219 -528z" />
    <glyph glyph-name="Ugrave" unicode="&#xd9;" horiz-adv-x="1269" 
d="M636 -27q-222 0 -367.5 122t-145.5 339v1000h235v-985q0 -119 71 -182.5t206 -63.5t205.5 63.5t70.5 182.5v985h236v-1000q0 -217 -144.5 -339t-366.5 -122zM768 1567h-213l-217 276h266z" />
    <glyph glyph-name="Uacute" unicode="&#xda;" horiz-adv-x="1269" 
d="M636 -27q-222 0 -367.5 122t-145.5 339v1000h235v-985q0 -119 71 -182.5t206 -63.5t205.5 63.5t70.5 182.5v985h236v-1000q0 -217 -144.5 -339t-366.5 -122zM492 1567l163 276h267l-217 -276h-213z" />
    <glyph glyph-name="Ucircumflex" unicode="&#xdb;" horiz-adv-x="1269" 
d="M911 1434h236v-1000q0 -217 -144.5 -339t-366.5 -122t-367.5 122t-145.5 339v1000h235v-985q0 -119 71 -182.5t206 -63.5t205.5 63.5t70.5 182.5v985zM514 1843h231l218 -287h-226l-106 152l-109 -152h-225z" />
    <glyph glyph-name="Udieresis" unicode="&#xdc;" horiz-adv-x="1269" 
d="M636 -27q-222 0 -367.5 122t-145.5 339v1000h235v-985q0 -119 71 -182.5t206 -63.5t205.5 63.5t70.5 182.5v985h236v-1000q0 -217 -144.5 -339t-366.5 -122zM723 1573v215h215v-215h-215zM334 1573v215h215v-215h-215z" />
    <glyph glyph-name="Yacute" unicode="&#xdd;" horiz-adv-x="1214" 
d="M725 0h-236v647l-479 787h269l327 -562l330 562h268l-479 -789v-645zM891 1843l-217 -276h-213l164 276h266z" />
    <glyph glyph-name="Thorn" unicode="&#xde;" horiz-adv-x="1198" 
d="M676 477q94 0 160 70t65 170q0 100 -65 170q-66 70 -160 69h-297v-479h297zM676 1178q192 0 326 -134t134 -326q0 -190 -134 -326t-326 -136h-297v-256h-236v1434h236v-256h297z" />
    <glyph glyph-name="germandbls" unicode="&#xdf;" horiz-adv-x="1040" 
d="M788 326q0 93 -130 231t-130 229q0 56 75 162t75 172t-42 102q-42 34 -113 34t-122 -45q-51 -44 -51 -146v-1065h-221v1065q0 183 110 289q111 106 287 106t274 -86t99 -214q0 -128 -117 -279q-39 -51 -39 -88q0 -64 134 -201q49 -51 91 -132t42 -165q0 -154 -112 -241
t-339 -64v196q229 -23 229 140z" />
    <glyph glyph-name="agrave" unicode="&#xe0;" horiz-adv-x="1034" 
d="M495 145q99 0 159.5 43t60.5 112t-60.5 110t-159.5 41t-150.5 -41t-51.5 -111t51.5 -112t150.5 -42zM525 1051q177 0 292 -104.5t115 -291.5v-655h-217v96q-98 -123 -291 -123q-147 0 -249.5 85t-102.5 241t102 240t269 84t272 -105v127q0 102 -51.5 150.5t-137.5 48.5
t-139 -42t-53 -116h-217q0 166 115.5 265.5t292.5 99.5zM659 1167h-213l-217 277h267z" />
    <glyph glyph-name="aacute" unicode="&#xe1;" horiz-adv-x="1034" 
d="M495 145q99 0 159.5 43t60.5 112t-60.5 110t-159.5 41t-150.5 -41t-51.5 -111t51.5 -112t150.5 -42zM525 1051q177 0 292 -104.5t115 -291.5v-655h-217v96q-98 -123 -291 -123q-147 0 -249.5 85t-102.5 241t102 240t269 84t272 -105v127q0 102 -51.5 150.5t-137.5 48.5
t-139 -42t-53 -116h-217q0 166 115.5 265.5t292.5 99.5zM813 1444l-217 -277h-213l164 277h266z" />
    <glyph glyph-name="acircumflex" unicode="&#xe2;" horiz-adv-x="1034" 
d="M495 145q99 0 159.5 43t60.5 112t-60.5 110t-159.5 41t-150.5 -41t-51.5 -111t51.5 -112t150.5 -42zM525 1051q177 0 292 -104.5t115 -291.5v-655h-217v96q-98 -123 -291 -123q-147 0 -249.5 85t-102.5 241t102 240t269 84t272 -105v127q0 102 -51.5 150.5t-137.5 48.5
t-139 -42t-53 -116h-217q0 166 115.5 265.5t292.5 99.5zM406 1444h231l217 -287h-225l-107 152l-108 -152h-226z" />
    <glyph glyph-name="atilde" unicode="&#xe3;" horiz-adv-x="1034" 
d="M495 145q99 0 159.5 43t60.5 112t-60.5 110t-159.5 41t-150.5 -41t-51.5 -111t51.5 -112t150.5 -42zM525 1051q177 0 292 -104.5t115 -291.5v-655h-217v96q-98 -123 -291 -123q-147 0 -249.5 85t-102.5 241t102 240t269 84t272 -105v127q0 102 -51.5 150.5t-137.5 48.5
t-139 -42t-53 -116h-217q0 166 115.5 265.5t292.5 99.5zM381 1171h-182q0 143 53 215t130 70t163 -59q66 -53 96.5 -46t30.5 93h182q0 -143 -52 -215t-129 -69.5t-163 59.5q-68 53 -98.5 45.5t-30.5 -93.5z" />
    <glyph glyph-name="adieresis" unicode="&#xe4;" horiz-adv-x="1034" 
d="M495 145q99 0 159.5 43t60.5 112t-60.5 110t-159.5 41t-150.5 -41t-51.5 -111t51.5 -112t150.5 -42zM525 1051q177 0 292 -104.5t115 -291.5v-655h-217v96q-98 -123 -291 -123q-147 0 -249.5 85t-102.5 241t102 240t269 84t272 -105v127q0 102 -51.5 150.5t-137.5 48.5
t-139 -42t-53 -116h-217q0 166 115.5 265.5t292.5 99.5zM829 1389v-215h-215v215h215zM440 1389v-215h-215v215h215z" />
    <glyph glyph-name="aring" unicode="&#xe5;" horiz-adv-x="1034" 
d="M495 145q99 0 159.5 43t60.5 112t-60.5 110t-159.5 41t-150.5 -41t-51.5 -111t51.5 -112t150.5 -42zM525 1051q177 0 292 -104.5t115 -291.5v-655h-217v96q-98 -123 -291 -123q-147 0 -249.5 85t-102.5 241t102 240t269 84t272 -105v127q0 102 -51.5 150.5t-137.5 48.5
t-139 -42t-53 -116h-217q0 166 115.5 265.5t292.5 99.5zM529 1438q-42 0 -65.5 -23.5t-23.5 -61.5t23.5 -61.5t65.5 -23.5t65.5 23.5t23.5 61.5t-23.5 61.5t-65.5 23.5zM529.5 1122q-107.5 0 -176 65.5t-68.5 164t68.5 165t176 66.5t176 -65.5t68.5 -166t-68.5 -165
t-176 -64.5z" />
    <glyph glyph-name="ae" unicode="&#xe6;" horiz-adv-x="1714" 
d="M495 451q-99 0 -151 -41t-51 -110t55 -112t152 -43t156 43t58 112t-60 110t-159 41zM942 600h494q-12 125 -78 187q-66 63 -168 63t-166 -66t-82 -184zM1206 164q143 0 191 125l225 2q-31 -145 -142 -231q-112 -85 -261 -85q-242 0 -359 183q-98 -184 -381 -185
q-180 0 -294 87q-113 87 -113 241t102 238t265 84t276 -95v117q0 103 -51 151q-52 48 -138 48t-139 -42t-53 -116h-217q0 166 114 265q115 99 283 100q246 0 348 -191q117 190 336 190t338 -154q119 -155 119 -386q0 -35 -8 -92h-705q41 -254 264 -254z" />
    <glyph glyph-name="ccedilla" unicode="&#xe7;" horiz-adv-x="1163" 
d="M612 190q94 0 168 46.5t105 121.5h233q-33 -147 -144.5 -248.5t-264.5 -127.5v-76q70 -12 114.5 -54t44.5 -108q0 -213 -440 -186v161q248 -20 248 52q0 55 -150 61v148q-201 29 -327.5 178t-126.5 366t154.5 372t385.5 155q186 0 326.5 -107.5t179.5 -277.5h-233
q-33 78 -105.5 123t-167.5 45q-135 0 -227 -92.5t-92 -229.5t92 -229.5t227 -92.5z" />
    <glyph glyph-name="egrave" unicode="&#xe8;" horiz-adv-x="1175" 
d="M600 850q-115 0 -196.5 -67.5t-104.5 -182.5h594q-20 123 -99 186.5t-194 63.5zM597 164q101 0 166.5 34.5t94.5 90.5l225 2q-47 -147 -173 -232.5t-298 -85.5q-242 0 -391 153t-149 385t149.5 386t380.5 154t372.5 -157t141.5 -384q0 -35 -8 -92h-807
q25 -123 110 -188.5t186 -65.5zM743 1163h-213l-217 277h267z" />
    <glyph glyph-name="eacute" unicode="&#xe9;" horiz-adv-x="1175" 
d="M600 850q-115 0 -196.5 -67.5t-104.5 -182.5h594q-20 123 -99 186.5t-194 63.5zM597 164q101 0 166.5 34.5t94.5 90.5l225 2q-47 -147 -173 -232.5t-298 -85.5q-242 0 -391 153t-149 385t149.5 386t380.5 154t372.5 -157t141.5 -384q0 -35 -8 -92h-807
q25 -123 110 -188.5t186 -65.5zM897 1440l-217 -277h-213l164 277h266z" />
    <glyph glyph-name="ecircumflex" unicode="&#xea;" horiz-adv-x="1175" 
d="M600 850q-115 0 -196.5 -67.5t-104.5 -182.5h594q-20 123 -99 186.5t-194 63.5zM597 164q101 0 166.5 34.5t94.5 90.5l225 2q-47 -147 -173 -232.5t-298 -85.5q-242 0 -391 153t-149 385t149.5 386t380.5 154t372.5 -157t141.5 -384q0 -35 -8 -92h-807
q25 -123 110 -188.5t186 -65.5zM489 1440h232l217 -287h-225l-107 152l-108 -152h-226z" />
    <glyph glyph-name="edieresis" unicode="&#xeb;" horiz-adv-x="1175" 
d="M600 850q-115 0 -196.5 -67.5t-104.5 -182.5h594q-20 123 -99 186.5t-194 63.5zM597 164q101 0 166.5 34.5t94.5 90.5l225 2q-47 -147 -173 -232.5t-298 -85.5q-242 0 -391 153t-149 385t149.5 386t380.5 154t372.5 -157t141.5 -384q0 -35 -8 -92h-807
q25 -123 110 -188.5t186 -65.5zM911 1384v-215h-215v215h215zM522 1384v-215h-215v215h215z" />
    <glyph glyph-name="igrave" unicode="&#xec;" horiz-adv-x="477" 
d="M350 0h-221v1024h221v-1024zM342 1147h-213l-135 287h256z" />
    <glyph glyph-name="iacute" unicode="&#xed;" horiz-adv-x="477" 
d="M129 0v1024h221v-1024h-221zM131 1147l92 287h256l-135 -287h-213z" />
    <glyph glyph-name="icircumflex" unicode="&#xee;" horiz-adv-x="477" 
d="M129 0v1024h221v-1024h-221zM123 1434h231l187 -287h-226l-75 127l-78 -127h-225z" />
    <glyph glyph-name="idieresis" unicode="&#xef;" horiz-adv-x="477" 
d="M129 0v1024h221v-1024h-221zM295 1163v215h215v-215h-215zM-33 1163v215h215v-215h-215z" />
    <glyph glyph-name="eth" unicode="&#xf0;" horiz-adv-x="1179" 
d="M590 184q127 0 212 78t85 194t-49 181q-82 113 -246 113q-131 0 -215 -76t-84 -205t85 -207t212 -78zM1108 471q0 -223 -152 -359t-366 -136t-367 136q-151 136 -151 358t165 359t384 103h2l-138 186l-249 -133v164l163 88l-143 197h254l74 -101l239 127v-164l-151 -79
l342 -459q94 -125 94 -287z" />
    <glyph glyph-name="ntilde" unicode="&#xf1;" horiz-adv-x="1081" 
d="M641 1051q147 0 242.5 -105.5t95.5 -286.5v-659h-221v647q0 94 -52.5 145.5t-141.5 51.5t-151.5 -61.5t-62.5 -194.5v-588h-221v1024h221v-117q94 144 291 144zM403 1171h-182q-1 143 53 215q102 137 293 11q66 -53 96.5 -46t30.5 93h183q0 -143 -52.5 -215t-129.5 -69.5
t-163 59.5q-68 53 -98.5 45.5t-30.5 -93.5z" />
    <glyph glyph-name="ograve" unicode="&#xf2;" horiz-adv-x="1224" 
d="M612.5 188q135.5 0 227.5 92.5t92 231.5t-92 231.5t-227.5 92.5t-227.5 -92.5t-92 -231.5t92 -231.5t227.5 -92.5zM613 -27q-226 0 -383.5 156t-157.5 383t157.5 383t383.5 156t383 -156t157 -383t-157 -383t-383 -156zM745 1167h-213l-217 277h267z" />
    <glyph glyph-name="oacute" unicode="&#xf3;" horiz-adv-x="1224" 
d="M612.5 188q135.5 0 227.5 92.5t92 231.5t-92 231.5t-227.5 92.5t-227.5 -92.5t-92 -231.5t92 -231.5t227.5 -92.5zM613 -27q-226 0 -383.5 156t-157.5 383t157.5 383t383.5 156t383 -156t157 -383t-157 -383t-383 -156zM469 1167l164 277h266l-217 -277h-213z" />
    <glyph glyph-name="ocircumflex" unicode="&#xf4;" horiz-adv-x="1224" 
d="M612.5 188q135.5 0 227.5 92.5t92 231.5t-92 231.5t-227.5 92.5t-227.5 -92.5t-92 -231.5t92 -231.5t227.5 -92.5zM613 1051q226 0 383 -156t157 -383t-156.5 -383t-383 -156t-384 156t-157.5 383t157.5 383t383.5 156zM492 1444h231l217 -287h-225l-107 152l-108 -152
h-226z" />
    <glyph glyph-name="otilde" unicode="&#xf5;" horiz-adv-x="1224" 
d="M612.5 188q135.5 0 227.5 92.5t92 231.5t-92 231.5t-227.5 92.5t-227.5 -92.5t-92 -231.5t92 -231.5t227.5 -92.5zM613 -27q-226 0 -383.5 156t-157.5 383t157.5 383t383.5 156t383 -156t157 -383t-157 -383t-383 -156zM285 1171q0 143 53 215t130 70t163 -59
q66 -53 96.5 -46t30.5 93h182q0 -143 -52 -215t-129 -70t-163 60q-68 53 -98.5 45.5t-30.5 -93.5h-182z" />
    <glyph glyph-name="odieresis" unicode="&#xf6;" horiz-adv-x="1224" 
d="M612.5 188q135.5 0 227.5 92.5t92 231.5t-92 231.5t-227.5 92.5t-227.5 -92.5t-92 -231.5t92 -231.5t227.5 -92.5zM613 -27q-226 0 -383.5 156t-157.5 383t157.5 383t383.5 156t383 -156t157 -383t-157 -383t-383 -156zM700 1174v215h215v-215h-215zM311 1174v215h215
v-215h-215z" />
    <glyph glyph-name="divide" unicode="&#xf7;" horiz-adv-x="1167" 
d="M584 176q-63 0 -106 42q-42 42 -42 106t42 106q42 43 106 43t106 -43q43 -43 43 -106q0 -64 -43 -106t-106 -42zM102 612v209h963v-209h-963zM584 963q-63 0 -106 42q-42 42 -42 105q0 62 42 106t106 44t106 -43q43 -43 43 -107t-43 -105q-43 -42 -106 -42z" />
    <glyph glyph-name="oslash" unicode="&#xf8;" horiz-adv-x="1224" 
d="M612 188q135 0 227.5 92.5t92.5 223.5t-74 221l-414 -492q78 -45 168 -45zM293 525q0 -126 65 -214l408 488q-68 37 -154 37q-135 0 -227 -92.5t-92 -218.5zM1153 511q0 -226 -156.5 -382t-384.5 -156q-166 0 -307 93l-55 -66h-154l119 143q-143 154 -143 375t157.5 377
t382.5 156q160 0 293 -84l49 57h154l-111 -131q156 -156 156 -382z" />
    <glyph glyph-name="ugrave" unicode="&#xf9;" horiz-adv-x="1081" 
d="M733 1024h221v-1024h-221v117q-94 -143 -291 -144q-147 0 -242.5 105.5t-95.5 286.5v659h222v-645q0 -96 51 -147.5t141 -51.5t152.5 62.5t62.5 193.5v588zM670 1157h-213l-217 277h266z" />
    <glyph glyph-name="uacute" unicode="&#xfa;" horiz-adv-x="1081" 
d="M733 1024h221v-1024h-221v117q-94 -143 -291 -144q-147 0 -242.5 105.5t-95.5 286.5v659h222v-645q0 -96 51 -147.5t141 -51.5t152.5 62.5t62.5 193.5v588zM823 1434l-217 -277h-213l164 277h266z" />
    <glyph glyph-name="ucircumflex" unicode="&#xfb;" horiz-adv-x="1081" 
d="M733 1024h221v-1024h-221v117q-94 -143 -291 -144q-147 0 -242.5 105.5t-95.5 286.5v659h222v-645q0 -96 51 -147.5t141 -51.5t152.5 62.5t62.5 193.5v588zM416 1434h231l217 -287h-225l-107 151l-108 -151h-225z" />
    <glyph glyph-name="udieresis" unicode="&#xfc;" horiz-adv-x="1081" 
d="M733 1024h221v-1024h-221v117q-94 -143 -291 -144q-147 0 -242.5 105.5t-95.5 286.5v659h222v-645q0 -96 51 -147.5t141 -51.5t152.5 62.5t62.5 193.5v588zM840 1378v-215h-215v215h215zM451 1378v-215h-215v215h215z" />
    <glyph glyph-name="yacute" unicode="&#xfd;" horiz-adv-x="1003" 
d="M758 1024h235l-491 -1434h-236l144 422l-400 1012h236l274 -705zM358 1157l164 277h266l-217 -277h-213z" />
    <glyph glyph-name="thorn" unicode="&#xfe;" 
d="M674 184q139 0 231 94t92 234q0 141 -92 234q-92 94 -231 94q-140 0 -232 -94t-92 -234t92 -234t232 -94zM696 1051q224 0 374 -156t149 -382q0 -226 -150 -383t-374 -157t-345 174v-557h-221v1844h221v-557q122 174 346 174z" />
    <glyph glyph-name="ydieresis" unicode="&#xff;" horiz-adv-x="1003" 
d="M758 1024h235l-491 -1434h-236l144 422l-400 1012h236l274 -705zM590 1163v215h215v-215h-215zM201 1163v215h215v-215h-215z" />
    <glyph glyph-name="Amacron" unicode="&#x100;" horiz-adv-x="1320" 
d="M438 510h445l-221 655zM1057 0l-99 289h-596l-96 -289h-256l510 1434h283l508 -1434h-254zM948 1759v-182h-573v182h573z" />
    <glyph glyph-name="amacron" unicode="&#x101;" horiz-adv-x="1034" 
d="M495 145q99 0 159.5 43t60.5 112t-60.5 110t-159.5 41t-150.5 -41t-51.5 -111t51.5 -112t150.5 -42zM525 1051q177 0 292 -104.5t115 -291.5v-655h-217v96q-98 -123 -291 -123q-147 0 -249.5 85t-102.5 241t102 240t269 84t272 -105v127q0 102 -51.5 150.5t-137.5 48.5
t-139 -42t-53 -116h-217q0 166 115.5 265.5t292.5 99.5zM813 1360v-182h-573v182h573z" />
    <glyph glyph-name="Abreve" unicode="&#x102;" horiz-adv-x="1320" 
d="M438 510h445l-221 655zM1057 0l-99 289h-596l-96 -289h-256l510 1434h283l508 -1434h-254zM661 1540q-153 0 -238 75t-85 212h201q0 -121 122 -121t121 121h201q0 -137 -84.5 -212t-237.5 -75z" />
    <glyph glyph-name="abreve" unicode="&#x103;" horiz-adv-x="1034" 
d="M495 145q99 0 159.5 43t60.5 112t-60.5 110t-159.5 41t-150.5 -41t-51.5 -111t51.5 -112t150.5 -42zM525 1051q177 0 292 -104.5t115 -291.5v-655h-217v96q-98 -123 -291 -123q-147 0 -249.5 85t-102.5 241t102 240t269 84t272 -105v127q0 102 -51.5 150.5t-137.5 48.5
t-139 -42t-53 -116h-217q0 166 115.5 265.5t292.5 99.5zM527 1141q-153 0 -237.5 74.5t-84.5 211.5h201q0 -121 121.5 -120.5t121.5 120.5h201q0 -137 -85 -211.5t-238 -74.5z" />
    <glyph glyph-name="Aogonek" unicode="&#x104;" horiz-adv-x="1320" 
d="M438 510h445l-221 655zM975 -266q0 127 139 266h-57l-99 289h-596l-96 -289h-256l510 1434h283l508 -1434q-123 -123 -123 -215q-2 -57 57 -57q25 -2 66 12v-148q-70 -29 -153 -28.5t-133 45.5t-50 125z" />
    <glyph glyph-name="aogonek" unicode="&#x105;" horiz-adv-x="1034" 
d="M293 299q-1 -70 51 -112t151 -42t159 43t60 112t-60 110t-159 41t-151 -41t-51 -111zM596 -266q0 119 129 266h-10v96q-98 -123 -291 -123q-147 0 -250 85q-102 85 -102 241t102 240t269 84t272 -105v127q0 103 -51 151q-52 48 -138 48t-139 -42t-53 -116h-217
q0 166 115 265q116 99 293 99t292 -104t115 -291v-655q-123 -123 -123 -215q-2 -57 57 -57q25 -2 66 12v-148q-70 -28 -153 -28t-133 45t-50 125z" />
    <glyph glyph-name="Cacute" unicode="&#x106;" horiz-adv-x="1548" 
d="M821 -27q-324 0 -536.5 214t-212.5 529.5t213 529.5t536 214q248 0 439.5 -144.5t246.5 -373.5h-247q-45 131 -166 210t-273 79q-229 0 -371.5 -145.5t-142.5 -368.5t142.5 -368.5t371.5 -145.5q152 0 272.5 78.5t166.5 210.5h247q-53 -227 -245.5 -373t-440.5 -146z
M678 1577l164 276h266l-217 -276h-213z" />
    <glyph glyph-name="cacute" unicode="&#x107;" horiz-adv-x="1163" 
d="M612 -27q-231 0 -385.5 156t-154.5 384t154.5 383t385.5 155q186 0 326.5 -107.5t179.5 -277.5h-233q-33 78 -105.5 123t-167.5 45q-135 0 -227 -92.5t-92 -229.5t92 -229.5t227 -92.5q94 0 168 46.5t105 121.5h233q-39 -170 -180 -277.5t-326 -107.5zM461 1157l164 277
h266l-217 -277h-213z" />
    <glyph glyph-name="Cdotaccent" unicode="&#x10a;" horiz-adv-x="1548" 
d="M821 -27q-324 0 -536.5 214t-212.5 529.5t213 529.5t536 214q248 0 439.5 -144.5t246.5 -373.5h-247q-45 131 -166 210t-273 79q-229 0 -371.5 -145.5t-142.5 -368.5t142.5 -368.5t371.5 -145.5q152 0 272.5 78.5t166.5 210.5h247q-53 -227 -245.5 -373t-440.5 -146z
M700 1577v246h246v-246h-246z" />
    <glyph glyph-name="cdotaccent" unicode="&#x10b;" horiz-adv-x="1163" 
d="M612 -27q-231 0 -385.5 156t-154.5 384t154.5 383t385.5 155q186 0 326.5 -107.5t179.5 -277.5h-233q-33 78 -105.5 123t-167.5 45q-135 0 -227 -92.5t-92 -229.5t92 -229.5t227 -92.5q94 0 168 46.5t105 121.5h233q-39 -170 -180 -277.5t-326 -107.5zM483 1157v246h246
v-246h-246z" />
    <glyph glyph-name="Ccaron" unicode="&#x10c;" horiz-adv-x="1548" 
d="M821 203q152 0 272.5 78.5t166.5 210.5h247q-53 -227 -245.5 -373t-440.5 -146q-324 0 -536.5 214t-212.5 529.5t213 529.5t536 214q248 0 439.5 -144.5t246.5 -373.5h-247q-45 131 -166 210t-273 79q-229 0 -371.5 -145.5t-142.5 -368.5t142.5 -368.5t371.5 -145.5z
M700 1567l-217 286h226l108 -149l107 149h225l-217 -286h-232z" />
    <glyph glyph-name="ccaron" unicode="&#x10d;" horiz-adv-x="1163" 
d="M612 190q94 0 168 46.5t105 121.5h233q-39 -170 -180 -277.5t-326 -107.5q-231 0 -385.5 156t-154.5 384t154.5 383t385.5 155q186 0 326.5 -107.5t179.5 -277.5h-233q-33 78 -105.5 123t-167.5 45q-135 0 -227 -92.5t-92 -229.5t92 -229.5t227 -92.5zM483 1147l-217 287
h226l108 -150l107 150h225l-217 -287h-232z" />
    <glyph glyph-name="Dcaron" unicode="&#x10e;" horiz-adv-x="1505" 
d="M748 225q203 0 330.5 139.5t127.5 353.5t-128 352t-330 138h-369v-983h369zM748 1434q295 0 490.5 -207t195.5 -509t-196 -510t-490 -208h-605v1434h605zM575 1556l-217 287h226l108 -149l107 149h225l-217 -287h-232z" />
    <glyph glyph-name="dcaron" unicode="&#x10f;" horiz-adv-x="1482" 
d="M618 184q140 0 232 94t92 234q0 141 -92 234q-92 94 -232 94t-231 -94q-92 -94 -92 -234t92 -234t231 -94zM1292 1434h211l-61 -390h-170zM942 1434h221v-1434h-221v147q-127 -174 -349 -174t-371 157q-148 157 -148 383t148 382t372 156t348 -174v557z" />
    <glyph glyph-name="Dcroat" unicode="&#x110;" horiz-adv-x="1566" 
d="M809 225q203 0 331 139.5t128 353.5t-128 352t-331 138h-369v-395h369v-213h-369v-375h369zM809 1434q295 0 490.5 -207t195.5 -509t-195.5 -510t-490.5 -208h-604v600h-154v213h154v621h604z" />
    <glyph glyph-name="dcroat" unicode="&#x111;" horiz-adv-x="1304" 
d="M616 184q140 0 232 94t92 234q0 141 -92 234q-92 94 -232 94t-231 -94q-92 -94 -92 -234t92 -234t231 -94zM1294 1300v-151h-133v-1149h-221v147q-125 -174 -347 -174t-372 157q-149 157 -149 383t149 382q150 156 372 156t347 -174v272h-332v151h332v134h221v-134h133z
" />
    <glyph glyph-name="Emacron" unicode="&#x112;" horiz-adv-x="1054" 
d="M379 225h604v-225h-840v1434h830v-226h-594v-372h543v-222h-543v-389zM846 1759v-182h-574v182h574z" />
    <glyph glyph-name="emacron" unicode="&#x113;" horiz-adv-x="1175" 
d="M600 850q-115 0 -196.5 -67.5t-104.5 -182.5h594q-20 123 -99 186.5t-194 63.5zM597 164q101 0 166.5 34.5t94.5 90.5l225 2q-47 -147 -173 -232.5t-298 -85.5q-242 0 -391 153t-149 385t149.5 386t380.5 154t372.5 -157t141.5 -384q0 -35 -8 -92h-807
q25 -123 110 -188.5t186 -65.5zM897 1356v-182h-573v182h573z" />
    <glyph glyph-name="Edotaccent" unicode="&#x116;" horiz-adv-x="1054" 
d="M379 225h604v-225h-840v1434h830v-226h-594v-372h543v-222h-543v-389zM684 1812v-245h-246v245h246z" />
    <glyph glyph-name="edotaccent" unicode="&#x117;" horiz-adv-x="1175" 
d="M600 850q-115 0 -196.5 -67.5t-104.5 -182.5h594q-20 123 -99 186.5t-194 63.5zM597 164q101 0 166.5 34.5t94.5 90.5l225 2q-47 -147 -173 -232.5t-298 -85.5q-242 0 -391 153t-149 385t149.5 386t380.5 154t372.5 -157t141.5 -384q0 -35 -8 -92h-807
q25 -123 110 -188.5t186 -65.5zM735 1409v-246h-246v246h246z" />
    <glyph glyph-name="Eogonek" unicode="&#x118;" horiz-adv-x="1054" 
d="M647 -266q0 123 139 266h-643v1434h830v-226h-594v-372h543v-222h-543v-389h604v-225h2q-125 -121 -125 -215q1 -57 58 -57q25 -2 67 12v-148q-70 -29 -152.5 -28.5t-134 45.5t-51.5 125z" />
    <glyph glyph-name="eogonek" unicode="&#x119;" horiz-adv-x="1175" 
d="M600 850q-115 0 -196.5 -67.5t-104.5 -182.5h594q-20 123 -99 186.5t-194 63.5zM597 164q101 0 166.5 34.5t94.5 90.5l225 2q-47 -141 -157 -221q-160 -180 -160 -285q0 -57 57 -57q25 -2 68 12v-148q-70 -29 -153 -28.5t-134 45.5t-51 125q0 121 129 243q-45 -4 -70 -4
q-242 0 -391 153t-149 385t149.5 386t380.5 154t372.5 -157t141.5 -384q0 -35 -8 -92h-807q25 -123 110 -188.5t186 -65.5z" />
    <glyph glyph-name="Ecaron" unicode="&#x11a;" horiz-adv-x="1054" 
d="M379 225h604v-225h-840v1434h830v-226h-594v-372h543v-222h-543v-389zM438 1556l-217 287h225l109 -149l107 149h225l-217 -287h-232z" />
    <glyph glyph-name="ecaron" unicode="&#x11b;" horiz-adv-x="1175" 
d="M600 850q-115 0 -196.5 -67.5t-104.5 -182.5h594q-20 123 -99 186.5t-194 63.5zM597 164q101 0 166.5 34.5t94.5 90.5l225 2q-47 -147 -173 -232.5t-298 -85.5q-242 0 -391 153t-149 385t149.5 386t380.5 154t372.5 -157t141.5 -384q0 -35 -8 -92h-807
q25 -123 110 -188.5t186 -65.5zM489 1153l-217 287h226l108 -150l107 150h225l-217 -287h-232z" />
    <glyph glyph-name="Gbreve" unicode="&#x11e;" horiz-adv-x="1615" 
d="M838 543v211h665v-754h-225v197q-160 -223 -476 -223.5t-523 214.5t-207 528.5t212 528.5t531 215q246 0 439.5 -141t248.5 -356h-250q-45 117 -165.5 192.5t-272.5 75.5q-225 0 -366.5 -145.5t-141.5 -371.5t142.5 -373.5t365.5 -147.5q178 0 307 90t150 260h-434z
M806 1550q-153 0 -238 75t-85 212h201q0 -121 122 -121t122 121h200q0 -137 -84.5 -212t-237.5 -75z" />
    <glyph glyph-name="gbreve" unicode="&#x11f;" horiz-adv-x="1284" 
d="M618.5 201q139.5 0 232.5 92t93 229t-93 229.5t-232.5 92.5t-232.5 -92.5t-93 -229.5t93 -229t232.5 -92zM944 1024h217v-977q-1 -159 -77 -271q-144 -212 -443 -212q-205 0 -354.5 109.5t-149.5 289.5h221q0 -76 78 -137.5t213 -61.5t215 75t80 208v125
q-125 -178 -348 -178t-373.5 154.5t-150.5 373.5t149.5 374t374 155t348.5 -179v152zM615 1141q-153 0 -237.5 74.5t-84.5 211.5h201q0 -121 121.5 -120.5t121.5 120.5h201q0 -137 -85 -211.5t-238 -74.5z" />
    <glyph glyph-name="Gdotaccent" unicode="&#x120;" horiz-adv-x="1615" 
d="M838 543v211h665v-754h-225v197q-160 -223 -476 -223.5t-523 214.5t-207 528.5t212 528.5t531 215q246 0 439.5 -141t248.5 -356h-250q-45 117 -165.5 192.5t-272.5 75.5q-225 0 -366.5 -145.5t-141.5 -371.5t142.5 -373.5t365.5 -147.5q178 0 307 90t150 260h-434z
M930 1823v-246h-246v246h246z" />
    <glyph glyph-name="gdotaccent" unicode="&#x121;" horiz-adv-x="1284" 
d="M618.5 201q139.5 0 232.5 92t93 229t-93 229.5t-232.5 92.5t-232.5 -92.5t-93 -229.5t93 -229t232.5 -92zM944 1024h217v-977q-1 -159 -77 -271q-144 -212 -443 -212q-205 0 -354.5 109.5t-149.5 289.5h221q0 -76 78 -137.5t213 -61.5t215 75t80 208v125
q-125 -178 -348 -178t-373.5 154.5t-150.5 373.5t149.5 374t374 155t348.5 -179v152zM741 1413v-246h-245v246h245z" />
    <glyph glyph-name="Gcommaaccent" unicode="&#x122;" horiz-adv-x="1615" 
d="M725 -522l20 389h211l-61 -389h-170zM838 543v211h665v-754h-225v197q-160 -223 -476 -223.5t-523 214.5t-207 528.5t212 528.5t531 215q246 0 439.5 -141t248.5 -356h-250q-45 117 -165.5 192.5t-272.5 75.5q-225 0 -366.5 -145.5t-141.5 -371.5t142.5 -373.5
t365.5 -147.5q178 0 307 90t150 260h-434z" />
    <glyph glyph-name="gcommaaccent" unicode="&#x123;" horiz-adv-x="1284" 
d="M618.5 201q139.5 0 232.5 92t93 229t-93 229.5t-232.5 92.5t-232.5 -92.5t-93 -229.5t93 -229t232.5 -92zM944 1024h217v-977q-1 -159 -77 -271q-144 -212 -443 -212q-205 0 -354.5 109.5t-149.5 289.5h221q0 -76 78 -137.5t213 -61.5t215 75t80 208v125
q-125 -178 -348 -178t-373.5 154.5t-150.5 373.5t149.5 374t374 155t348.5 -179v152zM729 1587l-20 -389h-211l61 389h170z" />
    <glyph glyph-name="Hbar" unicode="&#x126;" horiz-adv-x="1392" 
d="M969 819v215h-543v-215h543zM1331 1210v-176h-127v-1034h-235v594h-543v-594h-236v1034h-129v176h129v224h236v-224h543v224h235v-224h127z" />
    <glyph glyph-name="hbar" unicode="&#x127;" horiz-adv-x="1095" 
d="M655 1051q147 1 243 -105t95 -287v-659h-221v647q0 93 -51 145t-141 52t-152 -62t-63 -194v-588h-222v1149h-133v151h133v134h222v-134h290v-151h-290v-242q93 144 290 144z" />
    <glyph glyph-name="Imacron" unicode="&#x12a;" horiz-adv-x="522" 
d="M143 1434h236v-1434h-236v1434zM-27 1577v182h574v-182h-574z" />
    <glyph glyph-name="imacron" unicode="&#x12b;" horiz-adv-x="477" 
d="M129 0v1024h221v-1024h-221zM14 1167v193h451v-193h-451z" />
    <glyph glyph-name="Iogonek" unicode="&#x12e;" horiz-adv-x="522" 
d="M90 -266q0 121 88 266h-35v1434h236v-1434q-76 -129 -76 -215q-2 -57 57 -57q25 -2 66 12v-148q-70 -29 -153 -28.5t-133 45.5t-50 125z" />
    <glyph glyph-name="iogonek" unicode="&#x12f;" horiz-adv-x="477" 
d="M129 0v1024h221v-1024q-76 -124 -76 -198t58 -74q25 -2 67 12v-148q-71 -28 -153 -28t-133 49t-51 145t83 242h-16zM350 1434v-246h-221v246h221z" />
    <glyph glyph-name="Idotaccent" unicode="&#x130;" horiz-adv-x="522" 
d="M143 1434h236v-1434h-236v1434zM141 1567v245h246v-245h-246z" />
    <glyph glyph-name="dotlessi" unicode="&#x131;" horiz-adv-x="477" 
d="M129 0v1024h221v-1024h-221z" />
    <glyph glyph-name="Kcommaaccent" unicode="&#x136;" horiz-adv-x="1234" 
d="M512 -522l20 389h211l-61 -389h-170zM379 0h-236v1434h236v-641l545 641h280l-581 -699l602 -735h-281l-565 682v-682z" />
    <glyph glyph-name="kcommaaccent" unicode="&#x137;" horiz-adv-x="1044" 
d="M446 -522l21 389h211l-62 -389h-170zM350 0h-221v1434h221v-863l389 453h265l-439 -502l459 -522h-264l-410 473v-473z" />
    <glyph glyph-name="Lacute" unicode="&#x139;" horiz-adv-x="983" 
d="M379 225h573v-225h-809v1434h236v-1209zM578 1843l-218 -276h-213l164 276h267z" />
    <glyph glyph-name="lacute" unicode="&#x13a;" horiz-adv-x="477" 
d="M129 0v1475h221v-1475h-221zM125 1567l164 276h266l-217 -276h-213z" />
    <glyph glyph-name="Lcommaaccent" unicode="&#x13b;" horiz-adv-x="983" 
d="M453 -522l20 389h211l-61 -389h-170zM379 225h573v-225h-809v1434h236v-1209z" />
    <glyph glyph-name="lcommaaccent" unicode="&#x13c;" horiz-adv-x="477" 
d="M287 -522h-170l20 389h211zM129 0v1475h221v-1475h-221z" />
    <glyph glyph-name="Lcaron" unicode="&#x13d;" horiz-adv-x="983" 
d="M782 1434l-61 -369h-180l20 369h221zM379 225h573v-225h-809v1434h236v-1209z" />
    <glyph glyph-name="lcaron" unicode="&#x13e;" horiz-adv-x="669" 
d="M629 1085h-170l20 390h211zM129 0v1475h221v-1475h-221z" />
    <glyph glyph-name="Lslash" unicode="&#x141;" horiz-adv-x="1034" 
d="M420 225h573v-225h-809v455l-112 -74v231l112 74v748h236v-592l307 200v-231l-307 -201v-385z" />
    <glyph glyph-name="lslash" unicode="&#x142;" horiz-adv-x="522" 
d="M373 0h-221v539l-121 -82v211l121 82v725h221v-574l119 82v-211l-119 -82v-690z" />
    <glyph glyph-name="Nacute" unicode="&#x143;" horiz-adv-x="1310" 
d="M932 1434h235v-1434h-184l-604 973v-973h-236v1434h185l604 -973v973zM512 1567l164 276h266l-217 -276h-213z" />
    <glyph glyph-name="nacute" unicode="&#x144;" horiz-adv-x="1081" 
d="M641 1051q147 0 242.5 -105.5t95.5 -286.5v-659h-221v647q0 94 -52.5 145.5t-141.5 51.5t-151.5 -61.5t-62.5 -194.5v-588h-221v1024h221v-117q94 144 291 144zM836 1444l-218 -277h-212l163 277h267z" />
    <glyph glyph-name="Ncommaaccent" unicode="&#x145;" horiz-adv-x="1310" 
d="M709 -522h-170l20 389h211zM932 1434h235v-1434h-184l-604 973v-973h-236v1434h185l604 -973v973z" />
    <glyph glyph-name="ncommaaccent" unicode="&#x146;" horiz-adv-x="1081" 
d="M442 -522l21 389h211l-62 -389h-170zM641 1051q147 0 242.5 -105.5t95.5 -286.5v-659h-221v647q0 94 -52.5 145.5t-141.5 51.5t-151.5 -61.5t-62.5 -194.5v-588h-221v1024h221v-117q94 144 291 144z" />
    <glyph glyph-name="Ncaron" unicode="&#x147;" horiz-adv-x="1310" 
d="M932 1434h235v-1434h-184l-604 973v-973h-236v1434h185l604 -973v973zM535 1556l-218 287h226l108 -149l107 149h225l-217 -287h-231z" />
    <glyph glyph-name="ncaron" unicode="&#x148;" horiz-adv-x="1081" 
d="M641 1051q147 0 242.5 -105.5t95.5 -286.5v-659h-221v647q0 94 -52.5 145.5t-141.5 51.5t-151.5 -61.5t-62.5 -194.5v-588h-221v1024h221v-117q94 144 291 144zM428 1157l-217 287h225l109 -150l106 150h226l-218 -287h-231z" />
    <glyph glyph-name="Eng" unicode="&#x14a;" horiz-adv-x="1310" 
d="M932 1434h235v-1434q0 -410 -460 -410v213q111 0 168 43t57 154v82l-553 891v-973h-236v1434h185l604 -973v973z" />
    <glyph glyph-name="eng" unicode="&#x14b;" horiz-adv-x="1081" 
d="M641 1051q147 1 243 -105t95 -287v-700q0 -203 -103 -306t-307 -89v213q94 -10 142 32q47 42 47 150v688q0 93 -52 145t-142 52t-151 -62q-62 -62 -63 -194v-588h-221v1024h221v-117q94 144 291 144z" />
    <glyph glyph-name="Omacron" unicode="&#x14c;" horiz-adv-x="1630" 
d="M815 203q215 0 361.5 146.5t146.5 367.5t-146.5 367.5t-361.5 146.5t-361.5 -146.5t-146.5 -367.5t146.5 -367.5t361.5 -146.5zM815 -27q-311 0 -527 216.5t-216 527.5t216 527t527 216t527.5 -216t216.5 -527t-216.5 -527.5t-527.5 -216.5zM528 1587v182h574v-182h-574z
" />
    <glyph glyph-name="omacron" unicode="&#x14d;" horiz-adv-x="1224" 
d="M612.5 188q135.5 0 227.5 92.5t92 231.5t-92 231.5t-227.5 92.5t-227.5 -92.5t-92 -231.5t92 -231.5t227.5 -92.5zM613 -27q-226 0 -383.5 156t-157.5 383t157.5 383t383.5 156t383 -156t157 -383t-157 -383t-383 -156zM326 1178v182h573v-182h-573z" />
    <glyph glyph-name="Ohungarumlaut" unicode="&#x150;" horiz-adv-x="1630" 
d="M815 203q215 0 361.5 146.5t146.5 367.5t-146.5 367.5t-361.5 146.5t-361.5 -146.5t-146.5 -367.5t146.5 -367.5t361.5 -146.5zM815 -27q-311 0 -527 216.5t-216 527.5t216 527t527 216t527.5 -216t216.5 -527t-216.5 -527.5t-527.5 -216.5zM842 1567l174 276h233
l-186 -276h-221zM508 1567l154 276h233l-166 -276h-221z" />
    <glyph glyph-name="ohungarumlaut" unicode="&#x151;" horiz-adv-x="1224" 
d="M612.5 188q135.5 0 227.5 92.5t92 231.5t-92 231.5t-227.5 92.5t-227.5 -92.5t-92 -231.5t92 -231.5t227.5 -92.5zM613 -27q-226 0 -383.5 156t-157.5 383t157.5 383t383.5 156t383 -156t157 -383t-157 -383t-383 -156zM639 1157l174 277h234l-187 -277h-221zM305 1157
l154 277h233l-166 -277h-221z" />
    <glyph glyph-name="OE" unicode="&#x152;" horiz-adv-x="1875" 
d="M795 1231q-213 1 -351 -145t-137 -369q0 -223 137 -369t351 -145q108 -1 200 30v967q-84 31 -200 31zM1231 225h573v-225h-809q-92 -27 -200 -27q-309 0 -516 215q-207 214 -207 528t207 529t516 215q109 0 200 -26h799v-226h-563v-372h522v-222h-522v-389z" />
    <glyph glyph-name="oe" unicode="&#x153;" horiz-adv-x="2035" 
d="M293 512q0 -140 90 -232t227 -92q138 0 230 92t92 232q0 139 -92 231q-92 93 -230 93t-227 -92q-90 -92 -90 -232zM1159 600h594q-20 123 -99 186q-79 64 -194 64q-114 0 -196 -68t-105 -182zM1486 -27q-163 0 -276 66t-172 180q-63 -115 -176 -181t-254 -65
q-229 0 -383 156q-153 156 -153 384t153 383q154 155 383 155q141 0 254 -66t176 -182q133 248 435 248q223 0 363 -157t140 -384q0 -35 -8 -92h-807q25 -123 110 -189q85 -65 187 -65t166 35q66 35 94 90l226 2q-47 -147 -171 -233t-287 -85z" />
    <glyph glyph-name="Racute" unicode="&#x154;" 
d="M379 1212v-479h297q94 0 159.5 69.5t65.5 170t-65.5 170t-159.5 69.5h-297zM379 522v-522h-236v1434h533q193 0 327 -134.5t134 -326.5q0 -135 -79 -249t-204 -167l467 -557h-281l-438 522h-223zM860 1843l-217 -276h-213l164 276h266z" />
    <glyph glyph-name="racute" unicode="&#x155;" horiz-adv-x="675" 
d="M645 1042v-239q-123 8 -209 -58.5t-86 -218.5v-526h-221v1024h221v-154q84 172 295 172zM676 1434l-217 -277h-213l164 277h266z" />
    <glyph glyph-name="Rcommaaccent" unicode="&#x156;" 
d="M600 -522l21 389h210l-61 -389h-170zM379 1212v-479h297q94 0 159.5 69.5t65.5 170t-65.5 170t-159.5 69.5h-297zM379 522v-522h-236v1434h533q193 0 327 -134.5t134 -326.5q0 -135 -79 -249t-204 -167l467 -557h-281l-438 522h-223z" />
    <glyph glyph-name="rcommaaccent" unicode="&#x157;" horiz-adv-x="675" 
d="M119 -522l20 389h211l-61 -389h-170zM645 1042v-239q-123 8 -209 -58.5t-86 -218.5v-526h-221v1024h221v-154q84 172 295 172z" />
    <glyph glyph-name="Rcaron" unicode="&#x158;" 
d="M379 1212v-479h297q94 0 159.5 69.5t65.5 170t-65.5 170t-159.5 69.5h-297zM379 522v-522h-236v1434h533q193 0 327 -134.5t134 -326.5q0 -135 -79 -249t-204 -167l467 -557h-281l-438 522h-223zM453 1556l-217 287h225l108 -149l107 149h225l-217 -287h-231z" />
    <glyph glyph-name="rcaron" unicode="&#x159;" horiz-adv-x="675" 
d="M645 1042v-239q-123 8 -209 -58.5t-86 -218.5v-526h-221v1024h221v-154q84 172 295 172zM268 1147l-217 287h225l109 -150l107 150h225l-217 -287h-232z" />
    <glyph glyph-name="Sacute" unicode="&#x15a;" horiz-adv-x="1122" 
d="M569 -27q-212 0 -360 120t-148 341h236q0 -113 73.5 -172t198 -59t190.5 49t66 130t-68.5 129t-243.5 110.5t-253 117.5q-168 115 -168 310.5t134 303t327 107.5t330 -115.5t137 -328.5h-236q0 104 -63.5 159.5t-167.5 55.5t-164.5 -47t-60.5 -129t64.5 -131.5
t236.5 -112t243 -106.5q188 -117 188.5 -314.5t-139.5 -307.5t-352 -110zM412 1577l163 276h267l-217 -276h-213z" />
    <glyph glyph-name="sacute" unicode="&#x15b;" horiz-adv-x="968" 
d="M319 737.5q0 -55.5 58.5 -87.5t141.5 -49t167 -44t142.5 -93.5t58.5 -174.5q0 -147 -114 -231.5t-290 -84.5t-288.5 90.5t-112.5 253.5h217q0 -145 186 -145q81 0 131 30t50 86t-58.5 87t-142.5 48t-167 44t-141.5 94.5t-58.5 175.5q0 143 112 228.5t274 85.5t272 -90.5
t110 -251.5h-217q0 72 -47 107.5t-119 35.5t-118 -29.5t-46 -85zM768 1444l-217 -277h-213l164 277h266z" />
    <glyph glyph-name="Scedilla" unicode="&#x15e;" horiz-adv-x="1122" 
d="M1061 383q0 -168 -110.5 -273.5t-282.5 -129.5v-74q70 -12 114.5 -54t44.5 -108q0 -213 -440 -186v161q248 -20 248 52q0 55 -150 61v148q-188 25 -306 140.5t-118 313.5h236q0 -113 73.5 -172t197.5 -59t190.5 49t66.5 130q-1 81 -69 129q-68 49 -243 111t-253 117
q-168 115 -168 311t134 303t327 107t330 -115.5t137 -328.5h-236q0 104 -63.5 159.5t-167.5 55.5t-164.5 -47t-60.5 -129t64.5 -131.5t236.5 -111.5t243 -107q189 -117 189 -322z" />
    <glyph glyph-name="scedilla" unicode="&#x15f;" horiz-adv-x="968" 
d="M887 282q0 -116 -81 -196t-216 -104v-76q70 -12 115 -54t45 -108q0 -213 -441 -186v161q248 -20 248 52q0 55 -149 61v145q-147 18 -236.5 106.5t-89.5 233.5h217q0 -145 186 -145q82 0 131.5 29.5t49.5 86t-58.5 87.5t-142.5 48t-167 44t-141.5 94.5t-58.5 175.5
q0 143 112 228.5t274.5 85.5t272 -90.5t109.5 -251.5h-217q0 72 -47 107.5t-119 35.5t-118 -29.5t-46 -85t58.5 -87.5t141.5 -49t167 -44t142.5 -93t58.5 -182z" />
    <glyph glyph-name="Scaron" unicode="&#x160;" horiz-adv-x="1122" 
d="M568.5 -27q-211.5 0 -359.5 120t-148 341h236q0 -113 73.5 -172t198 -59t190.5 49t66 130t-68.5 129t-243.5 110.5t-253 117.5q-168 115 -168 310.5t134 303t327 107.5t330 -115.5t137 -328.5h-236q0 104 -63.5 159.5t-167.5 55.5t-164.5 -47t-60.5 -129t64.5 -131.5
t236.5 -112t243 -106.5q188 -117 188.5 -314.5t-140 -307.5t-352 -110zM434 1567l-217 286h225l109 -149l106 149h226l-217 -286h-232z" />
    <glyph glyph-name="scaron" unicode="&#x161;" horiz-adv-x="968" 
d="M319 737.5q0 -55.5 58.5 -87.5t141.5 -49t167 -44t142.5 -93.5t58.5 -174.5q0 -147 -114 -231.5t-290 -84.5t-288.5 90.5t-112.5 253.5h217q0 -145 186 -145q81 0 131 30t50 86t-58.5 87t-142.5 48t-167 44t-141.5 94.5t-58.5 175.5q0 143 112 228.5t274 85.5t272 -90.5
t110 -251.5h-217q0 72 -47 107.5t-119 35.5t-118 -29.5t-46 -85zM360 1157l-217 287h226l108 -150l107 150h225l-217 -287h-232z" />
    <glyph glyph-name="uni0162" unicode="&#x162;" horiz-adv-x="1024" 
d="M395 -522l21 389h211l-62 -389h-170zM993 1434v-226h-362v-1208h-236v1208h-364v226h962z" />
    <glyph glyph-name="uni0163" unicode="&#x163;" horiz-adv-x="671" 
d="M217 -522l21 389h211l-62 -389h-170zM446 1024h189v-213h-189v-811h-221v811h-188v213h188v328h221v-328z" />
    <glyph glyph-name="Tcaron" unicode="&#x164;" horiz-adv-x="1024" 
d="M993 1434v-226h-362v-1208h-236v1208h-364v226h962zM391 1556l-217 287h225l109 -149l106 149h226l-217 -287h-232z" />
    <glyph glyph-name="tcaron" unicode="&#x165;" horiz-adv-x="755" 
d="M446 1352v-328h189v-213h-189v-811h-221v811h-188v213h188v328h221zM565 1495h211l-61 -358h-170z" />
    <glyph glyph-name="Tbar" unicode="&#x166;" horiz-adv-x="1024" 
d="M993 1208h-362v-395h260v-213h-260v-600h-236v600h-262v213h262v395h-364v226h962v-226z" />
    <glyph glyph-name="tbar" unicode="&#x167;" horiz-adv-x="671" 
d="M635 811h-189v-154h142v-178h-142v-479h-221v479h-149v178h149v154h-188v213h188v328h221v-328h189v-213z" />
    <glyph glyph-name="Umacron" unicode="&#x16a;" horiz-adv-x="1269" 
d="M636 -27q-222 0 -367.5 122t-145.5 339v1000h235v-985q0 -119 71 -182.5t206 -63.5t205.5 63.5t70.5 182.5v985h236v-1000q0 -217 -144.5 -339t-366.5 -122zM348 1577v182h574v-182h-574z" />
    <glyph glyph-name="umacron" unicode="&#x16b;" horiz-adv-x="1081" 
d="M733 1024h221v-1024h-221v117q-94 -143 -291 -144q-147 0 -242.5 105.5t-95.5 286.5v659h222v-645q0 -96 51 -147.5t141 -51.5t152.5 62.5t62.5 193.5v588zM823 1350v-183h-573v183h573z" />
    <glyph glyph-name="Uring" unicode="&#x16e;" horiz-adv-x="1269" 
d="M636 -27q-222 0 -367.5 122t-145.5 339v1000h235v-985q0 -119 71 -182.5t206 -63.5t205.5 63.5t70.5 182.5v985h236v-1000q0 -217 -144.5 -339t-366.5 -122zM638 1667q42 0 65.5 23.5t23.5 61.5t-23.5 61.5t-65.5 23.5t-65.5 -23.5t-23.5 -61.5t23.5 -61.5t65.5 -23.5z
M638.5 1522q-107.5 0 -176.5 65.5t-69 163.5t68.5 164.5t176.5 66.5t176.5 -65.5t68.5 -165.5t-68.5 -164.5t-176 -64.5z" />
    <glyph glyph-name="uring" unicode="&#x16f;" horiz-adv-x="1081" 
d="M733 1024h221v-1024h-221v117q-94 -143 -291 -144q-147 0 -242.5 105.5t-95.5 286.5v659h222v-645q0 -96 51 -147.5t141 -51.5t152.5 62.5t62.5 193.5v588zM540 1427q-42 0 -65.5 -23.5t-23.5 -61.5t23.5 -61.5t65.5 -23.5t65.5 24t23.5 61.5t-23.5 61t-65.5 23.5z
M540.5 1112q-107.5 0 -176.5 65.5t-69 164t68.5 165t176.5 66.5t176 -65.5t68 -166t-68 -165t-175.5 -64.5z" />
    <glyph glyph-name="Uhungarumlaut" unicode="&#x170;" horiz-adv-x="1269" 
d="M636 -27q-222 0 -367.5 122t-145.5 339v1000h235v-985q0 -119 71 -182.5t206 -63.5t205.5 63.5t70.5 182.5v985h236v-1000q0 -217 -144.5 -339t-366.5 -122zM662 1556l174 277h233l-186 -277h-221zM328 1556l153 277h234l-166 -277h-221z" />
    <glyph glyph-name="uhungarumlaut" unicode="&#x171;" horiz-adv-x="1081" 
d="M733 436v588h221v-1024h-221v117q-94 -143 -291 -144q-147 0 -242.5 105.5t-95.5 286.5v659h222v-645q0 -96 51 -147.5t141 -51.5t152.5 62.5t62.5 193.5zM784 1147h-221l174 276h234zM616 1423l-165 -276h-222l154 276h233z" />
    <glyph glyph-name="Uogonek" unicode="&#x172;" horiz-adv-x="1269" 
d="M911 1434h236v-1000q0 -215 -150 -342q-121 -113 -169 -178.5t-49 -125.5t59 -60q25 -2 65 12v-148q-71 -28 -153 -28t-132.5 45t-50.5 125q0 115 115 241q-16 -2 -47 -2q-221 0 -366.5 122t-145.5 339v1000h235v-985q0 -119 71 -182.5t206 -63.5t205.5 63.5t70.5 182.5
v985z" />
    <glyph glyph-name="uogonek" unicode="&#x173;" horiz-adv-x="1081" 
d="M733 1024h221v-1024h-2q-123 -123 -123 -215q-2 -57 58 -57q25 -2 65 12v-148q-70 -28 -152 -28t-133 45t-51 125q0 117 132 266h-15v117q-94 -143 -291 -144q-147 0 -242.5 105.5t-95.5 286.5v659h222v-645q0 -96 51 -147.5t141 -51.5t152.5 62.5t62.5 193.5v588z" />
    <glyph glyph-name="Wcircumflex" unicode="&#x174;" horiz-adv-x="1802" 
d="M1550 1434h242l-420 -1434h-270l-201 680l-199 -680h-270l-422 1434h242l326 -1145l217 751l-115 394h221l326 -1145zM780 1843h232l217 -287h-225l-107 152l-109 -152h-225z" />
    <glyph glyph-name="wcircumflex" unicode="&#x175;" horiz-adv-x="1454" 
d="M1092 0h-218l-147 440l-147 -440h-218l-342 1024h236l229 -760l150 455l-103 305h205l238 -741l223 741h236zM606 1434h232l217 -287h-226l-106 151l-109 -151h-225z" />
    <glyph glyph-name="Ycircumflex" unicode="&#x176;" horiz-adv-x="1214" 
d="M725 0h-236v647l-479 787h269l327 -562l330 562h268l-479 -789v-645zM483 1843h232l217 -287h-225l-107 152l-108 -152h-226z" />
    <glyph glyph-name="ycircumflex" unicode="&#x177;" horiz-adv-x="1003" 
d="M758 1024h235l-491 -1434h-236l144 422l-400 1012h236l274 -705zM381 1434h231l217 -287h-225l-106 151l-109 -151h-225z" />
    <glyph glyph-name="Ydieresis" unicode="&#x178;" horiz-adv-x="1214" 
d="M725 0h-236v647l-479 787h269l327 -562l330 562h268l-479 -789v-645zM905 1788v-215h-215v215h215zM516 1788v-215h-215v215h215z" />
    <glyph glyph-name="Zacute" unicode="&#x179;" horiz-adv-x="1085" 
d="M1030 225v-225h-952v195l643 1013h-629v226h922v-195l-645 -1014h661zM840 1843l-217 -276h-213l163 276h267z" />
    <glyph glyph-name="zacute" unicode="&#x17a;" horiz-adv-x="927" 
d="M870 209v-209h-798v147l479 668h-459v209h758v-147l-477 -668h497zM760 1434l-217 -277h-213l164 277h266z" />
    <glyph glyph-name="Zdotaccent" unicode="&#x17b;" horiz-adv-x="1085" 
d="M1030 225v-225h-952v195l643 1013h-629v226h922v-195l-645 -1014h661zM678 1812v-245h-246v245h246z" />
    <glyph glyph-name="zdotaccent" unicode="&#x17c;" horiz-adv-x="927" 
d="M870 209v-209h-798v147l479 668h-459v209h758v-147l-477 -668h497zM598 1403v-246h-246v246h246z" />
    <glyph glyph-name="Zcaron" unicode="&#x17d;" horiz-adv-x="1085" 
d="M1030 225v-225h-952v195l643 1013h-629v226h922v-195l-645 -1014h661zM432 1556l-217 287h225l109 -149l106 149h226l-217 -287h-232z" />
    <glyph glyph-name="zcaron" unicode="&#x17e;" horiz-adv-x="927" 
d="M870 209v-209h-798v147l479 668h-459v209h758v-147l-477 -668h497zM352 1147l-217 287h225l109 -150l106 150h226l-217 -287h-232z" />
    <glyph glyph-name="florin" unicode="&#x192;" horiz-adv-x="903" 
d="M821 827v-213h-239l-121 -718q-35 -205 -160 -281t-301 -27v219q82 -39 153 -5t85 128l116 684h-190v213h225l53 308q35 205 160 281t301 26v-219q-83 39 -153 5t-84 -128l-48 -273h203z" />
    <glyph glyph-name="Scommaaccent" unicode="&#x218;" horiz-adv-x="1122" 
d="M641 -522h-170l21 389h210zM569 -27q-212 0 -360 120t-148 341h236q0 -113 73.5 -172t198 -59t190.5 49t66 130t-68.5 129t-243.5 110.5t-253 117.5q-168 115 -168 310.5t134 303t327 107.5t330 -115.5t137 -328.5h-236q0 104 -63.5 159.5t-167.5 55.5t-164.5 -47
t-60.5 -129t64.5 -131.5t236.5 -112t243 -106.5q188 -117 188.5 -314.5t-139.5 -307.5t-352 -110z" />
    <glyph glyph-name="scommaaccent" unicode="&#x219;" horiz-adv-x="968" 
d="M393 -522l21 389h211l-62 -389h-170zM319 737.5q0 -55.5 58.5 -87.5t141.5 -49t167 -44t142.5 -93.5t58.5 -174.5q0 -147 -114 -231.5t-290 -84.5t-288.5 90.5t-112.5 253.5h217q0 -145 186 -145q81 0 131 30t50 86t-58.5 87t-142.5 48t-167 44t-141.5 94.5t-58.5 175.5
q0 143 112 228.5t274 85.5t272 -90.5t110 -251.5h-217q0 72 -47 107.5t-119 35.5t-118 -29.5t-46 -85z" />
    <glyph glyph-name="uni021A" unicode="&#x21a;" horiz-adv-x="1024" 
d="M395 -522l21 389h211l-62 -389h-170zM993 1434v-226h-362v-1208h-236v1208h-364v226h962z" />
    <glyph glyph-name="uni021B" unicode="&#x21b;" horiz-adv-x="671" 
d="M217 -522l21 389h211l-62 -389h-170zM446 1024h189v-213h-189v-811h-221v811h-188v213h188v328h221v-328z" />
    <glyph glyph-name="circumflex" unicode="&#x2c6;" horiz-adv-x="747" 
d="M258 1434h231l218 -287h-226l-106 151l-109 -151h-225z" />
    <glyph glyph-name="caron" unicode="&#x2c7;" horiz-adv-x="747" 
d="M489 1147h-231l-217 287h225l109 -150l106 150h226z" />
    <glyph glyph-name="breve" unicode="&#x2d8;" horiz-adv-x="727" 
d="M686 1417q0 -137 -84 -212t-238 -75q-153 0 -238 75t-85 212h201q0 -121 122 -121t121 121h201z" />
    <glyph glyph-name="dotaccent" unicode="&#x2d9;" horiz-adv-x="327" 
d="M41 1157v246h246v-246h-246z" />
    <glyph glyph-name="ring" unicode="&#x2da;" horiz-adv-x="571" 
d="M288 1257q42 0 66 24q24 23 23 61q0 38 -24 62q-23 24 -65 24t-66 -24t-24 -62t24 -62t66 -23zM287 1112q-109 0 -177 66t-69 164q0 98 69 165q70 66 178 66t176 -66t66 -166q0 -101 -67 -165t-176 -64z" />
    <glyph glyph-name="ogonek" unicode="&#x2db;" horiz-adv-x="419" 
d="M226 -436q-83 0 -134 45t-51 125q0 123 139 266h199q-125 -121 -125 -215q0 -57 57 -57q25 -2 68 12v-148q-70 -28 -153 -28z" />
    <glyph glyph-name="tilde" unicode="&#x2dc;" horiz-adv-x="737" 
d="M41 1161q0 143 53 215t130 70t163 -60q67 -53 97 -46t30 94h182q0 -143 -52 -215t-129 -70t-163 59q-68 53 -98 46t-31 -93h-182z" />
    <glyph glyph-name="hungarumlaut" unicode="&#x2dd;" horiz-adv-x="823" 
d="M375 1147l174 276h233l-186 -276h-221zM41 1147l154 276h233l-166 -276h-221z" />
    <glyph glyph-name="gravecomb" unicode="&#x300;" horiz-adv-x="0" 
d="M-41 1157h-213l-217 277h266z" />
    <glyph glyph-name="acutecomb" unicode="&#x301;" horiz-adv-x="0" 
d="M-471 1157l164 277h266l-217 -277h-213z" />
    <glyph glyph-name="uni0302" unicode="&#x302;" horiz-adv-x="0" 
d="M-489 1434h231l217 -287h-225l-107 151l-108 -151h-226z" />
    <glyph glyph-name="tildecomb" unicode="&#x303;" horiz-adv-x="0" 
d="M-686 1161q0 143 53 215t130 70t163 -60q66 -53 96.5 -45.5t30.5 93.5h182q0 -143 -52 -215t-129 -70t-163 59q-68 53 -98.5 46t-30.5 -93h-182z" />
    <glyph glyph-name="uni0304" unicode="&#x304;" horiz-adv-x="0" 
d="M-614 1167v183h573v-183h-573z" />
    <glyph glyph-name="uni0306" unicode="&#x306;" horiz-adv-x="0" 
d="M-363 1130q-153 0 -238 75t-85 212h201q0 -121 122 -121t121 121h201q0 -137 -84.5 -212t-237.5 -75z" />
    <glyph glyph-name="uni0307" unicode="&#x307;" horiz-adv-x="0" 
d="M-291 1157v246h246v-246h-246z" />
    <glyph glyph-name="uni0308" unicode="&#x308;" horiz-adv-x="0" 
d="M-256 1163v215h215v-215h-215zM-645 1163v215h215v-215h-215z" />
    <glyph glyph-name="uni030A" unicode="&#x30a;" horiz-adv-x="0" 
d="M-290 1257q42 0 65.5 24t23.5 61.5t-23.5 61t-65.5 23.5t-65.5 -23.5t-23.5 -61.5t23.5 -61.5t65.5 -23.5zM-289.5 1112q-107.5 0 -176.5 65.5t-69 164t69 165t176.5 66.5t176 -65.5t68.5 -166t-68.5 -165t-176 -64.5z" />
    <glyph glyph-name="uni030B" unicode="&#x30b;" horiz-adv-x="0" 
d="M-449 1147l175 276h233l-186 -276h-222zM-782 1147l153 276h234l-166 -276h-221z" />
    <glyph glyph-name="uni030C" unicode="&#x30c;" horiz-adv-x="0" 
d="M-258 1147h-231l-218 287h226l108 -150l107 150h225z" />
    <glyph glyph-name="uni0312" unicode="&#x312;" horiz-adv-x="0" 
d="M-211 1987h170l-20 -390h-211z" />
    <glyph glyph-name="uni0326" unicode="&#x326;" horiz-adv-x="0" 
d="M-102 -522h-170l20 389h211z" />
    <glyph glyph-name="uni0327" unicode="&#x327;" horiz-adv-x="0" 
d="M-41 -256q0 -213 -440 -186v161q248 -20 248 52q0 55 -150 61v168h182v-94q70 -12 115 -54t45 -108z" />
    <glyph glyph-name="uni0328" unicode="&#x328;" horiz-adv-x="0" 
d="M-204 -436q-83 0 -134 45t-51 125q0 123 139 266h199q-125 -121 -125 -215q0 -57 57 -57q25 -2 68 12v-148q-70 -28 -153 -28z" />
    <glyph glyph-name="uni0394" unicode="&#x394;" horiz-adv-x="1320" 
d="M340 221h641l-319 944zM1311 0h-1301l510 1434h283z" />
    <glyph glyph-name="uni03A9" unicode="&#x3a9;" horiz-adv-x="1609" 
d="M1548 729q0 -311 -248 -504h222v-225h-564v225q158 47 256 181t99 311q-1 221 -147 367t-361 146t-361 -146t-147 -367q0 -178 98 -311t258 -181v-225h-565v225h219q-115 89 -181 223t-65 289q1 303 217 513t527 210t527 -210t216 -521z" />
    <glyph glyph-name="pi" unicode="&#x3c0;" 
d="M1239 1024v-209h-164v-815h-221v815h-408v-815h-221v815h-174v209h1188z" />
    <glyph glyph-name="uni0401" unicode="&#x401;" horiz-adv-x="1054" 
d="M379 225h604v-225h-840v1434h830v-226h-594v-372h543v-222h-543v-389zM862 1788v-215h-215v215h215zM473 1788v-215h-215v215h215z" />
    <glyph glyph-name="uni0402" unicode="&#x402;" horiz-adv-x="1355" 
d="M877 948q176 0 281 -101t106 -294v-176q0 -426 -420 -395v219q100 -9 142 31t42 145v158q0 201 -190 200q-98 0 -217 -49v-686h-236v1208h-354v226h1013v-226h-423v-313q127 53 256 53z" />
    <glyph glyph-name="uni0403" unicode="&#x403;" horiz-adv-x="983" 
d="M952 1434v-226h-573v-1208h-236v1434h809zM842 1841l-217 -276h-213l163 276h267z" />
    <glyph glyph-name="uni0404" unicode="&#x404;" horiz-adv-x="1538" 
d="M786 203q180 0 298 79t159 210h250q-51 -230 -241 -374t-451 -145q-319 0 -525 214q-204 213 -204 529t204 530q205 214 525 214q262 0 450 -143t242 -375h-250q-43 133 -160 211t-297 78t-309 -111t-160 -293h689v-221h-689q31 -182 160 -292t309 -111z" />
    <glyph glyph-name="uni0405" unicode="&#x405;" horiz-adv-x="1122" 
d="M569 -27q-212 0 -360 120t-148 341h236q0 -113 73.5 -172t198 -59t190.5 49t66 130t-68.5 129t-243.5 110.5t-253 117.5q-168 115 -168 310.5t134 303t327 107.5t330 -115.5t137 -328.5h-236q0 104 -63.5 159.5t-167.5 55.5t-164.5 -47t-60.5 -129t64.5 -131.5
t236.5 -112t243 -106.5q188 -117 188.5 -314.5t-139.5 -307.5t-352 -110z" />
    <glyph glyph-name="uni0406" unicode="&#x406;" horiz-adv-x="522" 
d="M143 1434h236v-1434h-236v1434z" />
    <glyph glyph-name="uni0407" unicode="&#x407;" horiz-adv-x="522" 
d="M143 1434h236v-1434h-236v1434zM348 1573v215h215v-215h-215zM-41 1573v215h215v-215h-215z" />
    <glyph glyph-name="uni0408" unicode="&#x408;" horiz-adv-x="1095" 
d="M502 -27q-197 0 -334 115t-137 330v31h235v-31q0 -106 64 -160t172 -55q109 0 172 54t63 161v1016h236v-1016q0 -215 -137 -330t-334 -115z" />
    <glyph glyph-name="uni0409" unicode="&#x409;" horiz-adv-x="1910" 
d="M1382 221q100 1 166 59t66 156t-66 156t-166 57h-249v-428h249zM1382 870q197 0 332 -122t135 -312t-135 -313t-332 -123h-485v1208h-367v-600q0 -378 -153 -512q-139 -118 -350 -100v219q135 -18 201 67t67 322v830h838v-564h249z" />
    <glyph glyph-name="uni040A" unicode="&#x40a;" horiz-adv-x="1894" 
d="M1368 221q100 1 165 59t64 156q0 98 -64 156q-65 57 -165 57h-252v-428h252zM1368 870q197 0 331 -122t134 -312t-134 -313t-331 -123h-487v649h-502v-649h-236v1434h236v-564h502v564h235v-564h252z" />
    <glyph glyph-name="uni040B" unicode="&#x40b;" horiz-adv-x="1366" 
d="M877 948q176 0 281 -101t106 -294v-553h-236v535q0 201 -190 200q-98 0 -217 -49v-686h-236v1208h-354v226h1013v-226h-423v-313q127 53 256 53z" />
    <glyph glyph-name="uni040C" unicode="&#x40c;" horiz-adv-x="1234" 
d="M379 0h-236v1434h236v-641l545 641h280l-581 -699l602 -735h-281l-565 682v-682zM903 1841l-217 -276h-213l164 276h266z" />
    <glyph glyph-name="uni040E" unicode="&#x40e;" horiz-adv-x="1208" 
d="M950 1434h238l-445 -1065q-164 -391 -530 -369v219q121 -12 194.5 37t120.5 162l-477 1016h238l348 -756zM883 1767v-192h-574v192h574z" />
    <glyph glyph-name="uni040F" unicode="&#x40f;" horiz-adv-x="1300" 
d="M922 1434h235v-1434h-389v-295h-236v295h-389v1434h236v-1209h543v1209z" />
    <glyph glyph-name="uni0410" unicode="&#x410;" horiz-adv-x="1320" 
d="M438 510h445l-221 655zM1057 0l-99 289h-596l-96 -289h-256l510 1434h283l508 -1434h-254z" />
    <glyph glyph-name="uni0411" unicode="&#x411;" horiz-adv-x="1198" 
d="M686 221q96 1 161 61t64 158q0 98 -64 159q-65 60 -161 60h-307v-438h307zM686 881q199 0 330 -125q131 -126 131 -316t-131 -315t-330 -125h-543v1434h881v-226h-645v-327h307z" />
    <glyph glyph-name="uni0412" unicode="&#x412;" horiz-adv-x="1402" 
d="M858 221q116 0 182 72q66 71 66 179t-65 178t-181 71h-481v-500h479zM731 1212h-352v-280h477q45 49 45 119q0 69 -46 115t-124 46zM889 0h-746v1434h588q178 0 292 -106t114 -269q-1 -92 -52 -176q119 -57 188 -170t68 -252q0 -195 -129 -328t-323 -133z" />
    <glyph glyph-name="uni0413" unicode="&#x413;" horiz-adv-x="983" 
d="M952 1434v-226h-573v-1208h-236v1434h809z" />
    <glyph glyph-name="uni0414" unicode="&#x414;" horiz-adv-x="1382" 
d="M932 221v991h-408v-497q0 -322 -106 -494h514zM1167 221h154v-516h-236v295h-819v-295h-235v516h129q129 164 129 498v715h878v-1213z" />
    <glyph glyph-name="uni0415" unicode="&#x415;" horiz-adv-x="1054" 
d="M379 225h604v-225h-840v1434h830v-226h-594v-372h543v-222h-543v-389z" />
    <glyph glyph-name="uni0416" unicode="&#x416;" horiz-adv-x="1814" 
d="M1026 0h-235v672l-494 -672h-266l536 731l-516 703h266l474 -652v652h235v-652l473 652h264l-516 -703l537 -731h-264l-494 672v-672z" />
    <glyph glyph-name="uni0417" unicode="&#x417;" horiz-adv-x="1105" 
d="M1075 451q0 -209 -142 -343t-379 -134t-380 138q-143 140 -143 349h235q0 -115 75 -191t213 -76t212 72t74 185t-72 185t-199 71h-108v217h108q27 0 72 -4q86 59 86 144t-49 130t-141 45q-91 0 -141 -45t-50 -119h-235q0 170 116 278q117 107 310 107t309 -106t116 -255
t-98 -253q211 -133 211 -395z" />
    <glyph glyph-name="uni0418" unicode="&#x418;" horiz-adv-x="1310" 
d="M932 0v973l-604 -973h-185v1434h236v-973l604 973h184v-1434h-235z" />
    <glyph glyph-name="uni0419" unicode="&#x419;" horiz-adv-x="1310" 
d="M932 0v973l-604 -973h-185v1434h236v-973l604 973h184v-1434h-235zM389 1577v192h574v-192h-574z" />
    <glyph glyph-name="uni041A" unicode="&#x41a;" horiz-adv-x="1234" 
d="M379 0h-236v1434h236v-641l545 641h280l-581 -699l602 -735h-281l-565 682v-682z" />
    <glyph glyph-name="uni041B" unicode="&#x41b;" horiz-adv-x="1316" 
d="M295 604v830h879v-1434h-236v1208h-408v-600q0 -378 -153 -512q-136 -116 -350 -100v219q135 -18 201 67t67 322z" />
    <glyph glyph-name="uni041C" unicode="&#x41c;" horiz-adv-x="1658" 
d="M1516 1434v-1434h-236v1044l-358 -808h-185l-358 808v-1044h-236v1434h275l411 -926l412 926h275z" />
    <glyph glyph-name="uni041D" unicode="&#x41d;" horiz-adv-x="1300" 
d="M922 1434h235v-1434h-235v625h-543v-625h-236v1434h236v-584h543v584z" />
    <glyph glyph-name="uni041E" unicode="&#x41e;" horiz-adv-x="1630" 
d="M815 203q215 0 361.5 146.5t146.5 367.5t-146.5 367.5t-361.5 146.5t-361.5 -146.5t-146.5 -367.5t146.5 -367.5t361.5 -146.5zM815 -27q-311 0 -527 216.5t-216 527.5t216 527t527 216t527.5 -216t216.5 -527t-216.5 -527.5t-527.5 -216.5z" />
    <glyph glyph-name="uni041F" unicode="&#x41f;" horiz-adv-x="1300" 
d="M1157 1434v-1434h-235v1208h-543v-1208h-236v1434h1014z" />
    <glyph glyph-name="uni0420" unicode="&#x420;" horiz-adv-x="1198" 
d="M672 733q96 0 163 70t66 170q0 100 -66 170q-67 70 -163 69h-293v-479h293zM672 1434q196 0 330 -134t134 -326q0 -190 -134 -326q-136 -136 -330 -136h-293v-512h-236v1434h529z" />
    <glyph glyph-name="uni0421" unicode="&#x421;" horiz-adv-x="1548" 
d="M821 -27q-324 0 -536.5 214t-212.5 529.5t213 529.5t536 214q248 0 439.5 -144.5t246.5 -373.5h-247q-45 131 -166 210t-273 79q-229 0 -371.5 -145.5t-142.5 -368.5t142.5 -368.5t371.5 -145.5q152 0 272.5 78.5t166.5 210.5h247q-53 -227 -245.5 -373t-440.5 -146z" />
    <glyph glyph-name="uni0422" unicode="&#x422;" horiz-adv-x="1024" 
d="M993 1434v-226h-362v-1208h-236v1208h-364v226h962z" />
    <glyph glyph-name="uni0423" unicode="&#x423;" horiz-adv-x="1208" 
d="M950 1434h238l-445 -1065q-164 -391 -530 -369v219q121 -12 194.5 37t120.5 162l-477 1016h238l348 -756z" />
    <glyph glyph-name="uni0424" unicode="&#x424;" horiz-adv-x="1667" 
d="M950 358q207 18 319 108t111 251q0 160 -111 250q-112 90 -319 108v-717zM287 717q-1 -160 111 -250t321 -109v717q-209 -18 -321 -108t-111 -250zM1616 717q0 -248 -181 -399t-485 -175v-163h-231v163q-305 25 -487 175q-181 151 -181 399q0 249 181 399t487 174v164
h231v-164q302 -25 484 -175t182 -398z" />
    <glyph glyph-name="uni0425" unicode="&#x425;" horiz-adv-x="1208" 
d="M1178 0h-265l-309 516l-307 -516h-266l440 737l-414 697h265l282 -473l283 473h266l-416 -697z" />
    <glyph glyph-name="uni0426" unicode="&#x426;" horiz-adv-x="1372" 
d="M1157 225h154v-520h-236v295h-932v1434h236v-1209h543v1209h235v-1209z" />
    <glyph glyph-name="uni0427" unicode="&#x427;" horiz-adv-x="1255" 
d="M877 1434h235v-1434h-235v537q-133 -53 -281 -54q-215 0 -349 120t-134 319v512h235v-488q0 -111 68 -174t201 -63t260 53v672z" />
    <glyph glyph-name="uni0428" unicode="&#x428;" horiz-adv-x="1853" 
d="M1475 1434h235v-1434h-1567v1434h236v-1209h430v1209h235v-1209h431v1209z" />
    <glyph glyph-name="uni0429" unicode="&#x429;" horiz-adv-x="1925" 
d="M1710 225h154v-520h-236v295h-1485v1434h236v-1209h430v1209h235v-1209h431v1209h235v-1209z" />
    <glyph glyph-name="uni042A" unicode="&#x42a;" horiz-adv-x="1413" 
d="M594 221h293q96 0 163 70t66 170q0 100 -66 170q-67 70 -163 69h-293v-479zM358 0v1208h-358v226h594v-512h293q195 0 330 -136t135 -325t-135 -325t-330 -136h-529z" />
    <glyph glyph-name="uni042B" unicode="&#x42b;" horiz-adv-x="1654" 
d="M379 221h293q96 0 163 70t66 170q0 100 -66 170q-67 70 -163 69h-293v-479zM1276 0v1434h235v-1434h-235zM143 0v1434h236v-512h293q196 0 330 -136t134 -325t-134 -325q-136 -136 -330 -136h-529z" />
    <glyph glyph-name="uni042C" unicode="&#x42c;" horiz-adv-x="1198" 
d="M672 221q96 0 163 70t66 170q0 100 -66 170q-67 70 -163 69h-293v-479h293zM672 922q196 0 330 -136t134 -325t-134 -325q-136 -136 -330 -136h-529v1434h236v-512h293z" />
    <glyph glyph-name="uni042D" unicode="&#x42d;" horiz-adv-x="1538" 
d="M739 1460q319 0 523 -214t204 -529t-203 -530q-204 -214 -524 -214q-262 1 -451 145t-241 374h248q43 -133 161 -211t297 -78q179 1 308 111t160 292h-689v221h689q-31 182 -160 293t-309 111t-296 -78q-118 -78 -161 -211h-248q51 230 241 374t451 144z" />
    <glyph glyph-name="uni042E" unicode="&#x42e;" horiz-adv-x="2150" 
d="M1335 203q215 0 362 146q146 145 146 367t-146 368q-147 146 -363 146t-361 -144q-145 -146 -145 -368t146 -368t361 -147zM1335 1460q311 0 527 -216t217 -527q0 -311 -216 -527q-217 -216 -515 -217t-504 185t-238 467h-227v-625h-236v1434h236v-584h231
q47 264 249 437t476 173z" />
    <glyph glyph-name="uni042F" unicode="&#x42f;" 
d="M625 733h286v479h-286q-98 0 -167 -70t-69 -169q0 -100 70 -170t166 -70zM1147 1434v-1434h-236v522h-168l-436 -522h-287l463 543q-145 41 -237 161t-92 269q0 193 136 327t331 134h526z" />
    <glyph glyph-name="uni0430" unicode="&#x430;" horiz-adv-x="1034" 
d="M495 145q99 0 159.5 43t60.5 112t-60.5 110t-159.5 41t-150.5 -41t-51.5 -111t51.5 -112t150.5 -42zM525 1051q177 0 292 -104.5t115 -291.5v-655h-217v96q-98 -123 -291 -123q-147 0 -249.5 85t-102.5 241t102 240t269 84t272 -105v127q0 102 -51.5 150.5t-137.5 48.5
t-139 -42t-53 -116h-217q0 166 115.5 265.5t292.5 99.5z" />
    <glyph glyph-name="uni0431" unicode="&#x431;" horiz-adv-x="1157" 
d="M598 180q127 0 209 77t82 196t-85 197t-208 79q-123 0 -211 -72q-88 -71 -88 -195t87 -203t214 -79zM1110 448q0 -204 -144 -340t-371 -135q-227 -1 -375 147t-148 380q0 141 50 260q50 120 124 194q146 147 321 257q176 111 176 223h234q0 -189 -172 -304
q-76 -51 -157 -94q-215 -114 -283 -233q115 113 291 113t316 -132q138 -132 138 -336z" />
    <glyph glyph-name="uni0432" unicode="&#x432;" horiz-adv-x="1075" 
d="M655 188q80 0 124 39t44 107t-43 104t-125 37h-315v-287h315zM340 840v-191h336q20 35 20 81t-40 79t-103 31h-213zM1040 330q0 -142 -95 -236t-273 -94h-543v1024h451q147 0 237 -80t90 -199q0 -69 -43 -135q176 -82 176 -280z" />
    <glyph glyph-name="uni0433" unicode="&#x433;" horiz-adv-x="778" 
d="M774 1024v-213h-424v-811h-221v1024h645z" />
    <glyph glyph-name="uni0434" unicode="&#x434;" horiz-adv-x="1177" 
d="M772 203v618h-305v-241q0 -227 -70 -377h375zM989 203h137v-498h-217v295h-661v-295h-217v498h121q98 135 98 377v444h739v-821z" />
    <glyph glyph-name="uni0435" unicode="&#x435;" horiz-adv-x="1175" 
d="M600 850q-115 0 -196.5 -67.5t-104.5 -182.5h594q-20 123 -99 186.5t-194 63.5zM597 164q101 0 166.5 34.5t94.5 90.5l225 2q-47 -147 -173 -232.5t-298 -85.5q-242 0 -391 153t-149 385t149.5 386t380.5 154t372.5 -157t141.5 -384q0 -35 -8 -92h-807
q25 -123 110 -188.5t186 -65.5z" />
    <glyph glyph-name="uni0436" unicode="&#x436;" horiz-adv-x="1478" 
d="M848 0h-217v471l-348 -471h-252l399 522l-379 502h252l328 -451v451h217v-451l328 451h251l-378 -502l399 -522h-252l-348 471v-471z" />
    <glyph glyph-name="uni0437" unicode="&#x437;" horiz-adv-x="880" 
d="M846 317q0 -147 -108 -245t-298 -98t-296 98t-107 252h219q0 -72 48 -111t136 -39t138 40q49 40 49 109t-50 109t-137 39h-86v174h95q37 0 53 -2q57 43 57 99t-37 84t-96 28q-133 0 -133 -119h-215q0 145 94 231t255 85q161 0 254 -84q93 -83 93 -197t-69 -188
q141 -90 141 -265z" />
    <glyph glyph-name="uni0438" unicode="&#x438;" horiz-adv-x="1105" 
d="M979 1024v-1024h-217v655l-463 -655h-170v1024h217v-655l463 655h170z" />
    <glyph glyph-name="uni0439" unicode="&#x439;" horiz-adv-x="1105" 
d="M979 1024v-1024h-217v655l-463 -655h-170v1024h217v-655l463 655h170zM266 1167v193h574v-193h-574z" />
    <glyph glyph-name="uni043A" unicode="&#x43a;" horiz-adv-x="1044" 
d="M350 0h-221v1024h221v-453l389 453h265l-439 -502l459 -522h-264l-410 473v-473z" />
    <glyph glyph-name="uni043B" unicode="&#x43b;" horiz-adv-x="1071" 
d="M942 1024v-1024h-221v811h-291v-381q0 -244 -106 -347t-304 -91v207q94 -10 142 46q47 56 47 195v584h733z" />
    <glyph glyph-name="uni043C" unicode="&#x43c;" horiz-adv-x="1320" 
d="M1194 1024v-1024h-215v688l-252 -491h-131l-252 491v-688h-215v1024h238l295 -575l294 575h238z" />
    <glyph glyph-name="uni043D" unicode="&#x43d;" horiz-adv-x="1107" 
d="M758 1024h221v-1024h-221v408h-408v-408h-221v1024h221v-408h408v408z" />
    <glyph glyph-name="uni043E" unicode="&#x43e;" horiz-adv-x="1224" 
d="M612.5 188q135.5 0 227.5 92.5t92 231.5t-92 231.5t-227.5 92.5t-227.5 -92.5t-92 -231.5t92 -231.5t227.5 -92.5zM613 -27q-226 0 -383.5 156t-157.5 383t157.5 383t383.5 156t383 -156t157 -383t-157 -383t-383 -156z" />
    <glyph glyph-name="uni043F" unicode="&#x43f;" horiz-adv-x="1105" 
d="M979 1024v-1024h-221v815h-408v-815h-221v1024h850z" />
    <glyph glyph-name="uni0440" unicode="&#x440;" 
d="M677 184q136 0 228 94t92 234q0 141 -92 234q-92 94 -228 94t-227 -85t-100 -216v-54q8 -131 100 -216t227 -85zM698 1051q222 0 372 -156t149 -382q0 -226 -150 -383q-149 -157 -371 -157t-348 174v-557h-221v1434h221v-145q126 172 348 172z" />
    <glyph glyph-name="uni0441" unicode="&#x441;" horiz-adv-x="1163" 
d="M612 -27q-231 0 -385.5 156t-154.5 384t154.5 383t385.5 155q186 0 326.5 -107.5t179.5 -277.5h-233q-33 78 -105.5 123t-167.5 45q-135 0 -227 -92.5t-92 -229.5t92 -229.5t227 -92.5q94 0 168 46.5t105 121.5h233q-39 -170 -180 -277.5t-326 -107.5z" />
    <glyph glyph-name="uni0442" unicode="&#x442;" horiz-adv-x="849" 
d="M829 1024v-209h-292v-815h-222v815h-295v209h809z" />
    <glyph glyph-name="uni0443" unicode="&#x443;" horiz-adv-x="1003" 
d="M758 1024h235l-362 -1057q-68 -195 -198 -291t-302 -86v207q201 -12 272 197l7 16l-400 1014h236l278 -727z" />
    <glyph glyph-name="uni0444" unicode="&#x444;" horiz-adv-x="1392" 
d="M1102 512q0 121 -78 207t-219 112v-638q141 27 219 113t78 206zM291 512q0 -121 78 -207t219 -112v638q-141 -27 -219 -113t-78 -206zM1321 512q0 -209 -139 -354t-377 -176v-392h-217v392q-238 31 -377 176t-139 354t139 354t377 176v392h217v-392q238 -31 377 -176
t139 -354z" />
    <glyph glyph-name="uni0445" unicode="&#x445;" horiz-adv-x="956" 
d="M932 0h-238l-217 342l-219 -342h-238l338 526l-317 498h238l198 -311l199 311h237l-317 -498z" />
    <glyph glyph-name="uni0446" unicode="&#x446;" horiz-adv-x="1167" 
d="M948 209h168v-504h-217v295h-770v1024h221v-815h377v815h221v-815z" />
    <glyph glyph-name="uni0447" unicode="&#x447;" horiz-adv-x="1040" 
d="M690 1024h221v-1024h-221v346q-111 -45 -258 -45t-249 91q-101 91 -101 259v373h221v-352q0 -164 180 -164q104 0 207 45v471z" />
    <glyph glyph-name="uni0448" unicode="&#x448;" horiz-adv-x="1566" 
d="M1219 1024h221v-1024h-1311v1024h221v-815h324v815h221v-815h324v815z" />
    <glyph glyph-name="uni0449" unicode="&#x449;" horiz-adv-x="1607" 
d="M1419 209h137v-504h-217v295h-1210v1024h221v-815h314v815h221v-815h313v815h221v-815z" />
    <glyph glyph-name="uni044A" unicode="&#x44a;" horiz-adv-x="1153" 
d="M731 199q66 0 110 39t44 101t-44 100t-110 38h-227v-278h227zM729 676q164 0 268 -93q105 -93 105 -244t-104 -245t-269 -94h-446v815h-283v209h504v-348h225z" />
    <glyph glyph-name="uni044B" unicode="&#x44b;" horiz-adv-x="1419" 
d="M578 199q66 0 109.5 38.5t43.5 101t-44 100.5t-109 38h-228v-278h228zM1071 1024h221v-1024h-221v1024zM575 676q164 0 268.5 -93.5t104.5 -244t-104.5 -244.5t-268.5 -94h-446v1024h221v-348h225z" />
    <glyph glyph-name="uni044C" unicode="&#x44c;" horiz-adv-x="999" 
d="M578 199q66 0 110 39t43 101q0 62 -44 100t-109 38h-228v-278h228zM575 676q165 0 269 -93t104 -244t-104 -245t-269 -94h-446v1024h221v-348h225z" />
    <glyph glyph-name="uni044D" unicode="&#x44d;" horiz-adv-x="1155" 
d="M551 1051q229 0 381 -155t152 -384t-152 -384t-381 -155q-186 0 -329 108q-142 108 -181 277h229q29 -80 108 -129q80 -49 184 -49t184 64t110 168h-405v202h405q-31 104 -111 168t-184 64t-182 -49t-109 -131h-229q39 170 181 278t329 107z" />
    <glyph glyph-name="uni044E" unicode="&#x44e;" horiz-adv-x="1654" 
d="M1042 188q136 0 228 92t92 232q0 139 -92 231q-92 93 -228 93t-227 -92q-92 -92 -92 -232t92 -232t227 -92zM1055 1051q212 0 370 -156t158 -383t-158 -383t-370 -156t-357 122t-180 313h-168v-408h-221v1024h221v-408h168q35 190 180 312t357 123z" />
    <glyph glyph-name="uni044F" unicode="&#x44f;" horiz-adv-x="1050" 
d="M477 535h228v288h-228q-69 0 -113 -39q-44 -40 -44 -106t44 -104q45 -38 113 -39zM922 1024v-1024h-217v344h-134l-290 -344h-261l312 367q-104 37 -167 122q-63 86 -63 211q0 124 102 224t261 100h457z" />
    <glyph glyph-name="uni0451" unicode="&#x451;" horiz-adv-x="1175" 
d="M600 850q-115 0 -196.5 -67.5t-104.5 -182.5h594q-20 123 -99 186.5t-194 63.5zM597 164q101 0 166.5 34.5t94.5 90.5l225 2q-47 -147 -173 -232.5t-298 -85.5q-242 0 -391 153t-149 385t149.5 386t380.5 154t372.5 -157t141.5 -384q0 -35 -8 -92h-807
q25 -123 110 -188.5t186 -65.5zM911 1384v-215h-215v215h215zM522 1384v-215h-215v215h215z" />
    <glyph glyph-name="uni0452" unicode="&#x452;" horiz-adv-x="1085" 
d="M655 1051q147 1 243 -105t95 -287v-700q0 -426 -420 -395v213q102 -10 151 33q48 43 48 149v688q0 93 -51 145t-141 52t-152 -62t-63 -194v-588h-222v1149h-133v151h133v134h222v-134h290v-151h-290v-242q93 144 290 144z" />
    <glyph glyph-name="uni0453" unicode="&#x453;" horiz-adv-x="778" 
d="M774 1024v-213h-424v-811h-221v1024h645zM698 1434l-217 -277h-213l164 277h266z" />
    <glyph glyph-name="uni0454" unicode="&#x454;" horiz-adv-x="1155" 
d="M596 180q104 0 182 49t109 129h227q-37 -170 -179 -278t-329 -107q-231 0 -383 155t-151 384q0 229 151 384q152 155 383 155q186 0 328 -108t180 -277h-227q-33 82 -111 131t-182 49t-184 -64t-109 -168h404v-202h-406q29 -104 111 -168t186 -64z" />
    <glyph glyph-name="uni0455" unicode="&#x455;" horiz-adv-x="968" 
d="M319 737.5q0 -55.5 58.5 -87.5t141.5 -49t167 -44t142.5 -93.5t58.5 -174.5q0 -147 -114 -231.5t-290 -84.5t-288.5 90.5t-112.5 253.5h217q0 -145 186 -145q81 0 131 30t50 86t-58.5 87t-142.5 48t-167 44t-141.5 94.5t-58.5 175.5q0 143 112 228.5t274 85.5t272 -90.5
t110 -251.5h-217q0 72 -47 107.5t-119 35.5t-118 -29.5t-46 -85z" />
    <glyph glyph-name="uni0456" unicode="&#x456;" horiz-adv-x="477" 
d="M129 0v1024h221v-1024h-221zM129 1188v246h221v-246h-221z" />
    <glyph glyph-name="uni0457" unicode="&#x457;" horiz-adv-x="477" 
d="M129 0v1024h221v-1024h-221zM326 1163v215h215v-215h-215zM-63 1163v215h215v-215h-215z" />
    <glyph glyph-name="uni0458" unicode="&#x458;" horiz-adv-x="518" 
d="M168 -41v1065h221v-1065q0 -426 -420 -395v213q102 -10 151 33q48 43 48 149zM168 1434h221v-246h-221v246z" />
    <glyph glyph-name="uni0459" unicode="&#x459;" horiz-adv-x="1529" 
d="M1128 199q57 0 96 31q38 32 38 92t-38 93q-38 32 -96 31h-206v-247h206zM1128 645q154 0 252 -87q98 -88 98 -236t-98 -235t-252 -87h-428v811h-270v-381q0 -244 -106 -347t-304 -91v207q94 -10 142 46q47 56 47 195v584h713v-379h206z" />
    <glyph glyph-name="uni045A" unicode="&#x45a;" horiz-adv-x="1556" 
d="M1155 199q57 -1 95 31t38 92t-39 93q-39 32 -94 31h-207v-247h207zM1153 645q156 0 254 -87q98 -88 98 -236t-99 -235t-253 -87h-426v436h-387v-436h-221v1024h221v-379h387v379h221v-379h205z" />
    <glyph glyph-name="uni045B" unicode="&#x45b;" horiz-adv-x="1095" 
d="M655 1051q147 1 243 -105t95 -287v-659h-221v647q0 93 -51 145t-141 52t-152 -62t-63 -194v-588h-222v1149h-133v151h133v134h222v-134h290v-151h-290v-242q93 144 290 144z" />
    <glyph glyph-name="uni045C" unicode="&#x45c;" horiz-adv-x="1044" 
d="M350 0h-221v1024h221v-453l389 453h265l-439 -502l459 -522h-264l-410 473v-473zM811 1434l-217 -277h-213l164 277h266z" />
    <glyph glyph-name="uni045E" unicode="&#x45e;" horiz-adv-x="1003" 
d="M758 1024h235l-362 -1057q-68 -195 -198 -291t-302 -86v207q201 -12 272 197l7 16l-400 1014h236l278 -727zM788 1360v-193h-573v193h573z" />
    <glyph glyph-name="uni045F" unicode="&#x45f;" horiz-adv-x="1105" 
d="M758 1024h221v-1024h-317v-295h-218v295h-315v1024h221v-815h408v815z" />
    <glyph glyph-name="uni0490" unicode="&#x490;" horiz-adv-x="983" 
d="M717 1679h235v-471h-573v-1208h-236v1434h574v245z" />
    <glyph glyph-name="uni0491" unicode="&#x491;" horiz-adv-x="778" 
d="M557 1233h217v-422h-424v-811h-221v1024h428v209z" />
    <glyph glyph-name="Wgrave" unicode="&#x1e80;" horiz-adv-x="1802" 
d="M1550 1434h242l-420 -1434h-270l-201 680l-199 -680h-270l-422 1434h242l326 -1145l217 751l-115 394h221l326 -1145zM1034 1567h-213l-217 276h266z" />
    <glyph glyph-name="wgrave" unicode="&#x1e81;" horiz-adv-x="1454" 
d="M1092 0h-218l-147 440l-147 -440h-218l-342 1024h236l229 -760l150 455l-103 305h205l238 -741l223 741h236zM860 1157h-213l-217 277h266z" />
    <glyph glyph-name="Wacute" unicode="&#x1e82;" horiz-adv-x="1802" 
d="M1550 1434h242l-420 -1434h-270l-201 680l-199 -680h-270l-422 1434h242l326 -1145l217 751l-115 394h221l326 -1145zM1188 1843l-217 -276h-213l164 276h266z" />
    <glyph glyph-name="wacute" unicode="&#x1e83;" horiz-adv-x="1454" 
d="M1092 0h-218l-147 440l-147 -440h-218l-342 1024h236l229 -760l150 455l-103 305h205l238 -741l223 741h236zM1014 1434l-217 -277h-213l164 277h266z" />
    <glyph glyph-name="Wdieresis" unicode="&#x1e84;" horiz-adv-x="1802" 
d="M1550 1434h242l-420 -1434h-270l-201 680l-199 -680h-270l-422 1434h242l326 -1145l217 751l-115 394h221l326 -1145zM1204 1788v-215h-215v215h215zM815 1788v-215h-215v215h215z" />
    <glyph glyph-name="wdieresis" unicode="&#x1e85;" horiz-adv-x="1454" 
d="M1092 0h-218l-147 440l-147 -440h-218l-342 1024h236l229 -760l150 455l-103 305h205l238 -741l223 741h236zM1030 1378v-215h-215v215h215zM641 1378v-215h-215v215h215z" />
    <glyph glyph-name="Ygrave" unicode="&#x1ef2;" horiz-adv-x="1214" 
d="M725 0h-236v647l-479 787h269l327 -562l330 562h268l-479 -789v-645zM737 1567h-213l-217 276h266z" />
    <glyph glyph-name="ygrave" unicode="&#x1ef3;" horiz-adv-x="1003" 
d="M758 1024h235l-491 -1434h-236l144 422l-400 1012h236l274 -705zM635 1157h-213l-217 277h266z" />
    <glyph glyph-name="endash" unicode="&#x2013;" horiz-adv-x="1331" 
d="M143 516v213h1045v-213h-1045z" />
    <glyph glyph-name="emdash" unicode="&#x2014;" horiz-adv-x="1536" 
d="M143 516v213h1250v-213h-1250z" />
    <glyph glyph-name="quoteleft" unicode="&#x2018;" horiz-adv-x="522" 
d="M268 1167h121v-256h-256v256q0 123 67 197t189 82v-107q-61 -8 -91 -46t-30 -126z" />
    <glyph glyph-name="quoteright" unicode="&#x2019;" horiz-adv-x="522" 
d="M133 1434h256v-256q-1 -123 -67 -197t-189 -82v107q61 8 92 46t31 126h-123v256z" />
    <glyph glyph-name="quotesinglbase" unicode="&#x201a;" horiz-adv-x="522" 
d="M133 256h256v-256q-1 -125 -67 -199t-189 -80v107q61 6 92 44t31 128h-123v256z" />
    <glyph glyph-name="quotedblleft" unicode="&#x201c;" horiz-adv-x="870" 
d="M616 1167h121v-256h-256v256q0 123 67 197t189 82v-107q-61 -8 -91 -46t-30 -126zM133 1167q0 125 67 199t189 80v-107q-61 -6 -92 -44t-31 -128h123v-256h-256v256z" />
    <glyph glyph-name="quotedblright" unicode="&#x201d;" horiz-adv-x="870" 
d="M481 1434h256v-256q-1 -125 -67 -199t-189 -80v107q61 6 92 44t31 128h-123v256zM133 1178v256h256v-256q-1 -123 -67 -197t-189 -82v107q61 8 92 46t31 126h-123z" />
    <glyph glyph-name="quotedblbase" unicode="&#x201e;" horiz-adv-x="870" 
d="M481 256h256v-256q-1 -125 -67 -199t-189 -80v107q61 6 92 44t31 128h-123v256zM133 0v256h256v-256q-1 -125 -67 -199t-189 -80v107q61 6 92 44t31 128h-123z" />
    <glyph glyph-name="dagger" unicode="&#x2020;" horiz-adv-x="983" 
d="M881 1137v-213h-279v-924h-221v924h-279v213h279v297h221v-297h279z" />
    <glyph glyph-name="daggerdbl" unicode="&#x2021;" horiz-adv-x="983" 
d="M881 924h-279v-414h279v-213h-279v-297h-221v297h-279v213h279v414h-279v213h279v297h221v-297h279v-213z" />
    <glyph glyph-name="bullet" unicode="&#x2022;" horiz-adv-x="696" 
d="M604 718q0 -106 -74 -182t-179 -75q-105 0 -182 77t-77 182t76 179t182 74t180 -74q74 -75 74 -181z" />
    <glyph glyph-name="ellipsis" unicode="&#x2026;" horiz-adv-x="1402" 
d="M1014 0v256h256v-256h-256zM573 0v256h256v-256h-256zM133 0v256h256v-256h-256z" />
    <glyph glyph-name="perthousand" unicode="&#x2030;" horiz-adv-x="2328" 
d="M1922 156q64 0 106 43q40 43 40 105t-40 106q-42 43 -106 43t-105 -43q-41 -44 -41 -106t41 -105t105 -43zM1164 156q64 0 106 43q41 43 41 105t-41 106q-42 44 -106 43q-64 0 -105 -43q-41 -44 -41 -106t41 -105t105 -43zM1587 303q0 137 96 233q97 96 239 95
q142 0 238 -95q96 -94 97 -232q-1 -138 -97 -234t-238 -95q-142 -1 -238 95t-97 233zM1164 631q142 0 238 -95q96 -94 97 -232q-1 -138 -97 -234t-238 -95q-142 -1 -238 95t-97 233q1 137 97 233t238 95zM291 1134q0 -62 41 -106q42 -44 106 -43q64 0 105 43q41 44 41 106
t-41 105t-105 43t-106 -43q-41 -43 -41 -105zM186 0l1006 1434h221l-1007 -1434h-220zM438 805q-143 0 -239 95q-97 94 -97 232t96 233t239 95t239 -95t96 -232t-95 -233q-96 -95 -239 -95z" />
    <glyph glyph-name="guilsinglleft" unicode="&#x2039;" horiz-adv-x="710" 
d="M578 1012l-226 -379l226 -379h-220l-225 379l225 379h220z" />
    <glyph glyph-name="guilsinglright" unicode="&#x203a;" horiz-adv-x="710" 
d="M352 1012l226 -379l-226 -379h-219l225 379l-225 379h219z" />
    <glyph glyph-name="fraction" unicode="&#x2044;" horiz-adv-x="409" 
d="M-123 0h-164l819 1434h164z" />
    <glyph glyph-name="Euro" unicode="&#x20ac;" horiz-adv-x="1304" 
d="M31 532v146h133v39q0 37 2 55h-135v146h149q41 252 182 397q142 145 362 145t357 -136t168 -374h-239q-16 135 -91 208t-195 73t-199 -80t-107 -233h452v-146h-469q-2 -18 -2 -55v-39h471v-146h-456q28 -160 108 -244t203 -85q123 0 199 78t90 219h239
q-29 -244 -167 -385t-361 -141t-367 149q-143 150 -182 409h-145z" />
    <glyph glyph-name="uni20BD" unicode="&#x20bd;" horiz-adv-x="1224" 
d="M430 1212v-479h293q96 0 163 70t66 170q0 100 -66 170q-67 70 -163 69h-293zM723 522h-293v-137h481v-160h-481v-225h-235v225h-164v160h164v137h-164v211h164v701h528q195 0 330 -134t135 -326t-135 -322t-330 -130z" />
    <glyph glyph-name="uni2116" unicode="&#x2116;" horiz-adv-x="2029" 
d="M1317 473v209h618v-209h-618zM1483 1133q0 -61 40 -103t102 -41q62 0 101 41q39 40 39 102t-40 103t-101 41t-101 -41t-40 -102zM932 1434h235v-1434h-184l-604 973v-973h-236v1434h185l604 -973v973zM1625 805q-144 0 -240 95q-95 94 -95 232t95 233t239 95t238 -95
q96 -95 96 -232t-94 -233q-95 -95 -239 -95z" />
    <glyph glyph-name="trademark" unicode="&#x2122;" horiz-adv-x="952" 
d="M881 1434v-410h-109v229l-76 -143h-65l-78 150v-236h-107v410h119l99 -199l98 199h119zM401 1434v-101h-108v-309h-111v309h-110v101h329z" />
    <glyph glyph-name="estimated" unicode="&#x212e;" horiz-adv-x="1638" 
d="M1270 1171q0 23 -15 39q-172 182 -436 182t-436 -182q-14 -16 -14 -39v-393q0 -31 30 -30h840q31 0 31 30v393zM819 1454q334 0 546 -213t212 -524q0 -31 -31 -31h-1147q-31 0 -30 -31v-393q0 -23 14 -39q172 -182 473 -182t477 199q14 18 37 18h76q20 0 26 -12t-8 -27
q-224 -239 -594 -239t-589 212t-219 524t211 525q212 213 546 213z" />
    <glyph glyph-name="oneeighth" unicode="&#x215b;" horiz-adv-x="1648" 
d="M1297 139q60 0 95 30q34 30 33 79q0 49 -34 77q-35 27 -95 27t-93 -28q-34 -28 -34 -76q0 -49 34 -79t94 -30zM1298 684q-113 0 -112 -92q0 -92 112 -92q51 0 81 24t30 68t-30 68t-81 24zM1606 221q0 -113 -83 -181t-225 -67q-142 0 -225 68q-84 68 -84 180
q0 139 125 209q-96 63 -96 175q0 113 79 177t201 64t200 -65q79 -65 79 -177t-96 -174q125 -70 125 -209zM1067 1434h164l-819 -1434h-164zM426 614h-188v625l-207 -111v193l207 113h188v-820z" />
    <glyph glyph-name="threeeighths" unicode="&#x215c;" horiz-adv-x="1830" 
d="M1478 139q60 0 94 30t34 79t-35 77q-35 27 -94 27t-94 -27q-33 -28 -33 -77t34 -79t94 -30zM1479 684q-113 0 -113 -92t113 -92q51 0 81 24t29 68q1 44 -29 68t-81 24zM1786 221q0 -113 -83 -181t-224 -67q-141 0 -226 68q-84 68 -84 180q0 139 125 209q-96 63 -96 175
q0 113 79 177t201 64t200 -65t79 -177q0 -112 -96 -174q125 -70 125 -209zM1247 1434h164l-819 -1434h-164zM659 860q0 -129 -84 -201q-84 -71 -227 -71t-227 72t-84 200h188q0 -102 122 -102t122 102q0 47 -32 74t-89 27h-106v116l151 183h-323v174h553v-148l-158 -190
q92 -24 143 -86t51 -150z" />
    <glyph glyph-name="fiveeighths" unicode="&#x215d;" horiz-adv-x="1804" 
d="M1453 139q60 0 94 30t34 79t-35 77q-35 27 -94 27t-93 -28t-34 -76q0 -49 34 -79t94 -30zM1454 684q-113 0 -113 -92t113 -92q51 0 81 24t30 68t-30 68t-81 24zM1761 221q0 -113 -83 -181t-224 -67q-141 0 -225 68t-84 180q0 139 125 209q-96 63 -96 175q0 113 78 177
t201 64q122 0 201 -65q78 -65 78 -177t-96 -174q125 -70 125 -209zM1223 1434h163l-819 -1434h-164zM342 1126q131 0 211 -70t80 -199q0 -128 -82 -199q-82 -70 -217 -70t-217 72t-82 198h178q0 -47 32 -76q32 -28 89 -28t89 28t32 77q0 48 -32 77t-89 29h-266l32 469h494
v-172h-328l-8 -136h84z" />
    <glyph glyph-name="seveneighths" unicode="&#x215e;" horiz-adv-x="1720" 
d="M1369 139q60 0 94 30t34 79t-35 77q-35 27 -94 27t-93 -28t-34 -76q0 -49 34 -79t94 -30zM1370 684q-113 0 -113 -92t113 -92q51 0 81 24t30 68t-30 68t-81 24zM1677 221q0 -113 -83 -181t-224 -67q-141 0 -225 68t-84 180q0 139 125 209q-96 63 -96 175q0 113 78 177
t201 64q122 0 201 -65q78 -65 78 -177t-96 -174q125 -70 125 -209zM1139 1434h164l-820 -1434h-164zM569 1434v-146l-272 -674h-197l267 646h-357v174h559z" />
    <glyph glyph-name="arrowleft" unicode="&#x2190;" horiz-adv-x="1648" 
d="M1546 823v-213h-1042l508 -508h-295l-615 615l615 614h295l-508 -508h1042z" />
    <glyph glyph-name="arrowup" unicode="&#x2191;" horiz-adv-x="1433" 
d="M827 0h-221v1028l-504 -504v295l615 615l614 -615v-295l-504 504v-1028z" />
    <glyph glyph-name="arrowright" unicode="&#x2192;" horiz-adv-x="1648" 
d="M102 610v213h1043l-508 508h295l614 -614l-614 -615h-295l508 508h-1043z" />
    <glyph glyph-name="arrowdown" unicode="&#x2193;" horiz-adv-x="1433" 
d="M606 1434h221v-1028l504 503v-295l-614 -614l-615 614v295l504 -503v1028z" />
    <glyph glyph-name="arrowboth" unicode="&#x2194;" horiz-adv-x="2191" 
d="M1548 1260l541 -543l-541 -543h-291l431 436h-1188l436 -436h-291l-543 543l543 543h291l-436 -437h1192l-435 437h291z" />
    <glyph glyph-name="arrowupdn" unicode="&#x2195;" 
d="M1188 879l-432 430v-1184l432 432v-291l-543 -542l-543 542v291l433 -432v1184l-433 -430v290l543 541l543 -541v-290z" />
    <glyph glyph-name="uni2196" unicode="&#x2196;" horiz-adv-x="1314" 
d="M102 1239h869l209 -209h-717l749 -749l-151 -152l-750 750v-717l-209 209v868z" />
    <glyph glyph-name="uni2197" unicode="&#x2197;" horiz-adv-x="1314" 
d="M1212 1239v-868l-208 -209v717l-750 -750l-152 152l750 749h-717l209 209h868z" />
    <glyph glyph-name="uni2198" unicode="&#x2198;" horiz-adv-x="1314" 
d="M1212 160h-868l-209 209h717l-750 749l152 152l750 -750v717l208 -209v-868z" />
    <glyph glyph-name="uni2199" unicode="&#x2199;" horiz-adv-x="1314" 
d="M102 160v868l209 209v-717l750 750l151 -152l-749 -749h717l-209 -209h-869z" />
    <glyph glyph-name="partialdiff" unicode="&#x2202;" horiz-adv-x="1189" 
d="M537 182q137 0 221 111t104 305q-119 90 -260 90t-215 -72t-74 -188t60 -181t164 -65zM485 1460q250 0 426 -207t176 -549q1 -342 -157 -536q-158 -195 -400 -195q-206 0 -322 124t-116 324t125 333t342 133q160 0 303 -92q-18 205 -120 329t-277 127q-131 0 -248 -67
v202q114 74 268 74z" />
    <glyph glyph-name="emptyset" unicode="&#x2205;" horiz-adv-x="1646" 
d="M823 135q242 0 410 169q168 170 168 408t-156 404l-725 -895q137 -86 303 -86zM823 1298q-241 0 -409 -168t-168 -408q0 -238 155 -405l725 895q-137 86 -303 86zM1565 717q0 -307 -217 -524t-525 -218q-219 0 -405 121l-111 -137h-194l188 231q-219 218 -219 526
t217 525t524 217q219 0 406 -121l110 138h195l-188 -232q219 -219 219 -526z" />
    <glyph glyph-name="product" unicode="&#x220f;" horiz-adv-x="1310" 
d="M143 -410v1844h1024v-1844h-221v1631h-581v-1631h-222z" />
    <glyph glyph-name="summation" unicode="&#x2211;" horiz-adv-x="1136" 
d="M82 -410v195l455 747l-424 705v197h921v-213h-661l413 -689l-442 -729h721v-213h-983z" />
    <glyph glyph-name="minus" unicode="&#x2212;" horiz-adv-x="1126" 
d="M113 612v209h901v-209h-901z" />
    <glyph glyph-name="radical" unicode="&#x221a;" horiz-adv-x="1361" 
d="M102 432v213h326l223 -385l463 1378h227l-561 -1638h-219l-260 432h-199z" />
    <glyph glyph-name="infinity" unicode="&#x221e;" horiz-adv-x="1648" 
d="M1276 672q20 45 6 87t-59 60q-82 37 -195 -55q29 -111 76 -150q62 -20 108 -4t64 62zM547 614q47 39 76 150q-113 92 -195 55q-45 -18 -59 -60t5 -87q20 -46 66 -62t107 4zM1184 1065q156 0 257 -97t101 -250t-101 -251t-257 -98q-184 0 -359 190q-178 -190 -360 -190
q-154 0 -255 98t-101 251t101 250t255 97q182 0 360 -191q175 191 359 191z" />
    <glyph glyph-name="integral" unicode="&#x222b;" horiz-adv-x="903" 
d="M0 -416v219q82 -39 150 -6t81 129l205 1204q35 205 159 280t308 28v-219q-90 37 -160 5t-84 -128l-204 -1205q-35 -205 -158 -279t-297 -28z" />
    <glyph glyph-name="approxequal" unicode="&#x2248;" horiz-adv-x="1181" 
d="M287 356l-185 88q46 186 178 240t316 -41q186 -99 264 -47q32 22 66 74l153 -58q-53 -194 -178 -244t-308 45t-253 41q-35 -28 -53 -98zM588 793q-149 76 -222 61q-38 -8 -62 -28t-48 -60l-154 57q52 193 180 244t314 -45q141 -74 206 -60t93 117l184 -88
q-47 -188 -176 -242t-315 44z" />
    <glyph glyph-name="notequal" unicode="&#x2260;" horiz-adv-x="1085" 
d="M983 823h-321l-95 -211h416v-209h-510l-125 -280h-143l125 280h-228v209h322l94 211h-416v209h510l125 279h144l-125 -279h227v-209z" />
    <glyph glyph-name="lessequal" unicode="&#x2264;" horiz-adv-x="1075" 
d="M102 143v209h871v-209h-871zM973 1300v-233l-611 -201l611 -200v-234l-871 334v201z" />
    <glyph glyph-name="greaterequal" unicode="&#x2265;" horiz-adv-x="1075" 
d="M102 143v209h871v-209h-871zM102 1300l871 -333v-201l-871 -334v234l613 200l-613 201v233z" />
    <glyph glyph-name="lozenge" unicode="&#x25ca;" horiz-adv-x="1126" 
d="M563 281l234 436l-234 436l-231 -436zM473 0l-381 717l381 717h180l381 -717l-381 -717h-180z" />
    <glyph glyph-name="i.loclTRK" horiz-adv-x="477" 
d="M129 0v1024h221v-1024h-221zM119 1157v246h246v-246h-246z" />
    <glyph glyph-name="a.ss01" 
d="M616.5 184q139.5 0 231.5 93.5t92 234.5t-92 234.5t-231.5 93.5t-231.5 -93.5t-92 -234.5t92 -234.5t231.5 -93.5zM940 1024h221v-1024h-221v147q-125 -174 -347 -174t-371.5 157t-149.5 383t149.5 382t371.5 156t347 -174v147z" />
    <glyph glyph-name="aacute.ss01" 
d="M616.5 184q139.5 0 231.5 93.5t92 234.5t-92 234.5t-231.5 93.5t-231.5 -93.5t-92 -234.5t92 -234.5t231.5 -93.5zM940 1024h221v-1024h-221v147q-125 -174 -347 -174t-371.5 157t-149.5 383t149.5 382t371.5 156t347 -174v147zM911 1434l-217 -277h-213l164 277h266z
" />
    <glyph glyph-name="abreve.ss01" 
d="M616.5 184q139.5 0 231.5 93.5t92 234.5t-92 234.5t-231.5 93.5t-231.5 -93.5t-92 -234.5t92 -234.5t231.5 -93.5zM940 1024h221v-1024h-221v147q-125 -174 -347 -174t-371.5 157t-149.5 383t149.5 382t371.5 156t347 -174v147zM626 1130q-153 0 -238 75t-85 212h201
q0 -121 122 -121t122 121h200q0 -137 -84.5 -212t-237.5 -75z" />
    <glyph glyph-name="acircumflex.ss01" 
d="M616.5 184q139.5 0 231.5 93.5t92 234.5t-92 234.5t-231.5 93.5t-231.5 -93.5t-92 -234.5t92 -234.5t231.5 -93.5zM940 1024h221v-1024h-221v147q-125 -174 -347 -174t-371.5 157t-149.5 383t149.5 382t371.5 156t347 -174v147zM504 1434h231l217 -287h-225l-106 151
l-109 -151h-225z" />
    <glyph glyph-name="adieresis.ss01" 
d="M616.5 184q139.5 0 231.5 93.5t92 234.5t-92 234.5t-231.5 93.5t-231.5 -93.5t-92 -234.5t92 -234.5t231.5 -93.5zM940 1024h221v-1024h-221v147q-125 -174 -347 -174t-371.5 157t-149.5 383t149.5 382t371.5 156t347 -174v147zM928 1378v-215h-215v215h215zM539 1378
v-215h-215v215h215z" />
    <glyph glyph-name="agrave.ss01" 
d="M616.5 184q139.5 0 231.5 93.5t92 234.5t-92 234.5t-231.5 93.5t-231.5 -93.5t-92 -234.5t92 -234.5t231.5 -93.5zM940 1024h221v-1024h-221v147q-125 -174 -347 -174t-371.5 157t-149.5 383t149.5 382t371.5 156t347 -174v147zM758 1157h-213l-217 277h266z" />
    <glyph glyph-name="amacron.ss01" 
d="M616.5 184q139.5 0 231.5 93.5t92 234.5t-92 234.5t-231.5 93.5t-231.5 -93.5t-92 -234.5t92 -234.5t231.5 -93.5zM940 1024h221v-1024h-221v147q-125 -174 -347 -174t-371.5 157t-149.5 383t149.5 382t371.5 156t347 -174v147zM911 1350v-183h-573v183h573z" />
    <glyph glyph-name="aogonek.ss01" 
d="M616.5 184q139.5 0 231.5 93.5t92 234.5t-92 234.5t-231.5 93.5t-231.5 -93.5t-92 -234.5t92 -234.5t231.5 -93.5zM825 -266q0 119 129 266h-14v147q-125 -174 -347 -174t-371.5 157t-149.5 383t149.5 382t371.5 156t347 -174v147h221v-1024q-123 -123 -123 -215
q-2 -57 58 -57q25 -2 65 12v-148q-70 -29 -152.5 -28.5t-133 45.5t-50.5 125z" />
    <glyph glyph-name="aring.ss01" 
d="M616.5 184q139.5 0 231.5 93.5t92 234.5t-92 234.5t-231.5 93.5t-231.5 -93.5t-92 -234.5t92 -234.5t231.5 -93.5zM940 1024h221v-1024h-221v147q-125 -174 -347 -174t-371.5 157t-149.5 383t149.5 382t371.5 156t347 -174v147zM626 1427q-42 0 -65.5 -23.5t-23.5 -61.5
t23.5 -61.5t65.5 -23.5t65.5 24t23.5 61.5t-23.5 61t-65.5 23.5zM626.5 1112q-107.5 0 -176.5 65.5t-69 164t68.5 165t176.5 66.5t176 -65.5t68 -166t-68 -165t-175.5 -64.5z" />
    <glyph glyph-name="atilde.ss01" 
d="M616.5 184q139.5 0 231.5 93.5t92 234.5t-92 234.5t-231.5 93.5t-231.5 -93.5t-92 -234.5t92 -234.5t231.5 -93.5zM940 1024h221v-1024h-221v147q-125 -174 -347 -174t-371.5 157t-149.5 383t149.5 382t371.5 156t347 -174v147zM479 1161h-182q0 143 53 215t130 70
t163 -60q66 -53 96.5 -45.5t30.5 93.5h182q0 -143 -52 -215t-129 -70t-163 59q-68 53 -98.5 46t-30.5 -93z" />
    <glyph glyph-name="ae.ss01" horiz-adv-x="2045" 
d="M616 184q140 0 232 94t92 234q0 141 -92 234q-92 94 -232 94t-231 -94q-92 -94 -92 -234t92 -234t231 -94zM1169 600h594q-20 123 -99 186q-80 64 -194 64t-196 -68t-105 -182zM1151 0h-211v147q-125 -174 -347 -174t-372 157q-149 157 -149 383t149 382q150 156 372 156
t347 -174v147h211v-150q129 176 354 176t353 -154q128 -155 129 -386q0 -35 -9 -92h-807q25 -123 110 -189q85 -65 187 -65t166 35q66 35 95 90l225 2q-102 -317 -436 -318q-238 0 -367 172v-145z" />
    <glyph glyph-name="y.ss01" horiz-adv-x="1081" 
d="M731 1024h221v-1065q0 -193 -115.5 -294t-293.5 -101t-294 93t-116 251h217q0 -70 53.5 -110t138.5 -40t137 49.5t52 151.5v158q-94 -143 -291 -144q-147 0 -242.5 105.5t-95.5 286.5v659h222v-645q0 -96 52 -147.5t141 -51.5t151.5 62.5t62.5 193.5v588z" />
    <glyph glyph-name="yacute.ss01" horiz-adv-x="1081" 
d="M731 1024h221v-1065q0 -193 -115.5 -294t-293.5 -101t-294 93t-116 251h217q0 -70 53.5 -110t138.5 -40t137 49.5t52 151.5v158q-94 -143 -291 -144q-147 0 -242.5 105.5t-95.5 286.5v659h222v-645q0 -96 52 -147.5t141 -51.5t151.5 62.5t62.5 193.5v588zM815 1434
l-217 -277h-213l164 277h266z" />
    <glyph glyph-name="ycircumflex.ss01" horiz-adv-x="1081" 
d="M731 1024h221v-1065q0 -193 -115.5 -294t-293.5 -101t-294 93t-116 251h217q0 -70 53.5 -110t138.5 -40t137 49.5t52 151.5v158q-94 -143 -291 -144q-147 0 -242.5 105.5t-95.5 286.5v659h222v-645q0 -96 52 -147.5t141 -51.5t151.5 62.5t62.5 193.5v588zM408 1434h231
l217 -287h-225l-107 151l-108 -151h-226z" />
    <glyph glyph-name="ydieresis.ss01" horiz-adv-x="1081" 
d="M731 1024h221v-1065q0 -193 -115.5 -294t-293.5 -101t-294 93t-116 251h217q0 -70 53.5 -110t138.5 -40t137 49.5t52 151.5v158q-94 -143 -291 -144q-147 0 -242.5 105.5t-95.5 286.5v659h222v-645q0 -96 52 -147.5t141 -51.5t151.5 62.5t62.5 193.5v588zM829 1378v-215
h-215v215h215zM440 1378v-215h-215v215h215z" />
    <glyph glyph-name="ygrave.ss01" horiz-adv-x="1081" 
d="M731 1024h221v-1065q0 -193 -115.5 -294t-293.5 -101t-294 93t-116 251h217q0 -70 53.5 -110t138.5 -40t137 49.5t52 151.5v158q-94 -143 -291 -144q-147 0 -242.5 105.5t-95.5 286.5v659h222v-645q0 -96 52 -147.5t141 -51.5t151.5 62.5t62.5 193.5v588zM662 1157h-213
l-218 277h267z" />
    <glyph glyph-name="f_f_j" horiz-adv-x="1650" 
d="M1522 1024v-1065q0 -426 -420 -395v213q102 -10 150 33t48 149v852h-339v-811h-222v811h-342v-811h-221v811h-156v213h156v20q0 211 119 321t346 95v-213q-244 23 -244 -203v-20h342v41q0 416 465 416q111 0 226 -27v-203q-313 46 -410 -28q-59 -45 -59 -158v-41h561z
" />
    <glyph glyph-name="f_j" horiz-adv-x="1087" 
d="M958 1024v-1065q0 -426 -419 -395v213q102 -10 150 33t48 149v852h-340v-811h-221v811h-156v213h156v20q0 416 465 416q111 0 225 -26v-203q-110 16 -230 16t-179 -45t-60 -158v-20h561z" />
    <glyph glyph-name="uni0414.loclBGR" horiz-adv-x="1474" 
d="M440 221h594l-297 940zM1434 221v-516h-236v295h-922v-295h-235v516h152l403 1213h283l403 -1213h152z" />
    <glyph glyph-name="uni041B.loclBGR" horiz-adv-x="1277" 
d="M498 1434h282l488 -1434h-254l-375 1155l-373 -1155h-256z" />
    <glyph glyph-name="uni0424.loclBGR" horiz-adv-x="1748" 
d="M1442 716q0 222 -118 357t-337 164v-1040q219 29 337 163t118 356zM307 717q0 -221 118 -357t337 -163v1040q-219 -29 -337 -164t-118 -356zM1677 717q0 -307 -188 -506t-502 -229v-187h-225v187q-313 31 -502 229q-188 199 -188 506t188 506t502 229v186h225v-186
q313 -31 502 -229q188 -199 188 -506z" />
    <glyph glyph-name="uni0414.ss01" horiz-adv-x="1382" 
d="M932 221v991h-408v-497q0 -322 -106 -494h514zM1167 221h154v-221h-1290v221h129q129 164 129 498v715h878v-1213z" />
    <glyph glyph-name="uni0426.ss01" horiz-adv-x="1372" 
d="M1157 225h154v-225h-1168v1434h236v-1209h543v1209h235v-1209z" />
    <glyph glyph-name="uni0429.ss01" horiz-adv-x="1925" 
d="M1710 225h154v-225h-1721v1434h236v-1209h430v1209h235v-1209h431v1209h235v-1209z" />
    <glyph glyph-name="uni0414.loclBGR.ss01" horiz-adv-x="1474" 
d="M440 221h594l-297 940zM1434 221v-221h-1393v221h152l403 1213h283l403 -1213h152z" />
    <glyph glyph-name="uni0432.loclBGR" horiz-adv-x="1163" 
d="M350 469q0 -131 70 -207t191 -76q122 0 191 64q68 64 68 189q0 127 -105 185t-280 21l-135 -29v-147zM574 1251q-96 0 -160 -81q-63 -81 -64 -216v-135l135 29q76 16 140 16q137 109 137 223q0 74 -46 119t-142 45zM1092 428q0 -213 -127 -334t-353 -121q-226 1 -354 135
q-129 134 -129 361v485q0 230 124 368q123 138 317 138t302 -96t107 -249q0 -153 -135 -284q120 -45 184 -149t64 -254z" />
    <glyph glyph-name="uni0433.loclBGR" horiz-adv-x="927" 
d="M649 317h217q0 -164 -112 -254t-291 -90q-178 0 -290 79t-112 229q1 109 59 177t141 96t166 47t141 51t58 88t-43 84q-44 28 -116 28t-122 -37t-50 -108h-217q0 163 112 253t275 90t273 -82q110 -83 110 -229q0 -92 -42 -154t-104 -91t-137 -53q-74 -24 -136 -38
t-104 -45t-42 -77q0 -109 182 -109q84 0 134 36t50 109z" />
    <glyph glyph-name="uni0434.loclBGR" horiz-adv-x="1284" 
d="M618.5 201q139.5 0 232.5 92t93 229t-93 229.5t-232.5 92.5t-232.5 -92.5t-93 -229.5t93 -229t232.5 -92zM944 1024h217v-977q-1 -159 -77 -271q-144 -212 -443 -212q-205 0 -354.5 109.5t-149.5 289.5h221q0 -76 78 -137.5t213 -61.5t215 75t80 208v125
q-125 -178 -348 -178t-373.5 154.5t-150.5 373.5t149.5 374t374 155t348.5 -179v152z" />
    <glyph glyph-name="uni0436.loclBGR" horiz-adv-x="1478" 
d="M848 0h-217v469l-348 -469h-252l399 522l-379 502h252l328 -446v856h217v-856l328 446h251l-378 -502l399 -522h-252l-348 469v-469z" />
    <glyph glyph-name="uni0438.loclBGR" horiz-adv-x="1081" 
d="M733 1024h221v-1024h-221v117q-94 -143 -291 -144q-147 0 -242.5 105.5t-95.5 286.5v659h222v-645q0 -96 51 -147.5t141 -51.5t152.5 62.5t62.5 193.5v588z" />
    <glyph glyph-name="uni0439.loclBGR" horiz-adv-x="1081" 
d="M733 1024h221v-1024h-221v117q-94 -143 -291 -144q-147 0 -242.5 105.5t-95.5 286.5v659h222v-645q0 -96 51 -147.5t141 -51.5t152.5 62.5t62.5 193.5v588zM829 1360v-193h-573v193h573z" />
    <glyph glyph-name="uni043A.loclBGR" horiz-adv-x="1044" 
d="M350 0h-221v1434h221v-863l389 453h265l-439 -502l459 -522h-264l-410 473v-473z" />
    <glyph glyph-name="uni043B.loclBGR" horiz-adv-x="1003" 
d="M385 1024h236l372 -1024h-235l-256 762l-256 -762h-236z" />
    <glyph glyph-name="uni043F.loclBGR" horiz-adv-x="1081" 
d="M641 1051q147 0 242.5 -105.5t95.5 -286.5v-659h-221v647q0 94 -52.5 145.5t-141.5 51.5t-151.5 -61.5t-62.5 -194.5v-588h-221v1024h221v-117q94 144 291 144z" />
    <glyph glyph-name="uni0442.loclBGR" horiz-adv-x="1572" 
d="M1149 1051q143 -1 232 -95t89 -266v-690h-221v678q0 86 -43 126q-42 40 -114 40t-127 -50t-56 -165v-629h-221v678q0 86 -43 126t-113 40t-126 -50q-55 -50 -56 -165v-629h-221v1024h221v-106q86 133 257 133t253 -148q107 148 289 148z" />
    <glyph glyph-name="uni0446.loclBGR" horiz-adv-x="1159" 
d="M1022 209h86v-504h-217v309q-84 25 -127 103q-102 -143 -307 -144q-154 -1 -254 105t-101 287v659h222v-645q0 -95 52 -147t141 -52t151 62t63 194v588h221v-748q0 -31 18 -49t52 -18z" />
    <glyph glyph-name="uni0448.loclBGR" horiz-adv-x="1572" 
d="M1225 1024h221v-1024h-221v106q-92 -133 -261 -133t-251 148q-102 -147 -289 -148q-143 1 -231 95t-89 266v690h222v-676q0 -86 43 -127t113 -41t126 51q55 51 56 164v629h221v-676q0 -86 43 -127q42 -41 114 -41t127 51t56 164v629z" />
    <glyph glyph-name="uni0449.loclBGR" horiz-adv-x="1650" 
d="M1513 209h86v-504h-217v309q-86 25 -127 101q-98 -141 -279 -141t-265 147q-102 -147 -287 -148q-142 1 -232 95t-90 266v690h222v-676q0 -86 43 -127t115 -41t126 51q55 51 56 164v629h221v-676q0 -86 43 -127q44 -41 114 -41t125 51t56 164v629h221v-748q0 -31 18 -49
t51 -18z" />
    <glyph glyph-name="uni044C.loclBGR" horiz-adv-x="993" 
d="M319 369q-1 -79 55 -133t146 -54t148 54t57 128q0 72 -50 116t-143 44h-213v-155zM532 723q198 0 304 -95q106 -94 106 -264t-117 -280t-307 -111q-190 0 -304 109q-112 109 -112 287v655h217v-301h213z" />
    <glyph glyph-name="uni044A.loclBGR" horiz-adv-x="1175" 
d="M500 369q0 -79 55 -133t145 -54t148 54t57 128q0 72 -50 116t-142 44h-213v-155zM713 723q197 0 303 -95q106 -94 106 -264t-116 -280t-308 -111q-192 0 -304 109t-111 287v446h-283v209h500v-301h213z" />
    <glyph glyph-name="uni044E.loclBGR" horiz-adv-x="1654" 
d="M1042 188q136 0 228 92t92 232q0 139 -92 231q-92 93 -228 93t-227 -92q-92 -92 -92 -232t92 -232t227 -92zM1055 1051q212 0 370 -156t158 -383t-158 -383t-370 -156t-357 122t-180 313h-168v-408h-221v1434h221v-818h168q35 190 180 312t357 123z" />
    <glyph glyph-name="uni0430.ss01" 
d="M616.5 184q139.5 0 231.5 93.5t92 234.5t-92 234.5t-231.5 93.5t-231.5 -93.5t-92 -234.5t92 -234.5t231.5 -93.5zM940 1024h221v-1024h-221v147q-125 -174 -347 -174t-371.5 157t-149.5 383t149.5 382t371.5 156t347 -174v147z" />
    <glyph glyph-name="uni0443.ss01" horiz-adv-x="1081" 
d="M731 1024h221v-1065q0 -193 -115.5 -294t-293.5 -101t-294 93t-116 251h217q0 -70 53.5 -110t138.5 -40t137 49.5t52 151.5v158q-94 -143 -291 -144q-147 0 -242.5 105.5t-95.5 286.5v659h222v-645q0 -96 52 -147.5t141 -51.5t151.5 62.5t62.5 193.5v588z" />
    <glyph glyph-name="zero.sinf" horiz-adv-x="837" 
d="M244 82q0 -120 46 -186q46 -64 129 -64t129 65t46 185t-46 186q-46 64 -129 64t-129 -65t-46 -185zM420 -354q-170 0 -269 118t-100 318t99 318t270 118t268 -118t98 -318t-98 -318t-268 -118z" />
    <glyph glyph-name="one.sinf" horiz-adv-x="534" 
d="M426 492v-820h-188v625l-207 -111v193l207 113h188z" />
    <glyph glyph-name="two.sinf" horiz-adv-x="718" 
d="M61 -328v131l322 310q76 70 76 141q0 42 -28 66t-75 24q-111 0 -110 -104h-189q0 134 84 206t214 72t211 -71t81 -193t-135 -252l-168 -156h318v-174h-601z" />
    <glyph glyph-name="three.sinf" horiz-adv-x="714" 
d="M659 -84q0 -127 -84 -199q-84 -71 -227 -71t-227 72t-84 198h188q0 -47 32 -75q32 -27 91 -27t90 28t31 74q0 47 -32 75t-89 27h-106v117l151 182h-323v175h553v-148l-158 -190q92 -25 143 -87t51 -151z" />
    <glyph glyph-name="four.sinf" horiz-adv-x="729" 
d="M694 -16v-172h-90v-140h-182v140h-395v172l276 508h203l-273 -508h189v161h182v-161h90z" />
    <glyph glyph-name="five.sinf" horiz-adv-x="690" 
d="M348 184q131 0 211 -70t80 -200q0 -129 -82 -199q-82 -69 -217 -69t-217 70t-82 198h178q0 -45 32 -74q32 -28 89 -28t89 28t32 75q0 48 -32 78t-89 30h-266l32 469h494v-173h-328l-8 -135h84z" />
    <glyph glyph-name="six.sinf" horiz-adv-x="694" 
d="M479 -66q0 58 -36 92t-96 34t-96 -34t-36 -92t36 -90q36 -34 96 -34t96 34t36 90zM657 -67q0 -123 -87 -205t-223 -82t-223 82t-87 206q0 88 39 148v2l258 408h201l-179 -269q133 -2 217 -84t84 -206z" />
    <glyph glyph-name="seven.sinf" horiz-adv-x="606" 
d="M10 492h559v-146l-272 -674h-197l265 645h-355v175z" />
    <glyph glyph-name="eight.sinf" horiz-adv-x="706" 
d="M225 -82q0 -50 34 -78t94 -28t94 28t34 78q0 49 -35 78t-94 29t-93 -29t-34 -78zM354 356q-113 0 -112 -92q0 -92 112 -92q51 0 81 25t30 67t-30 68q-30 24 -81 24zM662 -94q0 -126 -83 -194q-83 -66 -225 -66t-226 66q-83 66 -83 182q0 141 125 208q-96 63 -96 175
t79 177q79 64 201 64t200 -64q79 -64 79 -176q0 -110 -96 -176q125 -70 125 -196z" />
    <glyph glyph-name="nine.sinf" horiz-adv-x="694" 
d="M215 229q0 -57 36 -91t96 -34t96 34t36 91t-36 91t-96 34t-96 -34t-36 -91zM37 230q0 124 87 206t223 82t223 -82t87 -207q0 -81 -39 -147l-2 -6l-4 -4l-252 -400h-200l176 269q-133 2 -216 84q-83 81 -83 205z" />
    <glyph glyph-name="zero.tf" horiz-adv-x="1177" 
d="M589 203q159 0 244 133t85 381t-85 381t-244 133t-243 -133t-84 -381t84 -381t243 -133zM590 -27q-266 0 -415 203q-148 203 -148 541q0 339 148 541q149 202 415 202t414 -203t149 -541q-1 -338 -149 -540q-148 -203 -414 -203z" />
    <glyph glyph-name="one.tf" horiz-adv-x="1177" 
d="M754 225h379v-225h-1065v225h450v967l-373 -207v238l373 211h236v-1209z" />
    <glyph glyph-name="two.tf" horiz-adv-x="1177" 
d="M82 0v184l522 463q115 100 175 181q61 80 61 176t-69 162t-183 65q-114 0 -193 -65q-78 -65 -78 -179h-235q0 221 152 347q153 126 352 126t344 -126t145 -343q0 -242 -311 -493l-332 -271h670v-227h-1020z" />
    <glyph glyph-name="three.tf" horiz-adv-x="1177" 
d="M1122 438q0 -217 -154 -341t-384 -124q-231 0 -384 124t-153 341h236q1 -111 79 -173t222 -62t223 62q80 62 80 174t-80 173t-223 62h-135v155l315 383h-660v222h953v-201l-309 -373q170 -38 272 -146t102 -276z" />
    <glyph glyph-name="four.tf" horiz-adv-x="1177" 
d="M1143 477v-219h-164v-258h-238v258h-714v219l493 957h254l-493 -957h460v352h238v-352h164z" />
    <glyph glyph-name="five.tf" horiz-adv-x="1177" 
d="M600 893q224 0 368 -121t144 -338t-150 -339t-372 -122q-223 0 -373 122t-149 339h235q0 -109 76 -170t211 -61t211 61t76 170t-76 169t-211 61h-455l55 770h861v-222h-641l-25 -319h215z" />
    <glyph glyph-name="six.tf" horiz-adv-x="1177" 
d="M580 197q143 1 225 73t82 198t-82 199t-225 73t-226 -72q-82 -72 -82 -199t82 -200q83 -72 226 -72zM580 963q248 -1 395 -137t147 -358t-147 -358t-395 -136t-396 136t-147 359q0 172 92 297l479 668h273l-338 -471h37z" />
    <glyph glyph-name="seven.tf" horiz-adv-x="1177" 
d="M61 1434h1045v-205l-555 -1229h-248l543 1208h-785v226z" />
    <glyph glyph-name="eight.tf" horiz-adv-x="1177" 
d="M590 197q147 0 225 58q78 59 78 165t-78 164t-225 59q-147 0 -226 -58q-79 -59 -79 -165t79 -164t226 -59zM589 840q119 0 187 53t68 147t-68 146t-187 51q-120 0 -188 -51q-67 -52 -67 -146t68 -147t187 -53zM1128 397q0 -197 -145 -311t-394 -113q-249 0 -394 114
t-146 310q0 229 219 346q-170 107 -170 305t140 306t352 106q213 0 351 -108t138 -305q0 -198 -170 -304q219 -117 219 -346z" />
    <glyph glyph-name="nine.tf" horiz-adv-x="1177" 
d="M293 967q0 -127 82 -200t225 -73t225 73t82 200t-82 199t-225 71q-143 1 -225 -71t-82 -199zM1143 967q0 -172 -94 -299l-478 -668h-274l338 471h-35q-248 0 -395 136q-147 137 -147 359t146 358q148 136 396 136t396 -136t147 -357z" />
    <glyph glyph-name="zero.dnom" horiz-adv-x="837" 
d="M594 410q0 122 -46 186t-129 64t-129 -66q-46 -64 -46 -184t46 -186q46 -64 129 -64t129 64t46 186zM420 -27q-170 0 -269 119t-99 319q0 199 98 317q100 118 270 118t268 -118t98 -318t-98 -318q-98 -119 -268 -119z" />
    <glyph glyph-name="one.dnom" horiz-adv-x="534" 
d="M426 819v-819h-188v625l-207 -111v193l207 112h188z" />
    <glyph glyph-name="two.dnom" horiz-adv-x="718" 
d="M61 0v131l322 309q76 70 76 142q0 42 -28 66t-75 24q-111 0 -110 -105h-189q0 133 84 206t214 73t211 -71t81 -193t-135 -252l-168 -156h318v-174h-601z" />
    <glyph glyph-name="three.dnom" horiz-adv-x="714" 
d="M659 246q0 -129 -84 -201t-227 -72t-227 72t-84 201h188q0 -102 122 -102t122 102q0 48 -32 74t-89 26h-106v117l151 182h-323v174h553v-147l-158 -191q92 -25 143 -86t51 -149z" />
    <glyph glyph-name="four.dnom" horiz-adv-x="729" 
d="M694 311v-172h-90v-139h-182v139h-395v172l276 508h203l-273 -508h189v162h182v-162h90z" />
    <glyph glyph-name="five.dnom" horiz-adv-x="690" 
d="M342 512q133 0 212 -71t79 -199t-81 -198q-81 -71 -216 -71t-217 72t-82 199h176q0 -47 32 -76t90 -29t90 29t32 77t-33 77t-88 28h-268l32 469h496v-172h-328l-8 -135h82z" />
    <glyph glyph-name="six.dnom" horiz-adv-x="694" 
d="M347 137q60 0 96 34t36 92t-36 91t-96 33t-96 -33t-36 -90t36 -92t96 -35zM657 262q0 -125 -87 -207t-223 -82t-223 82t-87 209q0 80 39 148l2 2l256 405h201l-177 -266q133 -4 216 -85t83 -206z" />
    <glyph glyph-name="seven.dnom" horiz-adv-x="606" 
d="M10 819h559v-145l-272 -674h-197l267 645h-357v174z" />
    <glyph glyph-name="eight.dnom" horiz-adv-x="706" 
d="M353 139q60 0 94 30t34 79t-35 77q-35 27 -94 27t-93 -28t-34 -76q0 -49 34 -79t94 -30zM354 684q-113 0 -112 -92q0 -92 112 -92q51 0 81 24t30 68t-30 68t-81 24zM662 221q0 -113 -83 -181t-225 -67q-142 0 -225 68q-84 68 -84 180q0 139 125 209q-96 63 -96 175
q0 113 79 177t201 64t200 -65q79 -65 79 -177t-96 -174q125 -70 125 -209z" />
    <glyph glyph-name="nine.dnom" horiz-adv-x="694" 
d="M215 557q0 -57 36 -91t96 -34t96 34t36 91t-36 91t-96 34t-96 -34t-36 -91zM37 558q0 124 87 206t223 82t223 -82t87 -207q0 -79 -39 -147l-2 -2l-256 -408h-200l178 268q-133 2 -217 84t-84 206z" />
    <glyph glyph-name="zero.numr" horiz-adv-x="837" 
d="M244 1024q0 -120 46 -186q46 -64 129 -64t129 65t46 185t-46 186q-46 64 -129 64t-129 -65t-46 -185zM420 588q-170 0 -269 119t-99 319t98 316q100 118 270 118t268 -118t98 -318t-98 -318t-268 -118z" />
    <glyph glyph-name="one.numr" horiz-adv-x="534" 
d="M426 1434v-820h-188v625l-207 -111v193l207 113h188z" />
    <glyph glyph-name="two.numr" horiz-adv-x="718" 
d="M61 614v131l322 310q76 70 76 141q0 41 -28 66t-75 24q-111 0 -110 -104h-189q0 133 84 206q84 72 214 72t211 -70t81 -194q0 -123 -135 -252l-168 -156h318v-174h-601z" />
    <glyph glyph-name="three.numr" horiz-adv-x="714" 
d="M659 860q0 -129 -84 -201q-84 -71 -227 -71t-227 72t-84 200h188q0 -102 122 -102t122 102q0 47 -32 74t-89 27h-106v116l151 183h-323v174h553v-148l-158 -190q92 -25 143 -86t51 -150z" />
    <glyph glyph-name="four.numr" horiz-adv-x="729" 
d="M694 926v-172h-90v-140h-182v140h-395v172l276 508h203l-273 -508h189v161h182v-161h90z" />
    <glyph glyph-name="five.numr" horiz-adv-x="690" 
d="M342 1126q133 0 212 -70t79 -199q0 -128 -81 -199q-81 -70 -216 -70t-217 72t-82 198h176q0 -47 32 -76q32 -28 90 -28t90 28t32 77q0 48 -33 77t-88 29h-268l32 469h496v-172h-328l-8 -136h82z" />
    <glyph glyph-name="six.numr" horiz-adv-x="694" 
d="M215 879q0 -57 36 -92t96 -35t96 34t36 92t-36 91t-96 33t-96 -34q-36 -32 -36 -89zM657 876q0 -124 -87 -206t-223 -82t-223 82t-87 209q0 80 39 147l2 2l256 406h201l-177 -267q133 -4 216 -85q83 -82 83 -206z" />
    <glyph glyph-name="seven.numr" horiz-adv-x="606" 
d="M10 1434h559v-146l-272 -674h-197l267 646h-357v174z" />
    <glyph glyph-name="eight.numr" horiz-adv-x="706" 
d="M225 862q0 -48 34 -78t94 -30t94 30t34 78q0 49 -35 77t-94 28t-93 -28t-34 -77zM354 1298q-113 0 -112 -92q0 -92 112 -92q51 0 81 25t30 67t-30 68q-30 24 -81 24zM662 836q0 -113 -83 -181q-83 -67 -225 -67t-225 68q-84 68 -84 180q0 139 125 208q-96 64 -96 176
t79 176t201 64t200 -64q79 -64 79 -177q0 -112 -96 -175q125 -70 125 -208z" />
    <glyph glyph-name="nine.numr" horiz-adv-x="694" 
d="M215 1171q0 -57 36 -91t96 -34t96 34t36 91t-36 91t-96 34t-96 -34t-36 -91zM37 1172q0 124 87 206t223 82t223 -82t87 -207q0 -79 -39 -147l-2 -2l-256 -408h-200l178 269q-133 2 -217 84q-84 81 -84 205z" />
    <glyph glyph-name="zero.sups" horiz-adv-x="837" 
d="M244 1352q0 -120 46 -186q46 -64 129 -64t129 64t46 186t-46 186t-129 64t-129 -65t-46 -185zM420 915q-170 0 -269 119t-99 319q0 199 98 317q100 118 270 118t268 -118t98 -318t-98 -318q-98 -119 -268 -119z" />
    <glyph glyph-name="one.sups" horiz-adv-x="534" 
d="M426 1761v-819h-188v625l-207 -111v193l207 112h188z" />
    <glyph glyph-name="two.sups" horiz-adv-x="718" 
d="M61 942v131l322 309q76 70 76 142q0 42 -28 66t-75 24q-111 0 -110 -105h-189q0 133 84 206t214 73t211 -71t81 -193t-135 -252l-168 -156h318v-174h-601z" />
    <glyph glyph-name="three.sups" horiz-adv-x="714" 
d="M659 1188q0 -129 -84 -201t-227 -72t-227 72t-84 201h188q0 -102 122 -102t122 102q0 47 -32 74t-89 26h-106v117l151 182h-323v174h553v-147l-158 -191q92 -25 143 -86t51 -149z" />
    <glyph glyph-name="four.sups" horiz-adv-x="729" 
d="M694 1253v-172h-90v-139h-182v139h-395v172l276 508h203l-273 -508h189v162h182v-162h90z" />
    <glyph glyph-name="five.sups" horiz-adv-x="690" 
d="M342 1454q133 0 212 -71t79 -199t-81 -198q-81 -71 -216 -71t-217 72t-82 199h176q0 -47 32 -76t90 -29t90 29t32 77t-33 77t-88 28h-268l32 469h496v-172h-328l-8 -135h82z" />
    <glyph glyph-name="six.sups" horiz-adv-x="694" 
d="M347 1079q60 0 96 34t36 92t-36 91t-96 33t-96 -33t-36 -90t36 -92t96 -35zM657 1204q0 -125 -87 -207t-223 -82t-223 82t-87 209q0 80 39 148l2 2l256 405h201l-177 -266q133 -4 216 -85t83 -206z" />
    <glyph glyph-name="seven.sups" horiz-adv-x="606" 
d="M10 1761h559v-145l-272 -674h-197l267 645h-357v174z" />
    <glyph glyph-name="eight.sups" horiz-adv-x="706" 
d="M353 1081q60 0 94 30t34 79t-35 77q-35 27 -94 27t-93 -28t-34 -76q0 -49 34 -79t94 -30zM354 1626q-113 0 -112 -92q0 -92 112 -92q51 0 81 24t30 68t-30 68t-81 24zM662 1163q0 -113 -83 -181t-225 -67q-142 0 -225 68q-84 68 -84 180q0 139 125 209q-96 63 -96 175
q0 113 79 177t201 64t200 -65q79 -65 79 -177t-96 -174q125 -70 125 -209z" />
    <glyph glyph-name="nine.sups" horiz-adv-x="694" 
d="M215 1499q0 -57 36 -91t96 -34t96 34t36 91t-36 91t-96 34t-96 -34t-36 -91zM37 1500q0 124 87 206t223 82t223 -82t87 -207q0 -79 -39 -147l-2 -2l-256 -408h-200l178 268q-133 2 -217 84t-84 206z" />
    <glyph glyph-name="cent.tf" horiz-adv-x="1177" 
d="M305 717q0 -180 148 -275l192 596h-20q-135 0 -227 -92t-93 -229zM625 395q94 0 168 46t104 122h233q-39 -169 -180 -277t-325 -108q-70 0 -140 17l-63 -195h-113l74 231q-137 66 -218 195t-81 291q0 229 155 384t386 154q45 0 88 -6l59 185h113l-68 -211
q121 -45 204 -137t109 -216h-233q-41 102 -147 144l-197 -611q31 -8 72 -8z" />
    <glyph glyph-name="dollar.tf" horiz-adv-x="1177" 
d="M870 381q0 70 -54 114t-159 85v-375q100 10 157 58q56 48 56 118zM332 1060q0 -69 49 -113t143 -83v363q-90 -10 -141 -54t-51 -113zM657 -205h-133v182q-204 19 -328 137t-124 320h235q0 -197 217 -225v416q-78 27 -128 47t-112 58t-100 80q-88 100 -88 261
q0 162 122 267t306 120v180h133v-182q184 -20 301 -134t117 -306h-231q0 176 -187 209v-410q277 -96 363 -191t86 -257t-127 -271t-322 -121v-180z" />
    <glyph glyph-name="Euro.tf" horiz-adv-x="1177" 
d="M10 532v146h117v94h-117v146h129q37 254 168 398t339 144t342 -138t155 -372h-238q-10 133 -81 207t-175 74q-221 0 -272 -313h409v-146h-424v-94h424v-146h-413q51 -330 276 -329q106 0 179 79t81 218h238q-19 -242 -155 -384t-346 -142t-342 149q-132 150 -167 409
h-127z" />
    <glyph glyph-name="florin.tf" horiz-adv-x="1177" 
d="M1055 827v-213h-326l-188 -718q-53 -205 -181 -280t-309 -28v219q104 -35 174 -3t94 126l179 684h-262v213h319l82 308q53 205 181 279t308 28v-219q-104 35 -174 3t-94 -126l-72 -273h269z" />
    <glyph glyph-name="uni20BD.tf" horiz-adv-x="1177" 
d="M420 1212v-479h242q96 0 162 70t67 170q0 100 -67 170t-162 69h-242zM662 522h-242v-137h430v-160h-430v-225h-236v225h-164v160h164v137h-164v211h164v701h478q196 0 330 -134t134 -326t-134 -322t-330 -130z" />
    <glyph glyph-name="sterling.tf" horiz-adv-x="1177" 
d="M410 227h706v-227h-1106v227h164v314h-133v207h133v268q0 215 132 330q132 114 312 114t314 -116q133 -116 133 -328v-74h-236v74q0 104 -60 160t-150 55q-89 0 -149 -55t-60 -160v-268h426v-207h-426v-314z" />
    <glyph glyph-name="yen.tf" horiz-adv-x="1177" 
d="M1051 731v-149h-344v-103h344v-149h-344v-330h-236v330h-342v149h342v103h-342v149h295l-416 703h266l316 -562l315 562h266l-415 -703h295z" />
    <glyph glyph-name="brevecy" horiz-adv-x="696" 
d="M61 1167v193h574v-193h-574z" />
    </font>
</defs>
</svg>
