<?xml version="1.0" standalone="no"?>
<!DOCTYPE svg PUBLIC "-//W3C//DTD SVG 1.1//EN" "http://www.w3.org/Graphics/SVG/1.1/DTD/svg11.dtd" >
<svg xmlns="http://www.w3.org/2000/svg">
<metadata>
Created by FontPrep 20130207 at Fri Jun  3 11:04:20 2016
 By Tina Muller
Copyright (c) 2015 by Radomir Tinkov. All rights reserved.
</metadata>
<defs>
<font id="41b8fb17ea444eb43e000ca0bece09b5" horiz-adv-x='1024' >
  <font-face 
    font-family="Qanelas-Black"
    font-weight="900"
    font-stretch="normal"
    units-per-em="2048"
    panose-1="0 0 10 0 0 0 0 0 0 0"
    ascent="1638"
    descent="-410"
    x-height="1024"
    cap-height="1434"
    bbox="-954 -567 2514 2042"
    underline-thickness="102"
    underline-position="-102"
    unicode-range="U+0020-FB02"
  />
<missing-glyph horiz-adv-x="1024" 
d="M682 -37h-340v-67h143l-143 -97v-67h340v67h-209l143 97h66v67zM614 174v-96h-204v96h204zM682 242h-340v-232h340v232zM682 596h-205v-115h70v47h67v-96h-204v164h-68v-231h340v231zM682 846h-68v-135h-272v-70h340v205zM682 969h-340v-68h135v-76h-135v-67h205v143h135
v68zM477 1167v-73h-67v73h67zM547 1237h-205v-213h340v70h-135v143zM682 1501h-338v-67h133v-76h-135v-68h340v68h-135v76h135v67zM840 1638v-2048h-650v2048h650z" />
    <glyph glyph-name="fi" unicode="fi" horiz-adv-x="1140" 
d="M1042 1024v-1024h-340v698h-233v-698h-340v698h-129v326h129q0 440 516 440q133 0 264 -30v-297q-129 18 -237 18t-155 -29q-48 -29 -48 -102h573z" />
    <glyph glyph-name="fl" unicode="fl" horiz-adv-x="1140" 
d="M645 1464q182 0 397 -41v-1423h-340v1174q-20 2 -80 2t-107 -38q-46 -38 -46 -114h135v-326h-135v-698h-340v698h-129v326h129q0 440 516 440z" />
    <glyph glyph-name="f_f" unicode="ff" horiz-adv-x="1222" 
d="M1047 1044v-20h176v-326h-176v-698h-340v698h-238v-698h-340v698h-129v326h129q0 221 130 338t386 102v-315q-176 12 -176 -125h238v20q0 221 130 338t386 103v-316q-176 12 -176 -125z" />
    <glyph glyph-name="f_f_i" unicode="ffi" horiz-adv-x="1718" 
d="M1620 1024v-1024h-340v698h-233v-698h-340v698h-238v-698h-340v698h-129v326h129q0 221 130 338t386 102v-315q-176 12 -176 -125h238v20q0 440 516 441q133 0 266 -31v-297q-308 42 -394 -10q-48 -29 -48 -103v-20h573z" />
    <glyph glyph-name="f_f_l" unicode="ffl" horiz-adv-x="1718" 
d="M1223 1485q186 0 397 -41v-1444h-340v1194q-20 2 -80 2t-106 -38q-47 -38 -47 -114v-20h135v-326h-135v-698h-340v698h-238v-698h-340v698h-129v326h129q0 221 130 338t386 102v-315q-176 12 -176 -125h238v20q0 441 516 441z" />
    <glyph glyph-name=".notdef" horiz-adv-x="1024" 
d="M682 -37h-340v-67h143l-143 -97v-67h340v67h-209l143 97h66v67zM614 174v-96h-204v96h204zM682 242h-340v-232h340v232zM682 596h-205v-115h70v47h67v-96h-204v164h-68v-231h340v231zM682 846h-68v-135h-272v-70h340v205zM682 969h-340v-68h135v-76h-135v-67h205v143h135
v68zM477 1167v-73h-67v73h67zM547 1237h-205v-213h340v70h-135v143zM682 1501h-338v-67h133v-76h-135v-68h340v68h-135v76h135v67zM840 1638v-2048h-650v2048h650z" />
    <glyph glyph-name=".null" horiz-adv-x="0" 
 />
    <glyph glyph-name="nonmarkingreturn" horiz-adv-x="681" 
 />
    <glyph glyph-name="space" unicode=" " horiz-adv-x="464" 
 />
    <glyph glyph-name="exclam" unicode="!" horiz-adv-x="602" 
d="M119 0v367h364v-367h-364zM92 1434h418v-410l-68 -502h-282l-68 502v410z" />
    <glyph glyph-name="quotedbl" unicode="&#x22;" horiz-adv-x="905" 
d="M539 903l-41 531h315l-41 -531h-233zM133 903l-41 531h316l-41 -531h-234z" />
    <glyph glyph-name="numbersign" unicode="#" horiz-adv-x="1292" 
d="M721 645l22 143h-168l-24 -143h170zM1212 788h-206l-23 -143h207l-39 -246h-209l-51 -297h-262l51 297h-170l-49 -297h-262l49 297h-207l39 246h209l24 143h-209l39 246h211l49 297h263l-50 -297h168l50 297h262l-49 -297h204z" />
    <glyph glyph-name="dollar" unicode="$" horiz-adv-x="1128" 
d="M733 400q0 73 -96 114v-205q96 18 96 91zM414 1038q0 -66 80 -112v198q-80 -20 -80 -86zM1098 410q0 -197 -129 -310t-332 -129v-176h-143v178q-209 19 -336 141t-127 345h362q0 -121 101 -148v256q-96 33 -156 61t-134 80q-151 105 -151 307q0 201 123 315t318 132v176
h143v-178q193 -20 313 -140t119 -335h-348q0 109 -84 135v-250q2 -2 6 -2t47 -16t85 -31q42 -16 115 -57q74 -41 110 -83q36 -43 67 -113t31 -158z" />
    <glyph glyph-name="percent" unicode="%" horiz-adv-x="1767" 
d="M1319 240q41 0 69 30t28 70q0 41 -27 69q-27 27 -69 27t-69 -28t-27 -70q0 -41 27 -70q27 -28 68 -28zM1694 338q0 -154 -108 -260t-267 -107q-159 1 -267 107t-108 261t108 261t268 106t266 -107q108 -107 108 -261zM543 1098q0 42 -27 70t-69 28q-43 0 -69 -29t-26 -69
t26 -70q26 -29 69 -29q42 0 69 29t27 70zM215 0l1034 1434h301l-1036 -1434h-299zM821 1097q0 -155 -107 -261t-266 -107q-159 0 -268 108q-108 107 -108 261t108 260q109 106 269 106t266 -106t106 -261z" />
    <glyph glyph-name="ampersand" unicode="&#x26;" horiz-adv-x="1519" 
d="M622 287q76 0 138 20l-264 256q-54 -51 -54 -121t52 -112t128 -43zM205 1034q0 190 138 310t356 120q217 0 363 -121t146 -358h-366q0 61 -38 96t-98 35t-98 -29q-37 -29 -37 -81t61 -116q19 -22 62 -67l285 -288q29 82 29 180h366q0 -236 -141 -436l276 -279h-430
l-73 70q-174 -100 -405 -100t-381 121q-150 122 -148 317q0 242 213 383q-80 119 -80 243z" />
    <glyph glyph-name="quotesingle" unicode="'" horiz-adv-x="497" 
d="M133 903l-41 531h316l-41 -531h-234z" />
    <glyph glyph-name="parenleft" unicode="(" horiz-adv-x="669" 
d="M92 717q0 471 225 921h342q-225 -452 -225 -922t225 -921h-342q-225 451 -225 922z" />
    <glyph glyph-name="parenright" unicode=")" horiz-adv-x="669" 
d="M577 716q0 -470 -225 -921h-342q225 451 226 922q0 471 -226 921h342q225 -452 225 -922z" />
    <glyph glyph-name="asterisk" unicode="*" horiz-adv-x="829" 
d="M735 1239v-197l-186 21l117 -143l-164 -103l-88 168l-86 -168l-164 103l115 143l-187 -21v197l187 -20l-115 143l164 102l86 -168l88 168l164 -102l-117 -143z" />
    <glyph glyph-name="plus" unicode="+" horiz-adv-x="1146" 
d="M1063 879v-324h-328v-328h-323v328h-328v324h328v327h323v-327h328z" />
    <glyph glyph-name="comma" unicode="," horiz-adv-x="591" 
d="M113 367h366v-367q0 -147 -96 -233t-270 -86v139q96 0 138 44t42 136h-180v367z" />
    <glyph glyph-name="hyphen" unicode="-" horiz-adv-x="1024" 
d="M113 455v323h798v-323h-798z" />
    <glyph glyph-name="period" unicode="." horiz-adv-x="591" 
d="M113 0v367h366v-367h-366z" />
    <glyph glyph-name="slash" unicode="/" horiz-adv-x="1064" 
d="M195 -205h-144l819 1843h144z" />
    <glyph glyph-name="zero" unicode="0" horiz-adv-x="1290" 
d="M645 326q227 0 227 391t-227 391t-227 -391t227 -391zM645 -31q-281 0 -437 204t-157 544q0 340 157 544q158 203 438 203t436 -204t157 -543q-1 -340 -157 -544t-437 -204z" />
    <glyph glyph-name="one" unicode="1" horiz-adv-x="837" 
d="M705 1434v-1434h-367v1061l-328 -178v372l328 179h367z" />
    <glyph glyph-name="two" unicode="2" horiz-adv-x="1107" 
d="M51 0v266l477 494q141 145 142 231q0 117 -119 117q-133 0 -133 -133h-367q-1 241 143 365t347 124t348 -120t145 -340q0 -222 -221 -447l-205 -203h447v-354h-1004z" />
    <glyph glyph-name="three" unicode="3" horiz-adv-x="1122" 
d="M1069 451q0 -231 -151 -357q-152 -125 -375 -125t-375 129t-152 361h365q0 -133 162 -133q80 0 121 36t41 99q0 133 -162 133h-207v225l215 264h-485v351h931v-289l-235 -295q139 -42 223 -146t84 -253z" />
    <glyph glyph-name="four" unicode="4" horiz-adv-x="1204" 
d="M1188 553v-334h-144v-219h-364v219h-649v334l438 881h405l-440 -881h246v268h364v-268h144z" />
    <glyph glyph-name="five" unicode="5" horiz-adv-x="1136" 
d="M590 926q223 0 364 -121q142 -121 142 -351t-152 -356t-374 -127q-222 0 -376 128t-153 356h367q0 -57 42 -93t118 -34q76 0 119 34q42 34 42 94q0 58 -43 94t-117 36h-469l60 848h860v-351h-518l-13 -157h101z" />
    <glyph glyph-name="six" unicode="6" horiz-adv-x="1146" 
d="M572 305q77 0 127 45q51 45 51 126t-50 126t-127 45q-78 0 -127 -45t-49 -127t49 -126t126 -44zM1116 465q0 -213 -150 -354t-393 -141t-393 140q-150 142 -149 365q0 166 82 285l432 674h416l-304 -457q209 -25 334 -162t125 -350z" />
    <glyph glyph-name="seven" unicode="7" horiz-adv-x="1003" 
d="M2 1434h971v-304l-449 -1130h-395l426 1079h-553v355z" />
    <glyph glyph-name="eight" unicode="8" horiz-adv-x="1165" 
d="M583 307q77 0 124 40t47 109q0 68 -47 108t-124 40t-123 -40t-46 -108t46 -109q46 -40 123 -40zM723 1008q0 54 -39 88q-38 34 -102 34t-102 -34t-38 -89q0 -56 38 -89t102 -33t102 34q39 34 39 89zM1118 416q0 -214 -139 -330t-396 -115q-257 0 -397 116
q-139 116 -139 316q0 227 191 347q-142 104 -142 296t137 304t349 112t350 -114q137 -114 137 -304t-141 -294q190 -120 190 -334z" />
    <glyph glyph-name="nine" unicode="9" horiz-adv-x="1146" 
d="M397 957q0 -81 49 -126t127 -45t127 45t50 127q0 82 -50 126t-126 44q-77 0 -127 -45t-50 -126zM1116 958q0 -166 -82 -284l-432 -674h-416l303 457q-209 25 -333 161t-125 350q0 213 149 355q150 141 394 141t393 -141q149 -142 149 -365z" />
    <glyph glyph-name="colon" unicode=":" horiz-adv-x="591" 
d="M113 0v367h366v-367h-366zM113 657v367h366v-367h-366z" />
    <glyph glyph-name="semicolon" unicode=";" horiz-adv-x="591" 
d="M113 0v367h366v-367q0 -147 -96 -233t-270 -86v139q96 0 138 44t42 136h-180zM113 1024h366v-367h-366v367z" />
    <glyph glyph-name="less" unicode="&#x3c;" horiz-adv-x="1067" 
d="M993 1268v-353l-553 -198l553 -199v-352l-921 399v303z" />
    <glyph glyph-name="equal" unicode="=" horiz-adv-x="1046" 
d="M72 330v325h901v-325h-901zM72 778v326h901v-326h-901z" />
    <glyph glyph-name="greater" unicode="&#x3e;" horiz-adv-x="1067" 
d="M72 1268l921 -400v-303l-921 -399v352l555 199l-555 198v353z" />
    <glyph glyph-name="question" unicode="?" horiz-adv-x="1128" 
d="M356 0v367h365v-367h-365zM365 522q0 84 49 160t107 123q157 127 157 215q0 96 -129 96q-150 0 -150 -131h-356q0 229 148 354q149 125 361 125t352 -110t140 -303q0 -103 -52 -191t-113 -136q-166 -131 -166 -202h-348z" />
    <glyph glyph-name="at" unicode="@" horiz-adv-x="1574" 
d="M773 406q44 0 71 30t26 76q0 47 -25 77q-26 29 -71 29t-72 -30q-26 -30 -26 -76q0 -47 26 -77q27 -29 71 -29zM803 1253q217 0 385 -105t250 -263q82 -159 82 -355t-89 -316t-251 -120q-109 0 -183 45t-106 123q-76 -88 -203 -88t-210 95t-83 243t83 242q82 96 202 96
t192 -68v43h279v-483q0 -129 102 -129q78 0 126 83t48 257q0 260 -180 438t-450 178q-269 0 -459 -189t-190 -472t195 -468q196 -185 497 -185q176 0 309 45v-88q-133 -41 -309 -41q-336 0 -559 210t-223 525t213 531q215 216 532 216z" />
    <glyph glyph-name="A" unicode="A" horiz-adv-x="1351" 
d="M535 522h282l-141 496zM965 0l-60 207h-459l-59 -207h-397l467 1434h438l467 -1434h-397z" />
    <glyph glyph-name="B" unicode="B" horiz-adv-x="1402" 
d="M848 332q72 0 110 39t37 103q0 64 -37 103q-37 38 -108 37h-371v-282h369zM723 1102h-244v-187h301q39 33 39 81t-26 77q-27 29 -70 29zM1362 457q0 -195 -131 -326t-332 -131h-786v1434h614q193 0 322 -109t129 -281q-1 -100 -60 -182q112 -58 178 -164t66 -241z" />
    <glyph glyph-name="C" unicode="C" horiz-adv-x="1538" 
d="M805 -31q-324 0 -536 214t-212 533.5t212 533.5t536 214q266 0 467 -163.5t239 -417.5h-378q-29 102 -119 162.5t-209 60.5q-172 0 -277.5 -107.5t-105.5 -281.5t105.5 -281.5t277.5 -107.5q119 0 210 60.5t118 162.5h380q-39 -254 -239.5 -418t-468.5 -164z" />
    <glyph glyph-name="D" unicode="D" horiz-adv-x="1490" 
d="M737 354q150 0 244 99.5t94 263.5t-94 263t-244 99h-248v-725h248zM737 1434q297 0 497 -206t200 -511t-200 -511t-497 -206h-624v1434h624z" />
    <glyph glyph-name="E" unicode="E" horiz-adv-x="1048" 
d="M479 344h514v-344h-880v1434h870v-344h-504v-203h453v-326h-453v-217z" />
    <glyph glyph-name="F" unicode="F" horiz-adv-x="1024" 
d="M973 1079h-494v-254h484v-354h-484v-471h-366v1434h860v-355z" />
    <glyph glyph-name="G" unicode="G" horiz-adv-x="1601" 
d="M817 788h696v-788h-325v141q-147 -172 -438 -172t-492 215t-201 533.5t212 532.5t536 214q260 0 457.5 -151.5t246.5 -376.5h-383q-37 74 -122.5 122t-196.5 48q-174 0 -279.5 -107.5t-105.5 -287.5t106.5 -292t276.5 -112q242 0 321 176h-309v305z" />
    <glyph glyph-name="H" unicode="H" horiz-adv-x="1320" 
d="M842 1434h364v-1434h-364v561h-363v-561h-366v1434h366v-521h363v521z" />
    <glyph glyph-name="I" unicode="I" horiz-adv-x="591" 
d="M113 1434h366v-1434h-366v1434z" />
    <glyph glyph-name="J" unicode="J" horiz-adv-x="1116" 
d="M1022 440q0 -225 -140 -348t-361 -123q-222 0 -361 124t-140 351v45h367v-45q0 -118 135 -118t135 118v990h365v-994z" />
    <glyph glyph-name="K" unicode="K" horiz-adv-x="1292" 
d="M479 0h-366v1434h366v-603l391 603h410l-457 -697l477 -737h-409l-412 643v-643z" />
    <glyph glyph-name="L" unicode="L" horiz-adv-x="962" 
d="M479 354h473v-354h-839v1434h366v-1080z" />
    <glyph glyph-name="M" unicode="M" horiz-adv-x="1718" 
d="M1604 1434v-1434h-365v844l-248 -639h-264l-248 639v-844h-366v1434h436l309 -791l311 791h435z" />
    <glyph glyph-name="N" unicode="N" horiz-adv-x="1341" 
d="M862 1434h365v-1434h-283l-465 741v-741h-366v1434h284l465 -742v742z" />
    <glyph glyph-name="O" unicode="O" horiz-adv-x="1617" 
d="M809 328q166 0 276.5 109.5t110.5 279.5t-110.5 279.5t-276.5 109.5t-276.5 -109.5t-110.5 -279.5t110.5 -279.5t276.5 -109.5zM809 -31q-315 0 -533.5 216t-218.5 531.5t218.5 531.5t533.5 216t533.5 -216t218.5 -531.5t-218.5 -531.5t-533.5 -216z" />
    <glyph glyph-name="P" unicode="P" horiz-adv-x="1212" 
d="M670 778q61 0 103 43t42 111t-42 110t-103 41h-191v-305h191zM670 1434q217 0 364 -142q148 -142 148 -360t-148 -360t-364 -142h-191v-430h-366v1434h557z" />
    <glyph glyph-name="Q" unicode="Q" horiz-adv-x="1628" 
d="M809 328q23 0 63 4l-133 153l265 217l149 -172q43 86 43 187q0 169 -111 279t-277 110t-276 -110t-110 -280t110 -279q111 -109 277 -109zM1561 717q0 -264 -162 -469l131 -154l-262 -217l-140 160q-154 -68 -319 -68q-315 0 -534 216q-218 215 -218 531t218 532
q217 216 533 216t534 -216t219 -531z" />
    <glyph glyph-name="R" unicode="R" horiz-adv-x="1294" 
d="M479 1096v-314h187q66 -2 107.5 41t41.5 114t-42 115t-107 44h-187zM479 463v-463h-366v1434h553q219 0 367.5 -140.5t148.5 -355.5q0 -131 -64.5 -237.5t-177.5 -168.5l395 -532h-413l-340 463h-103z" />
    <glyph glyph-name="S" unicode="S" horiz-adv-x="1126" 
d="M567.5 -31q-234.5 0 -385.5 122t-151 368h366q0 -141 181 -142q152 0 151 99q0 49 -54 77.5t-159.5 61.5t-169.5 63q-64 28 -141 82q-156 110 -156 322.5t142.5 327t357.5 114.5t360.5 -120.5t145.5 -358.5h-365q0 131 -145 131q-63 0 -96 -25.5t-33 -60.5t15 -57.5
t55.5 -44t134.5 -52.5t145 -51q50 -20 118 -60q210 -124 210 -345t-146 -336t-380.5 -115z" />
    <glyph glyph-name="T" unicode="T" horiz-adv-x="1024" 
d="M1008 1434v-355h-314v-1079h-364v1079h-314v355h992z" />
    <glyph glyph-name="U" unicode="U" horiz-adv-x="1269" 
d="M634.5 -31q-237.5 0 -390 124t-152.5 347v994h367v-938q0 -170 176 -170t176 170v938h367v-994q0 -223 -153 -347t-390.5 -124z" />
    <glyph glyph-name="V" unicode="V" horiz-adv-x="1310" 
d="M436 0l-446 1434h397l268 -1008l269 1008h397l-447 -1434h-438z" />
    <glyph glyph-name="W" unicode="W" horiz-adv-x="1843" 
d="M1470 1434h383l-401 -1434h-367l-163 596l-164 -596h-367l-401 1434h383l229 -916l170 623l-82 293h342l219 -889z" />
    <glyph glyph-name="X" unicode="X" horiz-adv-x="1273" 
d="M1262 0h-410l-215 373l-215 -373h-412l422 731l-405 703h411l199 -347l199 347h411l-405 -703z" />
    <glyph glyph-name="Y" unicode="Y" horiz-adv-x="1292" 
d="M829 0h-366v625l-463 809h412l233 -461l236 461h411l-463 -809v-625z" />
    <glyph glyph-name="Z" unicode="Z" horiz-adv-x="1110" 
d="M1065 354v-354h-997v283l503 796h-493v355h971v-283l-504 -797h520z" />
    <glyph glyph-name="bracketleft" unicode="[" horiz-adv-x="632" 
d="M633 1313h-199v-1192h199v-326h-541v1843h541v-325z" />
    <glyph glyph-name="backslash" unicode="\" horiz-adv-x="1064" 
d="M870 -205l-819 1843h144l819 -1843h-144z" />
    <glyph glyph-name="bracketright" unicode="]" horiz-adv-x="632" 
d="M541 1638v-1843h-541v326h201v1192h-201v325h541z" />
    <glyph glyph-name="asciicircum" unicode="^" horiz-adv-x="1187" 
d="M715 1434l409 -725h-364l-166 323l-166 -323h-365l410 725h242z" />
    <glyph glyph-name="underscore" unicode="_" horiz-adv-x="1054" 
d="M51 -381v324h953v-324h-953z" />
    <glyph glyph-name="grave" unicode="`" horiz-adv-x="643" 
d="M602 1137h-323l-238 297h397z" />
    <glyph glyph-name="a" unicode="a" horiz-adv-x="1050" 
d="M515 197q58 0 94 26.5t36 69.5t-36 67.5t-94 24.5t-90 -25.5t-32 -68.5t32 -68.5t90 -25.5zM538 1053q181 0 308 -105.5t127 -302.5v-645h-328v70q-94 -98 -247 -98.5t-250 82.5t-97 236.5t98.5 236.5t247.5 83t248 -69v94q0 115 -108 115q-53 0 -81 -25t-28 -63h-328
q0 184 128.5 287.5t309.5 103.5z" />
    <glyph glyph-name="b" unicode="b" horiz-adv-x="1259" 
d="M653 293q96 0 156 60q59 61 59 159t-59 158t-155 61q-96 0 -156 -60q-60 -61 -60 -159t60 -158t155 -61zM736 1053q190 0 332 -156t142 -385t-142 -385t-332 -156t-298 105v-76h-340v1434h340v-486q108 105 298 105z" />
    <glyph glyph-name="c" unicode="c" horiz-adv-x="1144" 
d="M578 -29q-217 0 -373 156t-156 385t155.5 385t373 156t366 -123t174.5 -314h-354q-18 47 -64.5 76t-119 29t-131 -58.5t-58.5 -150.5t58.5 -150.5t131 -58.5t120 28.5t63.5 76.5h354q-27 -190 -175 -313.5t-365 -123.5z" />
    <glyph glyph-name="d" unicode="d" horiz-adv-x="1259" 
d="M606 293q96 0 156 60q59 61 59 159t-59 158q-60 60 -156 61q-96 0 -155 -60q-59 -61 -59 -159t58 -158q60 -60 156 -61zM821 1434h340v-1434h-340v76q-103 -104 -295 -104t-335 155q-142 156 -142 385t142 385t334 156t296 -105v486z" />
    <glyph glyph-name="e" unicode="e" horiz-adv-x="1163" 
d="M595.5 766q-153.5 0 -200.5 -141h391q-37 141 -190.5 141zM614 233q109 0 150 66h319q-49 -164 -178 -246t-305 -82q-248 0 -399.5 154t-151.5 386t153.5 387t386 155t379 -154t146.5 -385q0 -68 -14 -127h-703q53 -154 217 -154z" />
    <glyph glyph-name="f" unicode="f" horiz-adv-x="645" 
d="M469 1024h176v-326h-176v-698h-340v698h-129v326h129q0 221 130 338t386 102v-315q-176 12 -176 -125z" />
    <glyph glyph-name="g" unicode="g" horiz-adv-x="1261" 
d="M614.5 324q96.5 0 156.5 58t60 150.5t-60 150.5t-156.5 58t-157 -58t-60.5 -150.5t60.5 -150.5t157 -58zM831 1024h336v-983q0 -238 -157.5 -359.5t-375.5 -121.5t-370.5 106.5t-152.5 317.5h340q0 -59 50 -93t137 -34t140 46t53 138v78q-105 -107 -297 -107
t-334.5 152.5t-142.5 368t142.5 368t334.5 152.5t297 -107v78z" />
    <glyph glyph-name="h" unicode="h" 
d="M680 1053q156 -1 246 -107q92 -106 92 -295v-651h-340v612q0 119 -113 119q-127 0 -127 -143v-588h-340v1434h340v-496q86 115 242 115z" />
    <glyph glyph-name="i" unicode="i" horiz-adv-x="536" 
d="M98 0v1024h340v-1024h-340zM98 1137v297h340v-297h-340z" />
    <glyph glyph-name="j" unicode="j" horiz-adv-x="567" 
d="M129 0v1024h340v-1024q0 -242 -119 -348t-370 -92v315q78 -5 114 25t35 100zM129 1434h340v-297h-340v297z" />
    <glyph glyph-name="k" unicode="k" horiz-adv-x="1099" 
d="M438 0h-340v1434h340v-836l258 426h383l-327 -512l348 -512h-383l-279 432v-432z" />
    <glyph glyph-name="l" unicode="l" horiz-adv-x="536" 
d="M98 0v1475h340v-1475h-340z" />
    <glyph glyph-name="m" unicode="m" horiz-adv-x="1572" 
d="M1170 1053q155 -1 240 -97t85 -278v-678h-342v639q0 92 -86 92q-100 0 -100 -121v-610h-340v639q0 92 -88 92q-100 0 -101 -121v-610h-340v1024h340v-86q86 115 240 115t229 -123q108 123 263 123z" />
    <glyph glyph-name="n" unicode="n" 
d="M679.5 1053q155.5 0 247 -106.5t91.5 -295.5v-651h-340v612q0 119 -113 119q-127 0 -127 -143v-588h-340v1024h340v-86q86 115 241.5 115z" />
    <glyph glyph-name="o" unicode="o" horiz-adv-x="1193" 
d="M597 299q89 0 147.5 59.5t58.5 153.5t-58.5 153.5t-147.5 59.5t-147.5 -59.5t-58.5 -153.5t58.5 -153.5t147.5 -59.5zM597 -29q-228 0 -388 157t-160 384t160 384t388 157t387 -157t159 -384t-159 -384t-387 -157z" />
    <glyph glyph-name="p" unicode="p" horiz-adv-x="1259" 
d="M653 293q96 0 156 60q59 61 59 159t-59 158t-155 61q-96 0 -156 -60q-60 -61 -60 -159t60 -158t155 -61zM734 1053q192 0 334 -156t142 -385t-142 -385t-334 -156t-296 105v-486h-340v1434h340v-76q104 105 296 105z" />
    <glyph glyph-name="q" unicode="q" horiz-adv-x="1259" 
d="M606 293q96 0 156 60q59 61 59 159t-59 158q-60 60 -156 61q-96 0 -155 -60q-59 -61 -59 -159t58 -158q60 -60 156 -61zM821 1024h340v-1434h-340v486q-103 -104 -295 -104t-335 155q-142 156 -142 385t142 385t334 156t296 -105v76z" />
    <glyph glyph-name="r" unicode="r" horiz-adv-x="720" 
d="M705 1044v-376q-106 16 -186.5 -35t-80.5 -178v-455h-340v1024h340v-162q27 88 97.5 135t169.5 47z" />
    <glyph glyph-name="s" unicode="s" horiz-adv-x="989" 
d="M403 719q0 -39 54.5 -58.5t132.5 -34t155.5 -40t132 -96t54.5 -183.5q0 -170 -124 -253t-312.5 -83t-313.5 89.5t-125 275.5h336q-1 -92 99 -92t100 61q0 37 -54.5 56.5t-132 35t-154.5 42t-131 97t-54 181.5q0 166 124 251q126 85 302 85t297.5 -93.5t121.5 -271.5h-331
q0 92 -86 92q-91 0 -91 -61z" />
    <glyph glyph-name="t" unicode="t" horiz-adv-x="696" 
d="M670 1024v-326h-152v-698h-340v698h-151v326h151v328h340v-328h152z" />
    <glyph glyph-name="u" unicode="u" 
d="M659 1024h340v-1024h-340v86q-86 -115 -241 -115t-246.5 106.5t-91.5 295.5v651h340v-612q0 -119 112 -119q127 0 127 143v588z" />
    <glyph glyph-name="v" unicode="v" horiz-adv-x="1091" 
d="M719 0h-346l-373 1024h360l187 -580l184 580h361z" />
    <glyph glyph-name="w" unicode="w" horiz-adv-x="1515" 
d="M1192 0h-315l-119 385l-119 -385h-315l-314 1024h363l147 -590l111 367l-68 223h271l167 -561l142 561h362z" />
    <glyph glyph-name="x" unicode="x" horiz-adv-x="1030" 
d="M1030 0h-360l-154 242l-156 -242h-360l336 522l-322 502h361l141 -219l139 219h361l-320 -502z" />
    <glyph glyph-name="y" unicode="y" horiz-adv-x="1075" 
d="M721 1024h362l-483 -1434h-360l141 420l-391 1014h362l199 -569z" />
    <glyph glyph-name="z" unicode="z" horiz-adv-x="931" 
d="M891 315v-315h-840v233l365 476h-344v315h798v-233l-364 -476h385z" />
    <glyph glyph-name="braceleft" unicode="{" horiz-adv-x="712" 
d="M231 180v275q-1 67 -37 89t-110 13v326q74 -7 111 15t36 87v275q0 205 117 309t352 90v-316q-129 12 -129 -83v-275q0 -190 -137 -264q137 -76 137 -266v-275q0 -96 129 -84v-315q-236 -14 -352 90t-117 309z" />
    <glyph glyph-name="bar" unicode="|" horiz-adv-x="567" 
d="M113 -410v1885h342v-1885h-342z" />
    <glyph glyph-name="braceright" unicode="}" horiz-adv-x="712" 
d="M139 455q0 190 137 266q-137 74 -137 264v275q0 53 -31 71q-32 18 -98 12v316q238 14 355 -90t116 -309v-275q0 -67 37 -89t111 -13v-326q-74 7 -111 -15t-37 -87v-275q-1 -205 -117 -309t-354 -90v315q66 -6 98 12t31 72v275z" />
    <glyph glyph-name="asciitilde" unicode="~" horiz-adv-x="1241" 
d="M899 944l268 -125q-53 -227 -203 -305t-331 8q-147 68 -203 62t-88 -103l-270 125q53 227 204 305q152 78 332 -8q106 -47 156 -57t80 10t55 88z" />
    <glyph glyph-name="exclamdown" unicode="&#xa1;" horiz-adv-x="602" 
d="M510 -410h-418v410l68 502h282l68 -502v-410zM119 1024h364v-367h-364v367z" />
    <glyph glyph-name="cent" unicode="&#xa2;" horiz-adv-x="1138" 
d="M391 711q0 -90 62 -148l116 361q-78 -8 -128 -66t-50 -147zM614 508q40 0 86 29q47 29 64 75h354q-27 -190 -175 -313t-349 -123q-61 0 -133 14l-62 -190h-129l76 231q-137 68 -217 196t-80 290q0 229 156 385t389 155q41 0 82 -6l57 183h129l-69 -211q131 -49 218 -155
t107 -247h-354q-23 55 -74 82l-127 -393q11 -2 51 -2z" />
    <glyph glyph-name="sterling" unicode="&#xa3;" horiz-adv-x="1193" 
d="M545 354h622v-354h-1116v354h127v162h-106v287h106v203q0 221 144 340q144 118 331 118q188 0 332 -118q143 -119 143 -340v-103h-366v103q0 48 -29 78t-80 30t-80 -30t-28 -78v-203h364v-287h-364v-162z" />
    <glyph glyph-name="currency" unicode="&#xa4;" horiz-adv-x="1091" 
d="M546 602q52 0 84 31t32 84t-32 84t-84 31t-83 -32q-31 -30 -31 -83t31 -84t83 -31zM989 716q0 -148 -92 -263l143 -144l-88 -86l-143 146q-119 -82 -265 -82t-259 80l-146 -144l-88 86l144 144q-91 113 -91 265t91 263l-144 143l88 86l146 -143q113 80 261 80t263 -80
l143 143l88 -86l-141 -143q90 -117 90 -265z" />
    <glyph glyph-name="yen" unicode="&#xa5;" horiz-adv-x="1292" 
d="M1141 762v-193h-312v-84h312v-190h-312v-295h-366v295h-313v190h313v84h-313v193h235l-385 672h412l233 -461l236 461h411l-385 -672h234z" />
    <glyph glyph-name="brokenbar" unicode="&#xa6;" horiz-adv-x="567" 
d="M113 -410v758h342v-758h-342zM113 717v758h342v-758h-342z" />
    <glyph glyph-name="section" unicode="&#xa7;" horiz-adv-x="1140" 
d="M408 680q0 -74 130 -123t177 -65q18 30 18 70t-36 69t-82 46t-102 39t-87 34q-18 -31 -18 -70zM1069 596q0 -166 -125 -266q59 -86 60 -207q0 -178 -125 -265t-313 -87t-313 92q-124 92 -124 291h336q0 -111 99 -111t100 78q0 46 -55 76q-55 29 -160 69q-178 68 -279 154
q-100 86 -99 241q1 154 126 252q-59 86 -60 209q0 168 125 255t301 87t298 -95t122 -282h-332q0 49 -23 77q-24 28 -65 28q-88 0 -88 -67t147 -123q36 -13 158 -62q121 -49 205 -129t84 -215z" />
    <glyph glyph-name="dieresis" unicode="&#xa8;" horiz-adv-x="755" 
d="M428 1126v287h287v-287h-287zM41 1126v287h285v-287h-285z" />
    <glyph glyph-name="copyright" unicode="&#xa9;" horiz-adv-x="1595" 
d="M792 313q-156 0 -275 120q-120 120 -120 284q0 163 120 283q119 120 275 120t268 -92t140 -248h-293q-39 62 -102 62t-97 -38t-34 -87t34 -87t98 -38t101 61h293q-28 -156 -140 -248t-268 -92zM798 59q269 0 459 193t191 465q0 272 -190 465q-190 192 -460 192
q-269 0 -460 -192q-190 -193 -190 -465t190 -465q191 -193 460 -193zM799 -25q-307 -1 -525 217t-217 525q0 307 217 524q216 217 524 217t525 -217t217 -524t-217 -525t-524 -217z" />
    <glyph glyph-name="ordfeminine" unicode="&#xaa;" horiz-adv-x="552" 
d="M207 1083q1 -47 63 -47t62 47t-62 47t-63 -47zM279 1464q90 0 153 -52t64 -150v-324h-164v35q-45 -49 -122 -49t-125 42t-48 118t49 117q49 42 122 42t124 -35v47q0 57 -53 58q-53 0 -54 -43h-164q0 92 64 143t154 51z" />
    <glyph glyph-name="guillemotleft" unicode="&#xab;" horiz-adv-x="1165" 
d="M1053 1032l-232 -399l232 -400h-291l-230 400l230 399h291zM633 1032l-230 -399l230 -400h-289l-231 400l231 399h289z" />
    <glyph glyph-name="logicalnot" unicode="&#xac;" horiz-adv-x="1165" 
d="M72 879h1022v-570h-346v246h-676v324z" />
    <glyph glyph-name="registered" unicode="&#xae;" horiz-adv-x="1595" 
d="M809 860h-49v-119h49q76 -1 76 59t-76 60zM1153 816q0 -130 -100 -220l172 -258h-287l-125 188h-53v-188h-268v758h374q117 0 202 -75t85 -205zM798 59q269 0 459 193t191 465q0 272 -190 465q-190 192 -460 192q-269 0 -460 -192q-190 -193 -190 -465t190 -465
q191 -193 460 -193zM799 1458q307 0 524 -217t217 -524t-217 -524t-524 -217t-525 216q-218 218 -217 525q0 307 217 524q218 217 525 217z" />
    <glyph glyph-name="macron" unicode="&#xaf;" horiz-adv-x="714" 
d="M41 1135v266h633v-266h-633z" />
    <glyph glyph-name="degree" unicode="&#xb0;" horiz-adv-x="849" 
d="M426 1208q41 0 66 26q24 26 24 66t-26 68q-26 27 -66 27t-65 -27t-25 -68q0 -40 26 -66t66 -26zM788 1300q0 -150 -102 -253t-259 -103t-261 104t-104 254q0 148 104 252t260 104t259 -104t103 -254z" />
    <glyph glyph-name="plusminus" unicode="&#xb1;" horiz-adv-x="1146" 
d="M84 43v326h979v-326h-979zM735 1083h328v-323h-328v-279h-323v279h-328v323h328v279h323v-279z" />
    <glyph glyph-name="acute" unicode="&#xb4;" horiz-adv-x="643" 
d="M41 1137l164 297h397l-237 -297h-324z" />
    <glyph glyph-name="uni00B5" unicode="&#xb5;" horiz-adv-x="1163" 
d="M1079 305h54v-305h-148q-150 0 -227 84q-90 -113 -246 -113q-37 0 -74 6v-387h-340v1434h340v-612q0 -119 115 -119q125 0 125 143v588h340v-657q0 -62 61 -62z" />
    <glyph glyph-name="paragraph" unicode="&#xb6;" horiz-adv-x="1488" 
d="M1417 1434v-328h-137v-1516h-324v1516h-131v-1516h-323v924q-190 0 -326 134q-135 134 -135 326t134 326t327 134h915z" />
    <glyph glyph-name="periodcentered" unicode="&#xb7;" horiz-adv-x="591" 
d="M113 532v367h366v-367h-366z" />
    <glyph glyph-name="cedilla" unicode="&#xb8;" horiz-adv-x="561" 
d="M520 -252q0 -229 -479 -201v224q195 -14 195 28q0 31 -109 41v160h274v-94q45 -14 82 -53t37 -105z" />
    <glyph glyph-name="ordmasculine" unicode="&#xba;" horiz-adv-x="618" 
d="M309 1085q45 0 74 30t29 77t-29 77q-29 29 -74 29t-73 -30t-29 -76q1 -47 29 -77t73 -30zM309 922q-115 0 -193 78t-79 193q0 113 79 191q80 78 194 78t194 -78t80 -192t-80 -192t-195 -78z" />
    <glyph glyph-name="guillemotright" unicode="&#xbb;" horiz-adv-x="1165" 
d="M821 1032l232 -399l-232 -400h-289l230 400l-230 399h289zM403 1032l230 -399l-230 -400h-290l231 400l-231 399h290z" />
    <glyph glyph-name="onequarter" unicode="&#xbc;" horiz-adv-x="1675" 
d="M1649 350v-235h-72v-115h-250v115h-377v235l238 469h282l-227 -469h84v129h250v-129h72zM1047 1434h233l-827 -1434h-234zM219 614v551l-199 -104v264l199 109h268v-820h-268z" />
    <glyph glyph-name="onehalf" unicode="&#xbd;" horiz-adv-x="1665" 
d="M1618 240v-240h-627v182l291 285q61 61 61 98q0 45 -45 45q-51 0 -51 -65h-266q0 151 89 227t226 76q138 0 226 -69t88 -197t-144 -260l-86 -82h238zM1047 1434h233l-827 -1434h-234zM219 614v551l-199 -104v264l199 109h268v-820h-268z" />
    <glyph glyph-name="threequarters" unicode="&#xbe;" horiz-adv-x="1796" 
d="M1769 350v-235h-71v-115h-250v115h-377v235l238 469h282l-227 -469h84v129h250v-129h71zM1167 1434h234l-828 -1434h-233zM655 870q0 -137 -87 -211q-87 -73 -232 -73t-233 73q-87 74 -87 211h258q0 -53 60 -53t61 52q0 52 -59 53h-152v145l103 129h-238v238h561v-179
l-123 -155q168 -62 168 -230z" />
    <glyph glyph-name="questiondown" unicode="&#xbf;" horiz-adv-x="1116" 
d="M752 502q0 -84 -50 -160t-107 -123q-157 -127 -157 -215q0 -96 131 -96q72 0 111 35t39 96h356q1 -229 -149 -354t-362 -125t-352 110t-140 303q0 160 117 279q47 49 97 91t85 82t35 77h346zM762 1024v-367h-367v367h367z" />
    <glyph glyph-name="Agrave" unicode="&#xc0;" horiz-adv-x="1351" 
d="M535 522h282l-141 496zM965 0l-60 207h-459l-59 -207h-397l467 1434h438l467 -1434h-397zM860 1546h-323l-238 297h397z" />
    <glyph glyph-name="Aacute" unicode="&#xc1;" horiz-adv-x="1351" 
d="M535 522h282l-141 496zM965 0l-60 207h-459l-59 -207h-397l467 1434h438l467 -1434h-397zM1053 1843l-238 -297h-323l163 297h398z" />
    <glyph glyph-name="Acircumflex" unicode="&#xc2;" horiz-adv-x="1351" 
d="M535 522h282l-141 496zM965 0l-60 207h-459l-59 -207h-397l467 1434h438l467 -1434h-397zM496 1843h342l217 -317h-307l-80 114l-82 -114h-307z" />
    <glyph glyph-name="Atilde" unicode="&#xc3;" horiz-adv-x="1351" 
d="M535 522h282l-141 496zM965 0l-60 207h-459l-59 -207h-397l467 1434h438l467 -1434h-397zM553 1532h-246q1 282 177 328q94 25 212 -35q49 -33 75 -29t26 68h245q0 -289 -176 -330q-98 -23 -215 39q-49 33 -73.5 27.5t-24.5 -68.5z" />
    <glyph glyph-name="Adieresis" unicode="&#xc4;" horiz-adv-x="1351" 
d="M535 522h282l-141 496zM965 0l-60 207h-459l-59 -207h-397l467 1434h438l467 -1434h-397zM1014 1823v-287h-287v287h287zM625 1823v-287h-285v287h285z" />
    <glyph glyph-name="Aring" unicode="&#xc5;" horiz-adv-x="1351" 
d="M535 522h282l-141 496zM965 0l-60 207h-459l-59 -207h-397l467 1434h438l467 -1434h-397zM676 1837q-31 0 -49.5 -18.5t-18.5 -47t18.5 -47t49.5 -18.5q70 0 70 65.5t-70 65.5zM678 1501q-127 0 -208 77t-81 193.5t81 193.5t208 77t207 -77t80 -194.5t-80 -193.5
t-207 -76z" />
    <glyph glyph-name="AE" unicode="&#xc6;" horiz-adv-x="1806" 
d="M911 522v396l-221 -396h221zM1268 344h483v-344h-840v207h-397l-117 -207h-407l819 1434h932v-344h-473v-201h422v-328h-422v-217z" />
    <glyph glyph-name="Ccedilla" unicode="&#xc7;" horiz-adv-x="1538" 
d="M1069 -252q0 -229 -479 -201v224q195 -14 194 28q0 31 -108 41v140q-274 43 -446.5 247.5t-172.5 506.5t212 516t536 214q266 0 467 -163.5t239 -417.5h-378q-29 102 -119 162.5t-209 60.5q-172 0 -277.5 -107.5t-105.5 -281.5t105.5 -281.5t277.5 -107.5q119 0 210 60.5
t118 162.5h380q-35 -217 -189.5 -371.5t-373.5 -195.5v-78q45 -14 82 -53t37 -105z" />
    <glyph glyph-name="Egrave" unicode="&#xc8;" horiz-adv-x="1048" 
d="M479 344h514v-344h-880v1434h870v-344h-504v-203h453v-326h-453v-217zM733 1546h-323l-238 297h397z" />
    <glyph glyph-name="Eacute" unicode="&#xc9;" horiz-adv-x="1048" 
d="M479 344h514v-344h-880v1434h870v-344h-504v-203h453v-326h-453v-217zM926 1843l-238 -297h-323l163 297h398z" />
    <glyph glyph-name="Ecircumflex" unicode="&#xca;" horiz-adv-x="1048" 
d="M479 344h514v-344h-880v1434h870v-344h-504v-203h453v-326h-453v-217zM369 1843h342l217 -317h-307l-80 114l-82 -114h-307z" />
    <glyph glyph-name="Edieresis" unicode="&#xcb;" horiz-adv-x="1048" 
d="M479 344h514v-344h-880v1434h870v-344h-504v-203h453v-326h-453v-217zM887 1823v-287h-287v287h287zM498 1823v-287h-285v287h285z" />
    <glyph glyph-name="Igrave" unicode="&#xcc;" horiz-adv-x="591" 
d="M113 1434h366v-1434h-366v1434zM481 1546h-323l-238 297h397z" />
    <glyph glyph-name="Iacute" unicode="&#xcd;" horiz-adv-x="591" 
d="M113 1434h366v-1434h-366v1434zM113 1546l163 297h398l-238 -297h-323z" />
    <glyph glyph-name="Icircumflex" unicode="&#xce;" horiz-adv-x="591" 
d="M113 0v1434h366v-1434h-366zM115 1843h342l217 -317h-307l-80 114l-82 -114h-307z" />
    <glyph glyph-name="Idieresis" unicode="&#xcf;" horiz-adv-x="591" 
d="M113 1434h366v-1434h-366v1434zM346 1536v287h287v-287h-287zM-41 1536v287h285v-287h-285z" />
    <glyph glyph-name="Eth" unicode="&#xd0;" horiz-adv-x="1552" 
d="M801 354q150 0 243 99.5t93 263.5t-93.5 263t-242.5 99h-250v-217h268v-323h-268v-185h250zM801 1434q297 0 496.5 -206t199.5 -511t-199.5 -511t-496.5 -206h-625v539h-153v323h153v572h625z" />
    <glyph glyph-name="Ntilde" unicode="&#xd1;" horiz-adv-x="1341" 
d="M862 1434h365v-1434h-283l-465 741v-741h-366v1434h284l465 -742v742zM297 1532q0 282 176 328q94 25 213 -35q49 -33 74.5 -29t25.5 68h246q0 -289 -176 -330q-98 -23 -215 39q-49 33 -73.5 27.5t-24.5 -68.5h-246z" />
    <glyph glyph-name="Ograve" unicode="&#xd2;" horiz-adv-x="1617" 
d="M809 328q166 0 276.5 109.5t110.5 279.5t-110.5 279.5t-276.5 109.5t-276.5 -109.5t-110.5 -279.5t110.5 -279.5t276.5 -109.5zM809 -31q-315 0 -533.5 216t-218.5 531.5t218.5 531.5t533.5 216t533.5 -216t218.5 -531.5t-218.5 -531.5t-533.5 -216zM993 1567h-323
l-238 297h397z" />
    <glyph glyph-name="Oacute" unicode="&#xd3;" horiz-adv-x="1617" 
d="M809 328q166 0 276.5 109.5t110.5 279.5t-110.5 279.5t-276.5 109.5t-276.5 -109.5t-110.5 -279.5t110.5 -279.5t276.5 -109.5zM809 -31q-315 0 -533.5 216t-218.5 531.5t218.5 531.5t533.5 216t533.5 -216t218.5 -531.5t-218.5 -531.5t-533.5 -216zM625 1567l163 297
h398l-238 -297h-323z" />
    <glyph glyph-name="Ocircumflex" unicode="&#xd4;" horiz-adv-x="1617" 
d="M809 328q166 0 276.5 109.5t110.5 279.5t-110.5 279.5t-276.5 109.5t-276.5 -109.5t-110.5 -279.5t110.5 -279.5t276.5 -109.5zM809 1464q315 0 533.5 -216t218.5 -531.5t-218.5 -531.5t-533.5 -216t-533.5 216t-218.5 531.5t218.5 531.5t533.5 216zM629 1864h342
l217 -318h-307l-80 115l-82 -115h-307z" />
    <glyph glyph-name="Otilde" unicode="&#xd5;" horiz-adv-x="1617" 
d="M809 328q166 0 276.5 109.5t110.5 279.5t-110.5 279.5t-276.5 109.5t-276.5 -109.5t-110.5 -279.5t110.5 -279.5t276.5 -109.5zM809 -31q-315 0 -533.5 216t-218.5 531.5t218.5 531.5t533.5 216t533.5 -216t218.5 -531.5t-218.5 -531.5t-533.5 -216zM440 1552
q0 284 176 329q98 25 213 -36q49 -33 75 -28.5t26 67.5h246q0 -288 -176 -330q-93 -23 -216 39q-49 33 -73.5 28t-24.5 -69h-246z" />
    <glyph glyph-name="Odieresis" unicode="&#xd6;" horiz-adv-x="1617" 
d="M809 328q166 0 276.5 109.5t110.5 279.5t-110.5 279.5t-276.5 109.5t-276.5 -109.5t-110.5 -279.5t110.5 -279.5t276.5 -109.5zM809 -31q-315 0 -533.5 216t-218.5 531.5t218.5 531.5t533.5 216t533.5 -216t218.5 -531.5t-218.5 -531.5t-533.5 -216zM860 1556v287h287
v-287h-287zM473 1556v287h285v-287h-285z" />
    <glyph glyph-name="multiply" unicode="&#xd7;" horiz-adv-x="1101" 
d="M1018 954l-238 -237l238 -238l-230 -229l-237 237l-238 -237l-229 229l238 238l-238 237l229 230l238 -238l237 238z" />
    <glyph glyph-name="Oslash" unicode="&#xd8;" horiz-adv-x="1628" 
d="M819 328q166 0 276.5 109.5t110.5 268t-88 267.5l-489 -598q84 -47 190 -47zM432 717q0 -125 66 -228l479 586q-70 31 -158 31q-166 0 -276.5 -109.5t-110.5 -279.5zM1571 720q0 -318 -218 -534.5t-534 -216.5q-233 0 -420 125l-77 -94h-226l170 207q-199 211 -198.5 518
t218.5 523t533 216q211 0 391 -106l62 76h225l-149 -183q223 -213 223 -531z" />
    <glyph glyph-name="Ugrave" unicode="&#xd9;" horiz-adv-x="1269" 
d="M634.5 -31q-237.5 0 -390 124t-152.5 347v994h367v-938q0 -170 176 -170t176 170v938h367v-994q0 -223 -153 -347t-390.5 -124zM819 1546h-323l-238 297h397z" />
    <glyph glyph-name="Uacute" unicode="&#xda;" horiz-adv-x="1269" 
d="M634.5 -31q-237.5 0 -390 124t-152.5 347v994h367v-938q0 -170 176 -170t176 170v938h367v-994q0 -223 -153 -347t-390.5 -124zM451 1546l163 297h398l-238 -297h-323z" />
    <glyph glyph-name="Ucircumflex" unicode="&#xdb;" horiz-adv-x="1269" 
d="M811 1434h367v-994q0 -223 -153 -347t-390.5 -124t-390 124t-152.5 347v994h367v-938q0 -170 176 -170t176 170v938zM455 1843h342l217 -317h-307l-80 114l-82 -114h-307z" />
    <glyph glyph-name="Udieresis" unicode="&#xdc;" horiz-adv-x="1269" 
d="M634.5 -31q-237.5 0 -390 124t-152.5 347v994h367v-938q0 -170 176 -170t176 170v938h367v-994q0 -223 -153 -347t-390.5 -124zM686 1536v287h287v-287h-287zM299 1536v287h285v-287h-285z" />
    <glyph glyph-name="Yacute" unicode="&#xdd;" horiz-adv-x="1292" 
d="M829 0h-366v625l-463 809h412l233 -461l236 461h411l-463 -809v-625zM1022 1843l-238 -297h-323l164 297h397z" />
    <glyph glyph-name="Thorn" unicode="&#xde;" horiz-adv-x="1212" 
d="M676 565q57 0 98 43t41 109q0 65 -41 109t-98 44h-197v-305h197zM676 1221q213 -1 359 -143q147 -142 147 -360t-146 -360t-360 -143h-197v-215h-366v1434h366v-213h197z" />
    <glyph glyph-name="germandbls" unicode="&#xdf;" horiz-adv-x="1081" 
d="M725 383q0 55 -102 195q-103 140 -103 193q0 55 55 151t55 144t-23 73t-67 25t-73 -32t-29 -90v-1042h-340v1034q0 197 120 314q120 116 326 116t316 -93t111 -232q1 -92 -61 -201q-62 -110 -62 -144q0 -58 109 -196q42 -51 76 -133t34 -166q0 -166 -123 -256t-395 -53
v295q176 -25 176 98z" />
    <glyph glyph-name="agrave" unicode="&#xe0;" horiz-adv-x="1050" 
d="M515 197q58 0 94 26.5t36 69.5t-36 67.5t-94 24.5t-90 -25.5t-32 -68.5t32 -68.5t90 -25.5zM538 1053q181 0 308 -105.5t127 -302.5v-645h-328v70q-94 -98 -247 -98.5t-250 82.5t-97 236.5t98.5 236.5t247.5 83t248 -69v94q0 115 -108 115q-53 0 -81 -25t-28 -63h-328
q0 184 128.5 287.5t309.5 103.5zM721 1157h-324l-237 297h397z" />
    <glyph glyph-name="aacute" unicode="&#xe1;" horiz-adv-x="1050" 
d="M515 197q58 0 94 26.5t36 69.5t-36 67.5t-94 24.5t-90 -25.5t-32 -68.5t32 -68.5t90 -25.5zM538 1053q181 0 308 -105.5t127 -302.5v-645h-328v70q-94 -98 -247 -98.5t-250 82.5t-97 236.5t98.5 236.5t247.5 83t248 -69v94q0 115 -108 115q-53 0 -81 -25t-28 -63h-328
q0 184 128.5 287.5t309.5 103.5zM913 1454l-237 -297h-324l164 297h397z" />
    <glyph glyph-name="acircumflex" unicode="&#xe2;" horiz-adv-x="1050" 
d="M515 197q58 0 94 26.5t36 69.5t-36 67.5t-94 24.5t-90 -25.5t-32 -68.5t32 -68.5t90 -25.5zM538 1053q181 0 308 -105.5t127 -302.5v-645h-328v70q-94 -98 -247 -98.5t-250 82.5t-97 236.5t98.5 236.5t247.5 83t248 -69v94q0 115 -108 115q-53 0 -81 -25t-28 -63h-328
q0 184 128.5 287.5t309.5 103.5zM356 1454h342l217 -317h-307l-80 114l-82 -114h-307z" />
    <glyph glyph-name="atilde" unicode="&#xe3;" horiz-adv-x="1050" 
d="M515 197q58 0 94 26.5t36 69.5t-36 67.5t-94 24.5t-90 -25.5t-32 -68.5t32 -68.5t90 -25.5zM538 1053q181 0 308 -105.5t127 -302.5v-645h-328v70q-94 -98 -247 -98.5t-250 82.5t-97 236.5t98.5 236.5t247.5 83t248 -69v94q0 115 -108 115q-53 0 -81 -25t-28 -63h-328
q0 184 128.5 287.5t309.5 103.5zM414 1143h-246q0 283 176 329q94 25 213 -36q49 -33 74.5 -29t25.5 68h246q0 -289 -176 -330q-98 -23 -215 39q-49 33 -73.5 27.5t-24.5 -68.5z" />
    <glyph glyph-name="adieresis" unicode="&#xe4;" horiz-adv-x="1050" 
d="M515 197q58 0 94 26.5t36 69.5t-36 67.5t-94 24.5t-90 -25.5t-32 -68.5t32 -68.5t90 -25.5zM538 1053q181 0 308 -105.5t127 -302.5v-645h-328v70q-94 -98 -247 -98.5t-250 82.5t-97 236.5t98.5 236.5t247.5 83t248 -69v94q0 115 -108 115q-53 0 -81 -25t-28 -63h-328
q0 184 128.5 287.5t309.5 103.5zM874 1434v-287h-286v287h286zM485 1434v-287h-284v287h284z" />
    <glyph glyph-name="aring" unicode="&#xe5;" horiz-adv-x="1050" 
d="M515 197q58 0 94 26.5t36 69.5t-36 67.5t-94 24.5t-90 -25.5t-32 -68.5t32 -68.5t90 -25.5zM538 1053q181 0 308 -105.5t127 -302.5v-645h-328v70q-94 -98 -247 -98.5t-250 82.5t-97 236.5t98.5 236.5t247.5 83t248 -69v94q0 115 -108 115q-53 0 -81 -25t-28 -63h-328
q0 184 128.5 287.5t309.5 103.5zM537 1448q-31 0 -49.5 -18.5t-18.5 -47t18.5 -47t49.5 -18.5q70 0 70 65.5t-70 65.5zM539 1112q-127 0 -208 77t-81 193.5t81 193.5t208 77t206.5 -77t79.5 -195t-79.5 -193.5t-206.5 -75.5z" />
    <glyph glyph-name="ae" unicode="&#xe6;" horiz-adv-x="1695" 
d="M393 290q0 -42 32 -68t90 -25t94 27t36 69t-36 67t-94 25q-58 0 -90 -26q-32 -27 -32 -69zM1160 766q-134 0 -171 -141h336q-31 141 -165 141zM1180 233q78 0 118 66h320q-41 -160 -155 -243t-259 -83q-223 0 -348 154q-113 -156 -385 -156q-195 0 -307 84t-113 237
q1 154 99 236t247 82t248 -69v94q0 115 -108 115q-53 0 -81 -25t-28 -63h-328q0 184 121 287t291 104q227 0 340 -160q123 160 332 160t337 -153t128 -386q0 -68 -15 -127h-643q41 -154 189 -154z" />
    <glyph glyph-name="ccedilla" unicode="&#xe7;" horiz-adv-x="1144" 
d="M580.5 303q72.5 0 120 28.5t63.5 76.5h354q-20 -152 -122.5 -263.5t-252.5 -152.5v-86q45 -14 82 -53t37 -105q0 -229 -479 -201v224q195 -14 195 28q0 31 -109 41v144q-186 41 -303 186t-117 358t155.5 369t373 156t366 -123t174.5 -314h-354q-18 47 -64.5 76t-119 29
t-131 -58.5t-58.5 -150.5t58.5 -150.5t131 -58.5z" />
    <glyph glyph-name="egrave" unicode="&#xe8;" horiz-adv-x="1163" 
d="M595.5 766q-153.5 0 -200.5 -141h391q-37 141 -190.5 141zM614 233q109 0 150 66h319q-49 -164 -178 -246t-305 -82q-248 0 -399.5 154t-151.5 386t153.5 387t386 155t379 -154t146.5 -385q0 -68 -14 -127h-703q53 -154 217 -154zM782 1151h-323l-238 297h397z" />
    <glyph glyph-name="eacute" unicode="&#xe9;" horiz-adv-x="1163" 
d="M595.5 766q-153.5 0 -200.5 -141h391q-37 141 -190.5 141zM614 233q109 0 150 66h319q-49 -164 -178 -246t-305 -82q-248 0 -399.5 154t-151.5 386t153.5 387t386 155t379 -154t146.5 -385q0 -68 -14 -127h-703q53 -154 217 -154zM975 1448l-238 -297h-323l164 297h397z
" />
    <glyph glyph-name="ecircumflex" unicode="&#xea;" horiz-adv-x="1163" 
d="M595.5 766q-153.5 0 -200.5 -141h391q-37 141 -190.5 141zM614 233q109 0 150 66h319q-49 -164 -178 -246t-305 -82q-248 0 -399.5 154t-151.5 386t153.5 387t386 155t379 -154t146.5 -385q0 -68 -14 -127h-703q53 -154 217 -154zM418 1448h342l217 -318h-307l-80 115
l-82 -115h-307z" />
    <glyph glyph-name="edieresis" unicode="&#xeb;" horiz-adv-x="1163" 
d="M595.5 766q-153.5 0 -200.5 -141h391q-37 141 -190.5 141zM614 233q109 0 150 66h319q-49 -164 -178 -246t-305 -82q-248 0 -399.5 154t-151.5 386t153.5 387t386 155t379 -154t146.5 -385q0 -68 -14 -127h-703q53 -154 217 -154zM936 1427v-286h-287v286h287zM547 1427
v-286h-285v286h285z" />
    <glyph glyph-name="igrave" unicode="&#xec;" horiz-adv-x="536" 
d="M438 0h-340v1024h340v-1024zM428 1126h-324l-143 308h385z" />
    <glyph glyph-name="iacute" unicode="&#xed;" horiz-adv-x="536" 
d="M98 0v1024h340v-1024h-340zM98 1126l82 308h387l-145 -308h-324z" />
    <glyph glyph-name="icircumflex" unicode="&#xee;" horiz-adv-x="536" 
d="M98 0v1024h340v-1024h-340zM98 1434h340l189 -318h-297l-62 101l-61 -101h-297z" />
    <glyph glyph-name="idieresis" unicode="&#xef;" horiz-adv-x="536" 
d="M98 0v1024h340v-1024h-340zM315 1133v274h275v-274h-275zM-53 1133v274h274v-274h-274z" />
    <glyph glyph-name="eth" unicode="&#xf0;" horiz-adv-x="1155" 
d="M578 283q84 0 135 48q51 49 51 123t-33 119q-53 70 -145 70t-144 -47t-51 -132q-1 -85 51 -133t136 -48zM1106 471q0 -225 -156 -362t-374 -137t-373 136q-154 136 -154 363q0 178 122 312t302 153l-78 106l-260 -100v242l125 49l-143 201h391l59 -80l267 104v-244
l-127 -49l305 -407q94 -129 94 -287z" />
    <glyph glyph-name="ntilde" unicode="&#xf1;" 
d="M679.5 1053q155.5 0 247 -106.5t91.5 -295.5v-651h-340v612q0 119 -113 119q-127 0 -127 -143v-588h-340v1024h340v-86q86 115 241.5 115zM436 1143h-246q0 283 176 329q93 25 214 -36q49 -33 74.5 -29t25.5 68h246q0 -289 -176 -330q-97 -23 -215 39q-49 33 -74 27.5
t-25 -68.5z" />
    <glyph glyph-name="ograve" unicode="&#xf2;" horiz-adv-x="1193" 
d="M597 299q89 0 147.5 59.5t58.5 153.5t-58.5 153.5t-147.5 59.5t-147.5 -59.5t-58.5 -153.5t58.5 -153.5t147.5 -59.5zM597 -29q-228 0 -388 157t-160 384t160 384t388 157t387 -157t159 -384t-159 -384t-387 -157zM780 1157h-323l-238 297h397z" />
    <glyph glyph-name="oacute" unicode="&#xf3;" horiz-adv-x="1193" 
d="M597 299q89 0 147.5 59.5t58.5 153.5t-58.5 153.5t-147.5 59.5t-147.5 -59.5t-58.5 -153.5t58.5 -153.5t147.5 -59.5zM597 -29q-228 0 -388 157t-160 384t160 384t388 157t387 -157t159 -384t-159 -384t-387 -157zM412 1157l163 297h398l-238 -297h-323z" />
    <glyph glyph-name="ocircumflex" unicode="&#xf4;" horiz-adv-x="1193" 
d="M597 299q89 0 147.5 59.5t58.5 153.5t-58.5 153.5t-147.5 59.5t-147.5 -59.5t-58.5 -153.5t58.5 -153.5t147.5 -59.5zM597 1053q228 0 387 -157t159 -384t-159 -384t-387 -157t-388 157t-160 384t160 384t388 157zM416 1454h342l217 -317h-307l-80 114l-82 -114h-307z
" />
    <glyph glyph-name="otilde" unicode="&#xf5;" horiz-adv-x="1193" 
d="M597 299q89 0 147.5 59.5t58.5 153.5t-58.5 153.5t-147.5 59.5t-147.5 -59.5t-58.5 -153.5t58.5 -153.5t147.5 -59.5zM597 -29q-228 0 -388 157t-160 384t160 384t388 157t387 -157t159 -384t-159 -384t-387 -157zM229 1143q1 283 177 329q94 25 212 -36q49 -33 75 -29
t26 68h246q-1 -289 -177 -330q-97 -23 -215 39q-49 33 -73.5 27.5t-24.5 -68.5h-246z" />
    <glyph glyph-name="odieresis" unicode="&#xf6;" horiz-adv-x="1193" 
d="M597 299q89 0 147.5 59.5t58.5 153.5t-58.5 153.5t-147.5 59.5t-147.5 -59.5t-58.5 -153.5t58.5 -153.5t147.5 -59.5zM597 -29q-228 0 -388 157t-160 384t160 384t388 157t387 -157t159 -384t-159 -384t-387 -157zM647 1147v287h287v-287h-287zM260 1147v287h285v-287
h-285z" />
    <glyph glyph-name="divide" unicode="&#xf7;" horiz-adv-x="1128" 
d="M564 104q-83 0 -138 56t-55 139q0 82 55 138q55 57 138 57t138 -56q56 -56 56 -139t-56 -139t-138 -56zM72 555v324h983v-324h-983zM564 940q-83 0 -138 56t-55 138t55 139q55 56 138 56t138 -56q56 -56 56 -138q0 -83 -56 -139t-138 -56z" />
    <glyph glyph-name="oslash" unicode="&#xf8;" horiz-adv-x="1193" 
d="M596 299q90 0 148.5 59.5t58.5 142.5t-35 136l-260 -320q39 -18 88 -18zM391 528.5q0 -77.5 25 -122.5l250 309q-37 10 -70 10q-88 0 -146.5 -59.5t-58.5 -137zM1143 514q0 -229 -159 -386t-388 -157q-166 0 -297 86l-47 -57h-166l113 139q-150 154 -150 377t160 380
t387 157q156 0 283 -76l36 47h166l-100 -123q162 -158 162 -387z" />
    <glyph glyph-name="ugrave" unicode="&#xf9;" 
d="M659 1024h340v-1024h-340v86q-86 -115 -241 -115t-246.5 106.5t-91.5 295.5v651h340v-612q0 -119 112 -119q127 0 127 143v588zM733 1137h-323l-238 297h397z" />
    <glyph glyph-name="uacute" unicode="&#xfa;" 
d="M659 1024h340v-1024h-340v86q-86 -115 -241 -115t-246.5 106.5t-91.5 295.5v651h340v-612q0 -119 112 -119q127 0 127 143v588zM926 1434l-238 -297h-323l163 297h398z" />
    <glyph glyph-name="ucircumflex" unicode="&#xfb;" 
d="M659 1024h340v-1024h-340v86q-86 -115 -241 -115t-246.5 106.5t-91.5 295.5v651h340v-612q0 -119 112 -119q127 0 127 143v588zM369 1434h342l217 -318h-307l-80 115l-82 -115h-307z" />
    <glyph glyph-name="udieresis" unicode="&#xfc;" 
d="M659 1024h340v-1024h-340v86q-86 -115 -241 -115t-246.5 106.5t-91.5 295.5v651h340v-612q0 -119 112 -119q127 0 127 143v588zM887 1413v-287h-287v287h287zM498 1413v-287h-285v287h285z" />
    <glyph glyph-name="yacute" unicode="&#xfd;" horiz-adv-x="1075" 
d="M721 1024h362l-483 -1434h-360l141 420l-391 1014h362l199 -569zM358 1137l164 297h398l-238 -297h-324z" />
    <glyph glyph-name="thorn" unicode="&#xfe;" horiz-adv-x="1259" 
d="M653 293q96 0 156 60q59 61 59 159t-59 158t-155 61q-96 0 -156 -60q-60 -61 -60 -159t60 -158t155 -61zM736 1053q190 0 332 -156t142 -385t-142 -385t-332 -156t-298 105v-486h-340v1844h340v-486q108 105 298 105z" />
    <glyph glyph-name="ydieresis" unicode="&#xff;" horiz-adv-x="1075" 
d="M721 1024h362l-483 -1434h-360l141 420l-391 1014h362l199 -569zM592 1126v287h287v-287h-287zM205 1126v287h284v-287h-284z" />
    <glyph glyph-name="Amacron" unicode="&#x100;" horiz-adv-x="1351" 
d="M535 522h282l-141 496zM965 0l-60 207h-459l-59 -207h-397l467 1434h438l467 -1434h-397zM991 1810v-266h-633v266h633z" />
    <glyph glyph-name="amacron" unicode="&#x101;" horiz-adv-x="1050" 
d="M515 197q58 0 94 26.5t36 69.5t-36 67.5t-94 24.5t-90 -25.5t-32 -68.5t32 -68.5t90 -25.5zM538 1053q181 0 308 -105.5t127 -302.5v-645h-328v70q-94 -98 -247 -98.5t-250 82.5t-97 236.5t98.5 236.5t247.5 83t248 -69v94q0 115 -108 115q-53 0 -81 -25t-28 -63h-328
q0 184 128.5 287.5t309.5 103.5zM852 1421v-266h-633v266h633z" />
    <glyph glyph-name="Abreve" unicode="&#x102;" horiz-adv-x="1351" 
d="M535 522h282l-141 496zM965 0l-60 207h-459l-59 -207h-397l467 1434h438l467 -1434h-397zM674 1509q-178 0 -272.5 84t-94.5 244h287q0 -90 81 -90t81 90h286q0 -160 -95 -244t-273 -84z" />
    <glyph glyph-name="abreve" unicode="&#x103;" horiz-adv-x="1050" 
d="M515 197q58 0 94 26.5t36 69.5t-36 67.5t-94 24.5t-90 -25.5t-32 -68.5t32 -68.5t90 -25.5zM538 1053q181 0 308 -105.5t127 -302.5v-645h-328v70q-94 -98 -247 -98.5t-250 82.5t-97 236.5t98.5 236.5t247.5 83t248 -69v94q0 115 -108 115q-53 0 -81 -25t-28 -63h-328
q0 184 128.5 287.5t309.5 103.5zM534.5 1120q-178.5 0 -272.5 84t-94 244h287q0 -90 81 -90t80 90h287q0 -160 -95 -244t-273.5 -84z" />
    <glyph glyph-name="Aogonek" unicode="&#x104;" horiz-adv-x="1351" 
d="M535 522h282l-141 496zM1181.5 -438q-94.5 0 -154.5 47t-60 139q0 119 127 252h-129l-60 207h-459l-59 -207h-397l467 1434h438l467 -1434q-88 -94 -88 -160q-4 -47 45 -47q10 -2 43 6v-202q-86 -35 -180.5 -35z" />
    <glyph glyph-name="aogonek" unicode="&#x105;" horiz-adv-x="1050" 
d="M393 290q0 -42 32 -68t90 -25t94 27t36 69t-36 67t-94 25q-58 0 -90 -26q-32 -27 -32 -69zM793 -438q-94 0 -155 47q-60 47 -60 139q0 119 127 252h-60v70q-94 -98 -247 -98t-250 82q-97 83 -97 237q1 155 99 237t247 82t248 -69v94q0 115 -108 115q-53 0 -81 -25
t-28 -63h-328q0 184 128 287t310 103t308 -104q127 -106 127 -303v-645q-88 -94 -88 -160q-4 -47 45 -47q10 -2 43 6v-202q-86 -35 -180 -35z" />
    <glyph glyph-name="Cacute" unicode="&#x106;" horiz-adv-x="1538" 
d="M805 -31q-324 0 -536 214t-212 533.5t212 533.5t536 214q266 0 467 -163.5t239 -417.5h-378q-29 102 -119 162.5t-209 60.5q-172 0 -277.5 -107.5t-105.5 -281.5t105.5 -281.5t277.5 -107.5q119 0 210 60.5t118 162.5h380q-39 -254 -239.5 -418t-468.5 -164zM621 1567
l163 297h398l-238 -297h-323z" />
    <glyph glyph-name="cacute" unicode="&#x107;" horiz-adv-x="1144" 
d="M578 -29q-217 0 -373 156t-156 385t155.5 385t373 156t366 -123t174.5 -314h-354q-18 47 -64.5 76t-119 29t-131 -58.5t-58.5 -150.5t58.5 -150.5t131 -58.5t120 28.5t63.5 76.5h354q-27 -190 -175 -313.5t-365 -123.5zM412 1147l163 297h398l-238 -297h-323z" />
    <glyph glyph-name="Cdotaccent" unicode="&#x10a;" horiz-adv-x="1538" 
d="M805 -31q-324 0 -536 214t-212 533.5t212 533.5t536 214q266 0 467 -163.5t239 -417.5h-378q-29 102 -119 162.5t-209 60.5q-172 0 -277.5 -107.5t-105.5 -281.5t105.5 -281.5t277.5 -107.5q119 0 210 60.5t118 162.5h380q-39 -254 -239.5 -418t-468.5 -164zM641 1552
v316h326v-316h-326z" />
    <glyph glyph-name="cdotaccent" unicode="&#x10b;" horiz-adv-x="1144" 
d="M578 -29q-217 0 -373 156t-156 385t155.5 385t373 156t366 -123t174.5 -314h-354q-18 47 -64.5 76t-119 29t-131 -58.5t-58.5 -150.5t58.5 -150.5t131 -58.5t120 28.5t63.5 76.5h354q-27 -190 -175 -313.5t-365 -123.5zM432 1133v315h326v-315h-326z" />
    <glyph glyph-name="Ccaron" unicode="&#x10c;" horiz-adv-x="1538" 
d="M805 -31q-324 0 -536 214t-212 533.5t212 533.5t536 214q266 0 467 -163.5t239 -417.5h-378q-29 102 -119 162.5t-209 60.5q-172 0 -277.5 -107.5t-105.5 -281.5t105.5 -281.5t277.5 -107.5q119 0 210 60.5t118 162.5h380q-39 -254 -239.5 -418t-468.5 -164zM623 1546
l-217 318h307l82 -115l79 115h308l-217 -318h-342z" />
    <glyph glyph-name="ccaron" unicode="&#x10d;" horiz-adv-x="1144" 
d="M580.5 303q72.5 0 120 28.5t63.5 76.5h354q-27 -190 -175 -313.5t-365 -123.5t-373 156t-156 385t155.5 385t373 156t366 -123t174.5 -314h-354q-18 47 -64.5 76t-119 29t-131 -58.5t-58.5 -150.5t58.5 -150.5t131 -58.5zM416 1126l-217 318h307l82 -115l80 115h307
l-217 -318h-342z" />
    <glyph glyph-name="Dcaron" unicode="&#x10e;" horiz-adv-x="1490" 
d="M737 354q150 0 244 99.5t94 263.5t-94 263t-244 99h-248v-725h248zM737 1434q297 0 497 -206t200 -511t-200 -511t-497 -206h-624v1434h624zM496 1526l-217 317h307l82 -114l80 114h307l-217 -317h-342z" />
    <glyph glyph-name="dcaron" unicode="&#x10f;" horiz-adv-x="1546" 
d="M606 293q96 0 156 60q59 61 59 159t-59 158q-60 60 -156 61q-96 0 -155 -60q-59 -61 -59 -159t58 -158q60 -60 156 -61zM1262 1434h315l-72 -449h-264zM821 1434h340v-1434h-340v76q-103 -104 -295 -104t-335 155q-142 156 -142 385t142 385q142 155 334 155t296 -104
v486z" />
    <glyph glyph-name="Dcroat" unicode="&#x110;" horiz-adv-x="1552" 
d="M801 354q150 0 243 99.5t93 263.5t-93.5 263t-242.5 99h-250v-217h268v-323h-268v-185h250zM801 1434q297 0 496.5 -206t199.5 -511t-199.5 -511t-496.5 -206h-625v539h-153v323h153v572h625z" />
    <glyph glyph-name="dcroat" unicode="&#x111;" horiz-adv-x="1280" 
d="M606 289q96 0 156 59q59 58 59 154t-59 155q-60 59 -156 59t-155 -58q-59 -60 -59 -155t58 -155q60 -60 156 -59zM1280 1321v-217h-119v-1104h-340v76q-103 -104 -295 -104t-335 153q-142 154 -142 377t142 378q142 154 334 154t296 -104v174h-278v217h278v113h340v-113
h119z" />
    <glyph glyph-name="Emacron" unicode="&#x112;" horiz-adv-x="1048" 
d="M479 344h514v-344h-880v1434h870v-344h-504v-203h453v-326h-453v-217zM864 1810v-266h-633v266h633z" />
    <glyph glyph-name="emacron" unicode="&#x113;" horiz-adv-x="1163" 
d="M595.5 766q-153.5 0 -200.5 -141h391q-37 141 -190.5 141zM614 233q109 0 150 66h319q-49 -164 -178 -246t-305 -82q-248 0 -399.5 154t-151.5 386t153.5 387t386 155t379 -154t146.5 -385q0 -68 -14 -127h-703q53 -154 217 -154zM913 1415v-266h-632v266h632z" />
    <glyph glyph-name="Edotaccent" unicode="&#x116;" horiz-adv-x="1048" 
d="M479 344h514v-344h-880v1434h870v-344h-504v-203h453v-326h-453v-217zM711 1847v-315h-326v315h326z" />
    <glyph glyph-name="edotaccent" unicode="&#x117;" horiz-adv-x="1163" 
d="M595.5 766q-153.5 0 -200.5 -141h391q-37 141 -190.5 141zM614 233q109 0 150 66h319q-49 -164 -178 -246t-305 -82q-248 0 -399.5 154t-151.5 386t153.5 387t386 155t379 -154t146.5 -385q0 -68 -14 -127h-703q53 -154 217 -154zM760 1452v-315h-326v315h326z" />
    <glyph glyph-name="Eogonek" unicode="&#x118;" horiz-adv-x="1048" 
d="M813 -438q-94 0 -154.5 47t-60.5 139q0 119 127 252h-612v1434h870v-344h-504v-203h453v-326h-453v-217h514v-344q-88 -94 -88 -160q-4 -47 45 -47q10 -2 43 6v-202q-86 -35 -180 -35z" />
    <glyph glyph-name="eogonek" unicode="&#x119;" horiz-adv-x="1163" 
d="M595.5 766q-153.5 0 -200.5 -141h391q-37 141 -190.5 141zM614 233q109 0 150 66h319q-39 -129 -135 -213q-131 -166 -131 -246q-4 -47 43 -47q12 -2 45 6v-202q-86 -35 -180 -35t-154.5 47t-60.5 139q0 115 141 225q-18 -2 -51 -2q-248 0 -399.5 154t-151.5 386
t153.5 387t386 155t379 -154t146.5 -385q0 -68 -14 -127h-703q53 -154 217 -154z" />
    <glyph glyph-name="Ecaron" unicode="&#x11a;" horiz-adv-x="1048" 
d="M479 344h514v-344h-880v1434h870v-344h-504v-203h453v-326h-453v-217zM369 1526l-217 317h307l82 -114l80 114h307l-217 -317h-342z" />
    <glyph glyph-name="ecaron" unicode="&#x11b;" horiz-adv-x="1163" 
d="M595.5 766q-153.5 0 -200.5 -141h391q-37 141 -190.5 141zM614 233q109 0 150 66h319q-49 -164 -178 -246t-305 -82q-248 0 -399.5 154t-151.5 386t153.5 387t386 155t379 -154t146.5 -385q0 -68 -14 -127h-703q53 -154 217 -154zM418 1130l-217 318h307l82 -115l80 115
h307l-217 -318h-342z" />
    <glyph glyph-name="Gbreve" unicode="&#x11e;" horiz-adv-x="1601" 
d="M817 788h696v-788h-325v141q-147 -172 -438 -172t-492 215t-201 533.5t212 532.5t536 214q260 0 457.5 -151.5t246.5 -376.5h-383q-37 74 -122.5 122t-196.5 48q-174 0 -279.5 -107.5t-105.5 -287.5t106.5 -292t276.5 -112q242 0 321 176h-309v305zM804 1530
q-177 0 -272.5 84t-95.5 244h287q0 -90 80 -91q82 0 82 91h286q0 -160 -95 -244t-272 -84z" />
    <glyph glyph-name="gbreve" unicode="&#x11f;" horiz-adv-x="1261" 
d="M614.5 324q96.5 0 156.5 58t60 150.5t-60 150.5t-156.5 58t-157 -58t-60.5 -150.5t60.5 -150.5t157 -58zM831 1024h336v-983q0 -238 -157.5 -359.5t-375.5 -121.5t-370.5 106.5t-152.5 317.5h340q0 -59 50 -93t137 -34t140 46t53 138v78q-106 -106 -297.5 -106.5
t-334 152t-142.5 368t142.5 368t334 152.5t297.5 -107v78zM619 1120q-177 0 -272 84t-95 244h287q0 -90 80.5 -90t80.5 90h287q0 -160 -95.5 -244t-272.5 -84z" />
    <glyph glyph-name="Gdotaccent" unicode="&#x120;" horiz-adv-x="1601" 
d="M817 788h696v-788h-325v141q-147 -172 -438 -172t-492 215t-201 533.5t212 532.5t536 214q260 0 457.5 -151.5t246.5 -376.5h-383q-37 74 -122.5 122t-196.5 48q-174 0 -279.5 -107.5t-105.5 -287.5t106.5 -292t276.5 -112q242 0 321 176h-309v305zM967 1868v-316h-326
v316h326z" />
    <glyph glyph-name="gdotaccent" unicode="&#x121;" horiz-adv-x="1261" 
d="M614.5 324q96.5 0 156.5 58t60 150.5t-60 150.5t-156.5 58t-157 -58t-60.5 -150.5t60.5 -150.5t157 -58zM831 1024h336v-983q0 -238 -157.5 -359.5t-375.5 -121.5t-370.5 106.5t-152.5 317.5h340q0 -59 50 -93t137 -34t140 46t53 138v78q-105 -107 -297 -107
t-334.5 152.5t-142.5 368t142.5 368t334.5 152.5t297 -107v78zM782 1458v-315h-325v315h325z" />
    <glyph glyph-name="Gcommaaccent" unicode="&#x122;" horiz-adv-x="1601" 
d="M647 -567l21 450h315l-72 -450h-264zM817 788h696v-788h-325v141q-147 -172 -438 -172t-492 215t-201 533.5t212 532.5t536 214q260 0 457.5 -151.5t246.5 -376.5h-383q-37 74 -122.5 122t-196.5 48q-174 0 -279.5 -107.5t-105.5 -287.5t106.5 -292t276.5 -112
q242 0 321 176h-309v305z" />
    <glyph glyph-name="gcommaaccent" unicode="&#x123;" horiz-adv-x="1261" 
d="M614.5 324q96.5 0 156.5 58t60 150.5t-60 150.5t-156.5 58t-157 -58t-60.5 -150.5t60.5 -150.5t157 -58zM831 1024h336v-983q0 -238 -157.5 -359.5t-375.5 -121.5t-370.5 106.5t-152.5 317.5h340q0 -59 50 -93t137 -34t140 46t53 138v78q-105 -107 -297 -107
t-334.5 152.5t-142.5 368t142.5 368t334.5 152.5t297 -107v78zM772 1628l-20 -450h-316l72 450h264z" />
    <glyph glyph-name="Hbar" unicode="&#x126;" horiz-adv-x="1402" 
d="M883 805v174h-363v-174h363zM1370 1245v-266h-123v-979h-364v451h-363v-451h-366v979h-123v266h123v189h366v-189h363v189h364v-189h123z" />
    <glyph glyph-name="hbar" unicode="&#x127;" horiz-adv-x="1118" 
d="M700 1028q156 0 247 -106t91 -295v-627h-340v590q0 57 -30 88q-31 31 -84 31q-125 0 -125 -144v-565h-340v1104h-119v217h119v113h340v-113h276v-217h-276v-191q85 115 241 115z" />
    <glyph glyph-name="Imacron" unicode="&#x12a;" horiz-adv-x="591" 
d="M113 1434h366v-1434h-366v1434zM-20 1544v266h632v-266h-632z" />
    <glyph glyph-name="imacron" unicode="&#x12b;" horiz-adv-x="536" 
d="M98 0v1024h340v-1024h-340zM4 1135v276h531v-276h-531z" />
    <glyph glyph-name="Iogonek" unicode="&#x12e;" horiz-adv-x="591" 
d="M315.5 -438q-94.5 0 -155 47t-60.5 153.5t111 237.5h-98v1434h366v-1434q-72 -92 -71 -160q0 -47 45 -47q10 -2 43 6v-202q-86 -35 -180.5 -35z" />
    <glyph glyph-name="iogonek" unicode="&#x12f;" horiz-adv-x="536" 
d="M281 -438q-94 0 -155 47q-60 47 -60 155t90 236h-58v1024h340v-1024q-66 -94 -66 -150t46 -57q10 -2 43 6v-202q-86 -35 -180 -35zM438 1434v-297h-340v297h340z" />
    <glyph glyph-name="Idotaccent" unicode="&#x130;" horiz-adv-x="591" 
d="M113 1434h366v-1434h-366v1434zM133 1532v315h326v-315h-326z" />
    <glyph glyph-name="dotlessi" unicode="&#x131;" horiz-adv-x="536" 
d="M98 0v1024h340v-1024h-340z" />
    <glyph glyph-name="Kcommaaccent" unicode="&#x136;" horiz-adv-x="1292" 
d="M473 -567l21 450h315l-72 -450h-264zM479 0h-366v1434h366v-603l391 603h410l-457 -697l477 -737h-409l-412 643v-643z" />
    <glyph glyph-name="kcommaaccent" unicode="&#x137;" horiz-adv-x="1099" 
d="M418 -567l20 450h316l-72 -450h-264zM438 0h-340v1434h340v-836l258 426h383l-327 -512l348 -512h-383l-279 432v-432z" />
    <glyph glyph-name="Lacute" unicode="&#x139;" horiz-adv-x="962" 
d="M479 354h473v-354h-839v1434h366v-1080zM688 1843l-237 -297h-324l164 297h397z" />
    <glyph glyph-name="lacute" unicode="&#x13a;" horiz-adv-x="536" 
d="M98 0v1475h340v-1475h-340zM94 1546l164 297h397l-237 -297h-324z" />
    <glyph glyph-name="Lcommaaccent" unicode="&#x13b;" horiz-adv-x="962" 
d="M362 -567l21 450h315l-71 -450h-265zM479 354h473v-354h-839v1434h366v-1080z" />
    <glyph glyph-name="lcommaaccent" unicode="&#x13c;" horiz-adv-x="536" 
d="M356 -567h-264l21 450h315zM98 0v1475h340v-1475h-340z" />
    <glyph glyph-name="Lcaron" unicode="&#x13d;" horiz-adv-x="962" 
d="M930 1434l-70 -408h-287l21 408h336zM479 354h473v-354h-839v1434h366v-1080z" />
    <glyph glyph-name="lcaron" unicode="&#x13e;" horiz-adv-x="819" 
d="M778 1026h-266l20 449h316zM98 0v1475h340v-1475h-340z" />
    <glyph glyph-name="Lslash" unicode="&#x141;" horiz-adv-x="1013" 
d="M520 354h473v-354h-839v395l-103 -61v362l103 62v676h366v-453l266 162v-363l-266 -162v-264z" />
    <glyph glyph-name="lslash" unicode="&#x142;" horiz-adv-x="571" 
d="M457 0h-340v434l-107 -67v321l107 68v719h340v-502l104 65v-321l-104 -66v-651z" />
    <glyph glyph-name="Nacute" unicode="&#x143;" horiz-adv-x="1341" 
d="M862 1434h365v-1434h-283l-465 741v-741h-366v1434h284l465 -742v742zM481 1546l164 297h397l-237 -297h-324z" />
    <glyph glyph-name="nacute" unicode="&#x144;" 
d="M679.5 1053q155.5 0 247 -106.5t91.5 -295.5v-651h-340v612q0 119 -113 119q-127 0 -127 -143v-588h-340v1024h340v-86q86 115 241.5 115zM936 1454l-238 -297h-323l164 297h397z" />
    <glyph glyph-name="Ncommaaccent" unicode="&#x145;" horiz-adv-x="1341" 
d="M774 -567h-264l20 450h316zM862 1434h365v-1434h-283l-465 741v-741h-366v1434h284l465 -742v742z" />
    <glyph glyph-name="ncommaaccent" unicode="&#x146;" 
d="M408 -567l20 450h315l-71 -450h-264zM679.5 1053q155.5 0 247 -106.5t91.5 -295.5v-651h-340v612q0 119 -113 119q-127 0 -127 -143v-588h-340v1024h340v-86q86 115 241.5 115z" />
    <glyph glyph-name="Ncaron" unicode="&#x147;" horiz-adv-x="1341" 
d="M862 1434h365v-1434h-283l-465 741v-741h-366v1434h284l465 -742v742zM485 1526l-217 317h307l82 -114l80 114h307l-217 -317h-342z" />
    <glyph glyph-name="ncaron" unicode="&#x148;" 
d="M679.5 1053q155.5 0 247 -106.5t91.5 -295.5v-651h-340v612q0 119 -113 119q-127 0 -127 -143v-588h-340v1024h340v-86q86 115 241.5 115zM379 1137l-217 317h307l82 -115l80 115h307l-217 -317h-342z" />
    <glyph glyph-name="Eng" unicode="&#x14a;" horiz-adv-x="1341" 
d="M862 1434h365v-1434q0 -438 -500 -424v311q150 -6 150 113v109l-398 632v-741h-366v1434h284l465 -742v742z" />
    <glyph glyph-name="eng" unicode="&#x14b;" 
d="M680 1053q156 -1 246 -107q92 -106 92 -295v-651q0 -461 -459 -428v307q59 -4 89 24t30 97v612q0 119 -113 119q-127 0 -127 -143v-588h-340v1024h340v-86q86 115 242 115z" />
    <glyph glyph-name="Omacron" unicode="&#x14c;" horiz-adv-x="1617" 
d="M809 328q166 0 276.5 109.5t110.5 279.5t-110.5 279.5t-276.5 109.5t-276.5 -109.5t-110.5 -279.5t110.5 -279.5t276.5 -109.5zM809 -31q-315 0 -533.5 216t-218.5 531.5t218.5 531.5t533.5 216t533.5 -216t218.5 -531.5t-218.5 -531.5t-533.5 -216zM492 1565v266h632
v-266h-632z" />
    <glyph glyph-name="omacron" unicode="&#x14d;" horiz-adv-x="1193" 
d="M597 299q89 0 147.5 59.5t58.5 153.5t-58.5 153.5t-147.5 59.5t-147.5 -59.5t-58.5 -153.5t58.5 -153.5t147.5 -59.5zM597 -29q-228 0 -388 157t-160 384t160 384t388 157t387 -157t159 -384t-159 -384t-387 -157zM281 1155v266h632v-266h-632z" />
    <glyph glyph-name="Ohungarumlaut" unicode="&#x150;" horiz-adv-x="1617" 
d="M809 328q166 0 276.5 109.5t110.5 279.5t-110.5 279.5t-276.5 109.5t-276.5 -109.5t-110.5 -279.5t110.5 -279.5t276.5 -109.5zM809 -31q-315 0 -533.5 216t-218.5 531.5t218.5 531.5t533.5 216t533.5 -216t218.5 -531.5t-218.5 -531.5t-533.5 -216zM815 1546l184 307
h336l-196 -307h-324zM422 1546l164 307h334l-177 -307h-321z" />
    <glyph glyph-name="ohungarumlaut" unicode="&#x151;" horiz-adv-x="1193" 
d="M597 299q89 0 147.5 59.5t58.5 153.5t-58.5 153.5t-147.5 59.5t-147.5 -59.5t-58.5 -153.5t58.5 -153.5t147.5 -59.5zM597 -29q-228 0 -388 157t-160 384t160 384t388 157t387 -157t159 -384t-159 -384t-387 -157zM602 1137l184 307h336l-196 -307h-324zM209 1137
l164 307h334l-177 -307h-321z" />
    <glyph glyph-name="OE" unicode="&#x152;" horiz-adv-x="1908" 
d="M799 1106q-165 0 -271 -109t-106 -281t105 -280q105 -109 272 -108q123 0 215 37v704q-92 37 -215 37zM1380 344h471v-344h-837q-104 -31 -215 -31q-313 0 -528 216q-214 215 -214 531t214 532t528 216q111 0 215 -30h827v-344h-461v-203h410v-326h-410v-217z" />
    <glyph glyph-name="oe" unicode="&#x153;" horiz-adv-x="1912" 
d="M597 299q89 0 147 59q58 60 58 154t-58 154t-147 59q-89 0 -147 -59q-58 -60 -58 -154t58 -154t147 -59zM1346 766q-154 0 -201 -141h391q-36 141 -190 141zM1364 233q109 0 149 66h320q-49 -164 -174 -246t-295 -82q-256 0 -393 181q-139 -180 -379 -180t-391 158
q-152 159 -152 381t151 382q152 160 392 160t379 -183q139 182 393 183q215 0 357 -154t143 -385q0 -68 -15 -127h-702q53 -154 217 -154z" />
    <glyph glyph-name="Racute" unicode="&#x154;" horiz-adv-x="1294" 
d="M479 1096v-314h187q66 -2 107.5 41t41.5 114t-42 115t-107 44h-187zM479 463v-463h-366v1434h553q219 0 367.5 -140.5t148.5 -355.5q0 -131 -64.5 -237.5t-177.5 -168.5l395 -532h-413l-340 463h-103zM950 1843l-237 -297h-324l164 297h397z" />
    <glyph glyph-name="racute" unicode="&#x155;" horiz-adv-x="720" 
d="M705 1044v-376q-106 16 -186.5 -35t-80.5 -178v-455h-340v1024h340v-162q27 88 97.5 135t169.5 47zM776 1434l-237 -297h-324l164 297h397z" />
    <glyph glyph-name="Rcommaaccent" unicode="&#x156;" horiz-adv-x="1294" 
d="M547 -567l20 450h316l-72 -450h-264zM479 1096v-314h187q66 -2 107.5 41t41.5 114t-42 115t-107 44h-187zM479 463v-463h-366v1434h553q219 0 367.5 -140.5t148.5 -355.5q0 -131 -64.5 -238t-177.5 -168l395 -532h-413l-340 463h-103z" />
    <glyph glyph-name="rcommaaccent" unicode="&#x157;" horiz-adv-x="720" 
d="M90 -567l21 450h315l-72 -450h-264zM705 1044v-376q-106 16 -186.5 -35t-80.5 -178v-455h-340v1024h340v-162q27 88 97.5 135t169.5 47z" />
    <glyph glyph-name="Rcaron" unicode="&#x158;" horiz-adv-x="1294" 
d="M479 1096v-314h187q66 -2 107.5 41t41.5 114t-42 115t-107 44h-187zM479 463v-463h-366v1434h553q219 0 367.5 -140.5t148.5 -355.5q0 -131 -64.5 -237.5t-177.5 -168.5l395 -532h-413l-340 463h-103zM393 1526l-217 317h307l82 -114l80 114h307l-217 -317h-342z" />
    <glyph glyph-name="rcaron" unicode="&#x159;" horiz-adv-x="720" 
d="M705 1044v-376q-106 16 -186.5 -35t-80.5 -178v-455h-340v1024h340v-162q27 88 97.5 135t169.5 47zM217 1116l-217 318h307l82 -115l80 115h307l-217 -318h-342z" />
    <glyph glyph-name="Sacute" unicode="&#x15a;" horiz-adv-x="1126" 
d="M567.5 -31q-234.5 0 -385.5 122t-151 368h366q0 -141 181 -142q152 0 151 99q0 49 -54 77.5t-159.5 61.5t-169.5 63q-64 28 -141 82q-156 110 -156 322.5t142.5 327t357.5 114.5t360.5 -120.5t145.5 -358.5h-365q0 131 -145 131q-63 0 -96 -25.5t-33 -60.5t15 -57.5
t55.5 -44t134.5 -52.5t145 -51q50 -20 118 -60q210 -124 210 -345t-146 -336t-380.5 -115zM371 1567l164 297h397l-238 -297h-323z" />
    <glyph glyph-name="sacute" unicode="&#x15b;" horiz-adv-x="989" 
d="M403 719q0 -39 54.5 -58.5t132.5 -34t155.5 -40t132 -96t54.5 -183.5q0 -170 -124 -253t-312.5 -83t-313.5 89.5t-125 275.5h336q-1 -92 99 -92t100 61q0 37 -54.5 56.5t-132 35t-154.5 42t-131 97t-54 181.5q0 166 124 251q126 85 302 85t297.5 -93.5t121.5 -271.5h-331
q0 92 -86 92q-91 0 -91 -61zM858 1454l-237 -297h-324l164 297h397z" />
    <glyph glyph-name="Scedilla" unicode="&#x15e;" horiz-adv-x="1126" 
d="M846 -252q0 -229 -479 -201v224q195 -14 194 28q0 31 -108 41v137q-193 29 -307.5 149t-114.5 333h366q0 -141 181 -142q152 0 151 99q0 49 -54 77.5t-159.5 61.5t-169.5 63q-64 28 -141 82q-156 110 -156 322.5t142.5 327t357.5 114.5t360.5 -120.5t145.5 -358.5h-365
q0 131 -145 131q-63 0 -96 -25.5t-33 -60.5t15 -57.5t55.5 -44t134.5 -52.5t145 -51q50 -20 118 -60q210 -124 210 -362q0 -167 -99.5 -276t-267.5 -143v-78q45 -14 82 -53t37 -105z" />
    <glyph glyph-name="scedilla" unicode="&#x15f;" horiz-adv-x="989" 
d="M932 298q0 -122 -76 -202t-203 -108v-82q45 -14 82 -53t37 -105q0 -229 -479 -201v224q195 -14 194 28q0 31 -108 41v142q-145 25 -233.5 112.5t-88.5 241.5h336q0 -92 99.5 -92t99.5 61q0 37 -54.5 56.5t-132 35t-154.5 42t-131 97t-54 181.5q0 166 124.5 251t301 85
t298 -93.5t121.5 -271.5h-331q0 92 -88 92t-89 -61q0 -39 54.5 -58.5t132.5 -34t155.5 -40t132 -96t54.5 -192.5z" />
    <glyph glyph-name="Scaron" unicode="&#x160;" horiz-adv-x="1126" 
d="M948.5 84q-145.5 -115 -380.5 -115t-386 122t-151 368h366q0 -141 181 -142q152 0 151 99q0 49 -54 77.5t-159.5 61.5t-169.5 63q-64 28 -141 82q-156 110 -156 322.5t142.5 327t357.5 114.5t360.5 -120.5t145.5 -358.5h-365q0 131 -145 131q-63 0 -96 -25.5t-33 -60.5
t15 -57.5t60.5 -46.5t134.5 -52.5t140 -48.5q50 -20 118 -60q210 -124 210 -345t-145.5 -336zM375 1546l-217 318h307l82 -115l80 115h307l-217 -318h-342z" />
    <glyph glyph-name="scaron" unicode="&#x161;" horiz-adv-x="989" 
d="M403 719q0 -39 54.5 -58.5t132.5 -34t155.5 -40t132 -96t54.5 -183.5q0 -170 -124 -253t-312.5 -83t-313.5 89.5t-125 275.5h336q-1 -92 99 -92t100 61q0 37 -54.5 56.5t-132 35t-154.5 42t-131 97t-54 181.5q0 166 124 251q126 85 302 85t297.5 -93.5t121.5 -271.5h-331
q0 92 -86 92q-91 0 -91 -61zM301 1137l-217 317h307l82 -115l80 115h307l-217 -317h-342z" />
    <glyph glyph-name="uni0162" unicode="&#x162;" horiz-adv-x="1024" 
d="M340 -567l20 450h316l-72 -450h-264zM1008 1434v-355h-314v-1079h-364v1079h-314v355h992z" />
    <glyph glyph-name="uni0163" unicode="&#x163;" horiz-adv-x="696" 
d="M178 -567l21 450h315l-72 -450h-264zM670 1024v-326h-152v-698h-340v698h-151v326h151v328h340v-328h152z" />
    <glyph glyph-name="Tcaron" unicode="&#x164;" horiz-adv-x="1024" 
d="M1008 1434v-355h-314v-1079h-364v1079h-314v355h992zM332 1526l-217 317h307l82 -114l80 114h307l-217 -317h-342z" />
    <glyph glyph-name="tcaron" unicode="&#x165;" horiz-adv-x="880" 
d="M518 1352v-328h152v-326h-152v-698h-340v698h-151v326h151v328h340zM616 1505h306l-72 -389h-254z" />
    <glyph glyph-name="Tbar" unicode="&#x166;" horiz-adv-x="1024" 
d="M1008 1079h-314v-235h217v-324h-217v-520h-364v520h-217v324h217v235h-314v355h992v-355z" />
    <glyph glyph-name="tbar" unicode="&#x167;" horiz-adv-x="696" 
d="M670 698h-152v-100h103v-256h-103v-342h-340v342h-131v256h131v100h-151v326h151v328h340v-328h152v-326z" />
    <glyph glyph-name="Umacron" unicode="&#x16a;" horiz-adv-x="1269" 
d="M634.5 -31q-237.5 0 -390 124t-152.5 347v994h367v-938q0 -170 176 -170t176 170v938h367v-994q0 -223 -153 -347t-390.5 -124zM317 1544v266h633v-266h-633z" />
    <glyph glyph-name="umacron" unicode="&#x16b;" 
d="M659 1024h340v-1024h-340v86q-86 -115 -241 -115t-246.5 106.5t-91.5 295.5v651h340v-612q0 -119 112 -119q127 0 127 143v588zM866 1401v-266h-633v266h633z" />
    <glyph glyph-name="Uring" unicode="&#x16e;" horiz-adv-x="1269" 
d="M634.5 -31q-237.5 0 -390 124t-152.5 347v994h367v-938q0 -170 176 -170t176 170v938h367v-994q0 -223 -153 -347t-390.5 -124zM635 1706q70 0 70 65.5t-70 65.5q-31 0 -49.5 -18.5t-18.5 -47t18.5 -47t49.5 -18.5zM637 1501q-127 0 -208 77t-81 193.5t81 193.5t208 77
t207 -77t80 -194.5t-80 -193.5t-207 -76z" />
    <glyph glyph-name="uring" unicode="&#x16f;" 
d="M659 1024h340v-1024h-340v86q-86 -115 -241 -115t-246.5 106.5t-91.5 295.5v651h340v-612q0 -119 112 -119q127 0 127 143v588zM549 1427q-31 0 -49.5 -18t-18.5 -47t18.5 -47.5t49.5 -18.5q70 0 70 65.5t-70 65.5zM551 1092q-127 0 -208 76.5t-81 193.5t81 193.5
t208 76.5t207 -76.5t80 -194.5t-80 -193.5t-207 -75.5z" />
    <glyph glyph-name="Uhungarumlaut" unicode="&#x170;" horiz-adv-x="1269" 
d="M634.5 -31q-237.5 0 -390 124t-152.5 347v994h367v-938q0 -170 176 -170t176 170v938h367v-994q0 -223 -153 -347t-390.5 -124zM641 1526l184 307h336l-196 -307h-324zM248 1526l164 307h333l-176 -307h-321z" />
    <glyph glyph-name="uhungarumlaut" unicode="&#x171;" 
d="M659 436v588h340v-1024h-340v86q-86 -115 -241 -115t-246.5 106.5t-91.5 295.5v651h340v-612q0 -119 112 -119q127 0 127 143zM879 1116h-324l184 307h336zM659 1423l-176 -307h-321l164 307h333z" />
    <glyph glyph-name="Uogonek" unicode="&#x172;" horiz-adv-x="1269" 
d="M811 1434h367v-994q0 -215 -148 -342q-106 -92 -146 -148t-40 -110q-4 -47 45 -47q10 -2 43 6v-202q-86 -35 -180.5 -35t-154.5 47t-60 144t98 216q-238 0 -390.5 124t-152.5 347v994h367v-938q0 -170 176 -170t176 170v938z" />
    <glyph glyph-name="uogonek" unicode="&#x173;" 
d="M819 -438q-94 0 -154.5 47t-60.5 139q0 119 127 252h-72v86q-86 -115 -241 -115t-246.5 106.5t-91.5 295.5v651h340v-612q0 -119 112 -119q127 0 127 143v588h340v-1024q-88 -98 -88 -152.5t45 -54.5q10 -2 43 6v-202q-86 -35 -180 -35z" />
    <glyph glyph-name="Wcircumflex" unicode="&#x174;" horiz-adv-x="1843" 
d="M1470 1434h383l-401 -1434h-367l-163 596l-164 -596h-367l-401 1434h383l229 -916l170 623l-82 293h342l219 -889zM741 1843h342l217 -317h-307l-80 114l-82 -114h-307z" />
    <glyph glyph-name="wcircumflex" unicode="&#x175;" horiz-adv-x="1515" 
d="M1192 0h-315l-119 385l-119 -385h-315l-314 1024h363l147 -590l111 367l-68 223h271l167 -561l142 561h362zM575 1434h343l217 -318h-308l-79 115l-82 -115h-308z" />
    <glyph glyph-name="Ycircumflex" unicode="&#x176;" horiz-adv-x="1292" 
d="M829 0h-366v625l-463 809h412l233 -461l236 461h411l-463 -809v-625zM465 1843h342l217 -317h-307l-80 114l-82 -114h-307z" />
    <glyph glyph-name="ycircumflex" unicode="&#x177;" horiz-adv-x="1075" 
d="M721 1024h362l-483 -1434h-360l141 420l-391 1014h362l199 -569zM360 1434h342l218 -318h-308l-80 115l-81 -115h-308z" />
    <glyph glyph-name="Ydieresis" unicode="&#x178;" horiz-adv-x="1292" 
d="M829 0h-366v625l-463 809h412l233 -461l236 461h411l-463 -809v-625zM983 1823v-287h-287v287h287zM594 1823v-287h-285v287h285z" />
    <glyph glyph-name="Zacute" unicode="&#x179;" horiz-adv-x="1110" 
d="M1065 354v-354h-997v283l503 796h-493v355h971v-283l-504 -797h520zM946 1843l-237 -297h-324l164 297h397z" />
    <glyph glyph-name="zacute" unicode="&#x17a;" horiz-adv-x="931" 
d="M891 315v-315h-840v233l365 476h-344v315h798v-233l-364 -476h385zM848 1434l-238 -297h-323l164 297h397z" />
    <glyph glyph-name="Zdotaccent" unicode="&#x17b;" horiz-adv-x="1110" 
d="M1065 354v-354h-997v283l503 796h-493v355h971v-283l-504 -797h520zM731 1847v-315h-325v315h325z" />
    <glyph glyph-name="zdotaccent" unicode="&#x17c;" horiz-adv-x="931" 
d="M891 315v-315h-840v233l365 476h-344v315h798v-233l-364 -476h385zM633 1438v-316h-326v316h326z" />
    <glyph glyph-name="Zcaron" unicode="&#x17d;" horiz-adv-x="1110" 
d="M1065 354v-354h-997v283l503 796h-493v355h971v-283l-504 -797h520zM387 1526l-217 317h307l82 -114l80 114h307l-217 -317h-342z" />
    <glyph glyph-name="zcaron" unicode="&#x17e;" horiz-adv-x="931" 
d="M891 315v-315h-840v233l365 476h-344v315h798v-233l-364 -476h385zM291 1116l-217 318h307l82 -115l80 115h307l-217 -318h-342z" />
    <glyph glyph-name="florin" unicode="&#x192;" horiz-adv-x="944" 
d="M870 883v-326h-206l-107 -620q-39 -229 -191 -313q-153 -83 -366 -34v336q59 -33 125 -4t80 111l90 524h-139v326h194l37 217q39 229 192 312t365 34v-336q-59 33 -126 4t-79 -110l-20 -121h151z" />
    <glyph glyph-name="Scommaaccent" unicode="&#x218;" horiz-adv-x="1126" 
d="M688 -567h-264l20 450h316zM567.5 -31q-234.5 0 -385.5 122t-151 368h366q0 -141 181 -142q152 0 151 99q0 49 -54 77.5t-159.5 61.5t-169.5 63q-64 28 -141 82q-156 110 -156 322.5t142.5 327t357.5 114.5t360.5 -120.5t145.5 -358.5h-365q0 131 -145 131
q-63 0 -96 -25.5t-33 -60.5t15 -57.5t55.5 -44t134.5 -52.5t145 -51q50 -20 118 -60q210 -124 210 -345t-146 -336t-380.5 -115z" />
    <glyph glyph-name="scommaaccent" unicode="&#x219;" horiz-adv-x="989" 
d="M350 -567l21 450h315l-72 -450h-264zM403 719q0 -39 54.5 -58.5t132.5 -34t155.5 -40t132 -96t54.5 -183.5q0 -170 -124 -253t-312.5 -83t-313.5 89.5t-125 275.5h336q-1 -92 99 -92t100 61q0 37 -54.5 56.5t-132 35t-154.5 42t-131 97t-54 181.5q0 166 124 251
q126 85 302 85t297.5 -93.5t121.5 -271.5h-331q0 92 -86 92q-91 0 -91 -61z" />
    <glyph glyph-name="uni021A" unicode="&#x21a;" horiz-adv-x="1024" 
d="M340 -567l20 450h316l-72 -450h-264zM1008 1434v-355h-314v-1079h-364v1079h-314v355h992z" />
    <glyph glyph-name="uni021B" unicode="&#x21b;" horiz-adv-x="696" 
d="M178 -567l21 450h315l-72 -450h-264zM670 1024v-326h-152v-698h-340v698h-151v326h151v328h340v-328h152z" />
    <glyph glyph-name="circumflex" unicode="&#x2c6;" horiz-adv-x="858" 
d="M258 1434h342l217 -318h-307l-82 117l-80 -117h-307z" />
    <glyph glyph-name="caron" unicode="&#x2c7;" horiz-adv-x="858" 
d="M600 1116h-342l-217 318h307l80 -115l82 115h307z" />
    <glyph glyph-name="breve" unicode="&#x2d8;" horiz-adv-x="817" 
d="M776 1427q0 -159 -95 -243t-272 -84t-273 84q-95 84 -95 243h287q0 -90 81 -90t80 90h287z" />
    <glyph glyph-name="dotaccent" unicode="&#x2d9;" horiz-adv-x="407" 
d="M41 1122v316h326v-316h-326z" />
    <glyph glyph-name="ring" unicode="&#x2da;" horiz-adv-x="657" 
d="M330 1296q33 0 51 18t18 48q0 29 -18 47t-51 18t-51 -18q-19 -18 -19 -47q0 -30 18 -48t52 -18zM330 1092q-127 0 -208 76t-81 194t81 194t208 76t207 -77q79 -77 79 -195t-79 -193q-80 -75 -207 -75z" />
    <glyph glyph-name="ogonek" unicode="&#x2db;" horiz-adv-x="477" 
d="M256 -438q-94 0 -155 47q-60 47 -60 139q0 119 127 252h268q-88 -94 -88 -160q-4 -47 45 -47q10 -2 43 6v-202q-86 -35 -180 -35z" />
    <glyph glyph-name="tilde" unicode="&#x2dc;" horiz-adv-x="817" 
d="M41 1122q0 284 176 329q98 25 213 -36q51 -33 76 -29t24 68h246q0 -125 -36 -206q-36 -82 -93 -108q-117 -54 -260 23q-41 19 -58 25t-29 -7t-13 -59h-246z" />
    <glyph glyph-name="hungarumlaut" unicode="&#x2dd;" horiz-adv-x="995" 
d="M434 1116l184 307h336l-196 -307h-324zM41 1116l164 307h334l-177 -307h-321z" />
    <glyph glyph-name="gravecomb" unicode="&#x300;" horiz-adv-x="0" 
d="M-41 1137h-324l-237 297h397z" />
    <glyph glyph-name="acutecomb" unicode="&#x301;" horiz-adv-x="0" 
d="M-573 1137l163 297h398l-238 -297h-323z" />
    <glyph glyph-name="uni0302" unicode="&#x302;" horiz-adv-x="0" 
d="M-600 1434h342l217 -318h-307l-82 117l-80 -117h-307z" />
    <glyph glyph-name="tildecomb" unicode="&#x303;" horiz-adv-x="0" 
d="M-764 1122q0 284 176 329q98 25 213 -36q49 -33 75 -28.5t26 67.5h245q0 -286 -176 -330q-94 -23 -215 39q-49 33 -73.5 28t-24.5 -69h-246z" />
    <glyph glyph-name="uni0304" unicode="&#x304;" horiz-adv-x="0" 
d="M-674 1135v266h633v-266h-633z" />
    <glyph glyph-name="uni0306" unicode="&#x306;" horiz-adv-x="0" 
d="M-420 1100q-178 0 -272 84t-94 243h286q0 -90 81 -90t81 90h287q0 -160 -95.5 -243.5t-273.5 -83.5z" />
    <glyph glyph-name="uni0307" unicode="&#x307;" horiz-adv-x="0" 
d="M-367 1122v316h326v-316h-326z" />
    <glyph glyph-name="uni0308" unicode="&#x308;" horiz-adv-x="0" 
d="M-328 1126v287h287v-287h-287zM-715 1126v287h285v-287h-285z" />
    <glyph glyph-name="uni030A" unicode="&#x30a;" horiz-adv-x="0" 
d="M-334 1296q70 0 70 65.5t-70 65.5q-31 0 -49 -18t-18 -47t18 -47.5t49 -18.5zM-332 1092q-127 0 -208 76.5t-81 193.5t81 193.5t208 76.5t207 -76.5t80 -194.5t-80 -193.5t-207 -75.5z" />
    <glyph glyph-name="uni030B" unicode="&#x30b;" horiz-adv-x="0" 
d="M-561 1116l184 307h336l-197 -307h-323zM-954 1116l163 307h334l-176 -307h-321z" />
    <glyph glyph-name="uni030C" unicode="&#x30c;" horiz-adv-x="0" 
d="M-258 1116h-342l-217 318h307l80 -115l82 115h307z" />
    <glyph glyph-name="uni0312" unicode="&#x312;" horiz-adv-x="0" 
d="M-305 2017h264l-20 -450h-316z" />
    <glyph glyph-name="uni0326" unicode="&#x326;" horiz-adv-x="0" 
d="M-113 -567h-264l21 450h315z" />
    <glyph glyph-name="uni0327" unicode="&#x327;" horiz-adv-x="0" 
d="M-41 -252q0 -229 -479 -201v224q195 -14 194 28q0 31 -108 41v160h274v-94q45 -14 82 -53t37 -105z" />
    <glyph glyph-name="uni0328" unicode="&#x328;" horiz-adv-x="0" 
d="M-231.5 -438q-94.5 0 -154.5 47t-60 139q0 119 127 252h268q-88 -94 -88 -160q-4 -47 45 -47q10 -2 43 6v-202q-86 -35 -180.5 -35z" />
    <glyph glyph-name="uni0394" unicode="&#x394;" horiz-adv-x="1351" 
d="M477 317h397l-198 701zM1362 0h-1372l467 1434h438z" />
    <glyph glyph-name="uni03A9" unicode="&#x3a9;" horiz-adv-x="1587" 
d="M1546 758q0 -244 -170 -414h140v-344h-576v354q108 42 174 138t66 225q0 169 -111 279t-277 110t-275 -110q-110 -110 -109 -279q0 -129 66 -225t173 -138v-354h-575v344h139q-170 170 -170 414q0 305 217 506q216 200 534 200t536 -200t218 -506z" />
    <glyph glyph-name="pi" unicode="&#x3c0;" horiz-adv-x="1349" 
d="M1288 1024v-322h-151v-702h-340v702h-240v-702h-340v702h-158v322h1229z" />
    <glyph glyph-name="uni0401" unicode="&#x401;" horiz-adv-x="1048" 
d="M479 344h514v-344h-880v1434h870v-344h-504v-203h453v-326h-453v-217zM887 1823v-287h-287v287h287zM498 1823v-287h-285v287h285z" />
    <glyph glyph-name="uni0402" unicode="&#x402;" horiz-adv-x="1357" 
d="M922 911q176 0 274 -102t98 -299v-96q0 -240 -116 -348t-363 -93v326q67 -4 93 23t26 92v51q0 119 -117 119q-57 0 -123 -27v-557h-364v1079h-314v355h1053v-355h-375v-202q128 34 228 34z" />
    <glyph glyph-name="uni0403" unicode="&#x403;" horiz-adv-x="972" 
d="M961 1434v-355h-482v-1079h-366v1434h848zM903 1841l-237 -297h-324l164 297h397z" />
    <glyph glyph-name="uni0404" unicode="&#x404;" horiz-adv-x="1544" 
d="M799 -31q-324 0 -533 214q-209 213 -209 533t209 534t533 214q272 0 474 -164t234 -417h-379q-25 102 -116 166q-92 63 -219 63t-216 -60t-131 -167h519v-336h-519q40 -107 130 -167t218 -60t219 63q90 64 115 166h381q-33 -252 -235 -417t-475 -165z" />
    <glyph glyph-name="uni0405" unicode="&#x405;" horiz-adv-x="1126" 
d="M567.5 -31q-234.5 0 -385.5 122t-151 368h366q0 -141 181 -142q152 0 151 99q0 49 -54 77.5t-159.5 61.5t-169.5 63q-64 28 -141 82q-156 110 -156 322.5t142.5 327t357.5 114.5t360.5 -120.5t145.5 -358.5h-365q0 131 -145 131q-63 0 -96 -25.5t-33 -60.5t15 -57.5
t55.5 -44t134.5 -52.5t145 -51q50 -20 118 -60q210 -124 210 -345t-146 -336t-380.5 -115z" />
    <glyph glyph-name="uni0406" unicode="&#x406;" horiz-adv-x="591" 
d="M113 1434h366v-1434h-366v1434z" />
    <glyph glyph-name="uni0407" unicode="&#x407;" horiz-adv-x="591" 
d="M113 1434h366v-1434h-366v1434zM346 1536v287h287v-287h-287zM-41 1536v287h285v-287h-285z" />
    <glyph glyph-name="uni0408" unicode="&#x408;" horiz-adv-x="1116" 
d="M1022 440q0 -225 -140 -348t-361 -123q-222 0 -361 124t-140 351v45h367v-45q0 -118 135 -118t135 118v990h365v-994z" />
    <glyph glyph-name="uni0409" unicode="&#x409;" horiz-adv-x="1859" 
d="M1317 348q145 0 145 127t-145 127h-152v-254h152zM1317 950q213 0 361 -130t148 -345t-148 -345t-361 -130h-516v1079h-205v-520q0 -176 -50 -298t-137 -179q-162 -106 -399 -86v342q115 -12 167 37t52 200v859h936v-484h152z" />
    <glyph glyph-name="uni040A" unicode="&#x40a;" horiz-adv-x="1867" 
d="M1325 348q145 0 145 127t-145 127h-149v-254h149zM1325 950q215 0 363 -130t149 -345q0 -215 -148 -345t-364 -130h-516v602h-330v-602h-366v1434h366v-484h330v484h367v-484h149z" />
    <glyph glyph-name="uni040B" unicode="&#x40b;" horiz-adv-x="1368" 
d="M922 911q176 0 274 -102t98 -299v-510h-360v465q0 119 -117 119q-57 0 -123 -27v-557h-364v1079h-314v355h1053v-355h-375v-202q128 34 228 34z" />
    <glyph glyph-name="uni040C" unicode="&#x40c;" horiz-adv-x="1292" 
d="M479 0h-366v1434h366v-603l391 603h410l-457 -697l477 -737h-409l-412 643v-643zM1024 1841l-238 -297h-323l164 297h397z" />
    <glyph glyph-name="uni040E" unicode="&#x40e;" horiz-adv-x="1288" 
d="M901 1434h375l-414 -994q-98 -233 -257 -341.5t-392 -98.5v342q197 -16 287 104l-469 988h377l264 -588zM961 1829v-287h-662v287h662z" />
    <glyph glyph-name="uni040F" unicode="&#x40f;" horiz-adv-x="1310" 
d="M831 1434h367v-1434h-360v-295h-365v295h-360v1434h366v-1080h352v1080z" />
    <glyph glyph-name="uni0410" unicode="&#x410;" horiz-adv-x="1351" 
d="M535 522h282l-141 496zM965 0l-60 207h-459l-59 -207h-397l467 1434h438l467 -1434h-397z" />
    <glyph glyph-name="uni0411" unicode="&#x411;" horiz-adv-x="1212" 
d="M690 336q59 0 95 30t36 89t-36 90t-95 30h-211v-239h211zM705 905q219 0 350 -123q131 -124 131 -328t-131 -329t-350 -125h-592v1434h950v-355h-584v-174h226z" />
    <glyph glyph-name="uni0412" unicode="&#x412;" horiz-adv-x="1402" 
d="M848 332q72 0 110 39t37 103q0 64 -37 103q-37 38 -108 37h-371v-282h369zM723 1102h-244v-187h301q39 33 39 81t-26 77q-27 29 -70 29zM1362 457q0 -195 -131 -326t-332 -131h-786v1434h614q193 0 322 -109t129 -281q-1 -100 -60 -182q112 -58 178 -164t66 -241z" />
    <glyph glyph-name="uni0413" unicode="&#x413;" horiz-adv-x="972" 
d="M961 1434v-355h-482v-1079h-366v1434h848z" />
    <glyph glyph-name="uni0414" unicode="&#x414;" horiz-adv-x="1427" 
d="M870 346v748h-235v-289q0 -293 -86 -459h321zM1237 346h154v-641h-367v295h-637v-295h-367v641h144q106 154 106 463v625h967v-1088z" />
    <glyph glyph-name="uni0415" unicode="&#x415;" horiz-adv-x="1048" 
d="M479 344h514v-344h-880v1434h870v-344h-504v-203h453v-326h-453v-217z" />
    <glyph glyph-name="uni0416" unicode="&#x416;" horiz-adv-x="1898" 
d="M1133 0h-367v625l-350 -625h-406l432 725l-411 709h405l330 -621v621h367v-621l327 621h406l-410 -709l430 -725h-405l-348 625v-625z" />
    <glyph glyph-name="uni0417" unicode="&#x417;" horiz-adv-x="1136" 
d="M1116 466q0 -228 -152 -363q-153 -134 -400 -134q-246 -1 -400 143t-154 363h367q0 -72 48 -116t139 -44t138 40t48 110q0 71 -48 109t-139 38h-131v326h170q55 29 55 94q-1 96 -115 96t-114 -96h-365q1 195 137 314q136 118 342 118t343 -114t137 -287q0 -134 -88 -236
q182 -133 182 -361z" />
    <glyph glyph-name="uni0418" unicode="&#x418;" horiz-adv-x="1341" 
d="M862 0v741l-465 -741h-284v1434h366v-742l465 742h283v-1434h-365z" />
    <glyph glyph-name="uni0419" unicode="&#x419;" horiz-adv-x="1341" 
d="M862 0v741l-465 -741h-284v1434h366v-742l465 742h283v-1434h-365zM360 1544v287h662v-287h-662z" />
    <glyph glyph-name="uni041A" unicode="&#x41a;" horiz-adv-x="1292" 
d="M479 0h-366v1434h366v-603l391 603h410l-457 -697l477 -737h-409l-412 643v-643z" />
    <glyph glyph-name="uni041B" unicode="&#x41b;" horiz-adv-x="1310" 
d="M229 575v859h969v-1434h-367v1079h-235v-520q0 -176 -50 -298t-137 -179q-162 -106 -399 -86v342q115 -12 167 37t52 200z" />
    <glyph glyph-name="uni041C" unicode="&#x41c;" horiz-adv-x="1718" 
d="M1604 1434v-1434h-365v844l-248 -639h-264l-248 639v-844h-366v1434h436l309 -791l311 791h435z" />
    <glyph glyph-name="uni041D" unicode="&#x41d;" horiz-adv-x="1320" 
d="M842 1434h364v-1434h-364v561h-363v-561h-366v1434h366v-521h363v521z" />
    <glyph glyph-name="uni041E" unicode="&#x41e;" horiz-adv-x="1617" 
d="M809 328q166 0 276.5 109.5t110.5 279.5t-110.5 279.5t-276.5 109.5t-276.5 -109.5t-110.5 -279.5t110.5 -279.5t276.5 -109.5zM809 -31q-315 0 -533.5 216t-218.5 531.5t218.5 531.5t533.5 216t533.5 -216t218.5 -531.5t-218.5 -531.5t-533.5 -216z" />
    <glyph glyph-name="uni041F" unicode="&#x41f;" horiz-adv-x="1310" 
d="M1198 1434v-1434h-367v1079h-352v-1079h-366v1434h1085z" />
    <glyph glyph-name="uni0420" unicode="&#x420;" horiz-adv-x="1212" 
d="M670 778q61 0 103 43t42 111t-42 110t-103 41h-191v-305h191zM670 1434q217 0 364 -142q148 -142 148 -360t-148 -360t-364 -142h-191v-430h-366v1434h557z" />
    <glyph glyph-name="uni0421" unicode="&#x421;" horiz-adv-x="1538" 
d="M805 -31q-324 0 -536 214t-212 533.5t212 533.5t536 214q266 0 467 -163.5t239 -417.5h-378q-29 102 -119 162.5t-209 60.5q-172 0 -277.5 -107.5t-105.5 -281.5t105.5 -281.5t277.5 -107.5q119 0 210 60.5t118 162.5h380q-39 -254 -239.5 -418t-468.5 -164z" />
    <glyph glyph-name="uni0422" unicode="&#x422;" horiz-adv-x="1024" 
d="M1008 1434v-355h-314v-1079h-364v1079h-314v355h992z" />
    <glyph glyph-name="uni0423" unicode="&#x423;" horiz-adv-x="1288" 
d="M901 1434h375l-414 -994q-98 -233 -257 -341.5t-392 -98.5v342q197 -16 287 104l-469 988h377l264 -588z" />
    <glyph glyph-name="uni0424" unicode="&#x424;" horiz-adv-x="1705" 
d="M1300 717q0 111 -65 174q-66 63 -205 84v-512q270 41 270 254zM408 717q0 -213 270 -254v512q-138 -19 -204 -83t-66 -175zM1665 717q0 -243 -168 -397t-467 -191v-170h-352v170q-299 37 -468 192t-169 397t169 396t468 191v170h352v-170q299 -37 467 -191t168 -397z" />
    <glyph glyph-name="uni0425" unicode="&#x425;" horiz-adv-x="1273" 
d="M1262 0h-410l-215 373l-215 -373h-412l422 731l-405 703h411l199 -347l199 347h411l-405 -703z" />
    <glyph glyph-name="uni0426" unicode="&#x426;" horiz-adv-x="1417" 
d="M1217 354h163v-649h-366v295h-901v1434h376v-1080h353v1080h375v-1080z" />
    <glyph glyph-name="uni0427" unicode="&#x427;" horiz-adv-x="1288" 
d="M809 1434h367v-1434h-367v463q-98 -27 -207 -27q-231 0 -373 129q-141 129 -141 357v512h365v-473q0 -82 49 -127q49 -46 135 -46t172 25v621z" />
    <glyph glyph-name="uni0428" unicode="&#x428;" horiz-adv-x="1861" 
d="M1382 1434h367v-1434h-1636v1434h366v-1080h269v1080h366v-1080h268v1080z" />
    <glyph glyph-name="uni0429" unicode="&#x429;" horiz-adv-x="1949" 
d="M1749 354h164v-649h-367v295h-1433v1434h366v-1080h269v1080h366v-1080h268v1080h367v-1080z" />
    <glyph glyph-name="uni042A" unicode="&#x42a;" horiz-adv-x="1427" 
d="M694 348h191q61 0 103 43t42 111t-42 110t-103 41h-191v-305zM328 0v1079h-328v355h694v-430h191q215 0 363 -142t148 -361q0 -217 -146 -359q-148 -142 -365 -142h-557z" />
    <glyph glyph-name="uni042B" unicode="&#x42b;" horiz-adv-x="1779" 
d="M479 348h191q61 0 103 43t42 111t-42 110t-103 41h-191v-305zM1300 0v1434h365v-1434h-365zM113 0v1434h366v-430h191q217 0 364 -142q148 -142 148 -361q0 -217 -148 -359t-364 -142h-557z" />
    <glyph glyph-name="uni042C" unicode="&#x42c;" horiz-adv-x="1212" 
d="M670 350q61 0 103 42t42 110t-42 110t-103 43h-191v-305h191zM670 1004q217 0 364 -142q148 -142 148 -360t-148 -360t-364 -142h-557v1434h366v-430h191z" />
    <glyph glyph-name="uni042D" unicode="&#x42d;" horiz-adv-x="1544" 
d="M745 1464q324 0 533 -214t209 -533t-209 -533t-533 -215q-274 0 -476 165t-234 417h381q25 -102 115 -166q91 -63 219 -63t217 60q90 60 131 167h-518v336h518q-41 107 -131 167t-216 60q-127 0 -219 -63t-116 -166h-379q33 253 235 417t473 164z" />
    <glyph glyph-name="uni042E" unicode="&#x42e;" horiz-adv-x="2187" 
d="M1378 328q166 0 277 110t110 279t-111 279t-276 110t-276 -109t-111 -279q1 -170 111 -280t276 -110zM1378 1464q316 0 534 -216t218 -530t-219 -532t-533 -217q-270 0 -471 166t-252 426h-176v-561h-366v1434h366v-521h185q62 247 258 399t456 152z" />
    <glyph glyph-name="uni042F" unicode="&#x42f;" horiz-adv-x="1306" 
d="M655 1096q-69 0 -117 -46t-48 -117t48 -116t117 -45h172v324h-172zM1192 1434v-1434h-365v463h-69l-348 -463h-428l411 518q-123 61 -195 172t-73 248q0 215 148 355t372 141h547z" />
    <glyph glyph-name="uni0430" unicode="&#x430;" horiz-adv-x="1050" 
d="M515 197q58 0 94 26.5t36 69.5t-36 67.5t-94 24.5t-90 -25.5t-32 -68.5t32 -68.5t90 -25.5zM538 1053q181 0 308 -105.5t127 -302.5v-645h-328v70q-94 -98 -247 -98.5t-250 82.5t-97 236.5t98.5 236.5t247.5 83t248 -69v94q0 115 -108 115q-53 0 -81 -25t-28 -63h-328
q0 184 128.5 287.5t309.5 103.5z" />
    <glyph glyph-name="uni0431" unicode="&#x431;" horiz-adv-x="1153" 
d="M594 264q84 0 138 52t54 131t-55 131t-137 53q-82 0 -140 -48t-58 -130q0 -81 56 -135q58 -54 142 -54zM1128 444q0 -202 -147 -338t-389 -137q-242 1 -392 149t-151 377q0 229 121 394q88 120 247 244q65 49 117 95q119 105 115 206h357q2 -98 -29 -176t-78 -126
q-95 -94 -238 -159t-196 -131q100 55 229 55q162 0 298 -125q136 -126 136 -328z" />
    <glyph glyph-name="uni0432" unicode="&#x432;" horiz-adv-x="1075" 
d="M637 260q86 0 86 72t-86 71h-213v-143h213zM424 772v-127h192q10 25 11 49q0 78 -82 78h-121zM1059 324q0 -140 -95 -232t-274 -92h-592v1024h516q148 0 238 -79t90 -195q0 -78 -55 -146q172 -84 172 -280z" />
    <glyph glyph-name="uni0433" unicode="&#x433;" horiz-adv-x="792" 
d="M793 1024v-326h-355v-698h-340v1024h695z" />
    <glyph glyph-name="uni0434" unicode="&#x434;" horiz-adv-x="1187" 
d="M692 307v414h-149v-51q0 -211 -66 -363h215zM1024 307h133v-573h-328v266h-491v-266h-328v573h113q88 131 88 363v354h813v-717z" />
    <glyph glyph-name="uni0435" unicode="&#x435;" horiz-adv-x="1163" 
d="M595.5 766q-153.5 0 -200.5 -141h391q-37 141 -190.5 141zM614 233q109 0 150 66h319q-49 -164 -178 -246t-305 -82q-248 0 -399.5 154t-151.5 386t153.5 387t386 155t379 -154t146.5 -385q0 -68 -14 -127h-703q53 -154 217 -154z" />
    <glyph glyph-name="uni0436" unicode="&#x436;" horiz-adv-x="1595" 
d="M967 0h-338v422l-244 -422h-375l320 512l-299 512h375l223 -416v416h338v-416l223 416h375l-299 -512l319 -512h-375l-243 422v-422z" />
    <glyph glyph-name="uni0437" unicode="&#x437;" horiz-adv-x="919" 
d="M899 334q0 -162 -113 -263q-114 -101 -328 -101t-326 100t-112 266h338q0 -82 102 -82t101 86q0 78 -100 78h-123v237h129q39 23 39 66q0 59 -67 59t-66 -63h-324q-1 158 103 247t288 89t287 -81q103 -82 103 -200t-68 -186q137 -90 137 -252z" />
    <glyph glyph-name="uni0438" unicode="&#x438;" horiz-adv-x="1126" 
d="M1028 1024v-1024h-332v475l-340 -475h-258v1024h332v-475l340 475h258z" />
    <glyph glyph-name="uni0439" unicode="&#x439;" horiz-adv-x="1126" 
d="M1028 1024v-1024h-332v475l-340 -475h-258v1024h332v-475l340 475h258zM231 1135v286h662v-286h-662z" />
    <glyph glyph-name="uni043A" unicode="&#x43a;" horiz-adv-x="1099" 
d="M438 0h-340v1024h340v-426l258 426h383l-327 -512l348 -512h-383l-279 432v-432z" />
    <glyph glyph-name="uni043B" unicode="&#x43b;" horiz-adv-x="1099" 
d="M1001 1024v-1024h-339v698h-154v-274q0 -240 -120 -348t-368 -92v315q148 -20 148 174v551h833z" />
    <glyph glyph-name="uni043C" unicode="&#x43c;" horiz-adv-x="1361" 
d="M1264 1024v-1024h-330v508l-176 -332h-156l-174 332v-508h-330v1024h348l234 -444l235 444h349z" />
    <glyph glyph-name="uni043D" unicode="&#x43d;" horiz-adv-x="1116" 
d="M678 1024h340v-1024h-340v352h-240v-352h-340v1024h340v-352h240v352z" />
    <glyph glyph-name="uni043E" unicode="&#x43e;" horiz-adv-x="1193" 
d="M597 299q89 0 147.5 59.5t58.5 153.5t-58.5 153.5t-147.5 59.5t-147.5 -59.5t-58.5 -153.5t58.5 -153.5t147.5 -59.5zM597 -29q-228 0 -388 157t-160 384t160 384t388 157t387 -157t159 -384t-159 -384t-387 -157z" />
    <glyph glyph-name="uni043F" unicode="&#x43f;" horiz-adv-x="1116" 
d="M1018 1024v-1024h-340v702h-240v-702h-340v1024h920z" />
    <glyph glyph-name="uni0440" unicode="&#x440;" horiz-adv-x="1259" 
d="M653 293q96 0 156 60q59 61 59 159t-59 158t-155 61q-96 0 -156 -60q-60 -61 -60 -159t60 -158t155 -61zM734 1053q192 0 334 -156t142 -385t-142 -385t-334 -156t-296 105v-486h-340v1434h340v-76q104 105 296 105z" />
    <glyph glyph-name="uni0441" unicode="&#x441;" horiz-adv-x="1144" 
d="M578 -29q-217 0 -373 156t-156 385t155.5 385t373 156t366 -123t174.5 -314h-354q-18 47 -64.5 76t-119 29t-131 -58.5t-58.5 -150.5t58.5 -150.5t131 -58.5t120 28.5t63.5 76.5h354q-27 -190 -175 -313.5t-365 -123.5z" />
    <glyph glyph-name="uni0442" unicode="&#x442;" horiz-adv-x="880" 
d="M864 1024v-322h-252v-702h-340v702h-256v322h848z" />
    <glyph glyph-name="uni0443" unicode="&#x443;" horiz-adv-x="1099" 
d="M143 -90q106 0 161.5 23.5t88.5 84.5l-395 1006h377l198 -588l152 588h375l-334 -993q-154 -463 -623 -441v320z" />
    <glyph glyph-name="uni0444" unicode="&#x444;" horiz-adv-x="1452" 
d="M1063 512q0 158 -172 205v-410q172 47 172 205zM387 512q0 -156 172 -205v410q-172 -49 -172 -205zM1401 511q0 -204 -132 -347t-378 -180v-394h-332v394q-246 37 -378 180t-132 347t132 347t378 180v396h332v-396q246 -37 378 -180t132 -347z" />
    <glyph glyph-name="uni0445" unicode="&#x445;" horiz-adv-x="1030" 
d="M1030 0h-360l-154 242l-156 -242h-360l336 522l-322 502h361l141 -219l139 219h361l-320 -502z" />
    <glyph glyph-name="uni0446" unicode="&#x446;" horiz-adv-x="1202" 
d="M997 322h174v-588h-327v266h-746v1024h340v-702h217v702h342v-702z" />
    <glyph glyph-name="uni0447" unicode="&#x447;" horiz-adv-x="1064" 
d="M625 1024h342v-1024h-342v291q-98 -31 -199 -31q-166 0 -270 95t-105 266v403h342v-344q0 -104 109 -105q63 0 123 27v422z" />
    <glyph glyph-name="uni0448" unicode="&#x448;" horiz-adv-x="1587" 
d="M1149 1024h340v-1024h-1391v1024h340v-702h189v702h336v-702h186v702z" />
    <glyph glyph-name="uni0449" unicode="&#x449;" horiz-adv-x="1642" 
d="M1458 322h152v-588h-326v266h-1186v1024h340v-702h172v702h336v-702h172v702h340v-702z" />
    <glyph glyph-name="uni044A" unicode="&#x44a;" horiz-adv-x="1193" 
d="M739 285q41 1 66 23t25 60t-26 60q-24 22 -65 23h-145v-166h145zM760 735q184 0 293 -99t109 -268t-108 -269q-108 -99 -294 -99h-508v705h-252v319h594v-289h166z" />
    <glyph glyph-name="uni044B" unicode="&#x44b;" horiz-adv-x="1529" 
d="M586 285q41 0 65.5 22.5t24.5 60.5t-24.5 60.5t-65.5 22.5h-148v-166h148zM1092 1024h340v-1024h-340v1024zM606 735q184 0 293 -99t109 -268t-107.5 -268.5t-294.5 -99.5h-508v1024h340v-289h168z" />
    <glyph glyph-name="uni044C" unicode="&#x44c;" horiz-adv-x="1038" 
d="M586 285q42 1 66 23t24 60t-25 60t-65 23h-148v-166h148zM606 735q184 0 293 -99t109 -268q0 -168 -108 -268t-294 -100h-508v1024h340v-289h168z" />
    <glyph glyph-name="uni044D" unicode="&#x44d;" horiz-adv-x="1138" 
d="M562 1053q218 0 374 -155q154 -155 154 -386t-155 -386t-373 -155t-366 123t-176 314h332q16 -62 70 -100t133 -38q129 0 188 103h-280v278h280q-59 102 -188 103q-80 0 -132 -39t-69 -99h-334q28 190 176 314t366 123z" />
    <glyph glyph-name="uni044E" unicode="&#x44e;" horiz-adv-x="1652" 
d="M1056 299q89 0 147 59q59 60 59 154t-58 154t-148 59q-90 0 -148 -59q-58 -60 -58 -154t58 -154q59 -59 148 -59zM1057 1053q227 0 387 -157t160 -384t-160 -384t-387 -157q-183 -1 -323 105t-187 276h-109v-352h-340v1024h340v-352h109q47 170 187 276t323 105z" />
    <glyph glyph-name="uni044F" unicode="&#x44f;" horiz-adv-x="1095" 
d="M514 737q-43 1 -69 -23t-25 -67q0 -86 94 -86h148v176h-148zM997 1024v-1024h-335v291h-60l-215 -291h-387l264 346q-84 49 -130 131t-46 176q0 159 104 265t285 106h520z" />
    <glyph glyph-name="uni0451" unicode="&#x451;" horiz-adv-x="1163" 
d="M595.5 766q-153.5 0 -200.5 -141h391q-37 141 -190.5 141zM614 233q109 0 150 66h319q-49 -164 -178 -246t-305 -82q-248 0 -399.5 154t-151.5 386t153.5 387t386 155t379 -154t146.5 -385q0 -68 -14 -127h-703q53 -154 217 -154zM936 1427v-286h-287v286h287zM547 1427
v-286h-285v286h285z" />
    <glyph glyph-name="uni0452" unicode="&#x452;" horiz-adv-x="1095" 
d="M700 1028q156 0 247 -106t91 -295v-627q0 -242 -118 -348t-371 -92v315q78 -4 114 26t35 99v590q0 57 -30 88q-31 31 -84 31q-125 0 -125 -144v-565h-340v1104h-119v217h119v113h340v-113h276v-217h-276v-191q85 115 241 115z" />
    <glyph glyph-name="uni0453" unicode="&#x453;" horiz-adv-x="792" 
d="M793 1024v-326h-355v-698h-340v1024h695zM780 1434l-237 -297h-324l164 297h397z" />
    <glyph glyph-name="uni0454" unicode="&#x454;" horiz-adv-x="1138" 
d="M584 270q80 0 133 38t69 100h332q-27 -190 -175 -314q-149 -124 -367 -123q-218 0 -372 156t-155 385q0 229 155 385t373 156t366 -123t175 -314h-334q-16 58 -68 98t-132 40q-129 0 -189 -103h281v-278h-281q60 -103 189 -103z" />
    <glyph glyph-name="uni0455" unicode="&#x455;" horiz-adv-x="989" 
d="M403 719q0 -39 54.5 -58.5t132.5 -34t155.5 -40t132 -96t54.5 -183.5q0 -170 -124 -253t-312.5 -83t-313.5 89.5t-125 275.5h336q-1 -92 99 -92t100 61q0 37 -54.5 56.5t-132 35t-154.5 42t-131 97t-54 181.5q0 166 124 251q126 85 302 85t297.5 -93.5t121.5 -271.5h-331
q0 92 -86 92q-91 0 -91 -61z" />
    <glyph glyph-name="uni0456" unicode="&#x456;" horiz-adv-x="536" 
d="M98 0v1024h340v-1024h-340zM98 1137v297h340v-297h-340z" />
    <glyph glyph-name="uni0457" unicode="&#x457;" horiz-adv-x="536" 
d="M98 0v1024h340v-1024h-340zM317 1126v287h287v-287h-287zM-70 1126v287h285v-287h-285z" />
    <glyph glyph-name="uni0458" unicode="&#x458;" horiz-adv-x="567" 
d="M129 0v1024h340v-1024q0 -242 -119 -348t-370 -92v315q78 -5 114 25t35 100zM129 1434h340v-297h-340v297z" />
    <glyph glyph-name="uni0459" unicode="&#x459;" horiz-adv-x="1550" 
d="M1116 285q31 0 51 19q21 19 21 53q0 33 -20 53t-52 20h-131v-145h131zM1139 715q165 -1 273 -97t108 -260t-109 -261t-272 -97h-494v698h-137v-274q0 -240 -120 -348t-368 -92v315q148 -20 148 174v551h817v-309h154z" />
    <glyph glyph-name="uni045A" unicode="&#x45a;" horiz-adv-x="1552" 
d="M1118 285q29 0 49 19q21 19 21 53q0 33 -20 53t-50 20h-131v-145h131zM1139 715q168 -1 274 -97q107 -96 107 -261t-108 -261t-273 -96h-492v403h-229v-403h-340v1024h340v-309h229v309h340v-309h152z" />
    <glyph glyph-name="uni045B" unicode="&#x45b;" horiz-adv-x="1118" 
d="M700 1028q156 0 247 -106t91 -295v-627h-340v590q0 57 -30 88q-31 31 -84 31q-125 0 -125 -144v-565h-340v1104h-119v217h119v113h340v-113h276v-217h-276v-191q85 115 241 115z" />
    <glyph glyph-name="uni045C" unicode="&#x45c;" horiz-adv-x="1099" 
d="M438 0h-340v1024h340v-426l258 426h383l-327 -512l348 -512h-383l-279 432v-432zM911 1434l-237 -297h-324l164 297h397z" />
    <glyph glyph-name="uni045E" unicode="&#x45e;" horiz-adv-x="1099" 
d="M143 -90q106 0 161.5 23.5t88.5 84.5l-395 1006h377l198 -588l152 588h375l-334 -993q-154 -463 -623 -441v320zM887 1421v-286h-662v286h662z" />
    <glyph glyph-name="uni045F" unicode="&#x45f;" horiz-adv-x="1116" 
d="M678 1024h340v-1024h-295v-266h-328v266h-297v1024h340v-702h240v702z" />
    <glyph glyph-name="uni0490" unicode="&#x490;" horiz-adv-x="972" 
d="M596 1679h365v-600h-482v-1079h-366v1434h483v245z" />
    <glyph glyph-name="uni0491" unicode="&#x491;" horiz-adv-x="792" 
d="M467 1233h326v-535h-355v-698h-340v1024h369v209z" />
    <glyph glyph-name="Wgrave" unicode="&#x1e80;" horiz-adv-x="1843" 
d="M1470 1434h383l-401 -1434h-367l-163 596l-164 -596h-367l-401 1434h383l229 -916l170 623l-82 293h342l219 -889zM1106 1546h-324l-237 297h397z" />
    <glyph glyph-name="wgrave" unicode="&#x1e81;" horiz-adv-x="1515" 
d="M1192 0h-315l-119 385l-119 -385h-315l-314 1024h363l147 -590l111 367l-68 223h271l167 -561l142 561h362zM940 1137h-324l-237 297h397z" />
    <glyph glyph-name="Wacute" unicode="&#x1e82;" horiz-adv-x="1843" 
d="M1470 1434h383l-401 -1434h-367l-163 596l-164 -596h-367l-401 1434h383l229 -916l170 623l-82 293h342l219 -889zM1298 1843l-237 -297h-324l164 297h397z" />
    <glyph glyph-name="wacute" unicode="&#x1e83;" horiz-adv-x="1515" 
d="M1192 0h-315l-119 385l-119 -385h-315l-314 1024h363l147 -590l111 367l-68 223h271l167 -561l142 561h362zM1133 1434l-238 -297h-324l164 297h398z" />
    <glyph glyph-name="Wdieresis" unicode="&#x1e84;" horiz-adv-x="1843" 
d="M1470 1434h383l-401 -1434h-367l-163 596l-164 -596h-367l-401 1434h383l229 -916l170 623l-82 293h342l219 -889zM1260 1823v-287h-287v287h287zM870 1823v-287h-284v287h284z" />
    <glyph glyph-name="wdieresis" unicode="&#x1e85;" horiz-adv-x="1515" 
d="M1192 0h-315l-119 385l-119 -385h-315l-314 1024h363l147 -590l111 367l-68 223h271l167 -561l142 561h362zM1094 1413v-287h-287v287h287zM705 1413v-287h-285v287h285z" />
    <glyph glyph-name="Ygrave" unicode="&#x1ef2;" horiz-adv-x="1292" 
d="M829 0h-366v625l-463 809h412l233 -461l236 461h411l-463 -809v-625zM829 1546h-323l-238 297h398z" />
    <glyph glyph-name="ygrave" unicode="&#x1ef3;" horiz-adv-x="1075" 
d="M721 1024h362l-483 -1434h-360l141 420l-391 1014h362l199 -569zM727 1137h-324l-237 297h397z" />
    <glyph glyph-name="endash" unicode="&#x2013;" horiz-adv-x="1310" 
d="M113 455v323h1085v-323h-1085z" />
    <glyph glyph-name="emdash" unicode="&#x2014;" horiz-adv-x="1515" 
d="M113 455v323h1290v-323h-1290z" />
    <glyph glyph-name="quoteleft" unicode="&#x2018;" horiz-adv-x="591" 
d="M479 1309q-96 0 -138 -44t-42 -137h180v-366h-366v366q0 146 96 232t270 86v-137z" />
    <glyph glyph-name="quoteright" unicode="&#x2019;" horiz-adv-x="591" 
d="M113 1434h366v-367q0 -145 -96 -231t-270 -86v139q96 0 138 43t42 135h-180v367z" />
    <glyph glyph-name="quotesinglbase" unicode="&#x201a;" horiz-adv-x="591" 
d="M113 367h366v-367q0 -147 -96 -233t-270 -86v139q96 0 138 44t42 136h-180v367z" />
    <glyph glyph-name="quotedblleft" unicode="&#x201c;" horiz-adv-x="1050" 
d="M936 1309q-96 0 -138 -44t-42 -137h180v-366h-365v366q-1 146 95 232t270 86v-137zM115 1128q0 148 95 234t269 86v-139q-96 0 -138 -44t-42 -137h180v-366h-364v366z" />
    <glyph glyph-name="quotedblright" unicode="&#x201d;" horiz-adv-x="1050" 
d="M571 1434h365v-367q0 -147 -95 -233t-270 -86v139q96 0 139 44q42 44 42 136h-181v367zM113 1067v367h366v-367q0 -145 -96 -231t-270 -86v139q96 0 138 43t42 135h-180z" />
    <glyph glyph-name="quotedblbase" unicode="&#x201e;" horiz-adv-x="1050" 
d="M113 0v367h366v-367q0 -147 -96 -233t-270 -86v139q96 0 138 44t42 136h-180zM571 367h365v-367q0 -147 -95 -233t-270 -86v139q96 0 139 44q42 44 42 136h-181v367z" />
    <glyph glyph-name="dagger" unicode="&#x2020;" horiz-adv-x="964" 
d="M891 1192v-324h-238v-868h-342v868h-239v324h239v242h342v-242h238z" />
    <glyph glyph-name="daggerdbl" unicode="&#x2021;" horiz-adv-x="964" 
d="M891 868h-238v-303h238v-323h-238v-242h-342v242h-239v323h239v303h-239v324h239v242h342v-242h238v-324z" />
    <glyph glyph-name="bullet" unicode="&#x2022;" horiz-adv-x="817" 
d="M743 719q0 -139 -97 -239t-236 -99q-139 0 -239 99q-99 98 -99 238t99 237t239 97t236 -96q97 -98 97 -237z" />
    <glyph glyph-name="ellipsis" unicode="&#x2026;" horiz-adv-x="1613" 
d="M113 0v367h366v-367h-366zM1135 0v367h366v-367h-366zM625 0v367h364v-367h-364z" />
    <glyph glyph-name="perthousand" unicode="&#x2030;" horiz-adv-x="2576" 
d="M2140 240q41 0 69 30q27 30 27 70q0 41 -26 69q-27 27 -69 27q-43 0 -69 -28t-26 -70t26 -70t68 -28zM1319 240q41 0 69 30t28 70q0 41 -27 69q-27 27 -69 27t-69 -28t-27 -70q0 -41 27 -70q27 -28 68 -28zM2140 -29q-160 1 -268 107t-107 261q0 155 108 261
q109 106 269 106t266 -107t106 -261t-106 -260q-108 -106 -268 -107zM1694 338q0 -154 -108 -260t-267 -107q-159 1 -267 107t-108 261t108 261t268 106t266 -107q108 -107 108 -261zM543 1098q0 42 -27 70t-69 28q-43 0 -69 -29t-26 -69t26 -70q26 -29 69 -29q42 0 69 29
t27 70zM215 0l1034 1434h301l-1036 -1434h-299zM448 1464q158 0 266 -106t108 -261t-108 -261q-107 -106 -266 -107q-159 0 -268 108q-108 107 -108 261t108 260q109 106 268 106z" />
    <glyph glyph-name="guilsinglleft" unicode="&#x2039;" horiz-adv-x="745" 
d="M633 1032l-230 -399l230 -400h-289l-231 400l231 399h289z" />
    <glyph glyph-name="guilsinglright" unicode="&#x203a;" horiz-adv-x="745" 
d="M403 1032l230 -399l-230 -400h-290l231 400l-231 399h290z" />
    <glyph glyph-name="fraction" unicode="&#x2044;" horiz-adv-x="368" 
d="M-113 0h-233l827 1434h234z" />
    <glyph glyph-name="Euro" unicode="&#x20ac;" horiz-adv-x="1343" 
d="M751 -31q-239 -1 -389 145t-192 398h-139v172h125q-2 10 -2 35t2 37h-125v172h141q45 250 195 393q151 143 385 143t380 -148t173 -405h-369q-8 97 -57 147t-131 50q-156 0 -205 -180h325v-172h-348v-72h348v-172h-325q47 -186 205 -186q178 0 190 213h371
q-23 -262 -171 -416t-387 -154z" />
    <glyph glyph-name="uni20BD" unicode="&#x20bd;" horiz-adv-x="1249" 
d="M520 1085v-286h191q63 0 104 39q41 38 41 104t-41 105t-104 38h-191zM711 473h-191v-82h420v-203h-420v-188h-366v188h-134v203h134v82h-134v326h134v635h557q217 0 364 -136t147 -352q0 -217 -144 -345t-367 -128z" />
    <glyph glyph-name="uni2116" unicode="&#x2116;" horiz-adv-x="2091" 
d="M1341 340v326h672v-326h-672zM1675 1014q41 0 66 26t24 66q0 41 -25 68q-26 26 -66 26t-66 -26t-25 -68q-1 -40 25 -66t67 -26zM862 1434h365v-1434h-283l-465 741v-741h-366v1434h284l465 -742v742zM1676 750q-157 0 -261 104t-104 254t104 253t260 103t259 -104
q104 -104 104 -254t-102 -253t-260 -103z" />
    <glyph glyph-name="trademark" unicode="&#x2122;" horiz-adv-x="964" 
d="M903 1434v-410h-147v182l-62 -108h-53l-61 110v-184h-144v410h150l84 -164l82 164h151zM399 1434v-142h-94v-268h-149v268h-95v142h338z" />
    <glyph glyph-name="estimated" unicode="&#x212e;" horiz-adv-x="1597" 
d="M1249 1171q0 23 -14 39q-172 182 -436 182t-437 -182q-14 -16 -14 -39v-393q0 -31 31 -30h840q31 0 30 30v393zM799 1454q334 0 546 -213t211 -524q0 -31 -30 -31h-1147q-31 0 -31 -31v-393q0 -23 14 -39q172 -182 474 -182t477 199q14 18 37 18h75q21 0 27 -12t-8 -27
q-224 -239 -594 -239t-590 211q-219 213 -219 525t212 525t546 213z" />
    <glyph glyph-name="oneeighth" unicode="&#x215b;" horiz-adv-x="1650" 
d="M1370 260q0 66 -78 67t-78 -68t78 -69q38 0 58 20t20 50zM1292 518q68 0 68 56t-69 57q-69 0 -68 -58q1 -55 69 -55zM1618 233q0 -125 -86 -193t-240 -69q-154 0 -240 69q-86 70 -87 194q0 124 118 194q-90 68 -90 176t85 176t214 68t213 -68t84 -177t-88 -175
q117 -70 117 -195zM1047 1434h233l-827 -1434h-234zM219 614v551l-199 -104v264l199 109h268v-820h-268z" />
    <glyph glyph-name="threeeighths" unicode="&#x215c;" horiz-adv-x="1771" 
d="M1413 190q37 0 57 20t21 50q0 66 -78 67t-78 -68t78 -69zM1412 631q-69 -1 -69 -57t69 -56t69 56t-69 57zM1739 233q0 -125 -86 -193t-240 -69q-154 0 -241 69q-87 70 -87 194t119 194q-90 68 -90 176t85 176t214 68t213 -68t84 -177t-88 -175q117 -70 117 -195z
M1167 1434h234l-828 -1434h-233zM655 870q0 -137 -87 -211q-87 -73 -232 -73t-233 73q-87 74 -87 211h258q0 -53 60 -53t61 52q0 52 -59 53h-152v145l103 129h-238v238h561v-179l-123 -155q168 -62 168 -230z" />
    <glyph glyph-name="fiveeighths" unicode="&#x215d;" horiz-adv-x="1761" 
d="M1405 190q37 0 57 20t21 50q0 66 -78 67t-78 -68t78 -69zM1404 631q-69 -1 -69 -57t69 -56t69 56t-69 57zM1731 233q0 -125 -86 -193t-240 -69q-154 0 -241 69q-87 70 -87 194t119 194q-90 68 -90 176t85 176t214 68t213 -68t84 -177t-88 -175q117 -70 117 -195z
M1159 1434h234l-828 -1434h-233zM346 1128q135 0 215 -66t80 -203q0 -136 -86 -205q-86 -68 -220 -68t-221 70t-87 206h245q0 -53 62 -53t61 55q0 55 -59 56h-289l35 514h522v-238h-291l-6 -68h39z" />
    <glyph glyph-name="seveneighths" unicode="&#x215e;" horiz-adv-x="1701" 
d="M1423 260q1 66 -77 67t-78 -68t78 -69q37 0 57 20t20 50zM1345 631q-69 -1 -69 -57t69 -56t68 55q1 58 -68 58zM1671 233q0 -125 -86 -193q-85 -68 -239 -69q-154 0 -241 69q-87 70 -87 194t119 194q-90 68 -90 176t85 176t214 68t213 -68q83 -68 83 -177t-88 -175
q117 -70 117 -195zM1100 1434h233l-827 -1434h-234zM0 1196v238h592v-203l-232 -617h-276l219 582h-303z" />
    <glyph glyph-name="arrowleft" unicode="&#x2190;" horiz-adv-x="1607" 
d="M1536 879v-324h-858l452 -453h-444l-614 615l614 614h444l-452 -452h858z" />
    <glyph glyph-name="arrowup" unicode="&#x2191;" horiz-adv-x="1374" 
d="M858 0h-342v819l-444 -444v444l614 615l614 -615v-444l-442 444v-819z" />
    <glyph glyph-name="arrowright" unicode="&#x2192;" horiz-adv-x="1607" 
d="M72 555v324h858l-453 452h445l614 -614l-614 -615h-445l453 453h-858z" />
    <glyph glyph-name="arrowdown" unicode="&#x2193;" horiz-adv-x="1374" 
d="M516 1434h342v-820l442 445v-445l-614 -614l-614 614v445l444 -445v820z" />
    <glyph glyph-name="arrowboth" unicode="&#x2194;" horiz-adv-x="2328" 
d="M1673 1300l584 -583l-584 -584h-438l416 422h-977l422 -422h-441l-583 584l583 583h441l-422 -421h981l-420 421h438z" />
    <glyph glyph-name="arrowupdn" unicode="&#x2195;" horiz-adv-x="1310" 
d="M1239 776l-414 414v-946l414 413v-440l-584 -584l-583 584v440l413 -413v946l-413 -414v441l583 583l584 -583v-441z" />
    <glyph glyph-name="uni2196" unicode="&#x2196;" horiz-adv-x="1335" 
d="M72 1284h868l313 -313h-632l643 -643l-236 -236l-643 641v-631l-313 314v868z" />
    <glyph glyph-name="uni2197" unicode="&#x2197;" horiz-adv-x="1335" 
d="M1264 1284v-868l-314 -314v631l-643 -641l-235 236l643 643h-633l313 313h869z" />
    <glyph glyph-name="uni2198" unicode="&#x2198;" horiz-adv-x="1335" 
d="M1264 133h-869l-313 313h633l-643 641l235 236l643 -641v633l314 -314v-868z" />
    <glyph glyph-name="uni2199" unicode="&#x2199;" horiz-adv-x="1335" 
d="M72 133v868l313 314v-633l643 641l236 -236l-643 -641h632l-313 -313h-868z" />
    <glyph glyph-name="partialdiff" unicode="&#x2202;" horiz-adv-x="1196" 
d="M541 285q174 0 217 262q-82 49 -170 49t-136 -46t-48 -118t38 -109q40 -38 99 -38zM492 1464q256 0 439 -208t183 -554t-165 -540q-165 -193 -429 -193q-211 0 -334 126t-123 326t127 335t340 135q121 0 228 -53q-47 301 -309 307q-119 2 -236 -64v310q115 73 279 73z
" />
    <glyph glyph-name="emptyset" unicode="&#x2205;" horiz-adv-x="1646" 
d="M823 205q211 0 360 149q148 150 148 352t-121 345l-608 -797q108 -49 221 -49zM823 1229q-211 1 -359 -149t-149 -352q0 -202 121 -345l608 797q-109 49 -221 49zM1565 714q0 -304 -217 -521t-525 -218q-190 0 -362 95l-84 -111h-264l182 238q-213 219 -213 523t217 521
t524 217q190 0 363 -94l84 111h264l-182 -238q213 -219 213 -523z" />
    <glyph glyph-name="product" unicode="&#x220f;" horiz-adv-x="1292" 
d="M113 -410v1844h1065v-1844h-340v1518h-383v-1518h-342z" />
    <glyph glyph-name="summation" unicode="&#x2211;" horiz-adv-x="1148" 
d="M51 -410v285l402 657l-371 615v287h962v-334h-544l340 -568l-369 -608h604v-334h-1024z" />
    <glyph glyph-name="minus" unicode="&#x2212;" horiz-adv-x="1146" 
d="M84 555v324h979v-324h-979z" />
    <glyph glyph-name="radical" unicode="&#x221a;" horiz-adv-x="1419" 
d="M63 367v323h418l172 -299l418 1247h348l-573 -1638h-328l-231 367h-224z" />
    <glyph glyph-name="infinity" unicode="&#x221e;" horiz-adv-x="1677" 
d="M1163 635q37 1 62 23t24 59t-25 59t-61 23q-72 0 -141 -82q69 -82 141 -82zM516 635q72 0 141 82q-70 82 -141 82q-36 0 -62 -23q-26 -24 -26 -60t26 -58t62 -23zM1190 1110q178 0 292 -110t114 -284t-114 -283t-292 -109t-350 176q-176 -176 -354 -176t-290 110
t-112 283t113 283t289 110t354 -176q172 176 350 176z" />
    <glyph glyph-name="integral" unicode="&#x222b;" horiz-adv-x="944" 
d="M0 -418v336q59 -33 125 -4t80 111l182 1067q39 229 192 312t365 34v-336q-59 33 -126 4t-79 -111l-182 -1067q-39 -229 -191 -312t-366 -34z" />
    <glyph glyph-name="approxequal" unicode="&#x2248;" horiz-adv-x="1163" 
d="M328 268l-256 119q43 217 180 291t312 -4t275 -50q40 11 91 44l162 -80q-50 -223 -184 -294t-314 11q-131 61 -186 56t-80 -93zM327 807q-38 -12 -91 -43l-164 78q51 223 184 294t313 -12q131 -61 187 -56q55 5 80 93l256 -119q-42 -216 -180 -290t-316 5
q-178 80 -269 50z" />
    <glyph glyph-name="notequal" unicode="&#x2260;" horiz-adv-x="1046" 
d="M973 778h-336l-53 -123h389v-325h-535l-100 -228h-174l100 228h-192v325h336l55 123h-391v326h534l101 227h176l-101 -227h191v-326z" />
    <glyph glyph-name="lessequal" unicode="&#x2264;" horiz-adv-x="1067" 
d="M72 43v326h921v-326h-921zM993 1401v-354l-573 -142l573 -141v-354l-921 323v344z" />
    <glyph glyph-name="greaterequal" unicode="&#x2265;" horiz-adv-x="1067" 
d="M72 43v326h921v-326h-921zM72 1401l921 -324v-344l-921 -323v354l573 141l-573 142v354z" />
    <glyph glyph-name="lozenge" unicode="&#x25ca;" horiz-adv-x="1204" 
d="M602 424l156 293l-156 293l-156 -293zM453 0l-381 717l381 717h299l381 -717l-381 -717h-299z" />
    <glyph glyph-name="i.loclTRK" horiz-adv-x="536" 
d="M98 0v1024h340v-1024h-340zM104 1122v316h326v-316h-326z" />
    <glyph glyph-name="a.ss01" horiz-adv-x="1259" 
d="M606 293q96 0 155.5 60.5t59.5 158.5t-59.5 158.5t-155.5 60.5t-155.5 -60.5t-59.5 -158.5t59.5 -158.5t155.5 -60.5zM821 1024h340v-1024h-340v76q-103 -104 -295 -104t-334.5 155.5t-142.5 384.5t142.5 385t334.5 156t295 -105v76z" />
    <glyph glyph-name="aacute.ss01" horiz-adv-x="1259" 
d="M606 293q96 0 155.5 60.5t59.5 158.5t-59.5 158.5t-155.5 60.5t-155.5 -60.5t-59.5 -158.5t59.5 -158.5t155.5 -60.5zM821 1024h340v-1024h-340v76q-103 -104 -295 -104t-334.5 155.5t-142.5 384.5t142.5 385t334.5 156t295 -105v76zM1024 1434l-238 -297h-323l164 297
h397z" />
    <glyph glyph-name="abreve.ss01" horiz-adv-x="1259" 
d="M606 293q96 0 155.5 60.5t59.5 158.5t-59.5 158.5t-155.5 60.5t-155.5 -60.5t-59.5 -158.5t59.5 -158.5t155.5 -60.5zM821 1024h340v-1024h-340v76q-104 -104 -295.5 -104.5t-334 155.5t-142.5 385t142.5 385t334 156t295.5 -105v76zM648 1100q-177 0 -272 84t-95 243
h286q0 -90 81 -90t81 90h287q0 -160 -95.5 -243.5t-272.5 -83.5z" />
    <glyph glyph-name="acircumflex.ss01" horiz-adv-x="1259" 
d="M606 293q96 0 155.5 60.5t59.5 158.5t-59.5 158.5t-155.5 60.5t-155.5 -60.5t-59.5 -158.5t59.5 -158.5t155.5 -60.5zM821 1024h340v-1024h-340v76q-104 -104 -295.5 -104.5t-334 155.5t-142.5 385t142.5 385t334 156t295.5 -105v76zM467 1434h342l217 -318h-307l-80 115
l-82 -115h-307z" />
    <glyph glyph-name="adieresis.ss01" horiz-adv-x="1259" 
d="M606 293q96 0 155.5 60.5t59.5 158.5t-59.5 158.5t-155.5 60.5t-155.5 -60.5t-59.5 -158.5t59.5 -158.5t155.5 -60.5zM821 1024h340v-1024h-340v76q-103 -104 -295 -104t-334.5 155.5t-142.5 384.5t142.5 385t334.5 156t295 -105v76zM985 1413v-287h-287v287h287z
M596 1413v-287h-285v287h285z" />
    <glyph glyph-name="agrave.ss01" horiz-adv-x="1259" 
d="M606 293q96 0 155.5 60.5t59.5 158.5t-59.5 158.5t-155.5 60.5t-155.5 -60.5t-59.5 -158.5t59.5 -158.5t155.5 -60.5zM821 1024h340v-1024h-340v76q-103 -104 -295 -104t-334.5 155.5t-142.5 384.5t142.5 385t334.5 156t295 -105v76zM831 1137h-323l-238 297h398z" />
    <glyph glyph-name="amacron.ss01" horiz-adv-x="1259" 
d="M606 293q96 0 155.5 60.5t59.5 158.5t-59.5 158.5t-155.5 60.5t-155.5 -60.5t-59.5 -158.5t59.5 -158.5t155.5 -60.5zM821 1024h340v-1024h-340v76q-103 -104 -295 -104t-334.5 155.5t-142.5 384.5t142.5 385t334.5 156t295 -105v76zM963 1401v-266h-633v266h633z" />
    <glyph glyph-name="aogonek.ss01" horiz-adv-x="1259" 
d="M606 293q96 0 155.5 60.5t59.5 158.5t-59.5 158.5t-155.5 60.5t-155.5 -60.5t-59.5 -158.5t59.5 -158.5t155.5 -60.5zM1073 -152.5q0 -54.5 45 -54.5q10 -2 43 6v-202q-86 -35 -180 -35t-154.5 47t-60.5 139q0 119 127 252h-72v76q-104 -104 -295.5 -104.5t-334 155.5
t-142.5 385t142.5 385t334 156t295.5 -105v76h340v-1024q-88 -98 -88 -152.5z" />
    <glyph glyph-name="aring.ss01" horiz-adv-x="1259" 
d="M606 293q96 0 155.5 60.5t59.5 158.5t-59.5 158.5t-155.5 60.5t-155.5 -60.5t-59.5 -158.5t59.5 -158.5t155.5 -60.5zM821 1024h340v-1024h-340v76q-104 -104 -295.5 -104.5t-334 155.5t-142.5 385t142.5 385t334 156t295.5 -105v76zM647 1427q-31 0 -49 -18t-18 -47
t18 -47.5t49 -18.5q70 0 70 65.5t-70 65.5zM649 1092q-127 0 -208 76.5t-81 193.5t81 193.5t208 76.5t207 -76.5t80 -194.5t-80 -193.5t-207 -75.5z" />
    <glyph glyph-name="atilde.ss01" horiz-adv-x="1259" 
d="M606 293q96 0 155.5 60.5t59.5 158.5t-59.5 158.5t-155.5 60.5t-155.5 -60.5t-59.5 -158.5t59.5 -158.5t155.5 -60.5zM821 1024h340v-1024h-340v76q-104 -104 -295.5 -104.5t-334 155.5t-142.5 385t142.5 385t334 156t295.5 -105v76zM526 1122h-245q0 284 176 329
q96 25 213 -36q49 -33 74.5 -28.5t25.5 67.5h246q0 -288 -176 -330q-97 -24 -215 39q-49 33 -74 28t-25 -69z" />
    <glyph glyph-name="ae.ss01" horiz-adv-x="1935" 
d="M606 293q96 0 156 60q59 61 59 159t-59 158q-60 60 -156 61q-96 0 -155 -60q-59 -61 -59 -159t58 -158q60 -60 156 -61zM1367 766q-155 0 -198 -141h392q-39 141 -194 141zM1386 233q50 1 92 19t60 47h317q-98 -328 -417 -328q-188 0 -308 123v-94h-309v84
q-103 -113 -295 -113t-335 156q-142 156 -142 385t142 385t335 156t295 -113v84h309v-90q120 119 312 119t319 -153t127 -386q0 -68 -14 -127h-703q51 -154 215 -154z" />
    <glyph glyph-name="y.ss01" 
d="M659 1024h340v-1057q0 -203 -128 -305t-314 -102t-314 96t-128 274h325q0 -82 110 -82t109 119v137q-86 -114 -241 -114t-246.5 106.5t-91.5 294.5v633h340v-594q0 -119 112 -119q127 0 127 144v569z" />
    <glyph glyph-name="yacute.ss01" 
d="M659 1024h340v-1057q0 -203 -128 -305t-314 -102t-314 96t-128 274h325q0 -82 110 -82t109 119v137q-86 -114 -241 -114t-246.5 106.5t-91.5 294.5v633h340v-594q0 -119 112 -119q127 0 127 144v569zM918 1434l-238 -297h-324l164 297h398z" />
    <glyph glyph-name="ycircumflex.ss01" 
d="M659 1024h340v-1057q0 -203 -128 -305t-314 -102t-314 96t-128 274h325q0 -82 110 -82t109 119v137q-86 -115 -241 -114.5t-246.5 107t-91.5 294.5v633h340v-594q0 -119 112 -119q127 0 127 144v569zM360 1434h342l218 -318h-308l-80 115l-81 -115h-308z" />
    <glyph glyph-name="ydieresis.ss01" 
d="M659 1024h340v-1057q0 -203 -128 -305t-314 -102t-314 96t-128 274h325q0 -82 110 -82t109 119v137q-86 -114 -241 -114t-246.5 106.5t-91.5 294.5v633h340v-594q0 -119 112 -119q127 0 127 144v569zM879 1413v-287h-287v287h287zM489 1413v-287h-284v287h284z" />
    <glyph glyph-name="ygrave.ss01" 
d="M659 1024h340v-1057q0 -203 -128 -305t-314 -102t-314 96t-128 274h325q0 -82 110 -82t109 119v137q-86 -114 -241 -114t-246.5 106.5t-91.5 294.5v633h340v-594q0 -119 112 -119q127 0 127 144v569zM725 1137h-324l-237 297h397z" />
    <glyph glyph-name="f_f_j" horiz-adv-x="1718" 
d="M1620 1024v-1024q0 -242 -119 -348t-371 -92v315q78 -4 114 26t36 99v698h-233v-698h-340v698h-238v-698h-340v698h-129v326h129q0 221 130 338t386 102v-315q-176 12 -176 -125h238v20q0 440 516 441q133 0 266 -31v-297q-308 42 -394 -10q-48 -29 -48 -103v-20h573z
" />
    <glyph glyph-name="f_j" horiz-adv-x="1140" 
d="M1042 1024v-1024q0 -242 -118 -348t-371 -92v315q78 -4 114 26t35 99v698h-233v-698h-340v698h-129v326h129q0 440 516 440q133 0 264 -30v-297q-129 18 -237 18t-155 -29q-48 -29 -48 -102h573z" />
    <glyph glyph-name="uni0414.loclBGR" horiz-adv-x="1515" 
d="M565 346h385l-192 678zM1495 346v-641h-367v295h-741v-295h-367v641h166l353 1088h438l352 -1088h166z" />
    <glyph glyph-name="uni041B.loclBGR" horiz-adv-x="1310" 
d="M436 1434h438l447 -1434h-397l-269 1008l-268 -1008h-397z" />
    <glyph glyph-name="uni0424.loclBGR" horiz-adv-x="1779" 
d="M1356 718q0 322 -293 386v-774q293 66 293 388zM422 717q0 -319 295 -387v774q-295 -68 -295 -387zM1722 717q0 -295 -178 -490t-481 -239v-193h-346v193q-303 46 -481 240t-179 489q1 295 179 489t481 240v192h346v-192q303 -46 481 -240t178 -489z" />
    <glyph glyph-name="uni0414.ss01" horiz-adv-x="1427" 
d="M870 346v748h-235v-289q0 -293 -86 -459h321zM1237 346h154v-346h-1371v346h144q106 154 106 463v625h967v-1088z" />
    <glyph glyph-name="uni0426.ss01" horiz-adv-x="1417" 
d="M1217 354h163v-354h-1267v1434h376v-1080h353v1080h375v-1080z" />
    <glyph glyph-name="uni0429.ss01" horiz-adv-x="1949" 
d="M1749 354h164v-354h-1800v1434h366v-1080h269v1080h366v-1080h268v1080h367v-1080z" />
    <glyph glyph-name="uni0414.loclBGR.ss01" horiz-adv-x="1515" 
d="M565 346h385l-192 678zM1495 346v-346h-1475v346h166l353 1088h438l352 -1088h166z" />
    <glyph glyph-name="uni0432.loclBGR" horiz-adv-x="1150" 
d="M601 295q75 0 117 40q42 39 42 119t-68 114t-184 10l-70 -13v-98q0 -78 44 -125t119 -47zM569 1147q-59 0 -95 -47t-36 -129v-113l41 8q66 12 96 15q90 76 91 159q-1 107 -97 107zM1100 446q0 -223 -134 -349t-364 -126t-368 135q-136 135 -136 361v489q0 230 131 368
t336 138t319 -100t113 -270q1 -139 -112 -254q215 -104 215 -392z" />
    <glyph glyph-name="uni0433.loclBGR" horiz-adv-x="948" 
d="M575 336h336q0 -186 -124 -276t-312 -89q-188 0 -313 82t-125 252q0 96 39 162q39 67 97 95q113 56 213 70q99 14 137 34t38 53q0 61 -86 61q-41 0 -65 -24t-25 -68h-330q0 178 123 271t299 93t300 -84q124 -85 124 -251q0 -111 -54 -181t-131 -99q-77 -28 -155 -43
q-78 -14 -131 -34t-53 -57q0 -59 99 -59t99 92z" />
    <glyph glyph-name="uni0434.loclBGR" horiz-adv-x="1261" 
d="M614.5 324q96.5 0 156.5 58t60 150.5t-60 150.5t-156.5 58t-157 -58t-60.5 -150.5t60.5 -150.5t157 -58zM831 1024h336v-983q0 -238 -157.5 -359.5t-375.5 -121.5t-370.5 106.5t-152.5 317.5h340q0 -59 50 -93t137 -34t140 46t53 138v78q-105 -107 -297 -107
t-334.5 152.5t-142.5 368t142.5 368t334.5 152.5t297 -107v78z" />
    <glyph glyph-name="uni0436.loclBGR" horiz-adv-x="1595" 
d="M967 0h-338v420l-244 -420h-375l320 512l-299 512h375l223 -412v822h338v-822l223 412h375l-299 -512l319 -512h-375l-243 420v-420z" />
    <glyph glyph-name="uni0438.loclBGR" 
d="M659 1024h340v-1024h-340v86q-86 -115 -241 -115t-246.5 106.5t-91.5 295.5v651h340v-612q0 -119 112 -119q127 0 127 143v588z" />
    <glyph glyph-name="uni0439.loclBGR" 
d="M659 1024h340v-1024h-340v86q-86 -115 -241 -115t-246.5 106.5t-91.5 295.5v651h340v-612q0 -119 112 -119q127 0 127 143v588zM885 1421v-286h-662v286h662z" />
    <glyph glyph-name="uni043A.loclBGR" horiz-adv-x="1099" 
d="M438 0h-340v1434h340v-836l258 426h383l-327 -512l348 -512h-383l-279 432v-432z" />
    <glyph glyph-name="uni043B.loclBGR" horiz-adv-x="1091" 
d="M373 1024h346l373 -1024h-361l-184 580l-187 -580h-360z" />
    <glyph glyph-name="uni043F.loclBGR" 
d="M679.5 1053q155.5 0 247 -106.5t91.5 -295.5v-651h-340v612q0 119 -113 119q-127 0 -127 -143v-588h-340v1024h340v-86q86 115 241.5 115z" />
    <glyph glyph-name="uni0442.loclBGR" horiz-adv-x="1572" 
d="M1170 1053q155 -1 240 -97t85 -278v-678h-342v639q0 92 -86 92q-100 0 -100 -121v-610h-340v639q0 92 -88 92q-100 0 -101 -121v-610h-340v1024h340v-86q86 115 240 115t229 -123q108 123 263 123z" />
    <glyph glyph-name="uni0446.loclBGR" horiz-adv-x="1179" 
d="M1061 311h92v-577h-322v295q-63 27 -108 80q-102 -137 -299 -138q-156 1 -250 107t-94 295v651h340v-612q0 -119 112 -119q127 0 127 143v588h340v-651q1 -62 62 -62z" />
    <glyph glyph-name="uni0448.loclBGR" horiz-adv-x="1574" 
d="M1135 1024h340v-1024h-340v86q-86 -115 -239 -115t-230 121q-106 -121 -262 -121q-156 1 -240 97t-84 278v678h340v-639q0 -92 88 -92q98 0 98 121v610h342v-639q0 -92 86 -92q100 0 101 121v610z" />
    <glyph glyph-name="uni0449.loclBGR" horiz-adv-x="1654" 
d="M1536 311h92v-577h-321v295q-61 25 -105 75q-111 -133 -281 -133t-247 119q-113 -119 -269 -119q-157 1 -241 97t-84 278v678h340v-639q0 -92 88 -92q98 0 98 121v610h342v-639q0 -92 86 -92q100 0 101 121v610h340v-651q0 -62 61 -62z" />
    <glyph glyph-name="uni044C.loclBGR" horiz-adv-x="1009" 
d="M527 281q54 1 87 29t33 69q0 98 -106 98h-129v-82q0 -53 30 -84q31 -30 85 -30zM549 764q211 0 321 -106t109 -284q0 -179 -123 -292t-333 -113q-211 0 -327 113t-116 309v633h332v-260h137z" />
    <glyph glyph-name="uni044A.loclBGR" horiz-adv-x="1183" 
d="M701 281q54 1 87 29t33 69q0 98 -108 98h-129v-82q0 -53 31 -84q32 -30 86 -30zM723 764q211 0 321 -106t109 -284q0 -179 -123 -292t-333 -113q-209 0 -327 113t-118 309v318h-252v315h584v-260h139z" />
    <glyph glyph-name="uni044E.loclBGR" horiz-adv-x="1652" 
d="M1056 299q89 0 147 59q59 60 59 154t-58 154t-148 59q-90 0 -148 -59q-58 -60 -58 -154t58 -154q59 -59 148 -59zM1057 1053q227 0 387 -157t160 -384t-160 -384t-387 -157q-183 -1 -323 105t-187 276h-109v-352h-340v1434h340v-762h109q47 170 187 276t323 105z" />
    <glyph glyph-name="uni0430.ss01" horiz-adv-x="1259" 
d="M606 293q96 0 155.5 60.5t59.5 158.5t-59.5 158.5t-155.5 60.5t-155.5 -60.5t-59.5 -158.5t59.5 -158.5t155.5 -60.5zM821 1024h340v-1024h-340v76q-103 -104 -295 -104t-334.5 155.5t-142.5 384.5t142.5 385t334.5 156t295 -105v76z" />
    <glyph glyph-name="uni0443.ss01" 
d="M659 1024h340v-1057q0 -203 -128 -305t-314 -102t-314 96t-128 274h325q0 -82 110 -82t109 119v137q-86 -114 -241 -114t-246.5 106.5t-91.5 294.5v633h340v-594q0 -119 112 -119q127 0 127 144v569z" />
    <glyph glyph-name="zero.sinf" horiz-adv-x="837" 
d="M418 -88q104 0 104 170t-104 170t-104 -170t104 -170zM418 -356q-172 0 -277 117q-104 118 -104 321q0 202 104 320q105 118 277 118t277 -118t105 -320t-104 -320q-106 -118 -278 -118z" />
    <glyph glyph-name="one.sinf" horiz-adv-x="565" 
d="M487 492v-820h-268v551l-199 -104v264l199 109h268z" />
    <glyph glyph-name="two.sinf" horiz-adv-x="729" 
d="M57 -328v183l291 284q62 61 62 103t-45 41q-51 0 -52 -66h-266q0 151 89 227t226 76t226 -68q88 -69 88 -197t-144 -261l-86 -82h238v-240h-627z" />
    <glyph glyph-name="three.sinf" horiz-adv-x="686" 
d="M655 -72q0 -137 -87 -211q-87 -73 -232 -73t-233 73q-87 74 -87 211h258q0 -53 60 -53t61 52q0 52 -59 53h-152v145l105 129h-240v238h561v-179l-125 -155q170 -59 170 -230z" />
    <glyph glyph-name="four.sinf" horiz-adv-x="741" 
d="M715 23v-236h-72v-115h-250v115h-377v236l238 469h283l-228 -469h84v129h250v-129h72z" />
    <glyph glyph-name="five.sinf" horiz-adv-x="677" 
d="M346 186q135 0 215 -66t80 -203q0 -136 -86 -205q-86 -68 -220 -68t-221 70t-87 206h245q0 -53 62 -53t61 55q0 55 -59 55h-289l35 515h522v-238h-293l-4 -68h39z" />
    <glyph glyph-name="six.sinf" horiz-adv-x="702" 
d="M351 -135q77 0 77 75q0 74 -77 74t-77 -74t77 -75zM676 -68q0 -124 -88 -206t-236 -82t-237 83q-88 83 -88 214q0 88 41 157l239 394h275l-160 -261q118 -20 186 -98q68 -77 68 -201z" />
    <glyph glyph-name="seven.sinf" horiz-adv-x="618" 
d="M0 492h592v-203l-232 -617h-276l219 582h-303v238z" />
    <glyph glyph-name="eight.sinf" horiz-adv-x="714" 
d="M358 -137q37 0 58 19q20 19 20 50q0 32 -20 50t-58 18q-78 0 -77 -68q-1 -69 77 -69zM426 246q0 56 -69 57q-69 0 -68 -57q1 -56 69 -56t68 56zM684 -94q0 -124 -86 -194q-86 -68 -240 -68t-240 68t-87 194q0 125 119 194q-90 68 -90 176t84 177q85 67 214 67t213 -68
t84 -178q0 -111 -90 -174q119 -70 119 -194z" />
    <glyph glyph-name="nine.sinf" horiz-adv-x="702" 
d="M351 299q-77 0 -77 -75q0 -74 77 -74t77 74t-77 75zM676 223q0 -88 -41 -157l-240 -394h-274l160 260q-119 20 -187 98t-68 202q0 122 89 205t237 83t236 -82t88 -215z" />
    <glyph glyph-name="zero.tf" horiz-adv-x="1206" 
d="M604 326q227 0 227 391t-227 391t-227 -391t227 -391zM1196 717q0 -340 -156 -544t-437 -204t-437 204t-156 544t157 544q157 203 437 203t436 -204t156 -543z" />
    <glyph glyph-name="one.tf" horiz-adv-x="1206" 
d="M823 354h353v-354h-1125v354h408v707l-330 -178v366l330 185h364v-1080z" />
    <glyph glyph-name="two.tf" horiz-adv-x="1206" 
d="M70 0v266l534 484q147 133 148 223q0 57 -42 96t-117 39t-119 -43t-44 -117h-367q0 248 160 382t368 134t360 -121q75 -59 121 -154t46 -214q0 -225 -248 -432l-225 -189h498v-354h-1073z" />
    <glyph glyph-name="three.tf" horiz-adv-x="1206" 
d="M1155 457q0 -233 -157 -361q-156 -128 -404 -127q-248 0 -406 130t-157 364h366q0 -137 197 -137t197 139t-197 139h-207v227l227 252h-528v351h993v-289l-245 -283q150 -43 236 -146t85 -259z" />
    <glyph glyph-name="four.tf" horiz-adv-x="1206" 
d="M1176 553v-334h-144v-219h-364v219h-658v334l447 881h405l-446 -881h252v268h364v-268h144z" />
    <glyph glyph-name="five.tf" horiz-adv-x="1206" 
d="M625 926q244 0 390 -120t146 -351t-156 -358q-157 -126 -401 -126t-400 126t-157 358h365q0 -127 191 -127t192 127q0 131 -191 131h-493l59 848h909v-351h-569l-10 -157h125z" />
    <glyph glyph-name="six.tf" horiz-adv-x="1206" 
d="M604 305q96 0 152 47q55 47 55 133q0 87 -56 135q-55 48 -151 48t-151 -48t-55 -134t54 -134q56 -47 152 -47zM684 997q229 -23 360 -161q132 -138 132 -360q0 -220 -155 -363t-418 -143t-418 142t-154 373q0 178 94 308l448 641h416z" />
    <glyph glyph-name="seven.tf" horiz-adv-x="1206" 
d="M41 1434h1104v-304l-508 -1130h-397l483 1079h-682v355z" />
    <glyph glyph-name="eight.tf" horiz-adv-x="1206" 
d="M603 307q206 0 206 148q0 69 -52 109q-53 40 -153 40t-153 -40t-54 -109q0 -148 206 -148zM780 1007q0 55 -47 89t-130 34t-129 -32t-46 -90q0 -57 46 -90t129 -33t130 33t47 89zM1176 403q0 -199 -150 -315t-422 -117q-272 0 -423 117t-150 315q0 223 202 345
q-153 106 -153 298t147 304t375 112t377 -113q147 -113 147 -305t-153 -296q203 -119 203 -345z" />
    <glyph glyph-name="nine.tf" horiz-adv-x="1206" 
d="M397 948q1 -86 57 -134t150 -48t151 48q56 48 56 134t-55 133q-56 47 -152 47t-152 -47t-55 -133zM1176 948q0 -178 -95 -307l-448 -641h-416l305 436q-229 23 -360 162t-131 360t154 364q155 142 419 142t418 -142t154 -374z" />
    <glyph glyph-name="zero.dnom" horiz-adv-x="837" 
d="M418 240q104 0 104 170t-104 170t-104 -170t104 -170zM418 -29q-172 0 -277 118q-104 118 -104 321q0 202 104 320q105 118 277 118t277 -118t105 -320t-104 -321q-106 -118 -278 -118z" />
    <glyph glyph-name="one.dnom" horiz-adv-x="565" 
d="M487 819v-819h-268v551l-199 -105v265l199 108h268z" />
    <glyph glyph-name="two.dnom" horiz-adv-x="729" 
d="M57 0v182l291 285q62 61 62 102t-45 41q-51 0 -52 -65h-266q0 151 89 227t226 76q138 0 226 -69t88 -197t-144 -260l-86 -82h238v-240h-627z" />
    <glyph glyph-name="three.dnom" horiz-adv-x="686" 
d="M655 256q0 -137 -87 -211t-232 -74t-233 74q-87 74 -87 211h258q0 -53 60 -53t61 52q0 52 -59 52h-152v146l103 129h-238v237h561v-178l-123 -156q168 -61 168 -229z" />
    <glyph glyph-name="four.dnom" horiz-adv-x="741" 
d="M715 350v-235h-72v-115h-250v115h-377v235l238 469h283l-228 -469h84v129h250v-129h72z" />
    <glyph glyph-name="five.dnom" horiz-adv-x="677" 
d="M346 514q135 0 215 -67t80 -203t-86 -204q-86 -69 -220 -69t-221 71t-87 206h245q0 -53 62 -53t61 55q0 55 -59 55h-289l35 514h522v-237h-291l-6 -68h39z" />
    <glyph glyph-name="six.dnom" horiz-adv-x="702" 
d="M351 193q77 1 77 75t-77 74t-77 -74t77 -75zM676 259q0 -124 -88 -206t-236 -82t-237 83q-88 83 -88 214q0 88 41 158l239 393h275l-158 -260q116 -20 184 -98t68 -202z" />
    <glyph glyph-name="seven.dnom" horiz-adv-x="618" 
d="M0 819h592v-203l-232 -616h-276l219 582h-303v237z" />
    <glyph glyph-name="eight.dnom" horiz-adv-x="714" 
d="M436 260q0 66 -78 67t-77 -67q-1 -70 77 -70q38 0 58 20t20 50zM358 518q68 0 68 56t-69 57q-69 0 -68 -58q1 -55 69 -55zM684 233q0 -125 -86 -193t-240 -69q-154 0 -240 69q-86 70 -87 194q0 124 119 194q-90 68 -90 176t84 176q85 68 214 68t213 -68t84 -177t-88 -175
q117 -70 117 -195z" />
    <glyph glyph-name="nine.dnom" horiz-adv-x="702" 
d="M346 627q-78 0 -78 -75t78 -75t78 75t-78 75zM672 551q0 -88 -41 -158l-240 -393h-276l159 260q-118 18 -186 97t-68 203t88 206t238 82t238 -82t88 -215z" />
    <glyph glyph-name="zero.numr" horiz-adv-x="837" 
d="M418 854q104 0 104 170t-104 170t-104 -170t104 -170zM418 586q-172 0 -277 117q-104 118 -104 321t104 321q105 117 277 117t277 -118t105 -320t-104 -320q-106 -118 -278 -118z" />
    <glyph glyph-name="one.numr" horiz-adv-x="565" 
d="M487 1434v-820h-268v551l-199 -104v264l199 109h268z" />
    <glyph glyph-name="two.numr" horiz-adv-x="729" 
d="M57 614v183l291 284q62 61 62 103t-45 41q-51 0 -52 -66h-266q0 151 89 227t226 76t226 -68q88 -69 88 -197t-144 -261l-86 -82h238v-240h-627z" />
    <glyph glyph-name="three.numr" horiz-adv-x="686" 
d="M655 870q0 -137 -87 -211q-87 -73 -232 -73t-233 73q-87 74 -87 211h258q0 -53 60 -53t61 52q0 52 -59 53h-152v145l103 129h-238v238h561v-179l-123 -155q168 -61 168 -230z" />
    <glyph glyph-name="four.numr" horiz-adv-x="741" 
d="M715 965v-236h-72v-115h-250v115h-377v236l238 469h283l-228 -469h84v129h250v-129h72z" />
    <glyph glyph-name="five.numr" horiz-adv-x="677" 
d="M346 1128q135 0 215 -66t80 -203q0 -136 -86 -205q-86 -68 -220 -68t-221 70t-87 206h245q0 -53 62 -53t61 55q0 55 -59 56h-289l35 514h522v-238h-291l-6 -68h39z" />
    <glyph glyph-name="six.numr" horiz-adv-x="702" 
d="M351 807q77 0 77 75q0 74 -77 74t-77 -74t77 -75zM676 874q0 -124 -88 -206t-236 -82t-237 83q-88 83 -88 214q0 88 41 157l239 394h275l-158 -260q116 -20 184 -98t68 -202z" />
    <glyph glyph-name="seven.numr" horiz-adv-x="618" 
d="M0 1434h592v-203l-232 -617h-276l219 582h-303v238z" />
    <glyph glyph-name="eight.numr" horiz-adv-x="714" 
d="M358 805q37 0 58 19q20 19 20 50q0 32 -20 50t-58 18q-78 0 -77 -68q-1 -69 77 -69zM358 1133q68 0 68 56t-69 56t-68 -57q1 -55 69 -55zM684 848q0 -124 -86 -194q-86 -68 -240 -68t-240 68t-87 194q0 125 119 194q-90 68 -90 176t84 177q85 67 214 67t213 -68t84 -176
q0 -110 -88 -176q117 -70 117 -194z" />
    <glyph glyph-name="nine.numr" horiz-adv-x="702" 
d="M346 1241q-78 0 -78 -75q0 -74 78 -74t78 74t-78 75zM672 1165q0 -88 -41 -157l-240 -394h-276l159 260q-118 18 -186 98t-68 202q0 124 88 206t238 82t238 -82t88 -215z" />
    <glyph glyph-name="zero.sups" horiz-adv-x="837" 
d="M418 1182q104 0 104 170t-104 170t-104 -170t104 -170zM418 913q-172 0 -277 118q-104 118 -104 321q0 202 104 320q105 118 277 118t277 -118t105 -320t-104 -321q-106 -118 -278 -118z" />
    <glyph glyph-name="one.sups" horiz-adv-x="565" 
d="M487 1761v-819h-268v551l-199 -104v264l199 108h268z" />
    <glyph glyph-name="two.sups" horiz-adv-x="729" 
d="M57 942v182l291 285q62 61 62 102t-45 41q-51 0 -52 -65h-266q0 151 89 227t226 76q138 0 226 -69t88 -197t-144 -260l-86 -82h238v-240h-627z" />
    <glyph glyph-name="three.sups" horiz-adv-x="686" 
d="M655 1198q0 -137 -87 -211t-232 -74t-233 74q-87 74 -87 211h258q0 -53 60 -53t61 52q0 52 -59 52h-152v146l103 129h-238v237h561v-178l-123 -156q168 -61 168 -229z" />
    <glyph glyph-name="four.sups" horiz-adv-x="741" 
d="M715 1292v-235h-72v-115h-250v115h-377v235l238 469h283l-228 -469h84v129h250v-129h72z" />
    <glyph glyph-name="five.sups" horiz-adv-x="677" 
d="M346 1456q135 0 215 -66t80 -203q0 -136 -86 -205t-220 -69t-221 71t-87 206h245q0 -53 62 -53t61 55q0 55 -59 55h-289l35 514h522v-237h-291l-6 -68h39z" />
    <glyph glyph-name="six.sups" horiz-adv-x="702" 
d="M351 1135q77 1 77 75t-77 74t-77 -74t77 -75zM676 1201q0 -124 -88 -206t-236 -82t-237 83q-88 83 -88 214q0 88 41 158l239 393h275l-158 -260q116 -20 184 -98t68 -202z" />
    <glyph glyph-name="seven.sups" horiz-adv-x="618" 
d="M0 1761h592v-202l-232 -617h-276l219 582h-303v237z" />
    <glyph glyph-name="eight.sups" horiz-adv-x="714" 
d="M436 1202q0 66 -78 67t-77 -67q-1 -69 77 -69q37 0 58 19q20 19 20 50zM426 1516q0 56 -69 57q-69 0 -68 -57q1 -56 69 -56t68 56zM684 1175q0 -125 -86 -193t-240 -69q-154 0 -240 69q-86 70 -87 194q0 124 119 194q-90 68 -90 176t84 176q85 68 214 68t213 -68t84 -177
t-88 -175q117 -70 117 -195z" />
    <glyph glyph-name="nine.sups" horiz-adv-x="702" 
d="M346 1569q-78 0 -78 -75t78 -75t78 75t-78 75zM672 1493q0 -88 -41 -158l-240 -393h-276l159 260q-118 18 -186 97t-68 203t88 206t238 82t238 -82t88 -215z" />
    <glyph glyph-name="cent.tf" horiz-adv-x="1206" 
d="M432 711q0 -90 62 -148l116 361q-78 -8 -128 -66t-50 -147zM654 508q40 0 87 29t64 75h354q-27 -190 -175 -313t-349 -123q-61 0 -133 14l-62 -190h-129l76 231q-137 68 -217 196t-80 290q0 229 156 385t389 155q41 0 82 -6l57 183h129l-69 -211q131 -49 218 -155
t107 -247h-354q-23 55 -74 82l-127 -393q10 -2 50 -2z" />
    <glyph glyph-name="dollar.tf" horiz-adv-x="1206" 
d="M791 408q0 70 -113 112v-213q113 20 113 101zM430 1028q0 -68 105 -108v206q-105 -18 -105 -98zM1023 101q-132 -116 -345 -130v-176h-143v178q-221 19 -353 139t-131 347h363q0 -68 28 -103t93 -47v258q-85 27 -135 45t-122 58t-111 82q-40 42 -70 112t-29 156
q0 196 130 312t337 130v176h143v-178q200 -20 322 -139t122 -336h-348q0 113 -96 137v-250l20 -6q66 -24 93 -32t87 -34t89 -45q188 -123 188 -331q0 -207 -132 -323z" />
    <glyph glyph-name="Euro.tf" horiz-adv-x="1206" 
d="M662 -31q-224 -1 -362 145t-179 398h-111v172h96v72h-96v172h113q41 250 179 393t359 143t363 -149q141 -150 160 -404h-359q-8 97 -54 147t-114 50q-129 0 -165 -180h264v-172h-283v-72h283v-172h-267q37 -186 168 -186q72 0 118 56t52 157h361q-16 -260 -158 -415
q-144 -155 -368 -155z" />
    <glyph glyph-name="florin.tf" horiz-adv-x="1206" 
d="M1104 883v-326h-307l-160 -620q-59 -227 -226 -311t-380 -36v336q211 -59 254 107l139 524h-217v326h305l57 217q59 225 227 310t380 36v-336q-96 31 -169 3t-94 -109l-30 -121h221z" />
    <glyph glyph-name="uni20BD.tf" horiz-adv-x="1206" 
d="M516 1085v-286h148q63 0 104 39q41 38 41 104t-41 105t-104 38h-148zM664 473h-148v-82h377v-203h-377v-188h-366v188h-130v203h130v82h-130v326h130v635h514q217 0 364 -136q148 -136 148 -352q0 -217 -144 -345t-368 -128z" />
    <glyph glyph-name="sterling.tf" horiz-adv-x="1206" 
d="M512 354h653v-354h-1145v354h127v162h-106v287h106v203q1 221 145 340q144 118 345 118t345 -118t144 -340v-103h-364v92q0 55 -33 87t-92 32t-92 -32t-33 -87v-192h395v-287h-395v-162z" />
    <glyph glyph-name="yen.tf" horiz-adv-x="1206" 
d="M1100 762v-193h-314v-84h314v-190h-314v-295h-366v295h-311v190h311v84h-311v193h245l-354 672h412l192 -433l193 433h409l-354 -672h248z" />
    <glyph glyph-name="brevecy" horiz-adv-x="825" 
d="M82 1135v286h661v-286h-661z" />
    </font>
</defs>
</svg>
