<?xml version="1.0" encoding="utf-8"?>
<!-- Generator: Adobe Illustrator 19.2.1, SVG Export Plug-In . SVG Version: 6.00 Build 0)  -->
<svg version="1.1" xmlns="http://www.w3.org/2000/svg" xmlns:xlink="http://www.w3.org/1999/xlink" x="0px" y="0px"
	 viewBox="0 0 115.411 107.868" enable-background="new 0 0 115.411 107.868" xml:space="preserve">
<g id="logo" display="none">
</g>
<g id="Layer_1">
	<g>
		<path fill="#222222" d="M46.408,40.223c-11.406,1.235-16.615,5.874-19.413,17.515c-1.831,7.62-8.296,12.144-15.668,10.963
			C4.366,67.587-0.698,61.208,0,54.161c0.708-7.154,4.681-11.994,11.385-14.291c3.295-1.129,6.837-1.78,10.316-2.08
			C30.052,37.069,38.275,38.225,46.408,40.223z"/>
		<path fill="#222222" d="M69.025,66.044c1.257-0.103,2.523-0.14,3.768-0.32c7.003-1.014,11.413-5.303,14.139-11.518
			c0.858-1.957,1.314-4.101,1.857-6.185c1.911-7.325,8.899-11.716,16.223-10.152c7.187,1.535,11.622,8.285,10.4,15.725
			c-1.214,7.39-5.984,11.48-12.733,13.559c-7.866,2.423-15.915,1.936-23.937,0.942c-3.27-0.405-6.508-1.072-9.76-1.62
			C68.995,66.331,69.01,66.187,69.025,66.044z"/>
		<path fill="#222222" d="M63.231,37.788c-5.805-9.956-14.39-11.156-24.18-8.547c-7.191,1.917-12.781,0.293-16.447-5.005
			c-3.18-4.595-3.101-10.924,0.193-15.483c3.619-5.009,10.744-7.668,16.805-5.224c3.765,1.518,7.338,4.181,10.211,7.103
			C55.481,16.394,62.242,30.744,63.231,37.788z"/>
		<path fill="#222222" d="M54.462,70.455c6.085,8.821,14.461,9.792,23.842,7.316c7.53-1.988,13.628-0.008,16.939,5.668
			c2.996,5.135,2.276,11.889-1.716,16.106c-4.676,4.939-12.653,6.234-18.678,2.875c-1.866-1.04-3.694-2.3-5.208-3.794
			C61.741,90.828,57.701,80.898,54.462,70.455z"/>
		<path fill="#222222" d="M73.53,49.054c4.835-10.357,1.293-18.369-6.17-25.518C61.675,18.09,61.513,9.534,66.908,4.04
			c5.267-5.364,13.761-5.38,19.339-0.083c5.012,4.759,6.043,10.594,4.52,17.022c-2.018,8.516-6.875,15.526-12.217,22.234
			C76.952,45.22,75.207,47.11,73.53,49.054z"/>
		<path fill="#222222" d="M41.34,58.902c-3.903,10.551-2.54,17.223,5.224,24.737c5.159,4.993,6.454,10.651,3.769,16.473
			c-2.262,4.906-7.659,8.081-13.135,7.728c-5.925-0.382-11.713-5.207-13.32-11.241c-1.176-4.414-0.619-8.783,0.91-13.003
			C28.261,74.017,34.423,66.209,41.34,58.902z"/>
	</g>
</g>
<g id="Layer_3">
</g>
</svg>
