<?xml version="1.0" encoding="utf-8"?>
<!-- Generator: Adobe Illustrator 19.2.1, SVG Export Plug-In . SVG Version: 6.00 Build 0)  -->
<svg version="1.1" xmlns="http://www.w3.org/2000/svg" xmlns:xlink="http://www.w3.org/1999/xlink" x="0px" y="0px"
	 viewBox="0 0 283.406 283.406" enable-background="new 0 0 283.406 283.406" xml:space="preserve">
<g id="logo" display="none">
</g>
<g id="Layer_1">
	<path fill="#111111" d="M245.482,103.055c-22.33,15.459-44.805,30.919-66.99,46.521c-9.305,6.441-25.051,19.61-36.645,19.61h-0.145
		h-0.143c-11.594,0-27.34-13.169-36.645-19.61c-22.188-15.603-44.66-31.063-66.848-46.521
		c-10.164-6.871-24.621-23.046-24.621-36.072c0-14.027,7.588-26.052,22.902-26.052h210.707c12.453,0,22.902,10.307,22.902,22.902
		C269.959,79.865,258.078,94.323,245.482,103.055z M269.959,219.573c0,12.596-10.307,22.902-22.902,22.902H36.35
		c-12.596,0-22.902-10.307-22.902-22.902V105.917c4.295,4.725,9.162,8.875,14.457,12.454c23.762,16.175,47.811,32.35,71.143,49.384
		c12.023,8.875,26.91,19.754,42.514,19.754h0.143h0.145c15.602,0,30.488-10.879,42.512-19.754
		c23.334-16.891,47.381-33.209,71.285-49.384c5.154-3.579,10.021-7.729,14.314-12.454V219.573z"/>
</g>
</svg>
