<svg id="Layer_1" data-name="Layer 1" xmlns="http://www.w3.org/2000/svg" viewBox="0 0 326.18 207.46"><defs><style>.cls-1{fill:#000111;}</style></defs><title>teaching</title><path class="cls-1" d="M93.83,121.06V116h14.64V103.75q0-8.83,0-17.67c0-10.71,7.16-18.06,17.83-18.27l3.39-.08c3.09-.07,6.28-0.15,9.41-0.15,3.43,0,6.42.09,9.15,0.28,1.32,0.09,2.67.14,4,.14,10.38,0,20.19-2.8,27.58-5.24l1.08-.33,1.53-.45V49c0-10,0-19.84,0-29.72,0-7.93,3.64-13.55,10.8-16.71a22.76,22.76,0,0,1,8.58-1.41C209.11,1,216.8,1,225.34,1q10.46,0,20.92.06C258.8,1.11,265.7,8.13,265.69,20.8q0,31.6,0,63.2c0,11-7.15,18.55-17.82,18.69-7.3.1-15,.15-22.84,0.15s-16.07,0-24.86-.15c-8.49-.1-14.59-4.81-17.17-13.27a9.5,9.5,0,0,0-.35-0.91l-0.24-.58L182,87l-0.93.38-1.76.71c-1.54.62-3,1.2-4.42,1.89a3.3,3.3,0,0,0-1.75,2.55c-0.06,5.86-.06,11.63-0.05,17.74v5.59h25.63v5.21H93.83Zm57.26-32.72v27.36h16.64v-1q0-3.51,0-7c0-5.64,0-11.47-.08-17.17-0.06-2.51.8-3.82,3.17-4.8,7-2.9,13.87-5.87,20.87-8.9l0.3-.13a7.24,7.24,0,0,0,3.13-2c4-5.52,8-11.08,11.84-16.45l3.81-5.33L204.18,45l-0.74,1.11c-1.1,1.65-2.17,3.27-3.23,4.87-2.8,4.24-5.45,8.24-8.25,12.17a8,8,0,0,1-3.78,2.77C181,68.21,174.41,70.11,168,71.73a42.57,42.57,0,0,1-9.77,1.33c-3.39.06-7,.08-11.65,0.08H133.73l-6.72,0c-8.35.06-13.14,4.92-13.14,13.33s0,16.68,0,25c0,0.76.05,1.51,0.1,2.24,0,0.33,0,.66.06,1l0.05,0.95h9.22V90.18h5.38v25.46h16.71V88.41L142,87.77v-5h12.5v5Zm52.56-50.2a4.7,4.7,0,0,1,2.92,1.67c1.17,1.15,2.32,2.32,3.48,3.49,1.82,1.85,3.71,3.76,5.64,5.57s2.21,3.53.5,5.84c-4.38,5.9-8.31,11.25-12.06,16.91-3.32,5-7.12,10.08-13.73,11.79-1.38.36-2.38,2.75-2.2,4,0.84,5.87,5.75,9.86,12.22,9.93,8.81,0.09,16.81.14,24.45,0.14,8.09,0,15.59,0,22.94-.15,7.65-.11,12.41-5.1,12.41-13q0-32.57,0-65.14c0-7.44-4.75-12.49-11.8-12.56-8-.08-16.17-0.12-24.21-0.12s-16.37,0-24.5.12c-6.82.07-11.7,5.11-11.85,12.26,0,2.28,0,4.6,0,6.83,0,1,0,2,0,3.06v27l2.21,0.68,3.52-5.27q3.54-5.3,7.08-10.59C201.74,38.92,202.71,38.14,203.65,38.14Z"/><path class="cls-1" d="M104,65.33a4.87,4.87,0,0,1-2.74-1c-1.9-1.72-3.74-3.58-5.52-5.38S92,55.07,90,53.26a10,10,0,0,0-5.71-2.32c-1.5-.1-3.14-0.15-5.17-0.15l-3.11,0-3.09,0H71.07c-6.82-.12-10.76-4.15-10.8-11.05,0-4,0-8.56,0-13.15,0.07-6.48,4-10.57,10.16-10.68s12.26-.16,18.46-0.16c6,0,12.21.05,18.37,0.15,6.37,0.11,10.2,4.19,10.25,10.93,0,2.63,0,5.26,0,7.88v3.63c0,8-2.31,10.85-10.3,12.78l-0.76.18v0.79c0,1,0,2,0,3a52.19,52.19,0,0,1-.15,6.87,4.84,4.84,0,0,1-1.89,3.25A1,1,0,0,1,104,65.33Zm-23.2-19.9c2.43,0,4.39.05,6.17,0.17a10,10,0,0,1,5.16,2.21,38.38,38.38,0,0,1,4.44,4.43c0.7,0.77,1.42,1.57,2.2,2.39l1.7-.49c0.1-.47.17-0.81,0.24-1.08a6.16,6.16,0,0,0,.19-1.08c0.16-3,.24-4.68.88-5.34s2.31-.85,5.35-1.17c4.08-.44,4.92-3.08,4.9-5.22,0-3.92-.08-8.79,0-13.46a5.54,5.54,0,0,0-1.36-4.13A5,5,0,0,0,107,21.28c-6.1,0-12.37-.08-18.63-0.08q-8.79,0-17.57.06a5.11,5.11,0,0,0-3.78,1.41,5.4,5.4,0,0,0-1.35,4c0,2.48,0,5,0,7.45,0,1.79,0,3.58,0,5.37,0,4.34,1.57,5.9,5.88,5.95h1.75l3.75,0Z"/><path class="cls-1" d="M148.1,58.22a21.08,21.08,0,0,1-15-6.27,21.21,21.21,0,0,1,15-36.07h0.17a20.87,20.87,0,0,1,14.87,6.2,21.15,21.15,0,0,1-14.9,36.14H148.1Zm0-37a15.79,15.79,0,0,0-11.17,26.88A15.86,15.86,0,0,0,164,37.32a16,16,0,0,0-15.65-16H148Z"/><rect class="cls-1" x="201.15" y="19.81" width="45.7" height="4.96"/><rect class="cls-1" x="208.58" y="79.12" width="38.29" height="4.93"/><rect class="cls-1" x="219.65" y="64.21" width="27.27" height="4.96"/><rect class="cls-1" x="219.73" y="34.55" width="27.21" height="4.89"/><rect class="cls-1" x="227.18" y="49.52" width="19.7" height="4.9"/><rect class="cls-1" x="75.18" y="30.91" width="27.31" height="4.98"/><path class="cls-1" d="M67.52,206.27c-1.48-10.91,1.81-18.14,10-22.07a15.25,15.25,0,0,1,6.19-1.5l3.21,0c2.69,0,5.39-.06,8.08-0.06,6,0,10.57.14,14.87,0.47,7.57,0.57,14.13,7.58,14.62,15.62,0.11,1.81.08,3.65,0.05,5.6,0,0.64,0,1.29,0,2h-5.45q0-.65,0-1.29c0-1.63,0-3.17,0-4.73-0.18-6.95-4.44-11.66-10.87-12-4.12-.22-8.28-0.33-12.39-0.33s-8.26.11-12.32,0.33c-6.44.35-10.81,5.31-10.86,12.34,0,1.48,0,3,0,4.5v1.19H67.52Z"/><path class="cls-1" d="M95.91,173.89a18.05,18.05,0,1,1,18.05-18A18.07,18.07,0,0,1,95.91,173.89Zm0-30.86a12.81,12.81,0,1,0,12.81,12.81A12.82,12.82,0,0,0,95.91,143Z"/><path class="cls-1" d="M134.78,206.46c-1.74-10.39,1.75-18.25,9.9-22.19a15.77,15.77,0,0,1,6.49-1.59h1.21c2.65,0,5.3,0,7.95,0,4.75,0,11,.06,17.34.5,6.9,0.48,13.59,7.67,14,15.09,0.12,2,.09,3.94.06,6,0,0.67,0,1.36,0,2.05h-5.33q0-.63,0-1.24c0-1.6,0-3.15,0-4.7-0.13-6.81-4.57-11.78-10.79-12.1-4.05-.21-8.21-0.31-12.34-0.31s-8.46.11-12.69,0.32c-6.13.31-10.54,5.17-10.72,11.83,0,1.56,0,3.14,0,4.81,0,0.5,0,1,0,1.56h-5.06Z"/><path class="cls-1" d="M163.07,173.89a18.05,18.05,0,1,1,18.05-18A18.07,18.07,0,0,1,163.07,173.89Zm0-30.86a12.81,12.81,0,1,0,12.81,12.81A12.82,12.82,0,0,0,163.07,143Z"/><path class="cls-1" d="M0.34,206.27c-1.48-10.91,1.81-18.14,10-22.07a15.25,15.25,0,0,1,6.19-1.5l3.21,0c2.69,0,5.39-.06,8.08-0.06,6,0,10.57.14,14.87,0.47,7.57,0.57,14.13,7.58,14.62,15.62,0.11,1.8.08,3.65,0.05,5.6,0,0.64,0,1.3,0,2H51.94q0-.65,0-1.28c0-1.63,0-3.18,0-4.74-0.18-6.95-4.44-11.66-10.87-12-4.12-.22-8.28-0.33-12.39-0.33s-8.26.11-12.32,0.33c-6.44.35-10.81,5.31-10.86,12.34,0,1.48,0,3,0,4.49v1.19H0.34Z"/><path class="cls-1" d="M28.74,173.89a18.05,18.05,0,1,1,18-18A18.07,18.07,0,0,1,28.74,173.89Zm0-30.86a12.81,12.81,0,1,0,12.81,12.81A12.82,12.82,0,0,0,28.74,143Z"/><path class="cls-1" d="M201.48,206.23c0.07-1,.11-2.07.15-3.08a30.89,30.89,0,0,1,1-8.15c2.49-7.82,7.95-12.08,15.78-12.31,3.14-.09,6.24-0.14,9.21-0.14,6,0,11.79.19,17.26,0.56,6.71,0.46,13.38,7.32,14,14.4A59.84,59.84,0,0,1,259,204c0,0.73,0,1.48,0,2.23h-5.27v-1.06c0-1.55,0-3.11,0-4.67-0.06-7-4.48-11.9-11-12.24-3.87-.2-7.85-0.3-11.83-0.3-4.23,0-8.56.12-12.88,0.34-6.2.33-10.52,5.06-10.74,11.76-0.05,1.57,0,3.13,0,4.79q0,0.69,0,1.41h-5.72Z"/><path class="cls-1" d="M230.29,173.89a18.05,18.05,0,1,1,18.05-18A18.07,18.07,0,0,1,230.29,173.89Zm0-30.86a12.81,12.81,0,1,0,12.81,12.81A12.82,12.82,0,0,0,230.29,143Z"/><path class="cls-1" d="M268.66,206.23c0.07-1,.11-2.07.15-3.08a30.89,30.89,0,0,1,1-8.15c2.49-7.82,7.95-12.08,15.78-12.31,3.14-.09,6.24-0.14,9.21-0.14,6,0,11.79.19,17.26,0.56,6.71,0.46,13.38,7.32,14,14.4a59.84,59.84,0,0,1,.09,6.45c0,0.73,0,1.48,0,2.23h-5.27v-1.06c0-1.55,0-3.11,0-4.67-0.06-7-4.48-11.9-11-12.24-3.87-.2-7.85-0.3-11.83-0.3-4.23,0-8.56.12-12.88,0.34-6.2.33-10.52,5.06-10.74,11.76-0.05,1.57,0,3.13,0,4.79q0,0.69,0,1.41h-5.72Z"/><path class="cls-1" d="M297.46,173.89a18.05,18.05,0,1,1,18.05-18A18.07,18.07,0,0,1,297.46,173.89Zm0-30.86a12.81,12.81,0,1,0,12.81,12.81A12.82,12.82,0,0,0,297.46,143Z"/></svg>