<?xml version="1.0" encoding="utf-8"?>
<!-- Generator: Adobe Illustrator 19.2.1, SVG Export Plug-In . SVG Version: 6.00 Build 0)  -->
<svg version="1.1" id="Layer_1" xmlns="http://www.w3.org/2000/svg" xmlns:xlink="http://www.w3.org/1999/xlink" x="0px" y="0px"
	 viewBox="0 0 177 40" style="enable-background:new 0 0 177 40;" xml:space="preserve">
<style type="text/css">
	.st0{display:none;}
	.st1{fill:#222222;}
</style>
<g id="logo" class="st0">
</g>
<g id="Layer_1_1_">
	<g>
		<g>
			<g>
				<path class="st1" d="M61.1,6.3l-2,9.8h0.1c1.3-1.5,3.2-2.4,5.3-2.4c3.6,0,5.2,2.9,5.2,6c0,5.6-3.7,12-11.4,12
					c-4.1,0-6.1-1.8-6.1-4.8c0-1.1,0.2-2.1,0.4-3.1L56,6.3L61.1,6.3L61.1,6.3z M57.5,24.1c-0.1,0.6-0.2,1.2-0.2,1.9
					c0,1.2,0.8,1.9,1.9,1.9c2.9,0,5-4.1,5-7.1c0-1.7-0.7-3-2.3-3c-1.8,0-3.6,1.9-4.2,4.9L57.5,24.1z"/>
				<path class="st1" d="M70.5,31.3l1.9-10.3c0.5-2.6,0.7-5.5,0.9-7h4.4c-0.1,1.2-0.2,2.3-0.3,3.5h0.1c1.2-2.3,3.1-3.9,5.5-3.9
					c0.3,0,0.6,0,1,0l-1,4.9c-0.2,0-0.5,0-0.8,0c-3.2,0-4.8,2.9-5.4,6.3l-1.2,6.4C75.6,31.3,70.5,31.3,70.5,31.3z"/>
				<path class="st1" d="M97.3,30.3c-2,1-4.5,1.3-6.4,1.3c-4.9,0-7.5-2.8-7.5-7.3c0-5.3,3.8-10.7,10.1-10.7c3.5,0,6,1.9,6,5.1
					c0,4.4-4.3,6-11.2,5.8c0,0.5,0.2,1.3,0.5,1.8c0.7,0.9,1.8,1.3,3.3,1.3c1.9,0,3.5-0.4,4.8-1.1L97.3,30.3z M92.8,17.4
					c-2.4,0-3.7,1.9-4.1,3.6c3.9,0,5.9-0.5,5.9-2.1C94.7,18,94,17.4,92.8,17.4z"/>
				<path class="st1" d="M114.4,30.3c-2,1-4.5,1.3-6.4,1.3c-4.9,0-7.5-2.8-7.5-7.3c0-5.3,3.8-10.7,10.1-10.7c3.5,0,6,1.9,6,5.1
					c0,4.4-4.3,6-11.2,5.8c0,0.5,0.2,1.3,0.5,1.8c0.7,0.9,1.8,1.3,3.3,1.3c1.9,0,3.5-0.4,4.8-1.1L114.4,30.3z M109.9,17.4
					c-2.4,0-3.7,1.9-4.1,3.6c3.9,0,5.9-0.5,5.9-2.1C111.8,18,111.1,17.4,109.9,17.4z"/>
				<path class="st1" d="M116.4,28.2l5.6-6c1.4-1.5,2.6-2.5,4.2-4l0-0.1h-7.4l0.8-4.1h13.5l-0.6,3.2l-5.5,5.9
					c-1.5,1.6-2.6,2.7-4.2,4v0.1h8.1l-0.8,4.1h-14.3L116.4,28.2z"/>
				<path class="st1" d="M147,30.3c-2,1-4.5,1.3-6.4,1.3c-4.9,0-7.5-2.8-7.5-7.3c0-5.3,3.8-10.7,10.1-10.7c3.5,0,6,1.9,6,5.1
					c0,4.4-4.3,6-11.2,5.8c0,0.5,0.2,1.3,0.5,1.8c0.7,0.9,1.8,1.3,3.3,1.3c1.9,0,3.5-0.4,4.8-1.1L147,30.3z M142.5,17.4
					c-2.4,0-3.7,1.9-4.1,3.6c3.9,0,5.9-0.5,5.9-2.1C144.3,18,143.6,17.4,142.5,17.4z"/>
				<path class="st1" d="M153.7,31.3l3.3-17.2h2l-3.3,17.2H153.7z"/>
				<path class="st1" d="M163.5,16.4l-0.6,3.2h2.8l-0.3,1.6h-2.8l-1.1,5.7c-0.1,0.7-0.2,1.3-0.2,1.9c0,0.7,0.3,1.1,1.1,1.1
					c0.3,0,0.7,0,0.9-0.1l-0.1,1.6c-0.4,0.1-1,0.2-1.6,0.2c-1.8,0-2.5-1.1-2.5-2.3c0-0.7,0.1-1.4,0.2-2.2l1.2-5.9h-1.7l0.3-1.6h1.7
					l0.5-2.6L163.5,16.4z"/>
				<path class="st1" d="M177,14.1l-2.6,13.5c-0.2,1.2-0.4,2.6-0.5,3.7H172l0.3-2.3h0c-1.1,1.7-2.5,2.6-4.2,2.6
					c-2.3,0-3.5-1.9-3.5-4.3c0-4.2,3.1-8,7.3-8c0.8,0,1.6,0.2,2.1,0.4l1-5.6L177,14.1L177,14.1z M173.6,21.4
					c-0.4-0.3-1.1-0.5-1.9-0.5c-2.8,0-5,3-5,6.1c0,1.4,0.5,2.9,2.2,2.9c1.6,0,3.4-1.8,3.9-4.4L173.6,21.4z"/>
			</g>
			<g>
				<path class="st1" d="M17.3,14.9c-4.2,0.5-6.2,2.2-7.2,6.5c-0.7,2.8-3.1,4.5-5.8,4.1c-2.6-0.4-4.5-2.8-4.2-5.4
					c0.3-2.7,1.7-4.4,4.2-5.3c1.2-0.4,2.5-0.7,3.8-0.8C11.2,13.7,14.2,14.2,17.3,14.9z"/>
				<path class="st1" d="M25.7,24.5c0.5,0,0.9-0.1,1.4-0.1c2.6-0.4,4.2-2,5.2-4.3c0.3-0.7,0.5-1.5,0.7-2.3c0.7-2.7,3.3-4.3,6-3.8
					c2.7,0.6,4.3,3.1,3.9,5.8c-0.5,2.7-2.2,4.3-4.7,5c-2.9,0.9-5.9,0.7-8.9,0.3c-1.2-0.1-2.4-0.4-3.6-0.6
					C25.6,24.6,25.6,24.5,25.7,24.5z"/>
				<path class="st1" d="M23.5,14c-2.2-3.7-5.3-4.1-9-3.2C11.9,11.6,9.8,11,8.4,9C7.3,7.3,7.3,4.9,8.5,3.2c1.3-1.9,4-2.8,6.2-1.9
					c1.4,0.6,2.7,1.6,3.8,2.6C20.6,6.1,23.1,11.4,23.5,14z"/>
				<path class="st1" d="M20.3,26.1c2.3,3.3,5.4,3.6,8.8,2.7c2.8-0.7,5.1,0,6.3,2.1c1.1,1.9,0.8,4.4-0.6,6C33,38.7,30,39.2,27.8,38
					c-0.7-0.4-1.4-0.9-1.9-1.4C23,33.7,21.5,30,20.3,26.1z"/>
				<path class="st1" d="M27.3,18.2c1.8-3.8,0.5-6.8-2.3-9.5c-2.1-2-2.2-5.2-0.2-7.2c2-2,5.1-2,7.2,0c1.9,1.8,2.2,3.9,1.7,6.3
					c-0.7,3.2-2.5,5.8-4.5,8.2C28.6,16.8,27.9,17.5,27.3,18.2z"/>
				<path class="st1" d="M15.4,21.8c-1.4,3.9-0.9,6.4,1.9,9.2c1.9,1.9,2.4,4,1.4,6.1c-0.8,1.8-2.8,3-4.9,2.9
					c-2.2-0.1-4.3-1.9-4.9-4.2c-0.4-1.6-0.2-3.3,0.3-4.8C10.5,27.4,12.8,24.6,15.4,21.8z"/>
			</g>
		</g>
	</g>
</g>
<g id="Layer_3">
</g>
<g id="Layer_4">
</g>
</svg>
