<svg id="Layer_1" data-name="Layer 1" xmlns="http://www.w3.org/2000/svg" viewBox="0 0 176.94 40"><defs><style>.cls-1{fill:#111;}</style></defs><title>logo_hover</title><path class="cls-1" d="M61,6.28l-2,9.84h0.07a6.93,6.93,0,0,1,5.33-2.43c3.6,0,5.22,2.93,5.22,6,0,5.61-3.67,12-11.43,12-4.09,0-6.14-1.76-6.14-4.83a15.62,15.62,0,0,1,.39-3.14L55.93,6.28H61ZM57.48,24.05A9.94,9.94,0,0,0,57.3,26a1.79,1.79,0,0,0,1.94,1.9c2.93,0,5-4.09,5-7.12,0-1.66-.71-3-2.26-3-1.83,0-3.63,1.87-4.23,4.87Z"/><path class="cls-1" d="M70.49,31.32l1.94-10.26c0.49-2.61.7-5.5,0.88-7h4.41c-0.11,1.16-.21,2.33-0.32,3.53h0.11c1.2-2.29,3.14-3.91,5.5-3.91a8.54,8.54,0,0,1,1,0l-1,4.94a6,6,0,0,0-.81,0c-3.24,0-4.76,2.89-5.4,6.28l-1.2,6.42H70.49Z"/><path class="cls-1" d="M97.24,30.33a14.8,14.8,0,0,1-6.42,1.34c-4.94,0-7.48-2.79-7.48-7.26,0-5.25,3.81-10.72,10.05-10.72,3.49,0,6,1.94,6,5.15,0,4.41-4.27,6-11.18,5.82a3.4,3.4,0,0,0,.53,1.76,4,4,0,0,0,3.31,1.34,10.84,10.84,0,0,0,4.83-1.09ZM92.76,17.39a4.28,4.28,0,0,0-4.06,3.56c4,0,5.93-.53,5.93-2.08C94.63,18,93.92,17.39,92.76,17.39Z"/><path class="cls-1" d="M114.38,30.33A14.8,14.8,0,0,1,108,31.67c-4.94,0-7.48-2.79-7.48-7.26,0-5.25,3.81-10.72,10.05-10.72,3.49,0,6,1.94,6,5.15,0,4.41-4.27,6-11.18,5.82a3.4,3.4,0,0,0,.53,1.76,4,4,0,0,0,3.32,1.34A10.84,10.84,0,0,0,114,26.66ZM109.9,17.39a4.28,4.28,0,0,0-4.06,3.56c3.95,0,5.92-.53,5.92-2.08C111.77,18,111.07,17.39,109.9,17.39Z"/><path class="cls-1" d="M116.4,28.25l5.61-6a50.34,50.34,0,0,1,4.23-3.95l0-.11H118.9l0.78-4.09h13.47l-0.56,3.21-5.5,5.85a39.93,39.93,0,0,1-4.2,4v0.07H131l-0.81,4.13H115.83Z"/><path class="cls-1" d="M146.93,30.33a14.8,14.8,0,0,1-6.42,1.34c-4.94,0-7.48-2.79-7.48-7.26,0-5.25,3.81-10.72,10.05-10.72,3.49,0,6,1.94,6,5.15,0,4.41-4.27,6-11.18,5.82a3.4,3.4,0,0,0,.53,1.76,4,4,0,0,0,3.32,1.34,10.84,10.84,0,0,0,4.83-1.09Zm-4.48-12.94a4.28,4.28,0,0,0-4.06,3.56c3.95,0,5.92-.53,5.92-2.08C144.32,18,143.61,17.39,142.45,17.39Z"/><path class="cls-1" d="M153.69,31.3L157,14.07h2l-3.3,17.23h-2Z"/><path class="cls-1" d="M163.46,16.4l-0.61,3.15h2.82l-0.31,1.58h-2.82l-1.09,5.7a10.29,10.29,0,0,0-.22,1.89,1,1,0,0,0,1.12,1.12,5.58,5.58,0,0,0,.95-0.07l-0.1,1.58a4.69,4.69,0,0,1-1.55.22,2.18,2.18,0,0,1-2.48-2.28,10.93,10.93,0,0,1,.24-2.21l1.17-5.95h-1.7l0.31-1.58h1.67l0.51-2.65Z"/><path class="cls-1" d="M176.94,14.07l-2.57,13.52a29.78,29.78,0,0,0-.51,3.71H172L172.32,29h0a5,5,0,0,1-4.22,2.6c-2.28,0-3.52-1.87-3.52-4.27,0-4.17,3.11-8,7.26-8a5.33,5.33,0,0,1,2.09.41l1-5.63h2Zm-3.37,7.33a3.67,3.67,0,0,0-1.94-.49c-2.82,0-5,3-5,6.12,0,1.41.49,2.89,2.21,2.89,1.55,0,3.42-1.77,3.93-4.42Z"/><path class="cls-1" d="M17.23,14.92c-4.23.46-6.16,2.18-7.2,6.5a5.07,5.07,0,0,1-5.81,4.07A5,5,0,0,1,0,20.08a5.89,5.89,0,0,1,4.22-5.3A16.18,16.18,0,0,1,8.07,14,28.14,28.14,0,0,1,17.23,14.92Z"/><path class="cls-1" d="M25.62,24.49c0.47,0,.94-0.05,1.4-0.12a6.57,6.57,0,0,0,5.24-4.27,15.27,15.27,0,0,0,.69-2.29A5.07,5.07,0,0,1,39,14a5,5,0,0,1,3.86,5.83c-0.45,2.74-2.22,4.26-4.72,5a21,21,0,0,1-8.88.35c-1.21-.15-2.41-0.4-3.62-0.6Z"/><path class="cls-1" d="M23.47,14c-2.15-3.69-5.34-4.14-9-3.17C11.84,11.55,9.77,11,8.41,9a5,5,0,0,1,.07-5.74,5.43,5.43,0,0,1,6.23-1.94A11.63,11.63,0,0,1,18.5,3.94,24.13,24.13,0,0,1,23.47,14Z"/><path class="cls-1" d="M20.22,26.13c2.26,3.27,5.36,3.63,8.84,2.71,2.79-.74,5.05,0,6.28,2.1a5.09,5.09,0,0,1-.64,6A5.84,5.84,0,0,1,27.78,38a9,9,0,0,1-1.93-1.41C22.92,33.68,21.42,30,20.22,26.13Z"/><path class="cls-1" d="M27.29,18.19c1.79-3.84.48-6.81-2.29-9.46a5,5,0,0,1-.17-7.23,5.08,5.08,0,0,1,7.17,0,6.15,6.15,0,0,1,1.68,6.31A21.29,21.29,0,0,1,29.15,16C28.56,16.77,27.91,17.47,27.29,18.19Z"/><path class="cls-1" d="M15.35,21.84c-1.45,3.91-.94,6.39,1.94,9.17,1.91,1.85,2.39,3.95,1.4,6.11A5.09,5.09,0,0,1,13.82,40a5.78,5.78,0,0,1-4.94-4.17A7.93,7.93,0,0,1,9.22,31,26.76,26.76,0,0,1,15.35,21.84Z"/></svg>