<?xml version="1.0" encoding="utf-8"?>
<!-- Generator: Adobe Illustrator 19.2.1, SVG Export Plug-In . SVG Version: 6.00 Build 0)  -->
<svg version="1.1" id="Layer_1" xmlns="http://www.w3.org/2000/svg" xmlns:xlink="http://www.w3.org/1999/xlink" x="0px" y="0px"
	 viewBox="0 0 176.936 40" enable-background="new 0 0 176.936 40" xml:space="preserve">
<g id="logo" display="none">
</g>
<g id="Layer_1_1_">
	<g>
		<g>
			<g>
				<path fill="#111111" d="M61.039,6.278l-2.045,9.84h0.07c1.27-1.516,3.21-2.433,5.326-2.433c3.597,0,5.219,2.928,5.219,5.996
					c0,5.607-3.668,12.026-11.427,12.026c-4.091,0-6.136-1.763-6.136-4.832c0-1.058,0.177-2.116,0.388-3.139l3.491-17.457
					L61.039,6.278L61.039,6.278z M57.478,24.053c-0.071,0.564-0.212,1.164-0.177,1.905c0.036,1.234,0.776,1.904,1.94,1.904
					c2.927,0,5.043-4.091,5.043-7.124c0-1.658-0.706-2.963-2.257-2.963c-1.834,0-3.633,1.869-4.233,4.867L57.478,24.053z"/>
				<path fill="#111111" d="M70.492,31.318l1.94-10.263c0.494-2.61,0.705-5.502,0.882-6.983h4.408
					c-0.106,1.164-0.211,2.328-0.317,3.527h0.106c1.2-2.293,3.139-3.915,5.502-3.915c0.318,0,0.635,0,0.953,0.036l-0.987,4.937
					c-0.248-0.036-0.529-0.036-0.812-0.036c-3.244,0-4.761,2.892-5.396,6.278l-1.199,6.419
					C75.572,31.318,70.492,31.318,70.492,31.318z"/>
				<path fill="#111111" d="M97.236,30.33c-2.01,1.022-4.514,1.34-6.419,1.34c-4.937,0-7.476-2.786-7.476-7.265
					c0-5.255,3.808-10.721,10.051-10.721c3.491,0,5.995,1.94,5.995,5.149c0,4.409-4.267,5.996-11.18,5.819
					c0,0.494,0.177,1.27,0.529,1.763c0.669,0.882,1.834,1.34,3.315,1.34c1.869,0,3.457-0.423,4.832-1.093L97.236,30.33z
					 M92.757,17.387c-2.363,0-3.704,1.94-4.056,3.562c3.95,0.036,5.925-0.529,5.925-2.08C94.626,17.987,93.921,17.387,92.757,17.387
					z"/>
				<path fill="#111111" d="M114.384,30.33c-2.01,1.022-4.514,1.34-6.419,1.34c-4.938,0-7.477-2.786-7.477-7.265
					c0-5.255,3.809-10.721,10.051-10.721c3.491,0,5.995,1.94,5.995,5.149c0,4.409-4.267,5.996-11.179,5.819
					c0,0.494,0.176,1.27,0.528,1.763c0.67,0.882,1.834,1.34,3.316,1.34c1.869,0,3.456-0.423,4.831-1.093L114.384,30.33z
					 M109.904,17.387c-2.363,0-3.703,1.94-4.055,3.562c3.949,0.036,5.924-0.529,5.924-2.08
					C111.774,17.987,111.069,17.387,109.904,17.387z"/>
				<path fill="#111111" d="M116.395,28.249l5.607-6.031c1.446-1.517,2.574-2.539,4.232-3.95l0.036-0.106h-7.371l0.775-4.091h13.472
					l-0.565,3.209l-5.502,5.854c-1.517,1.623-2.645,2.716-4.196,3.985v0.071h8.076l-0.811,4.126h-14.319L116.395,28.249z"/>
				<path fill="#111111" d="M146.927,30.33c-2.01,1.022-4.514,1.34-6.419,1.34c-4.938,0-7.477-2.786-7.477-7.265
					c0-5.255,3.809-10.721,10.051-10.721c3.491,0,5.995,1.94,5.995,5.149c0,4.409-4.267,5.996-11.179,5.819
					c0,0.494,0.176,1.27,0.528,1.763c0.67,0.882,1.834,1.34,3.316,1.34c1.869,0,3.456-0.423,4.831-1.093L146.927,30.33z
					 M142.447,17.387c-2.363,0-3.703,1.94-4.055,3.562c3.949,0.036,5.924-0.529,5.924-2.08
					C144.316,17.987,143.611,17.387,142.447,17.387z"/>
				<path fill="#111111" d="M153.687,31.303l3.276-17.232h2.014l-3.301,17.232H153.687z"/>
				<path fill="#111111" d="M163.464,16.402l-0.607,3.155h2.815l-0.315,1.578h-2.815l-1.092,5.703
					c-0.121,0.655-0.218,1.262-0.218,1.893c0,0.704,0.34,1.117,1.116,1.117c0.34,0,0.679-0.025,0.947-0.073l-0.097,1.577
					c-0.364,0.146-0.972,0.219-1.553,0.219c-1.796,0-2.476-1.092-2.476-2.282c0-0.679,0.072-1.359,0.242-2.208l1.165-5.946h-1.698
					l0.315-1.578h1.675l0.51-2.645L163.464,16.402z"/>
				<path fill="#111111" d="M176.936,14.072l-2.573,13.518c-0.242,1.214-0.436,2.573-0.51,3.713h-1.845l0.316-2.33h-0.048
					c-1.068,1.675-2.549,2.597-4.223,2.597c-2.281,0-3.519-1.869-3.519-4.272c0-4.174,3.107-8.009,7.257-8.009
					c0.752,0,1.578,0.17,2.087,0.412l1.044-5.63L176.936,14.072L176.936,14.072z M173.561,21.401
					c-0.413-0.267-1.092-0.485-1.941-0.485c-2.815,0-4.999,2.985-4.999,6.116c0,1.408,0.486,2.888,2.209,2.888
					c1.553,0,3.422-1.771,3.931-4.417L173.561,21.401z"/>
			</g>
			<g>
				<path fill="#111111" d="M17.233,14.916c-4.23,0.458-6.161,2.178-7.199,6.495c-0.679,2.826-3.077,4.503-5.81,4.066
					c-2.581-0.413-4.459-2.779-4.2-5.392c0.263-2.653,1.736-4.448,4.222-5.3c1.222-0.419,2.535-0.66,3.826-0.771
					C11.168,13.746,14.217,14.175,17.233,14.916z"/>
				<path fill="#111111" d="M25.62,24.491c0.466-0.038,0.935-0.052,1.397-0.119c2.597-0.376,4.232-1.966,5.243-4.271
					c0.318-0.726,0.487-1.521,0.689-2.294c0.709-2.716,3.3-4.345,6.016-3.765c2.665,0.569,4.31,3.072,3.856,5.831
					c-0.45,2.74-2.219,4.257-4.722,5.028c-2.917,0.898-5.902,0.718-8.876,0.349c-1.213-0.15-2.413-0.397-3.619-0.601
					C25.609,24.597,25.614,24.544,25.62,24.491z"/>
				<path fill="#111111" d="M23.471,14.013c-2.152-3.692-5.336-4.137-8.966-3.169c-2.667,0.711-4.739,0.109-6.099-1.856
					c-1.179-1.704-1.15-4.051,0.072-5.742c1.342-1.857,3.984-2.844,6.232-1.937c1.396,0.563,2.721,1.55,3.787,2.634
					C20.598,6.079,23.105,11.4,23.471,14.013z"/>
				<path fill="#111111" d="M20.22,26.126c2.256,3.271,5.363,3.631,8.841,2.713c2.792-0.737,5.054-0.003,6.281,2.102
					c1.111,1.904,0.844,4.409-0.637,5.972c-1.734,1.831-4.692,2.312-6.926,1.066c-0.692-0.386-1.37-0.853-1.931-1.407
					C22.919,33.681,21.421,29.999,20.22,26.126z"/>
				<path fill="#111111" d="M27.29,18.19c1.793-3.841,0.479-6.812-2.288-9.463c-2.108-2.019-2.168-5.192-0.167-7.23
					c1.953-1.989,5.103-1.995,7.171-0.031c1.858,1.765,2.241,3.928,1.676,6.312c-0.748,3.158-2.549,5.757-4.53,8.245
					C28.559,16.769,27.912,17.469,27.29,18.19z"/>
				<path fill="#111111" d="M15.354,21.842c-1.447,3.913-0.942,6.387,1.937,9.173c1.913,1.851,2.393,3.95,1.398,6.109
					c-0.839,1.819-2.84,2.997-4.871,2.866c-2.197-0.142-4.343-1.931-4.939-4.168C8.443,34.185,8.649,32.565,9.216,31
					C10.504,27.447,12.789,24.552,15.354,21.842z"/>
			</g>
		</g>
	</g>
</g>
<g id="Layer_3">
</g>
<g id="Layer_4">
</g>
</svg>
